<?xml version="1.0" encoding="utf-8"?>
<!-- Generator: Adobe Illustrator 27.0.1, SVG Export Plug-In . SVG Version: 6.00 Build 0)  -->
<svg version="1.1" xmlns="http://www.w3.org/2000/svg" xmlns:xlink="http://www.w3.org/1999/xlink" x="0px" y="0px"
	 viewBox="0 0 1920 1080" style="enable-background:new 0 0 1920 1080;" xml:space="preserve">
<style type="text/css">
	.st0{fill:url(#SVGID_1_);}
	.st1{fill:url(#SVGID_00000057851783759341190350000005331354920993092790_);}
	.st2{fill:url(#SVGID_00000140695869723996989130000006142329500322538898_);}
	.st3{fill:url(#SVGID_00000084490569766794862840000001221606028028612999_);}
	.st4{fill:url(#SVGID_00000018953059609635686170000006751682248504151212_);}
	.st5{fill:url(#SVGID_00000086653378872012458100000003443751980096698521_);}
	.st6{fill:url(#SVGID_00000120516341011805268110000012430714766004946824_);}
	.st7{fill:none;stroke:#FFFFFF;stroke-width:0.9465;stroke-miterlimit:10;}
	.st8{fill:#EAECF9;}
	.st9{clip-path:url(#SVGID_00000090259375626508346560000004157386098905486732_);}
	.st10{fill:#50B7E0;}
	.st11{fill:#991161;}
	.st12{fill:#DA3095;}
	.st13{fill:none;stroke:#000000;stroke-width:1.1765;stroke-miterlimit:10;}
	.st14{clip-path:url(#SVGID_00000150065853803106916980000011930613904641852086_);fill:#50B7E0;}
	.st15{clip-path:url(#SVGID_00000107590902099790857590000008871335951040650648_);fill:#152245;}
	.st16{fill:#CDF239;}
	.st17{fill:#FFA486;}
	.st18{fill:#291561;}
	.st19{fill:#1D1D1B;}
	.st20{fill:none;stroke:#000000;stroke-width:0.9321;stroke-miterlimit:10;}
	.st21{fill:#3F2094;}
	.st22{fill:#FFFFFF;}
	.st23{fill:none;stroke:#3F2094;stroke-width:0.8768;stroke-miterlimit:10;}
	.st24{fill:#232C45;}
	.st25{clip-path:url(#SVGID_00000054975840413124658770000017860506709649288885_);fill:#152245;}
	.st26{fill:none;stroke:#000000;stroke-width:1.2302;stroke-miterlimit:10;}
	.st27{fill:#38758F;}
	.st28{fill:url(#SVGID_00000114072508054841695600000013317960632272192392_);}
	.st29{fill:url(#SVGID_00000075157735730437974260000002219448763259281565_);}
	.st30{fill:url(#SVGID_00000082346857965432008220000010078587140639255457_);}
	.st31{fill:url(#SVGID_00000113316934972730770770000003244645429112589186_);}
	
		.st32{fill:url(#SVGID_00000074422624980575541710000004624877572812368512_);stroke:#FFFFFF;stroke-width:0.884;stroke-linejoin:round;stroke-miterlimit:10;}
	
		.st33{fill:url(#SVGID_00000100384993774282965430000010335136017112022657_);stroke:#FFFFFF;stroke-width:0.884;stroke-linejoin:round;stroke-miterlimit:10;}
	
		.st34{fill:url(#SVGID_00000020378594046264202840000005646734502046789305_);stroke:#FFFFFF;stroke-width:0.884;stroke-linejoin:round;stroke-miterlimit:10;}
	.st35{fill:url(#SVGID_00000109021224930468144140000009605352152206709910_);}
	.st36{fill:url(#SVGID_00000085214188080455317680000016829769824972422034_);}
	.st37{fill:url(#SVGID_00000165931610204318056350000013181678236917155974_);}
	.st38{fill:url(#SVGID_00000113317734782392257040000010075216028807082131_);}
	
		.st39{fill:url(#SVGID_00000135664175997498403070000001326057414841617830_);stroke:#FFFFFF;stroke-width:0.6603;stroke-linejoin:round;stroke-miterlimit:10;}
	
		.st40{fill:url(#SVGID_00000108276844685267806050000014597838361396685454_);stroke:#FFFFFF;stroke-width:0.6603;stroke-linejoin:round;stroke-miterlimit:10;}
	
		.st41{fill:url(#SVGID_00000059274357645654221070000004336235054885638819_);stroke:#FFFFFF;stroke-width:0.6603;stroke-linejoin:round;stroke-miterlimit:10;}
	.st42{fill:url(#SVGID_00000002374305180630221010000013811231627405493910_);}
	.st43{fill:url(#SVGID_00000081636131085119369670000004950219098958667167_);}
	.st44{fill:url(#SVGID_00000103236929402365966200000009494117019347782784_);}
	.st45{fill:url(#SVGID_00000018955984721412406760000007913240340451623822_);}
	.st46{fill:url(#SVGID_00000142141633002061021390000012219850879643833237_);}
	.st47{fill:url(#SVGID_00000134223707657597998160000003452977960129720704_);}
	.st48{fill:url(#SVGID_00000136397422452332755460000002665445325114525057_);}
	.st49{fill:url(#SVGID_00000065791401774677106040000014851787129128755125_);}
	
		.st50{fill:url(#SVGID_00000157283847004342510600000018031067465034020793_);stroke:#FFFFFF;stroke-width:0.9594;stroke-miterlimit:10;}
	
		.st51{fill:url(#SVGID_00000041297173535001815300000015859394483474509698_);stroke:#FFFFFF;stroke-width:0.9594;stroke-miterlimit:10;}
	
		.st52{fill:url(#SVGID_00000066495375107445433790000010945785607025656511_);stroke:#FFFFFF;stroke-width:0.9594;stroke-miterlimit:10;}
	.st53{clip-path:url(#SVGID_00000019642056090380838990000004609252632097771176_);}
	
		.st54{fill:url(#SVGID_00000045607788404837676650000009415105173546883495_);stroke:#FFFFFF;stroke-width:0.7933;stroke-linecap:round;stroke-linejoin:round;stroke-miterlimit:10;}
	
		.st55{fill:url(#SVGID_00000018205862677094891540000017335885413650557876_);stroke:#FFFFFF;stroke-width:0.7933;stroke-linecap:round;stroke-linejoin:round;stroke-miterlimit:10;}
	
		.st56{fill:url(#SVGID_00000026853278374251331350000014285122969020253850_);stroke:#FFFFFF;stroke-width:0.7933;stroke-linecap:round;stroke-linejoin:round;stroke-miterlimit:10;}
	.st57{fill:none;stroke:#FFFFFF;stroke-width:1.0615;stroke-miterlimit:10;}
	
		.st58{fill:url(#SVGID_00000155108493530993512850000017216743007190816922_);stroke:#FFFFFF;stroke-width:0.7217;stroke-miterlimit:10;}
	
		.st59{fill:url(#SVGID_00000065773322833815959420000004475231594176588974_);stroke:#FFFFFF;stroke-width:0.881;stroke-miterlimit:10;}
	
		.st60{fill:url(#SVGID_00000023260829376868477750000005817869704488245164_);stroke:#FFFFFF;stroke-width:0.7217;stroke-miterlimit:10;}
	
		.st61{fill:url(#SVGID_00000171707996174271841310000015608655014648189861_);stroke:#FFFFFF;stroke-width:0.7217;stroke-miterlimit:10;}
	
		.st62{fill:url(#SVGID_00000175281275909048537210000003480503260959460483_);stroke:#FFFFFF;stroke-width:0.7217;stroke-miterlimit:10;}
	
		.st63{fill:url(#SVGID_00000062181778733210051390000016319257767258515379_);stroke:#FFFFFF;stroke-width:0.7217;stroke-miterlimit:10;}
	.st64{fill:none;stroke:#FFFFFF;stroke-width:1.9189;stroke-linecap:round;stroke-miterlimit:10;}
</style>
<g id="BACKGROUND">
	<g>
		<rect width="1920" height="1080"/>
	</g>
</g>
<g id="OBJECTS">
	<g>
		<linearGradient id="SVGID_1_" gradientUnits="userSpaceOnUse" x1="701.2619" y1="101.7673" x2="1218.3594" y2="531.8908">
			<stop  offset="0.1215" style="stop-color:#F0BDF5"/>
			<stop  offset="0.2281" style="stop-color:#EEBAF4;stop-opacity:0.7795"/>
			<stop  offset="0.3041" style="stop-color:#EAB1F1;stop-opacity:0.6225"/>
			<stop  offset="0.3705" style="stop-color:#E1A1EB;stop-opacity:0.4851"/>
			<stop  offset="0.4314" style="stop-color:#D68BE3;stop-opacity:0.359"/>
			<stop  offset="0.4886" style="stop-color:#C76ED9;stop-opacity:0.2406"/>
			<stop  offset="0.5431" style="stop-color:#B44BCC;stop-opacity:0.128"/>
			<stop  offset="0.5944" style="stop-color:#9F22BD;stop-opacity:0.0219"/>
			<stop  offset="0.605" style="stop-color:#9A19BA;stop-opacity:0"/>
		</linearGradient>
		<path class="st0" d="M1071.25,317.27H833.14c0,0,12.13-5.11,18.85-14.15c12.32-16.56,26.22-40.54,53.38-29.53
			c9.72,3.94,17.69,18.71,29.1,18.15c1.63-0.08,3.18-0.78,4.54-1.68c9.03-5.96,14.02-14.78,26.47-13.8
			c5.64,0.45,10.82,3.3,15.42,6.59c7.48,5.33,14.22,11.35,23.27,13.86c9.6,2.66,19.39,0.73,28.15-3.71
			c3.72-1.89,7.24-4.69,11.41-4.88c7.5-0.33,12.29,7.45,17.11,13.19c6.07,7.22,17.5,13.87,26.7,15.95
			C1076.6,317.27,1076.6,317.27,1071.25,317.27z"/>
		
			<linearGradient id="SVGID_00000105403022737800329050000018307401078811085208_" gradientUnits="userSpaceOnUse" x1="865.1835" y1="584.9196" x2="873.9731" y2="696.7869">
			<stop  offset="0" style="stop-color:#E964F5"/>
			<stop  offset="0.9944" style="stop-color:#9A19BA;stop-opacity:0"/>
		</linearGradient>
		<path style="fill:url(#SVGID_00000105403022737800329050000018307401078811085208_);" d="M922.31,647.75H810.27
			c0,0,5.71-2.4,8.87-6.66c5.8-7.79,12.34-19.07,25.12-13.89c4.57,1.85,8.32,8.8,13.69,8.54c0.77-0.04,1.49-0.37,2.14-0.79
			c4.25-2.81,6.6-6.95,12.45-6.49c2.66,0.21,5.09,1.55,7.26,3.1c3.52,2.51,6.69,5.34,10.95,6.52c4.52,1.25,9.12,0.35,13.24-1.74
			c1.75-0.89,3.4-2.21,5.37-2.29c3.53-0.15,5.78,3.5,8.05,6.21c2.85,3.4,8.23,6.53,12.56,7.5
			C924.82,647.75,924.82,647.75,922.31,647.75z"/>
		
			<linearGradient id="SVGID_00000109731207182536289590000013320704021238919338_" gradientUnits="userSpaceOnUse" x1="1674.343" y1="738.376" x2="1571.5829" y2="828.1961">
			<stop  offset="0" style="stop-color:#E964F5"/>
			<stop  offset="0.9944" style="stop-color:#9A19BA;stop-opacity:0"/>
		</linearGradient>
		<path style="fill:url(#SVGID_00000109731207182536289590000013320704021238919338_);" d="M1662.3,787.73h-93.26
			c0,0,4.75-2,7.38-5.54c4.83-6.49,10.27-15.88,20.91-11.57c3.81,1.54,6.93,7.33,11.4,7.11c0.64-0.03,1.24-0.3,1.78-0.66
			c3.54-2.34,5.49-5.79,10.37-5.4c2.21,0.17,4.24,1.29,6.04,2.58c2.93,2.09,5.57,4.45,9.12,5.43c3.76,1.04,7.59,0.29,11.02-1.45
			c1.46-0.74,2.83-1.84,4.47-1.91c2.94-0.13,4.81,2.92,6.7,5.17c2.38,2.83,6.85,5.43,10.46,6.25
			C1664.39,787.73,1664.39,787.73,1662.3,787.73z"/>
		<g>
			
				<linearGradient id="SVGID_00000017502616501117162320000003627892584242734484_" gradientUnits="userSpaceOnUse" x1="968.392" y1="-95.1955" x2="958.6098" y2="-65.4041" gradientTransform="matrix(0.9807 0.1958 -0.1958 0.9807 -85.3756 711.8241)">
				<stop  offset="0" style="stop-color:#C422C6;stop-opacity:0.1"/>
				<stop  offset="0.1252" style="stop-color:#CC3FCF;stop-opacity:0.2127"/>
				<stop  offset="0.4326" style="stop-color:#DF80E2;stop-opacity:0.4894"/>
				<stop  offset="0.6914" style="stop-color:#EDB0F0;stop-opacity:0.7223"/>
				<stop  offset="0.8883" style="stop-color:#F6CEF9;stop-opacity:0.8994"/>
				<stop  offset="1" style="stop-color:#F9D9FC"/>
			</linearGradient>
			<polygon style="fill:url(#SVGID_00000017502616501117162320000003627892584242734484_);" points="880.05,838.41 865.53,825.96 
				869.29,807.11 883.81,819.56 			"/>
			
				<linearGradient id="SVGID_00000129926491740732372960000005641828874069480383_" gradientUnits="userSpaceOnUse" x1="967.1282" y1="-79.5523" x2="1000.5055" y2="-78.5609" gradientTransform="matrix(0.9807 0.1958 -0.1958 0.9807 -85.3756 711.8241)">
				<stop  offset="0" style="stop-color:#C422C6;stop-opacity:0.1"/>
				<stop  offset="0.1252" style="stop-color:#CC3FCF;stop-opacity:0.2127"/>
				<stop  offset="0.4326" style="stop-color:#DF80E2;stop-opacity:0.4894"/>
				<stop  offset="0.6914" style="stop-color:#EDB0F0;stop-opacity:0.7223"/>
				<stop  offset="0.8883" style="stop-color:#F6CEF9;stop-opacity:0.8994"/>
				<stop  offset="1" style="stop-color:#F9D9FC"/>
			</linearGradient>
			<polygon style="fill:url(#SVGID_00000129926491740732372960000005641828874069480383_);" points="880.05,838.41 898.23,832.49 
				901.99,813.63 883.81,819.56 			"/>
			
				<linearGradient id="SVGID_00000075150999956826976960000007108529708173957783_" gradientUnits="userSpaceOnUse" x1="970.9396" y1="-104.843" x2="972.2684" y2="-76.2721" gradientTransform="matrix(0.9807 0.1958 -0.1958 0.9807 -85.3756 711.8241)">
				<stop  offset="0" style="stop-color:#C422C6;stop-opacity:0.1"/>
				<stop  offset="0.1252" style="stop-color:#CC3FCF;stop-opacity:0.2127"/>
				<stop  offset="0.4326" style="stop-color:#DF80E2;stop-opacity:0.4894"/>
				<stop  offset="0.6914" style="stop-color:#EDB0F0;stop-opacity:0.7223"/>
				<stop  offset="0.8883" style="stop-color:#F6CEF9;stop-opacity:0.8994"/>
				<stop  offset="1" style="stop-color:#F9D9FC"/>
			</linearGradient>
			<polygon style="fill:url(#SVGID_00000075150999956826976960000007108529708173957783_);" points="883.8,819.59 902.01,813.61 
				887.48,801.15 869.28,807.08 			"/>
		</g>
		<g>
			
				<linearGradient id="SVGID_00000096045638305823026510000013756092201172113055_" gradientUnits="userSpaceOnUse" x1="1268.7244" y1="-885.4774" x2="1649.8347" y2="-390.5831" gradientTransform="matrix(0.9238 0.3829 -0.3829 0.9238 -306.9428 542.295)">
				<stop  offset="5.464480e-03" style="stop-color:#E9A1EC;stop-opacity:0.7"/>
				<stop  offset="9.052501e-03" style="stop-color:#E89FEB;stop-opacity:0.6925"/>
				<stop  offset="0.0879" style="stop-color:#DA6FDD;stop-opacity:0.5274"/>
				<stop  offset="0.1628" style="stop-color:#CF49D2;stop-opacity:0.3706"/>
				<stop  offset="0.2319" style="stop-color:#C72ECA;stop-opacity:0.2259"/>
				<stop  offset="0.293" style="stop-color:#C31EC5;stop-opacity:0.098"/>
				<stop  offset="0.3398" style="stop-color:#C118C3;stop-opacity:0"/>
				<stop  offset="0.5" style="stop-color:#C320C5;stop-opacity:0.0546"/>
				<stop  offset="0.6267" style="stop-color:#C422C6;stop-opacity:0.1"/>
				<stop  offset="0.8314" style="stop-color:#DF83E3;stop-opacity:0.5935"/>
				<stop  offset="1" style="stop-color:#F7D6FC"/>
			</linearGradient>
			<circle style="fill:url(#SVGID_00000096045638305823026510000013756092201172113055_);" cx="1296.67" cy="553.29" r="270.25"/>
			<path class="st7" d="M1490.69,356.97c55.5-19.86,95.86-22.59,109.45-3.64c29.59,41.26-78.82,169.66-242.13,286.79
				s-319.7,178.64-349.29,137.38c-13.9-19.39,2.66-58.01,41.06-105.66"/>
			<path class="st7" d="M1517.31,396.42c54.64-19.32,94.33-21.81,107.79-3.05c29.59,41.26-78.82,169.66-242.13,286.79
				c-163.32,117.13-319.7,178.64-349.29,137.38c-13.64-19.02,2.04-56.54,38.89-102.95c0.72-0.9,2.73-3.57,3.46-4.47"/>
		</g>
	</g>
	<g>
		<g>
			<g>
				<g>
					<g>
						<g>
							<path class="st8" d="M1661.85,635.62c1.76,1.34,1.93,5.24,1.79,7.03c-0.64,8.27-6.98,17.05-12.84,22.59
								c-3.14,2.97-6.83,5.34-9.7,8.57c-6.33,7.14-8.36,18.15-16.62,22.93c-2.23,1.29-4.89,2.01-7.42,1.52
								c-4-0.77-8.28-4.99-10.03-8.58c-0.97-1.99-0.25-2.41-2.24-4.44c-1.83-1.87-4.08-3.45-6.17-5.02
								c-8.23-6.19-17.42-11.49-23.8-19.78c-0.36-0.46-0.71-0.97-0.78-1.55c-0.07-0.71,0.3-1.38,0.68-1.99
								c3.9-6.4,8.41-12.43,13.43-17.99c0.42-0.47,0.87-0.95,1.44-1.22c1.93-0.9,3.95,0.91,5.34,2.52
								c5.76,6.65,12.18,12.73,19.13,18.12c10.71-2.6,20.44-8.22,29.72-14.16c4.63-2.96,9.81-6.82,15.01-8.68
								c0.59-0.21,1.22-0.39,1.85-0.34C1661.12,635.2,1661.51,635.36,1661.85,635.62z"/>
							<g>
								<defs>
									<path id="SVGID_00000020384205990546403250000001447482540423117203_" d="M1661.85,635.62c1.76,1.34,1.93,5.24,1.79,7.03
										c-0.64,8.27-6.98,17.05-12.84,22.59c-3.14,2.97-6.83,5.34-9.7,8.57c-6.33,7.14-8.36,18.15-16.62,22.93
										c-2.23,1.29-4.89,2.01-7.42,1.52c-4-0.77-8.28-4.99-10.03-8.58c-0.97-1.99-0.25-2.41-2.24-4.44
										c-1.83-1.87-4.08-3.45-6.17-5.02c-8.23-6.19-17.42-11.49-23.8-19.78c-0.36-0.46-0.71-0.97-0.78-1.55
										c-0.07-0.71,0.3-1.38,0.68-1.99c3.9-6.4,8.41-12.43,13.43-17.99c0.42-0.47,0.87-0.95,1.44-1.22
										c1.93-0.9,3.95,0.91,5.34,2.52c5.76,6.65,12.18,12.73,19.13,18.12c10.71-2.6,20.44-8.22,29.72-14.16
										c4.63-2.96,9.81-6.82,15.01-8.68c0.59-0.21,1.22-0.39,1.85-0.34C1661.12,635.2,1661.51,635.36,1661.85,635.62z"/>
								</defs>
								<use xlink:href="#SVGID_00000020384205990546403250000001447482540423117203_"  style="overflow:visible;fill:#FFFFFF;"/>
								<clipPath id="SVGID_00000118355944306005671040000007722183124229820811_">
									<use xlink:href="#SVGID_00000020384205990546403250000001447482540423117203_"  style="overflow:visible;"/>
								</clipPath>
								<g style="clip-path:url(#SVGID_00000118355944306005671040000007722183124229820811_);">
									<g>
										<path class="st10" d="M1620.33,680.85c6.32-1.38,13.58,1.27,16.72,6.92c0.15,0.28,0.3,0.57,0.31,0.88
											c0.01,0.47-0.28,0.89-0.57,1.27c-3.99,5.37-8.34,11-14.61,13.33c-2.95,1.1-6.2,1.37-9.29,0.8
											c-2.14-0.4-4.26-1.25-5.79-2.8C1599.62,693.6,1613.47,682.34,1620.33,680.85z"/>
										<path class="st10" d="M1652.96,666.29c-0.67-0.02-1.36-0.22-2.05-0.63c-1.88-1.11-2.96-3.19-3.64-5.26
											c-1.93-5.93-1.21-12.49,0.97-18.33c1.19-3.18,2.95-6.48,5.75-8.53c2.16-1.59,6.38-1.67,8.74-0.38
											c1.35,0.74,2.29,2.08,2.91,3.5c2.44,5.65,0.19,12.14-2.24,17.8C1661.89,657.94,1657.74,666.46,1652.96,666.29z"/>
									</g>
								</g>
							</g>
						</g>
						<path class="st11" d="M1605.12,653.22l-14.25,18.91c-1.87,2.48-5.32,3.14-7.97,1.52l-19.03-11.6l27.08-30.41l13.62,13.67
							C1606.7,647.46,1606.93,650.82,1605.12,653.22z"/>
					</g>
					<path class="st12" d="M1596.04,628.29c-1.16-9.73-10.24-16.24-18.44-21.61c-33.03-21.62-42.7-29.13-73.44-53.88l-0.03-0.01
						c-1.49-1.84-3.2-3.52-5.04-5c-13-10.5-35.8-14.29-52.32-16.83c-29.36-4.52-71.17-10.5-103.44-12.93
						c-14.45-1.09-47.31-4.81-60.63,0.88c-8.66,3.7-12.37,11.36-14.27,20.11c-1.99,9.16-5.44,17.27-6.96,26.66
						c-0.76,4.71-1.52,9.58-0.33,14.2c1.47,5.73,5.84,10.39,10.92,13.43c5.08,3.04,10.87,4.66,16.61,6.11
						c6.75,1.7,13.54,3.2,20.37,4.52c17.07,3.3,35.81,7.33,53.25,6.26c14.9-0.92,28.69,4.88,43.89,2.41
						c6.4-1.04,13.01-2.95,19.24-1.14c5.28,1.53,9.57,5.55,14.86,7.04c7.02,1.97,13.36-0.57,20.21-1.1
						c6.89-0.53,13.05,3.32,17.77,8.2c5.09,5.27,8.89,12.58,15.9,14.72c6.2,1.9,12.85-0.99,19.32-0.59
						c7.92,0.5,14.67,5.82,20.25,11.46c5.58,5.64,10.77,11.98,17.86,15.56c15.75,7.95,27.39-5.81,36-17.08
						C1592.38,643.42,1596.98,636.1,1596.04,628.29z"/>
				</g>
				<path class="st13" d="M1474.88,600.74c-3.24,1.35-6.67,2.23-10.16,2.6c-1.8,0.19-3.89,0.14-5.07-1.24
					c-1.15-1.35-0.9-3.38-0.41-5.09c1.21-4.23,3.46-8.07,5.84-11.77c4.69-7.27,9.95-14.16,15.2-21.03"/>
			</g>
			<g>
				<g>
					<g>
						<path class="st8" d="M1470.98,832.8c1.81,1.9,3.66,3.75,5.64,5.51c1.29,1.14,2.62,2.26,3.66,3.64
							c1.32,1.75,2.11,3.84,2.99,5.85c3.2,7.33,8.16,14.24,14.88,18.71c6.72,4.48,15.9,8.47,24.05,7.99
							c3.12-0.18,6.61-1.25,7.9-4.09c0.67-1.5,0.6-3.22,0.35-4.84c-1.15-7.46-5.56-14.04-10.73-19.54
							c-5.16-5.5-11.15-10.17-16.41-15.58c-6.5-6.68-11.85-14.47-15.77-22.93c-1.38-2.98-2.61-6.09-4.76-8.56s-5.49-4.23-8.68-3.49
							c-2.92,0.68-5.01,3.2-6.66,5.7c-2.86,4.35-7.57,11.76-7.43,17.2c0.1,3.95,3.8,6.76,6.25,9.39
							C1467.85,829.44,1469.4,831.14,1470.98,832.8z"/>
						<g>
							<defs>
								<path id="SVGID_00000097468208459673056570000011468171939946408608_" d="M1470.98,832.8c1.81,1.9,3.66,3.75,5.64,5.51
									c1.29,1.14,2.62,2.26,3.66,3.64c1.32,1.75,2.11,3.84,2.99,5.85c3.2,7.33,8.16,14.24,14.88,18.71
									c6.72,4.48,15.9,8.47,24.05,7.99c3.12-0.18,6.61-1.25,7.9-4.09c0.67-1.5,0.6-3.22,0.35-4.84
									c-1.15-7.46-5.56-14.04-10.73-19.54c-5.16-5.5-11.15-10.17-16.41-15.58c-6.5-6.68-11.85-14.47-15.77-22.93
									c-1.38-2.98-2.61-6.09-4.76-8.56s-5.49-4.23-8.68-3.49c-2.92,0.68-5.01,3.2-6.66,5.7c-2.86,4.35-7.57,11.76-7.43,17.2
									c0.1,3.95,3.8,6.76,6.25,9.39C1467.85,829.44,1469.4,831.14,1470.98,832.8z"/>
							</defs>
							<use xlink:href="#SVGID_00000097468208459673056570000011468171939946408608_"  style="overflow:visible;fill:#FFFFFF;"/>
							<clipPath id="SVGID_00000135648710249123821580000008038460263866918042_">
								<use xlink:href="#SVGID_00000097468208459673056570000011468171939946408608_"  style="overflow:visible;"/>
							</clipPath>
							<path style="clip-path:url(#SVGID_00000135648710249123821580000008038460263866918042_);fill:#50B7E0;" d="M1516.92,862.21
								c3.79-0.91,6.81-3.68,9.63-6.36c0.47-0.45,0.98-0.92,1.61-1.05c1.02-0.22,2,0.48,2.71,1.24c1.98,2.14,2.93,5.05,3.29,7.93
								c0.23,1.78,0.24,3.66-0.49,5.3c-0.73,1.64-2.12,2.89-3.54,3.98c-6.93,5.29-23.92,11.8-30.97,3.23
								c-2.84-3.46-1.33-7.83,1.82-10.48C1505.83,861.9,1511.31,863.56,1516.92,862.21z"/>
						</g>
					</g>
					<path class="st11" d="M1454.85,824.35c1.39,1.04,2.84,2.01,4.27,2.96c2.48,1.65,5.13,3.35,8.11,3.45
						c2.43,0.08,4.75-0.93,6.91-2.03c5.62-2.86,10.84-6.5,15.46-10.78c1.21-1.12,2.44-2.38,2.8-4c0.41-1.79-0.34-3.63-1.11-5.3
						c-1.55-3.36-3.25-6.66-5.1-9.86c-2.12-3.66-3.64-2.6-6.86-1.52c-3.6,1.21-7.15,2.43-10.62,3.99
						c-6.54,2.95-12.82,6.78-18.37,11.16c-1.05,0.83-2.62,1.47-2.64,3.01c-0.01,0.92,0.43,1.78,0.93,2.55
						C1450.23,820.52,1452.44,822.54,1454.85,824.35z"/>
					<path class="st12" d="M1478.49,776.44c-19.1-34.55-36.49-70.04-52.1-106.29l-1.61-1.96c-3.73-8.25-9.49-15.77-15.96-22.19
						c-10.84-10.75-23.74-19.2-35.14-29.36c-6.23-5.54-11.99-11.58-17.75-17.61c-7.63-7.98-15.01-17.94-23.76-24.67
						c-5.72-4.4-11.26-8.19-16.66-13.18c-10.4-9.62-22.82-22.79-36.92-26.66c-20.05-5.5-28.89,16.4-47.26,26.14
						c-8.64,4.59-18.18,7.99-23.83,16.44c-6.25,9.36-3.42,24.89-0.21,35.01c3.19,10.08,9.42,19.41,18.34,25.08
						c6.24,3.96,13.56,6.04,19.59,10.32c11.37,8.06,16.7,22.86,28.47,30.32c11.65,7.38,26.64,5.83,38.36,12.9
						c5.15,3.11,8.2,8.88,12.68,12.98c5.38,4.93,11.07,9.45,18.04,11.89c8,2.8,17.18,4.07,22.85,10.37
						c7.09,7.88,5.77,20.43,11.51,29.34c4.12,6.39,11.27,10.04,17.02,15c12.14,10.48,12.76,25.34,20.81,38.17
						c7.51,11.97,23.01,17.97,36.7,14.97c12.68-2.78,27.74-5.59,33.02-19.31C1488.21,795.01,1483.23,785.01,1478.49,776.44z"/>
				</g>
				<g>
					<path class="st13" d="M1253.23,636.82c0.41-1.04,25.23-18.97-9.88-57.23"/>
					<path class="st13" d="M1366.78,610.12c-10.52-9.27-21.62-13.78-42.02-31.24"/>
					<path class="st13" d="M1391.69,711.69c13.64-6.04,24.83-17.43,30.62-31.17"/>
				</g>
			</g>
			<g>
				<defs>
					<path id="SVGID_00000145753536993108142190000004012171385124485275_" d="M1596.04,628.29c-1.16-9.73-10.24-16.24-18.44-21.61
						c-33.03-21.62-42.7-29.13-73.44-53.88l-0.03-0.01c-1.49-1.84-3.2-3.52-5.04-5c-13-10.5-35.8-14.29-52.32-16.83
						c-29.36-4.52-71.17-10.5-103.44-12.93c-14.45-1.09-47.31-4.81-60.63,0.88c-6.89,2.94-10.64,8.39-12.84,14.9
						c-14.35,1.81-23.06,18.64-38.53,26.86c-8.64,4.59-18.18,7.99-23.83,16.44c-6.25,9.36-3.42,24.89-0.21,35.01
						c3.19,10.08,9.42,19.41,18.34,25.08c6.24,3.96,13.56,6.04,19.59,10.32c11.37,8.06,16.7,22.86,28.47,30.32
						c11.65,7.38,26.64,5.83,38.36,12.9c5.15,3.11,8.2,8.88,12.68,12.98c5.38,4.93,11.07,9.45,18.04,11.89
						c8,2.8,17.18,4.07,22.85,10.37c7.09,7.88,5.77,20.43,11.51,29.34c4.12,6.39,11.27,10.04,17.02,15
						c12.14,10.48,12.76,25.34,20.81,38.17c7.51,11.97,23.01,17.97,36.7,14.97c12.68-2.78,27.74-5.59,33.02-19.31
						c3.52-9.15-1.47-19.15-6.21-27.72c-19.1-34.55-36.49-70.04-52.1-106.29l-1.61-1.96c-3.73-8.25-9.49-15.77-15.96-22.19
						c-10.84-10.75-23.74-19.2-35.14-29.36c-2.36-2.1-4.65-4.29-6.9-6.51c13.21,0.26,25.75,4.7,39.41,2.48
						c6.4-1.04,13.01-2.95,19.24-1.15c5.28,1.53,9.57,5.55,14.86,7.04c7.02,1.97,13.36-0.57,20.21-1.1
						c6.89-0.53,13.05,3.32,17.77,8.2c5.09,5.27,8.89,12.58,15.9,14.72c6.2,1.9,12.85-0.99,19.32-0.59
						c7.92,0.5,14.67,5.82,20.25,11.46c5.58,5.64,10.77,11.98,17.86,15.56c15.75,7.95,27.39-5.81,36-17.08
						C1592.38,643.42,1596.98,636.1,1596.04,628.29z"/>
				</defs>
				<clipPath id="SVGID_00000003784588041002419890000001557118807236709778_">
					<use xlink:href="#SVGID_00000145753536993108142190000004012171385124485275_"  style="overflow:visible;"/>
				</clipPath>
				<path style="clip-path:url(#SVGID_00000003784588041002419890000001557118807236709778_);fill:#152245;" d="M1304.88,514.71
					c0,0-17.64,101.43-104.84,123.49l-0.35-23.93L1304.88,514.71z"/>
			</g>
		</g>
		<g>
			<g>
				<g>
					<g>
						<g>
							<path class="st10" d="M1178.61,387.99c26.21,19.83,46.65,47.19,58.25,77.94c0.38,1.02,0.79,2.09,1.61,2.8
								c1.4,1.23,3.49,1.04,5.35,1.14c7.73,0.44,11.96,7.63,13.28,14.36c5.32-0.23,10.64-1.48,15.99-1.18
								c4.42,0.25,7.8,2.38,11.85,3.34c8.2,1.93,13.5,6.32,17.26,14.93c3.47,7.94,3.68,14.86,0.37,22.86
								c-7.15,17.24-20.75,33.31-32.79,47.39c-11.75,13.75-24.93,27.67-39.33,38.74c-13.34,10.25-29.56,12.6-44.54,3.77
								c-27.04-15.93-44.89-49.45-57.44-77.11c-12-26.45-23.47-53.81-29.29-82.25c-3.48-17.02-11.01-41.24,5.69-53.78
								c2.49-1.87,5.34-3.32,7.46-5.61c0.27-0.29,0.98-3.04,1.22-2.73c0.24,0.31,0.73,0.14,1.08-0.05
								C1135.01,381.14,1159.99,373.89,1178.61,387.99z"/>
							<path class="st10" d="M1116.46,370.87c-7.78,2.9-15.37,7.43-19.58,14.59c-2.28,3.89-3.45,8.41-3.33,12.92
								c0.07,2.83,0.74,5.82,2.72,7.84c2.04,2.08,5.1,2.77,8,3.08c7.12,0.77,14.64-0.83,21.49,1.12c7.66,2.18,15.41,4.07,23.21,5.67
								c4.91,1.01,9.92,1.91,14.91,1.46c2.26-0.2,4.53-0.69,6.48-1.85c2-1.2,3.53-3.03,4.93-4.88c5.3-7,9.42-14.88,12.15-23.22
								c1-3.05,1.81-6.43,0.64-9.42c-1.37-3.53-5.07-5.54-7.34-8.58c-1.58-2.12-2.47-4.75-4.37-6.59
								c-3.37-3.28-8.72-3.08-13.38-2.47c-8.28,1.08-16.49,2.78-24.52,5.06c-3.35,0.96-6.08,2.02-9.56,2.3
								C1124.65,368.24,1120.47,369.37,1116.46,370.87z"/>
							
								<ellipse transform="matrix(0.6354 -0.7722 0.7722 0.6354 -51.168 1023.2628)" class="st10" cx="1058.06" cy="565.82" rx="31.8" ry="31.8"/>
							<path class="st10" d="M1129.53,467.55c-2.44,9.6-5.6,19.01-9.13,28.26c-0.99,2.58-6.9,22.33-9.51,22.59
								c-0.51,0.05,0.14-0.87,0.44-0.46s-0.06,0.97-0.41,1.34c-7.51,7.96-15.18,15.77-23.02,23.41
								c-8.42,8.22-17.03,16.25-25.81,24.09c-4.39,3.92-8.82,7.79-13.3,11.61c-2.24,1.91-4.49,3.81-6.75,5.69
								c-1.22,1.01-3.36,4.39-5.09,4.13c-0.57-0.08-1.04-0.46-1.47-0.84c-4.25-3.71-7.07-8.85-8.71-14.24
								c-4.49-14.77-2.54-35.37,4.71-48.97c4.45-8.36,11.63-15.12,15.42-23.8c4.81-11.01,3.68-23.96,8.83-34.81
								c3.82-8.04,10.72-14.16,15.42-21.72c4.61-7.41,6.99-16.06,11.76-23.37c14.09-21.63,40.74-12.35,48.59,9.05
								c4.46,12.16,1.34,24.74-1.66,36.85C1129.73,466.75,1129.63,467.15,1129.53,467.55z"/>
							<path class="st10" d="M1139.45,502.53c2.08-0.34,4.18-0.48,6.28-0.25c13.78,1.47,20.24,15.49,20.01,28
								c-0.35,18.62-14.82,27.91-29.26,36.51c-7.54,4.49-16.54,8.7-24.08,13.19c-4.76,2.84-9.53,5.68-14.56,8.02
								c-6.85,3.18-16.02,6.64-23.37,8.21c-6.1,1.3-10.94,1.97-20.24,0.37c-7.05-1.21-1.56-14.46,0.19-21.41
								c1.44-5.73,3.77-11.19,6.31-16.52c5.97-12.52,13.27-24.69,24.25-33.32c4.98-3.92,8.9-8.13,14.78-10.93
								c5.58-2.66,11.57-4.38,17.51-6.03c4.98-1.38,9.97-2.76,14.95-4.13C1134.6,503.58,1137.02,502.92,1139.45,502.53z"/>
							<path class="st10" d="M1323.83,406.25c4.11-3.21,8.49-6.55,13.66-7.23c4.56-0.6,9.23,1.01,12.94,3.74
								c3.7,2.73,6.53,6.5,8.81,10.5c1.95,3.42,3.56,7.08,4.28,10.96c1.53,8.21-1.09,16.78-5.57,23.83
								c-4.48,7.05-10.72,12.79-17.06,18.23c-12.44,10.67-25.59,20.51-39.33,29.45c-3.26,2.12-6.68,4.23-10.53,4.76
								c-3.55,0.49-7.16-0.43-10.52-1.66c-1.45-0.53-2.97-1.2-3.84-2.48c-0.92-1.35-0.93-3.11-0.88-4.75
								c0.45-15.68,2.68-31.31,6.65-46.48c1.27-4.84,2.54-9.56,6.6-12.79c4.03-3.21,8.68-5.65,12.77-8.85
								C1309.14,417.74,1316.49,412,1323.83,406.25z"/>
							<path class="st10" d="M1180.42,391.42c0.57-0.85,0.43-2.52,1.12-3.56c5.77-8.73,19.23-4.04,25.79,1.3
								c1.83,1.49,3.48,3.23,5.44,4.54c3.63,2.43,8.07,3.23,12.31,4.28c5.2,1.28,10.5,3.12,14.26,6.93c2.97,3.01,4.84,7.13,8.34,9.5
								c4.64,3.14,11.16,2.55,15.55,6.03c3.41,2.71,5.09,8.71,9.19,10.43c3.59,1.5,6.9-2.43,10.79-2.44c2.33-0.01,7.36,0.7,7.77,3.6
								c0.3,2.12,0.06,4.48,0,6.62c-0.11,4.32-0.43,8.63-0.82,12.93c-0.77,8.57-1.81,17.13-2.06,25.74
								c-0.25,8.54-0.49,17.08-0.74,25.63c-7.97-3.25-16.57-4.57-24.9-6.75c-8.33-2.18-16.72-5.44-22.66-11.67
								c-6.6-6.92-9.33-16.54-13.25-25.27c-3.9-8.68-9.18-16.74-15.57-23.79c-9.73-10.74-22.32-19.59-27.92-32.96
								C1181.13,397.87,1177.6,395.61,1180.42,391.42z"/>
						</g>
						<g>
							<g>
								<path class="st16" d="M1123.19,362.06c0.41,0.78,1,1.49,1.68,2.07c0.52,0.44,1.42,0.98,1.57,1.69
									c0.09,0.45-0.13,1.05-0.17,1.5c-0.05,0.56-0.05,1.12,0.03,1.68c0.17,1.16,0.79,2.32,1.84,2.84
									c1.51,0.74,3.56,0.05,4.85,1.14c0.36,0.31,0.61,0.72,0.91,1.09c0.98,1.2,2.63,2,4.19,1.72c1.62-0.29,1.18-2.18,1.07-3.43
									c-0.25-2.81,0.02-5.75,0.52-8.52c0.04-0.2,0.07-0.4,0.02-0.6c-0.08-0.31-0.35-0.52-0.61-0.71c-3.08-2.3-5.99-4.82-8.69-7.55
									c-0.6-0.61-1.23-1.25-2.04-1.51c-2.74-0.88-5.64,3.62-5.78,5.9C1122.5,360.31,1122.75,361.23,1123.19,362.06z"/>
								<path class="st16" d="M1128.74,332.69c0,0-6.46,20.63,7.87,31.87l0.97-15.58l-2.29-16.94L1128.74,332.69z"/>
								<g>
									<path class="st17" d="M1130.89,345.82c3.16-0.86,5.46,1.25,6.71,2.88l-2.91-19.45l38.61-5.51c0,0,4.53,16.24,8.21,39.95
										c3.68,23.71-22.02,18.76-22.02,18.76s-0.73-0.11-1.9-0.44l0.4,3.96c0.47,4.61,1.05,7.77,1.85,15.44
										c0.11,1.03-1.51,1.68-1.58,2.9l-18.9-9.14c-0.38-0.71-0.49-3.11-1.02-8.36l-2.09-25.72c-1.56-1.09-2.97-2.4-4.02-3.49
										c-1.74-1.8-3-4.04-3.51-6.49C1128.27,348.87,1128.42,346.49,1130.89,345.82z"/>
									<path class="st18" d="M1157.59,382L1157.59,382c-1.06-0.25-2.07-0.48-3.01-0.85c-2-0.79-4.2-2.27-6.06-3.79l-2.7-2.58
										l1.68,3.77c2.06,4.36,5.55,7.62,10.13,9.1l0.55,0.18L1157.59,382z"/>
									<g>
										<path class="st19" d="M1156.99,347.01c0.12,1.16,0.79,2.03,1.5,1.96c0.71-0.07,1.19-1.07,1.08-2.22
											c-0.12-1.16-0.79-2.04-1.5-1.96C1157.36,344.86,1156.88,345.86,1156.99,347.01z"/>
										<path class="st19" d="M1172.82,345.41c0.12,1.16,0.79,2.04,1.5,1.96c0.71-0.07,1.19-1.07,1.08-2.22
											c-0.12-1.16-0.79-2.04-1.5-1.96C1173.18,343.26,1172.7,344.26,1172.82,345.41z"/>
										<path class="st20" d="M1168.57,355.71c0,0,6.28,1.56,3.89-3.01c-1.94-3.71-2.74-4.86-2.74-4.86"/>
										<g>
											<path d="M1154.18,343.87c1.4-2.03,4.05-2.71,6.27-1.65c0,0,0.04,0.14,0.04,0.14c-1.55,0.48-4.69,1.3-6.27,1.65
												C1154.22,344,1154.18,343.87,1154.18,343.87L1154.18,343.87z"/>
										</g>
										<g>
											<path d="M1170.49,341.2c1.96-1.5,4.69-1.33,6.47,0.36c0,0-0.01,0.14-0.01,0.14c-1.62-0.02-4.86-0.21-6.47-0.36
												C1170.48,341.34,1170.49,341.2,1170.49,341.2L1170.49,341.2z"/>
										</g>
									</g>
									<path class="st20" d="M1155.17,360.87c0,0,2.99,7.7,8.62,2.72"/>
								</g>
								<g>
									<g>
										<g>
											<g>
												<path class="st16" d="M1141.52,354.66c-0.22-2.23-0.84-4.41-1.84-6.42c1.4,0.04,3.19-0.19,3.58-1.54
													c0.12-0.4,0.07-0.83,0.01-1.24c-0.31-1.9-1.11-3.71-2.3-5.22c1.22-0.26,3.37-0.71,4.23-1.7
													c0.82-0.93,0.82-2.5,0.72-3.65c-0.11-1.25-0.31-2.54-1-3.58c-0.8-1.22-2.19-1.96-3.62-2.27s-2.91-0.21-4.36-0.06
													c-1.36,0.14-2.72,0.33-4.02,0.77c-0.39,0.13-1.42,0.37-1.65,0.74c-0.28,0.43,0.1,1.14,0.23,1.61
													c0.79,2.84,1.58,5.69,2.37,8.53c1.55,5.57,2.31,11.48,5.2,16.57c0.26,0.45,0.59,0.94,1.11,1.03
													c0.98,0.15,1.43-1.19,1.41-2.19C1141.6,355.57,1141.57,355.11,1141.52,354.66z"/>
											</g>
										</g>
										<path class="st16" d="M1183.14,319.97c-0.44-0.56-0.97-1.05-1.59-1.43c-1.42-0.86-3.31-1.28-4.03-2.78
											c-0.36-0.74-0.33-1.61-0.43-2.42c-0.41-3.24-2.47-5.2-5.73-5.12c-1.11,0.03-2.15,0.31-3.23,0.53
											c-0.99,0.21-1.31-0.06-2.23-0.56c-1.72-0.93-3.89-0.97-5.65-0.13c-1.62,0.78-2.5,2.1-3.21,3.68
											c-0.73,1.63-1.4,1.7-3.11,2.26c-1.05,0.35-2.12,0.63-3.15,1.03c-2.92,1.14-5.83,2.3-8.71,3.54
											c-2.58,1.11-5.15,2.25-7.62,3.58c-1.45,0.78-3.27,1.64-4.28,3c-3.34,4.45-0.97,7.56-0.97,7.56l12.05-1.22
											c6.17-0.84,12.34-1.69,18.51-2.53c1.81-0.25,4.76-1.34,6.52-0.61c1.38,0.57,2.23,1.97,3.67,2.58
											c1.5,0.63,3.59,1.9,5.24,1.12c2.77-1.31,2.07-4.03,5.75-3.77c2.19,0.16,3.65-1.79,3.66-3.86
											C1184.63,322.85,1184.12,321.22,1183.14,319.97z"/>
									</g>
								</g>
								<g>
									<g>
										<path class="st16" d="M1186.55,322.06c-1.34-2.93-3.04-4.77-5.07-5.46c-2.68-0.91-5.18,0.42-6.01,0.86
											c-0.18,0.09-0.3,0.15-0.35,0.16l-0.38-1.11c0.04-0.02,0.1-0.05,0.17-0.09c2.51-1.33,4.84-1.65,6.94-0.93
											c2.35,0.8,4.29,2.85,5.76,6.09L1186.55,322.06z"/>
									</g>
								</g>
							</g>
							<g>
								<g>
									<path class="st21" d="M1140.67,351.19l-14.38,3.43c-1.32,0.32-2.5-0.46-2.63-1.74l-0.58-5.72
										c-0.13-1.28,0.84-2.57,2.16-2.88l14.38-3.43c1.32-0.32,2.5,0.46,2.63,1.74l0.58,5.72
										C1142.97,349.58,1142,350.88,1140.67,351.19z"/>
									<path class="st21" d="M1150.57,315.08c0,0,11.52,1.85,11.94,14.56l8.79-1.17c0,0,0.06-8.06-8.18-13.69
										c-4.21-2.87-7.54-2.41-9.52-1.98C1152.4,313.08,1151.2,313.71,1150.57,315.08z"/>
									<g>
										<path class="st18" d="M1178.83,325.6l-10.73,1.42l-20.88,2.77c-6.89,0.91-11.76,7.49-10.82,14.62
											c0.95,7.13,7.36,12.21,14.25,11.29l31.61-4.19c6.89-0.91,11.76-7.49,10.82-14.62
											C1192.14,329.77,1185.72,324.68,1178.83,325.6z"/>
										<path class="st22" d="M1198.4,333.53c-1.49-5.88-7.37-9.55-13.38-8.76l-9.7,1.29l-19.21,2.55
											c-6.01,0.8-10.73,5.88-10.64,11.94c0.11,7.18,6.49,12.51,13.4,11.59l29.61-3.93C1195.4,347.3,1200.16,340.5,1198.4,333.53
											z"/>
										<path class="st23" d="M1188.14,345.53l-21.73,2.88c-4.92,0.65-9.47-2.84-10.12-7.75l-0.05-0.37
											c-0.65-4.92,2.84-9.47,7.75-10.12l21.73-2.88c4.92-0.65,9.47,2.84,10.12,7.75l0.05,0.37
											C1196.54,340.32,1193.06,344.88,1188.14,345.53z"/>
									</g>
								</g>
								<g>
									<path class="st16" d="M1143.3,309.81c-1.05,0.13-2.07,0.49-2.96,1.07c-0.73,0.47-1.38,1.09-2.19,1.4
										c-1.2,0.46-2.54,0.18-3.82,0.06c-1.83-0.17-3.71-0.01-5.4,0.71c-1.69,0.72-3.17,2.02-3.9,3.7
										c-0.8,1.84-0.68,4.01-1.68,5.75c-1.52,2.62-5.12,3.42-6.74,5.99c-0.53,0.84-0.81,1.81-1.02,2.78
										c-0.33,1.55-0.5,3.21,0.11,4.67c0.75,1.8,2.32,1.57,3.46,2.72c1.25,1.25-0.04,3.37,0.16,4.88
										c0.18,1.31,0.94,2.62,2.18,3.08c1.26,0.46,2.68-0.06,3.77-0.84c0.64-0.45,1.22-1,1.95-1.3c1-0.42,2.18-0.33,3.15-0.81
										c1.63-0.82,2.11-3.04,2.75-4.59c0.84-2.04,1.56-4.08,2.63-6.03c1.96-3.57,4.52-6.82,7.55-9.54
										c1.24-1.12,2.57-2.15,3.96-3.07c0.87-0.58,1.84-1.12,2.52-1.94c0.62-0.74,1.35-1.01,2.24-1.42
										c0.07-0.03,0.15-0.07,0.19-0.14c0.26-0.43-1.64-2.98-1.91-3.46c-0.82-1.43-2.02-2.6-3.57-3.22
										C1145.65,309.81,1144.46,309.67,1143.3,309.81z"/>
									<g>
										<g>
											<path class="st16" d="M1151.12,316.52c-0.27-3.21-1.25-5.52-2.93-6.85c-2.21-1.76-5.02-1.36-5.94-1.22
												c-0.2,0.03-0.33,0.04-0.38,0.04l0.02-1.17c0.04,0,0.11-0.01,0.19-0.03c2.81-0.41,5.11,0.09,6.84,1.47
												c1.94,1.54,3.07,4.13,3.37,7.67L1151.12,316.52z"/>
										</g>
									</g>
									<g>
										<g>
											<path class="st16" d="M1112.47,334.67c-0.21-4.37,0.88-7.65,3.23-9.74c3.65-3.24,8.95-2.39,9.17-2.35l-0.19,1.16
												c-0.05-0.01-4.98-0.79-8.2,2.08c-2.07,1.84-3.02,4.8-2.83,8.8L1112.47,334.67z"/>
										</g>
									</g>
								</g>
							</g>
						</g>
					</g>
					<g>
						<path class="st24" d="M1172.48,517.27l-8.53,4.32c0,0,6.49,9.33,1.79,20.13c-4.7,10.79-23.99,21.88-23.99,21.88l9.22,15.75
							c0,0,40.08-25.04,21.87-56.65c0,0,13.7,2.88,15.57-10.99L1172.48,517.27z"/>
						<g>
							<defs>
								<path id="SVGID_00000088131977708215885830000008086205075072747188_" d="M1131.58,429.5c-4-10.92-12.86-21.04-25.09-22.01
									c-18.82-1.49-30.81,18.34-38.71,32.53c-15.55,27.93-30.23,60.58-39.31,91.24c-4.28,14.47-6.13,27.01-1.61,41.86
									c0.59,1.94,1.34,3.85,2.25,5.67c4.73,10.56,15.07,18.16,27.42,18.79c3.86,0.2,6.92-0.04,11.7-0.31
									c12.92-0.73,20.99-16.16,21.68-29.84c0.39-7.68-1.98-14.86-6.24-20.59c1.44-1.38,2.88-2.77,4.31-4.16
									c7.83-7.64,15.51-15.45,23.02-23.41c0.3-0.32,0.61-0.77,0.5-1.15c2.81-2.41,8.05-19.9,8.98-22.32
									c3.53-9.25,6.7-18.66,9.13-28.26c0.1-0.4,0.2-0.8,0.3-1.2C1132.92,454.24,1136.04,441.66,1131.58,429.5z"/>
							</defs>
							<clipPath id="SVGID_00000010276065368467987920000004507531074884164009_">
								<use xlink:href="#SVGID_00000088131977708215885830000008086205075072747188_"  style="overflow:visible;"/>
							</clipPath>
							<path style="clip-path:url(#SVGID_00000010276065368467987920000004507531074884164009_);fill:#152245;" d="M1066.28,590.76
								c-0.4,5.89-1.72,12.79-5.78,15.28c-3.86,2.36-9.09,1.5-13.31-0.32c-9.59-4.14-16.4-12.43-21.48-21.06
								c-5.66-9.61-9.86-20.5-8.88-31.58c0.37-4.22,2.07-9.54,5.9-11.96c3.58-2.27,8.93-0.6,12.63,0.54
								c10.39,3.18,19.52,10.43,24.96,19.84c4.03,6.99,6.05,15.05,6.12,23.1C1066.45,586.27,1066.44,588.43,1066.28,590.76z"/>
						</g>
					</g>
				</g>
				<g>
					<path class="st13" d="M1068.92,530.41c13.91-9.63,18.31-12.44,33.7-19.56c14.24-6.59,33.25-14.21,49.12-10.29"/>
					<path class="st13" d="M1130.43,379.56c-2.35-0.29-4.91,1.32-4.56,3.91c0.42,3.13,3.93,5.96,6.31,7.71
						c3.49,2.56,7.44,4.43,11.29,6.35c4.1,2.05,10.67,4.99,14.76,7.04c2.52-3.88,6.21-12.26,7.29-16.76"/>
					<path class="st13" d="M1143.62,562.4c4.37-2.68,10.66-7.12,14.64-10.43c5.83-4.84,9.33-11.34,8.49-19.06"/>
					<path class="st13" d="M1123.51,500.18c3.86-4.78,3.45-5.4-1.27-9.33c3.71-8.71,6.27-13.93,7.28-23.3"/>
					<path class="st13" d="M1196.25,412.75c6.54,6.58,12.78,13.46,18.7,20.6c2.35,2.83,5.08,5.19,7.43,7.92
						c3.28,3.82,5.15,10.74,10.04,12.16c5.31,1.55,9.87,2.82,12.25,8.52c0.34,0.81,0.62,1.69,1.26,2.3c0.71,0.68,1.72,0.9,2.67,1.11
						c19.45,4.32,37.28,15.57,49.57,31.25"/>
					<path class="st13" d="M1271.86,465.56c2.99-7.74,6.6-15.23,10.79-22.39c1.53-2.61,3.52-8.27-1.72-7.54
						c-3.19,0.45-5.89,4.02-7.56,6.48"/>
					<path class="st13" d="M1158.69,410.13c2.31,1.51,3.59,4.23,4.07,6.95c0.47,2.72,0.25,5.51,0.19,8.27
						c-0.18,7.48,0.85,15.16,4.43,21.73c3.57,6.57,9.99,11.87,17.41,12.77"/>
					<path class="st13" d="M1166.73,409.24c3.44,0.85,6.03,3.62,8.32,6.33c3.83,4.55,7.42,9.35,11.87,13.3
						c4.45,3.95,9.93,7.06,15.86,7.43c5.94,0.36,12.29-2.51,14.85-7.89"/>
					<path class="st13" d="M1104.97,406.74c12.78-0.67,25.67,0.95,37.88,4.77"/>
					<path class="st13" d="M1189.04,383.65c-2.97,3.63-6.82,9.51-10.7,12.13"/>
					<path class="st13" d="M1186.28,534.64c-0.96,5.76,4.91,10.88,10.74,11.17c14.63,0.71,26.81-15.01,33.32-26.07
						c8.17-13.88,9.9-26.95,11.02-43.02"/>
				</g>
			</g>
			<g>
				<g>
					<path class="st17" d="M1332.03,366.06c-0.16,9.87,1.64,19.65,2.7,29.47c0.68,6.34,0.87,13.36-3.04,18.39
						c-2.12,2.73-5.2,4.52-7.76,6.84c-2.56,2.32-4.71,5.67-4,9.05c0.26,1.23,0.97,2.45,2.13,2.93c2.07,0.86,4.21-0.9,5.93-2.34
						c5.03-4.22,10.86-5.81,17.3-6.32c3.4-0.27,7.07-0.86,9.41-3.35c0.5-0.53,0.92-1.13,1.48-1.6c0.89-0.73,2.04-1.05,3.13-1.43
						c2.71-0.94,5.33-2.49,6.85-4.92c1.56-2.48,1.79-5.59,1.45-8.5c-0.52-4.56-2.34-8.96-5.18-12.56
						c-5.36,1.62-10.87,1.8-16.45,2.26c0.09-0.11,0.17-0.22,0.26-0.32c-1.99-7.91-4.6-16.02-6.78-23.89
						c-0.37-1.35-0.77-2.72-1.53-3.9c-0.77-1.17-1.99-2.13-3.39-2.24C1333.13,363.56,1332.05,364.66,1332.03,366.06z"/>
					<path class="st17" d="M1346.75,386.69c1.4-1.72,3.47-3.11,5.67-2.92c2.07,0.18,3.76,1.68,5.26,3.12
						c3.9,3.74,7.68,7.61,11.04,11.84c0.53,0.67,1.08,1.42,1.09,2.27c0.01,1.29-1.25,2.29-2.53,2.53c-2.41,0.45-4.74-1.03-6.62-2.6
						c-2.38-1.99-4.05-3.65-5.91-6.13c-1.51,2.17-3.48,3.73-4.99,5.9c-1.79-2.14-4.67-4.55-5.68-7.2
						C1343.2,391.16,1345.37,388.38,1346.75,386.69z"/>
					<path class="st17" d="M1355.97,388.96c1.27-1.66,3.17-3.03,5.25-2.91c1.95,0.11,3.58,1.47,5.03,2.78
						c3.77,3.4,7.44,6.94,10.72,10.82c0.52,0.62,1.06,1.3,1.09,2.11c0.05,1.22-1.12,2.19-2.31,2.45c-2.25,0.49-4.48-0.83-6.3-2.26
						c-2.29-1.8-4.37-3.87-6.19-6.15c-1.36,2.08-2.71,4.16-4.07,6.25c-1.75-1.96-4.52-4.15-5.55-6.61
						C1352.75,393.27,1354.72,390.59,1355.97,388.96z"/>
					<path class="st17" d="M1362.84,390.52c0.67-1.64,1.93-3.18,3.66-3.55c1.62-0.34,3.26,0.41,4.74,1.16
						c3.84,1.95,7.63,4.04,11.18,6.49c0.56,0.39,1.15,0.83,1.36,1.49c0.31,0.99-0.43,2.04-1.35,2.52c-1.74,0.9-3.86,0.31-5.66-0.46
						c-2.28-0.97-4.44-2.2-6.43-3.67c-0.65,2.01-1.3,4.01-1.95,6.02c-1.86-1.22-4.62-2.39-6.01-4.19
						C1361.17,394.76,1362.18,392.13,1362.84,390.52z"/>
					<path class="st13" d="M1354.24,396.55c0,0,4.75,7.87,13.04,6.97"/>
					<path class="st13" d="M1369.63,401.29c0,0,0.74-0.6-0.25-1.69c-0.99-1.09-10.11-11.61-10.11-11.61"/>
					<line class="st13" x1="1365.39" y1="388.29" x2="1374.67" y2="396.95"/>
					<path class="st13" d="M1355.38,414.37c-0.71-4.67-4.87-7.08-8.85-8.46c2.81-1.34,5.93-2.01,8.74-3.48"/>
				</g>
				<g>
					<g>
						<g>
							<path class="st17" d="M1154.87,507.56l9.07-5.13c0,0,6.21-24.53,15.83-22.92c0,0,3.72-6.58,8.29-3.41c0,0,1.65-5.78,5.99-2.4
								l21.62-21.46c0,0,8.18,1.19-4.52,15.89c-1.88,2.17-3.17,5.49-4.73,7.9c-1.27,1.96-2.61,4.22-2.8,6.59
								c-0.1,1.24,0.04,2.48,0.21,3.71c0.4,2.8,1.88,5.49,2.95,8.1c0.66,1.61,1.32,3.22,1.98,4.84c0,0-11.39,15.85-20.35,12.44
								c0,0-7.33,10.66-15.92,5.57l-8.75,5.35c-3.8,2.32-8.74,1.42-11.47-2.1C1149,516.31,1150.23,510.18,1154.87,507.56z"/>
							<path class="st17" d="M1208.76,499.26l13.53-12.19c0,0,0.9-4-5.71-2.93c-4.26,0.69-11.92,6.18-11.92,6.18L1208.76,499.26z"/>
						</g>
						<g>
							<path class="st26" d="M1181.92,504.98c1.21,1.14,3.24,1.83,4.87,1.96c2.3,0.19,4.12-2.14,4.48-4.2
								c0.31-1.74-0.42-3.32-0.99-4.92c-0.66-1.83-1.36-3.64-2.22-5.39c-1.88-3.83-4.22-7.41-6.46-11.04"/>
							<path class="st26" d="M1196.54,476.69c2.15,3.3,4.02,6.75,5.2,10.52c1.12,3.58,2.59,8.31,0.57,11.8
								c-0.42,0.72-0.96,1.37-1.68,1.79c-0.72,0.42-1.61,0.56-2.39,0.27c-0.14,1.52-1.15,2.94-2.54,3.58
								c-1.39,0.64-3.12,0.47-4.37-0.41"/>
							<path class="st26" d="M1190.1,478.5c0,0,6.96,10.06,8.47,22.67"/>
							<path class="st26" d="M1182.81,500.01c0.25,3.86-0.27,7.04-4.3,8.27"/>
						</g>
					</g>
					<path class="st27" d="M1148.87,505.71c-1.49,0.72-3,1.52-4.03,2.82c-1.52,1.91-1.9,4.78-2.2,7.14
						c-0.9,7.12,2.67,12.95,9.17,15.88c2.21,1,4.07,0.91,6.29,0.06c2.73-1.04,5.36-2.32,7.86-3.82c1.91-1.14,4.67-2.37,5.52-4.59
						c0.51-1.32,0.3-2.8,0.03-4.18c-0.05-0.23-0.13-0.5-0.36-0.54c-0.14-0.03-0.27,0.04-0.39,0.11c-1.2,0.65-4,2.95-5.23,2.02
						c-1.31-1-2.33-3.16-3.04-4.6c-1.63-3.3-2.45-7.02-2.22-10.7c0.2-3.16-0.29-4.12-3.32-3.07
						C1154.19,503.17,1151.49,504.43,1148.87,505.71z"/>
				</g>
			</g>
		</g>
	</g>
	<g>
		<g>
			<g>
				<g>
					
						<linearGradient id="SVGID_00000047761229728018227220000000076544174680069002_" gradientUnits="userSpaceOnUse" x1="777.6002" y1="869.7209" x2="566.962" y2="814.582" gradientTransform="matrix(0.989 -0.1477 0.1477 0.989 63.8944 -287.9673)">
						<stop  offset="0.1215" style="stop-color:#F0D3F5"/>
						<stop  offset="0.2232" style="stop-color:#EFD0F4;stop-opacity:0.7897"/>
						<stop  offset="0.2957" style="stop-color:#EAC7F1;stop-opacity:0.6399"/>
						<stop  offset="0.359" style="stop-color:#E3B7EC;stop-opacity:0.5087"/>
						<stop  offset="0.4172" style="stop-color:#D9A1E5;stop-opacity:0.3885"/>
						<stop  offset="0.4718" style="stop-color:#CC84DC;stop-opacity:0.2755"/>
						<stop  offset="0.5237" style="stop-color:#BB61D1;stop-opacity:0.168"/>
						<stop  offset="0.5727" style="stop-color:#A938C4;stop-opacity:0.0668"/>
						<stop  offset="0.605" style="stop-color:#9A19BA;stop-opacity:0"/>
					</linearGradient>
					<polygon style="fill:url(#SVGID_00000047761229728018227220000000076544174680069002_);" points="892.03,475.87 933.14,469.74 
						905.48,425.24 					"/>
					
						<linearGradient id="SVGID_00000022547936936694186790000011252687842668007048_" gradientUnits="userSpaceOnUse" x1="724.2422" y1="971.2158" x2="728.7048" y2="822.0928" gradientTransform="matrix(0.989 -0.1477 0.1477 0.989 63.8944 -287.9673)">
						<stop  offset="0.1215" style="stop-color:#F0BDF5"/>
						<stop  offset="0.2263" style="stop-color:#EEB9F4;stop-opacity:0.8373"/>
						<stop  offset="0.3269" style="stop-color:#E8AEEF;stop-opacity:0.681"/>
						<stop  offset="0.4258" style="stop-color:#DE9AE8;stop-opacity:0.5273"/>
						<stop  offset="0.5238" style="stop-color:#D07FDF;stop-opacity:0.3751"/>
						<stop  offset="0.621" style="stop-color:#BD5CD2;stop-opacity:0.224"/>
						<stop  offset="0.7164" style="stop-color:#A732C3;stop-opacity:0.0758"/>
						<stop  offset="0.7652" style="stop-color:#9A19BA;stop-opacity:0"/>
					</linearGradient>
					<polygon style="fill:url(#SVGID_00000022547936936694186790000011252687842668007048_);" points="933.14,469.74 892.03,475.87 
						919.69,520.37 					"/>
				</g>
				
					<linearGradient id="SVGID_00000021821569534745585990000007085931341143525012_" gradientUnits="userSpaceOnUse" x1="703.428" y1="880.1959" x2="766.2889" y2="831.3295" gradientTransform="matrix(0.989 -0.1477 0.1477 0.989 63.8944 -287.9673)">
					<stop  offset="0.268" style="stop-color:#9500BA;stop-opacity:0"/>
					<stop  offset="0.6188" style="stop-color:#F0BDF5"/>
				</linearGradient>
				<polygon style="fill:url(#SVGID_00000021821569534745585990000007085931341143525012_);" points="912.59,472.8 905.48,425.24 
					933.14,469.74 				"/>
				
					<linearGradient id="SVGID_00000162316936087088108150000016381796533308376727_" gradientUnits="userSpaceOnUse" x1="-4415.0718" y1="862.9161" x2="-4495.9912" y2="921.116" gradientTransform="matrix(-0.989 0.1477 0.1477 0.989 -3626.7549 263.2637)">
					<stop  offset="0.268" style="stop-color:#9A19BA;stop-opacity:0"/>
					<stop  offset="0.6188" style="stop-color:#F0BDF5"/>
				</linearGradient>
				<polygon style="fill:url(#SVGID_00000162316936087088108150000016381796533308376727_);" points="912.59,472.8 919.69,520.37 
					933.14,469.74 				"/>
			</g>
			<g>
				
					<linearGradient id="SVGID_00000158712981642287968770000006873414294505277884_" gradientUnits="userSpaceOnUse" x1="-4056.5874" y1="1589.8081" x2="-3928.6169" y2="1534.4412" gradientTransform="matrix(-0.3945 -0.9189 0.9189 -0.3945 -2064.6316 -2544.1472)">
					<stop  offset="0.3177" style="stop-color:#FFEDFF"/>
					<stop  offset="0.4782" style="stop-color:#FCE4FE;stop-opacity:0.6269"/>
					<stop  offset="0.7479" style="stop-color:#F9D9FC;stop-opacity:0"/>
				</linearGradient>
				
					<polygon style="fill:url(#SVGID_00000158712981642287968770000006873414294505277884_);stroke:#FFFFFF;stroke-width:0.884;stroke-linejoin:round;stroke-miterlimit:10;" points="
					985.96,456.66 963.4,528.7 889.17,544.41 911.73,472.37 				"/>
				
					<linearGradient id="SVGID_00000062881780367032984420000011462125173263862677_" gradientUnits="userSpaceOnUse" x1="-3854.3225" y1="1618.7328" x2="-3953.1736" y2="1543.2657" gradientTransform="matrix(-0.3945 -0.9189 0.9189 -0.3945 -2064.6316 -2544.1472)">
					<stop  offset="0.0663" style="stop-color:#FFB6FF"/>
					<stop  offset="0.4715" style="stop-color:#FBCEFD;stop-opacity:0.4056"/>
					<stop  offset="0.7479" style="stop-color:#F9D9FC;stop-opacity:0"/>
				</linearGradient>
				
					<polygon style="fill:url(#SVGID_00000062881780367032984420000011462125173263862677_);stroke:#FFFFFF;stroke-width:0.884;stroke-linejoin:round;stroke-miterlimit:10;" points="
					985.96,456.66 936.15,399.93 861.92,415.64 911.73,472.37 				"/>
				
					<linearGradient id="SVGID_00000072982340090198539670000012648265523338743191_" gradientUnits="userSpaceOnUse" x1="749.0875" y1="419.3292" x2="1096.2023" y2="540.558" gradientTransform="matrix(1 5.200000e-03 -5.200000e-03 1 -3.1764 10.0466)">
					<stop  offset="0.0663" style="stop-color:#FFB6FF"/>
					<stop  offset="0.2876" style="stop-color:#FBCEFD;stop-opacity:0.4056"/>
					<stop  offset="0.4385" style="stop-color:#F9D9FC;stop-opacity:0"/>
				</linearGradient>
				
					<polygon style="fill:url(#SVGID_00000072982340090198539670000012648265523338743191_);stroke:#FFFFFF;stroke-width:0.884;stroke-linejoin:round;stroke-miterlimit:10;" points="
					911.85,472.34 861.81,415.6 839.24,487.71 889.09,544.48 				"/>
			</g>
		</g>
		<g>
			<g>
				<g>
					<g>
						<g>
							<g>
								
									<linearGradient id="SVGID_00000043456252826136881990000007797675670519368579_" gradientUnits="userSpaceOnUse" x1="-996.7397" y1="2872.0713" x2="-971.9246" y2="2794.293" gradientTransform="matrix(0.728 -0.6856 0.6856 0.728 -3.0236 -1805.7263)">
									<stop  offset="0.2301" style="stop-color:#4E0778"/>
									<stop  offset="0.375" style="stop-color:#500A7A"/>
									<stop  offset="0.4852" style="stop-color:#581480"/>
									<stop  offset="0.5839" style="stop-color:#66248A"/>
									<stop  offset="0.6759" style="stop-color:#783B99"/>
									<stop  offset="0.7632" style="stop-color:#9159AC"/>
									<stop  offset="0.8471" style="stop-color:#AF7DC3"/>
									<stop  offset="0.9266" style="stop-color:#D1A8DE"/>
									<stop  offset="1" style="stop-color:#F7D6FC"/>
								</linearGradient>
								<path style="fill:url(#SVGID_00000043456252826136881990000007797675670519368579_);" d="M1234.61,914.57
									c-10.26-10.9-24.75-13.92-32.36-6.75s-5.46,21.81,4.8,32.71c10.26,10.9,24.75,13.92,32.36,6.75
									C1247.02,940.11,1244.87,925.46,1234.61,914.57z"/>
								<g>
									
										<linearGradient id="SVGID_00000104680739277040660800000006167477619315102343_" gradientUnits="userSpaceOnUse" x1="-900.6559" y1="-4482.2637" x2="-895.7224" y2="-4334.9185" gradientTransform="matrix(0.728 -0.6856 -0.6856 -0.728 -1164.0905 -2897.9678)">
										<stop  offset="0.1215" style="stop-color:#F0BDF5"/>
										<stop  offset="0.2244" style="stop-color:#EEBAF3"/>
										<stop  offset="0.2976" style="stop-color:#E6B1ED"/>
										<stop  offset="0.3617" style="stop-color:#DAA1E3"/>
										<stop  offset="0.4206" style="stop-color:#C98BD5"/>
										<stop  offset="0.4758" style="stop-color:#B26EC2"/>
										<stop  offset="0.5283" style="stop-color:#974BAC"/>
										<stop  offset="0.5778" style="stop-color:#772291"/>
										<stop  offset="0.6105" style="stop-color:#5E037D"/>
									</linearGradient>
									<path style="fill:url(#SVGID_00000104680739277040660800000006167477619315102343_);" d="M1207.05,940.53
										c10.26,10.9,24.75,13.92,32.36,6.75l-4.4,4.15c-7.61,7.17-22.1,4.15-32.36-6.75c-10.26-10.9-12.41-25.54-4.8-32.71
										l4.4-4.15C1194.64,914.99,1196.79,929.63,1207.05,940.53z"/>
								</g>
							</g>
							
								<linearGradient id="SVGID_00000075848249122815263370000006591174239157358260_" gradientUnits="userSpaceOnUse" x1="1274.0909" y1="-1386.8824" x2="1274.5684" y2="-1303.3383" gradientTransform="matrix(0.6856 0.728 -0.728 0.6856 -635.2839 925.0829)">
								<stop  offset="0.2301" style="stop-color:#4E0778"/>
								<stop  offset="0.3965" style="stop-color:#6F2F92"/>
								<stop  offset="0.7677" style="stop-color:#C194D2"/>
								<stop  offset="1" style="stop-color:#F7D6FC"/>
							</linearGradient>
							<path style="fill:url(#SVGID_00000075848249122815263370000006591174239157358260_);" d="M1231.29,917.69
								c-7.79-8.27-18.79-10.57-24.57-5.12c-5.78,5.44-4.15,16.56,3.64,24.83c7.79,8.27,18.79,10.57,24.57,5.12
								C1240.72,937.08,1239.08,925.96,1231.29,917.69z"/>
						</g>
					</g>
				</g>
				<g>
					
						<linearGradient id="SVGID_00000000197153801935775760000014902963958511573155_" gradientUnits="userSpaceOnUse" x1="1184.8578" y1="912.3416" x2="1234.9037" y2="931.8834">
						<stop  offset="0.2301" style="stop-color:#4E0778"/>
						<stop  offset="0.3965" style="stop-color:#6F2F92"/>
						<stop  offset="0.7677" style="stop-color:#C194D2"/>
						<stop  offset="1" style="stop-color:#F7D6FC"/>
					</linearGradient>
					<path style="fill:url(#SVGID_00000000197153801935775760000014902963958511573155_);" d="M1224.18,939.17l-1.09-2.72
						l-2.97,0.07c-0.66,0.01-1.32-0.16-1.98-0.52c-0.66-0.36-1.27-0.85-1.81-1.47c-0.54-0.62-0.96-1.31-1.26-2.05l-0.7-1.75
						l3.52-0.08l0.65,1.61l2.83-0.06l-1.41-3.53l-2.95,0.07c-0.65,0.01-1.3-0.15-1.96-0.5c-0.66-0.35-1.26-0.84-1.82-1.46
						c-0.55-0.62-0.99-1.33-1.3-2.13l-1.58-3.95c-0.31-0.78-0.45-1.48-0.4-2.11c0.04-0.63,0.25-1.13,0.62-1.5
						c0.37-0.37,0.89-0.57,1.55-0.58l2.97-0.07l-1.09-2.72l3.53-0.08l1.09,2.72l2.95-0.06c0.66-0.01,1.32,0.15,1.98,0.5
						c0.66,0.35,1.26,0.83,1.8,1.45c0.54,0.62,0.97,1.31,1.28,2.09l0.71,1.78l-3.53,0.08l-0.66-1.64l-2.83,0.06l1.49,3.73l2.95-0.06
						c0.66-0.01,1.32,0.16,1.98,0.52c0.66,0.36,1.26,0.84,1.79,1.43c0.53,0.6,0.94,1.25,1.22,1.95l1.58,3.95
						c0.3,0.74,0.42,1.43,0.37,2.07c-0.05,0.64-0.25,1.15-0.62,1.53c-0.37,0.38-0.87,0.58-1.52,0.59l-2.95,0.06l1.09,2.72
						L1224.18,939.17z M1218.26,924.41l-1.49-3.73l-2.83,0.06l1.49,3.73L1218.26,924.41z M1224.92,932.11l2.83-0.06l-1.41-3.53
						l-2.83,0.06L1224.92,932.11z"/>
				</g>
			</g>
			<g>
				
					<linearGradient id="SVGID_00000147935036229551456670000009341113806633062332_" gradientUnits="userSpaceOnUse" x1="1292.6703" y1="999.1525" x2="1202.5319" y2="916.616">
					<stop  offset="0.0663" style="stop-color:#FFFFFF"/>
					<stop  offset="0.0996" style="stop-color:#FFFDFF;stop-opacity:0.9511"/>
					<stop  offset="0.7479" style="stop-color:#F9D9FC;stop-opacity:0"/>
				</linearGradient>
				
					<polygon style="fill:url(#SVGID_00000147935036229551456670000009341113806633062332_);stroke:#FFFFFF;stroke-width:0.6603;stroke-linejoin:round;stroke-miterlimit:10;" points="
					1267.09,916.93 1252.31,965.02 1202.89,975.75 1217.68,927.66 				"/>
				
					<linearGradient id="SVGID_00000004518382455464102100000010050795407800085691_" gradientUnits="userSpaceOnUse" x1="-4436.1045" y1="1682.3617" x2="-4501.9873" y2="1632.064" gradientTransform="matrix(-0.3993 -0.9168 0.9168 -0.3993 -2075.366 -2543.2625)">
					<stop  offset="0.2818" style="stop-color:#FFFFFF"/>
					<stop  offset="0.5706" style="stop-color:#FBE4FD;stop-opacity:0.3804"/>
					<stop  offset="0.7479" style="stop-color:#F9D9FC;stop-opacity:0"/>
				</linearGradient>
				
					<polygon style="fill:url(#SVGID_00000004518382455464102100000010050795407800085691_);stroke:#FFFFFF;stroke-width:0.6603;stroke-linejoin:round;stroke-miterlimit:10;" points="
					1267.09,916.93 1233.7,879.29 1184.29,890.02 1217.68,927.66 				"/>
				
					<linearGradient id="SVGID_00000004538331156996181450000017031187124995091845_" gradientUnits="userSpaceOnUse" x1="1105.5803" y1="902.1829" x2="1336.9196" y2="982.9774">
					<stop  offset="0.0663" style="stop-color:#FFE3FF"/>
					<stop  offset="0.2294" style="stop-color:#FCDFFE;stop-opacity:0.706"/>
					<stop  offset="0.6208" style="stop-color:#F9D9FC;stop-opacity:0"/>
				</linearGradient>
				
					<polygon style="fill:url(#SVGID_00000004538331156996181450000017031187124995091845_);stroke:#FFFFFF;stroke-width:0.6603;stroke-linejoin:round;stroke-miterlimit:10;" points="
					1217.76,927.64 1184.22,890 1169.42,938.13 1202.84,975.8 				"/>
			</g>
		</g>
		<g>
			
				<radialGradient id="SVGID_00000076605535921252012000000011473789590165815186_" cx="1845.0894" cy="-159.0735" r="118.5174" gradientTransform="matrix(0.9743 0.2254 -0.2254 0.9743 -103.33 271.353)" gradientUnits="userSpaceOnUse">
				<stop  offset="0.1215" style="stop-color:#F0BDF5"/>
				<stop  offset="0.2833" style="stop-color:#C181CE"/>
				<stop  offset="0.4469" style="stop-color:#974BAB"/>
				<stop  offset="0.5886" style="stop-color:#782492"/>
				<stop  offset="0.7012" style="stop-color:#650C83"/>
				<stop  offset="0.7707" style="stop-color:#5E037D"/>
			</radialGradient>
			<path style="fill:url(#SVGID_00000076605535921252012000000011473789590165815186_);" d="M1689.58,523.83
				c0,0-13.34-18.85,3.62-39.83c16.96-20.99,34.71-20.24,34.71-20.24s13.01-0.39,22.1,5.29l-4.78-10.63c0,0-15.24-17.9-45.16-4.88
				c-9.6,4.18-14.87,9.15-20.06,14.32c-3.33,3.31-6.68,7.8-8.62,11.09c-5.36,9.09-5.3,16.66-5.3,16.66s-2.99,8.71,6.11,21.38
				C1672.21,517,1676.28,524.43,1689.58,523.83z"/>
			<g>
				
					<linearGradient id="SVGID_00000176037363257185517110000012788330255628407958_" gradientUnits="userSpaceOnUse" x1="1824.8448" y1="-150.3975" x2="1823.5148" y2="-175.2703" gradientTransform="matrix(0.9752 0.2213 -0.2213 0.9752 -114.5794 271.7313)">
					<stop  offset="0.7016" style="stop-color:#4E0778"/>
					<stop  offset="0.7554" style="stop-color:#7A3C9A"/>
					<stop  offset="0.817" style="stop-color:#A673BD"/>
					<stop  offset="0.8744" style="stop-color:#C99ED8"/>
					<stop  offset="0.9258" style="stop-color:#E2BDEC"/>
					<stop  offset="0.9694" style="stop-color:#F2CFF8"/>
					<stop  offset="1" style="stop-color:#F7D6FC"/>
				</linearGradient>
				<path style="fill:url(#SVGID_00000176037363257185517110000012788330255628407958_);" d="M1707.12,517.33l-13.34-2.39
					c-2.19-0.39-3.67-2.51-3.28-4.7l0,0c0.39-2.19,2.51-3.67,4.7-3.28l13.34,2.39c2.19,0.39,3.67,2.51,3.28,4.7l0,0
					C1711.43,516.25,1709.32,517.72,1707.12,517.33z"/>
				
					<linearGradient id="SVGID_00000159434710218149735330000012269590355589179301_" gradientUnits="userSpaceOnUse" x1="1836.2148" y1="-147.7915" x2="1797.4056" y2="-170.0992" gradientTransform="matrix(0.9743 0.2254 -0.2254 0.9743 -103.33 271.353)">
					<stop  offset="0.6315" style="stop-color:#4E0778"/>
					<stop  offset="0.7085" style="stop-color:#733595"/>
					<stop  offset="0.9105" style="stop-color:#D1A8DF"/>
					<stop  offset="1" style="stop-color:#F7D6FC"/>
				</linearGradient>
				<path style="fill:url(#SVGID_00000159434710218149735330000012269590355589179301_);" d="M1708.82,518.81l-8.57-1.53l-8.57-1.53
					c0,0-6.3,1.19-6.63,7.08l13.17,4.91l14.37,0.02C1714.32,522.11,1708.82,518.81,1708.82,518.81z"/>
				
					<linearGradient id="SVGID_00000072996106591793705860000006669512807380218042_" gradientUnits="userSpaceOnUse" x1="1812.5077" y1="-173.7899" x2="1812.5077" y2="-155.3357" gradientTransform="matrix(0.9743 0.2254 -0.2254 0.9743 -103.33 271.353)">
					<stop  offset="0.2901" style="stop-color:#390557"/>
					<stop  offset="0.3737" style="stop-color:#3D0A5B"/>
					<stop  offset="0.472" style="stop-color:#4A1866"/>
					<stop  offset="0.5777" style="stop-color:#603079"/>
					<stop  offset="0.6886" style="stop-color:#7E5193"/>
					<stop  offset="0.8036" style="stop-color:#A57BB4"/>
					<stop  offset="0.9203" style="stop-color:#D3AFDD"/>
					<stop  offset="1" style="stop-color:#F7D6FC"/>
				</linearGradient>
				<polygon style="fill:url(#SVGID_00000072996106591793705860000006669512807380218042_);" points="1704,517.95 1696.5,516.61 
					1696.7,515.47 1704.2,516.81 				"/>
			</g>
			
				<linearGradient id="SVGID_00000106117781112005438460000017301271673291320753_" gradientUnits="userSpaceOnUse" x1="1811.62" y1="-238.9147" x2="1842.4927" y2="-87.187" gradientTransform="matrix(0.9743 0.2254 -0.2254 0.9743 -103.33 271.353)">
				<stop  offset="0.2901" style="stop-color:#4E0778"/>
				<stop  offset="0.3742" style="stop-color:#520C7B"/>
				<stop  offset="0.473" style="stop-color:#5E1A84"/>
				<stop  offset="0.5793" style="stop-color:#713293"/>
				<stop  offset="0.6908" style="stop-color:#8C53A8"/>
				<stop  offset="0.8065" style="stop-color:#AF7DC4"/>
				<stop  offset="0.9238" style="stop-color:#D8B1E4"/>
				<stop  offset="1" style="stop-color:#F7D6FC"/>
			</linearGradient>
			<path style="fill:url(#SVGID_00000106117781112005438460000017301271673291320753_);" d="M1738.99,524.29
				c-0.26-0.31-0.41-0.49-0.41-0.49s13.95-9.33,20.07-23.93s4.92-24.98,0.27-34.86c-4.64-9.88-20.83-18.52-35.27-16.6l9.39,1.52
				l7.05,3.51l9.3,11.89l1.45,11.52l-5.95,19.69l-13.37,15.81l-18.88,10.5l-18.21,3.22l-13.08-2.09l-7.38-4.88l-5.1-6.66l-3.09-4.36
				c0,0,2.15,13.38,14.27,23.4c0,0,4.96,4.76,6.58,13.36c0.91,4.83,2.26,10.4,5.98,13.89c3,2.81,7.3,2.94,11.12,2.15
				c2.04-0.42,4.02-1.11,5.94-1.92c1.04-0.44,4.69-1.37,4.44-2.71c0.19,0.25,0.39,0.48,0.59,0.72
				C1717.44,543.98,1726.33,529.69,1738.99,524.29z"/>
			
				<linearGradient id="SVGID_00000144334227603842601370000005296114361695943851_" gradientUnits="userSpaceOnUse" x1="1872.8212" y1="-176.0466" x2="1844.6167" y2="-105.0034" gradientTransform="matrix(0.9743 0.2254 -0.2254 0.9743 -103.33 271.353)">
				<stop  offset="0.3757" style="stop-color:#4E0778"/>
				<stop  offset="0.4438" style="stop-color:#530D7C"/>
				<stop  offset="0.532" style="stop-color:#601D86"/>
				<stop  offset="0.6313" style="stop-color:#763897"/>
				<stop  offset="0.7388" style="stop-color:#945DAF"/>
				<stop  offset="0.8529" style="stop-color:#BB8DCD"/>
				<stop  offset="0.9707" style="stop-color:#EAC6F2"/>
				<stop  offset="1" style="stop-color:#F7D6FC"/>
			</linearGradient>
			<path style="fill:url(#SVGID_00000144334227603842601370000005296114361695943851_);" d="M1754.77,545.6
				c-0.06-0.05-0.13-0.09-0.19-0.14c-0.83-0.59-1.75-1.11-2.35-1.92c-1.03-1.39-0.96-3.34-1.83-4.84c-1.42-2.48-4.91-3.07-6.55-5.42
				c-0.88-1.26-1.1-2.84-1.58-4.29c-0.6-1.8-1.89-4.99-4.02-4.37c-1.73,0.51-3.52,1.84-4.98,2.86c-3.28,2.28-6.15,5.12-8.62,8.26
				c-4.86,6.16-8.33,13.55-9.96,21.23c2.14,2.57,5.03,4.79,7.41,7.09c1.61,1.56,3.25,3.1,4.84,4.68c0,0,6.6,6.58,14.31,6.92
				c7.71,0.34,14.2-3.35,16.24-11.54C1759.02,557.99,1760.72,549.98,1754.77,545.6z"/>
			
				<linearGradient id="SVGID_00000045583718921876350620000015007662398401037978_" gradientUnits="userSpaceOnUse" x1="1727.3417" y1="-135.6749" x2="1831.7771" y2="-210.5203" gradientTransform="matrix(0.9743 0.2254 -0.2254 0.9743 -103.33 271.353)">
				<stop  offset="0.276" style="stop-color:#4E0778"/>
				<stop  offset="0.4122" style="stop-color:#500A7A"/>
				<stop  offset="0.5158" style="stop-color:#581480"/>
				<stop  offset="0.6087" style="stop-color:#66248A"/>
				<stop  offset="0.6952" style="stop-color:#783B99"/>
				<stop  offset="0.7773" style="stop-color:#9159AC"/>
				<stop  offset="0.8562" style="stop-color:#AF7DC3"/>
				<stop  offset="0.931" style="stop-color:#D1A8DE"/>
				<stop  offset="1" style="stop-color:#F7D6FC"/>
			</linearGradient>
			<path style="fill:url(#SVGID_00000045583718921876350620000015007662398401037978_);" d="M1747.38,458.82
				c-11.29-15.24-37.81-14.73-59.24,1.14c-21.43,15.87-29.65,41.09-18.36,56.33c11.29,15.24,37.81,14.73,59.24-1.14
				C1750.44,499.28,1758.66,474.06,1747.38,458.82z M1727.01,512.45c-20.22,14.97-45.24,15.45-55.89,1.08
				c-10.65-14.38-2.89-38.17,17.33-53.14s45.24-15.45,55.89-1.08C1754.99,473.68,1747.23,497.47,1727.01,512.45z"/>
			
				<radialGradient id="SVGID_00000012458464941091441520000001522659377905091212_" cx="1840.5565" cy="-149.2167" r="40.7031" gradientTransform="matrix(0.9743 0.2254 -0.2254 0.9743 -103.33 271.353)" gradientUnits="userSpaceOnUse">
				<stop  offset="0.5172" style="stop-color:#4E0778"/>
				<stop  offset="0.6046" style="stop-color:#510A7A"/>
				<stop  offset="0.6734" style="stop-color:#591480"/>
				<stop  offset="0.7359" style="stop-color:#66258B"/>
				<stop  offset="0.7946" style="stop-color:#793C9A"/>
				<stop  offset="0.8508" style="stop-color:#925BAD"/>
				<stop  offset="0.905" style="stop-color:#B180C5"/>
				<stop  offset="0.9566" style="stop-color:#D4ABE1"/>
				<stop  offset="1" style="stop-color:#F7D6FC"/>
			</radialGradient>
			<path style="fill:url(#SVGID_00000012458464941091441520000001522659377905091212_);" d="M1707.82,546.85
				c0.05,3.29-0.98,6.54-2.61,9.39c-1.15,2.02-2.64,3.91-4.59,5.18c-1.95,1.27-4.11,2.01-6.42,1.7c-4.03-0.55-6.99-4.23-8.28-8.08
				c-1.3-3.85-1.35-8-2.07-12c-0.6-3.31-1.29-8.09,2.99-7.62c4.54,0.5,10.4,2,13.64,3.27
				C1704.78,540.38,1707.73,541.36,1707.82,546.85z"/>
		</g>
		<g>
			<g>
				
					<linearGradient id="SVGID_00000034785660203481350620000013254960116109375646_" gradientUnits="userSpaceOnUse" x1="1465.0684" y1="452.7875" x2="1450.5459" y2="314.398">
					<stop  offset="0" style="stop-color:#BA00BB;stop-opacity:0"/>
					<stop  offset="0.4171" style="stop-color:#C31EC5;stop-opacity:0.0245"/>
					<stop  offset="0.6379" style="stop-color:#D866DA;stop-opacity:0.394"/>
					<stop  offset="1" style="stop-color:#F9D9FC"/>
				</linearGradient>
				
					<path style="fill:url(#SVGID_00000034785660203481350620000013254960116109375646_);stroke:#FFFFFF;stroke-width:0.9594;stroke-miterlimit:10;" d="
					M1430.82,322.99l1.75,71.35c39.74-23.19,47.71-46.81,47.71-46.81S1481.89,317.63,1430.82,322.99z"/>
				
					<linearGradient id="SVGID_00000150099070842048005400000005168198576485019560_" gradientUnits="userSpaceOnUse" x1="1867.6031" y1="493.3338" x2="886.7655" y2="494.6143">
					<stop  offset="0" style="stop-color:#C422C6;stop-opacity:0.1"/>
					<stop  offset="0.047" style="stop-color:#CE52D0;stop-opacity:0.2349"/>
					<stop  offset="0.1192" style="stop-color:#DD96DE;stop-opacity:0.4422"/>
					<stop  offset="0.1798" style="stop-color:#E8C7E8;stop-opacity:0.6161"/>
					<stop  offset="0.2256" style="stop-color:#EFE6EF;stop-opacity:0.7476"/>
					<stop  offset="0.2513" style="stop-color:#F1F1F1;stop-opacity:0.8214"/>
					<stop  offset="0.2951" style="stop-color:#EAD0EB;stop-opacity:0.7015"/>
					<stop  offset="0.4445" style="stop-color:#D466D5;stop-opacity:0.2923"/>
					<stop  offset="0.511" style="stop-color:#CB3BCD;stop-opacity:0.11"/>
					<stop  offset="0.547" style="stop-color:#CE46D0;stop-opacity:0.212"/>
					<stop  offset="0.6095" style="stop-color:#D562D7;stop-opacity:0.389"/>
					<stop  offset="0.691" style="stop-color:#E290E4;stop-opacity:0.62"/>
					<stop  offset="0.7874" style="stop-color:#F3CFF5;stop-opacity:0.8931"/>
					<stop  offset="0.8251" style="stop-color:#FAEAFC"/>
				</linearGradient>
				
					<path style="fill:url(#SVGID_00000150099070842048005400000005168198576485019560_);stroke:#FFFFFF;stroke-width:0.9594;stroke-miterlimit:10;" d="
					M1432.19,394.35c-7.59,4.43-16.35,8.85-26.43,13.08c-55.24,23.2-150.33,40.9-312.6,25.5v194.19c0,0,348.92,61.9,386.74-81.17
					V347.54c0,0-5.65,16.76-31.2,35.91C1443.92,387.03,1438.45,390.69,1432.19,394.35z"/>
			</g>
			<g>
				<g>
					
						<linearGradient id="SVGID_00000173120354222541510530000011049921432142246277_" gradientUnits="userSpaceOnUse" x1="1095.8162" y1="451.1251" x2="1269.8601" y2="648.5746">
						<stop  offset="0.2344" style="stop-color:#F9D9FC"/>
						<stop  offset="0.3285" style="stop-color:#ECABEF;stop-opacity:0.7571"/>
						<stop  offset="0.5408" style="stop-color:#CB39CD;stop-opacity:0.2089"/>
						<stop  offset="0.5829" style="stop-color:#C422C6;stop-opacity:0.1"/>
						<stop  offset="0.6227" style="stop-color:#CF49D1;stop-opacity:0.1987"/>
						<stop  offset="0.6741" style="stop-color:#DC74DE;stop-opacity:0.326"/>
						<stop  offset="0.7264" style="stop-color:#E697E8;stop-opacity:0.4555"/>
						<stop  offset="0.7788" style="stop-color:#EEB3F1;stop-opacity:0.5855"/>
						<stop  offset="0.8316" style="stop-color:#F3C6F6;stop-opacity:0.7162"/>
						<stop  offset="0.8848" style="stop-color:#F7D2FA;stop-opacity:0.8481"/>
						<stop  offset="0.9392" style="stop-color:#F8D6FB;stop-opacity:0.9831"/>
					</linearGradient>
					
						<path style="fill:url(#SVGID_00000173120354222541510530000011049921432142246277_);stroke:#FFFFFF;stroke-width:0.9594;stroke-miterlimit:10;" d="
						M1247.73,511.3c-76.05,4.09-120.44-4.27-120.44-4.27v91.98c0,0,68.3,10.42,120.44,6.73V511.3z"/>
					<g>
						<defs>
							<path id="SVGID_00000162349208821410301220000002934052266295712388_" d="M1247.41,511.66
								c-75.85,4.08-120.11-4.26-120.11-4.26v91.73c0,0,68.12,10.4,120.11,6.71V511.66z"/>
						</defs>
						<clipPath id="SVGID_00000169551808781724674520000012514338273959475374_">
							<use xlink:href="#SVGID_00000162349208821410301220000002934052266295712388_"  style="overflow:visible;"/>
						</clipPath>
						<g style="clip-path:url(#SVGID_00000169551808781724674520000012514338273959475374_);">
							<g>
								
									<linearGradient id="SVGID_00000142857589092845938220000010353222712055604893_" gradientUnits="userSpaceOnUse" x1="1184.9315" y1="513.7911" x2="1189.1801" y2="625.8463">
									<stop  offset="0.1215" style="stop-color:#F0BDF5"/>
									<stop  offset="0.2281" style="stop-color:#EEBAF4;stop-opacity:0.7795"/>
									<stop  offset="0.3041" style="stop-color:#EAB1F1;stop-opacity:0.6225"/>
									<stop  offset="0.3705" style="stop-color:#E1A1EB;stop-opacity:0.4851"/>
									<stop  offset="0.4314" style="stop-color:#D68BE3;stop-opacity:0.359"/>
									<stop  offset="0.4886" style="stop-color:#C76ED9;stop-opacity:0.2406"/>
									<stop  offset="0.5431" style="stop-color:#B44BCC;stop-opacity:0.128"/>
									<stop  offset="0.5944" style="stop-color:#9F22BD;stop-opacity:0.0219"/>
									<stop  offset="0.605" style="stop-color:#9A19BA;stop-opacity:0"/>
								</linearGradient>
								
									<path style="fill:url(#SVGID_00000142857589092845938220000010353222712055604893_);stroke:#FFFFFF;stroke-width:0.7933;stroke-linecap:round;stroke-linejoin:round;stroke-miterlimit:10;" d="
									M1249.14,581.31l-37.5-33.7c-3.67-3.3-9.19-3.43-13.01-0.31l-21.28,17.34l-12.13-10.54c-3.56-3.1-8.8-3.28-12.58-0.45
									l-27.07,20.32"/>
								
									<linearGradient id="SVGID_00000011004979188364319620000015563502067714088092_" gradientUnits="userSpaceOnUse" x1="1105.8282" y1="688.1846" x2="1328.5125" y2="448.6098">
									<stop  offset="0.1215" style="stop-color:#F0BDF5"/>
									<stop  offset="0.2281" style="stop-color:#EEBAF4;stop-opacity:0.7795"/>
									<stop  offset="0.3041" style="stop-color:#EAB1F1;stop-opacity:0.6225"/>
									<stop  offset="0.3705" style="stop-color:#E1A1EB;stop-opacity:0.4851"/>
									<stop  offset="0.4314" style="stop-color:#D68BE3;stop-opacity:0.359"/>
									<stop  offset="0.4886" style="stop-color:#C76ED9;stop-opacity:0.2406"/>
									<stop  offset="0.5431" style="stop-color:#B44BCC;stop-opacity:0.128"/>
									<stop  offset="0.5944" style="stop-color:#9F22BD;stop-opacity:0.0219"/>
									<stop  offset="0.605" style="stop-color:#9A19BA;stop-opacity:0"/>
								</linearGradient>
								
									<path style="fill:url(#SVGID_00000011004979188364319620000015563502067714088092_);stroke:#FFFFFF;stroke-width:0.7933;stroke-linecap:round;stroke-linejoin:round;stroke-miterlimit:10;" d="
									M1249.14,626.99l-123.57-11.22v-41.81l0,0c36.16,4.77,72.6,7.21,109.08,7.31l14.49,0.04V626.99z"/>
							</g>
							
								<linearGradient id="SVGID_00000071560577886929013590000004968839523754301112_" gradientUnits="userSpaceOnUse" x1="1129.3804" y1="503.2516" x2="1154.1333" y2="542.0617">
								<stop  offset="0.1215" style="stop-color:#F0BDF5"/>
								<stop  offset="0.2281" style="stop-color:#EEBAF4;stop-opacity:0.7795"/>
								<stop  offset="0.3041" style="stop-color:#EAB1F1;stop-opacity:0.6225"/>
								<stop  offset="0.3705" style="stop-color:#E1A1EB;stop-opacity:0.4851"/>
								<stop  offset="0.4314" style="stop-color:#D68BE3;stop-opacity:0.359"/>
								<stop  offset="0.4886" style="stop-color:#C76ED9;stop-opacity:0.2406"/>
								<stop  offset="0.5431" style="stop-color:#B44BCC;stop-opacity:0.128"/>
								<stop  offset="0.5944" style="stop-color:#9F22BD;stop-opacity:0.0219"/>
								<stop  offset="0.605" style="stop-color:#9A19BA;stop-opacity:0"/>
							</linearGradient>
							
								<path style="fill:url(#SVGID_00000071560577886929013590000004968839523754301112_);stroke:#FFFFFF;stroke-width:0.7933;stroke-linecap:round;stroke-linejoin:round;stroke-miterlimit:10;" d="
								M1143.64,540.04c4.05,3.02,9.48,2.39,12.14-1.42c2.65-3.81,1.53-9.34-2.52-12.37c-4.05-3.02-9.48-2.39-12.14,1.42
								C1138.46,531.48,1139.59,537.02,1143.64,540.04z"/>
						</g>
					</g>
				</g>
				<g>
					<path class="st57" d="M1274.55,599.76l40.02-87.9c0,0,69.06,66.29,70.31,67.49c1.25,1.2,30.76-67.57,30.76-67.57l26.77,25.7
						l20.69-45.45"/>
					<g>
						
							<linearGradient id="SVGID_00000059293126160504576940000016393957698680992922_" gradientUnits="userSpaceOnUse" x1="780.2433" y1="1542.8896" x2="820.5177" y2="1578.3033" gradientTransform="matrix(1.1334 -0.3668 0.1134 0.8884 245.8757 -575.0556)">
							<stop  offset="0.2344" style="stop-color:#F9D9FC"/>
							<stop  offset="0.3285" style="stop-color:#ECABEF;stop-opacity:0.7571"/>
							<stop  offset="0.5408" style="stop-color:#CB39CD;stop-opacity:0.2089"/>
							<stop  offset="0.5829" style="stop-color:#C422C6;stop-opacity:0.1"/>
							<stop  offset="0.6227" style="stop-color:#CF49D1;stop-opacity:0.1987"/>
							<stop  offset="0.6741" style="stop-color:#DC74DE;stop-opacity:0.326"/>
							<stop  offset="0.7264" style="stop-color:#E697E8;stop-opacity:0.4555"/>
							<stop  offset="0.7788" style="stop-color:#EEB3F1;stop-opacity:0.5855"/>
							<stop  offset="0.8316" style="stop-color:#F3C6F6;stop-opacity:0.7162"/>
							<stop  offset="0.8848" style="stop-color:#F7D2FA;stop-opacity:0.8481"/>
							<stop  offset="0.9392" style="stop-color:#F8D6FB;stop-opacity:0.9831"/>
						</linearGradient>
						
							<path style="fill:url(#SVGID_00000059293126160504576940000016393957698680992922_);stroke:#FFFFFF;stroke-width:0.7217;stroke-miterlimit:10;" d="
							M1317.6,511.66c0.31,2.41-0.78,4.8-2.43,5.34c-1.65,0.53-3.24-0.99-3.54-3.4c-0.31-2.41,0.78-4.8,2.43-5.34
							C1315.7,507.72,1317.29,509.25,1317.6,511.66z"/>
						
							<linearGradient id="SVGID_00000055670234411419768930000008055978018496044452_" gradientUnits="userSpaceOnUse" x1="732.8725" y1="1625.6768" x2="782.0374" y2="1668.908" gradientTransform="matrix(1.1334 -0.3668 0.1134 0.8884 245.8757 -575.0556)">
							<stop  offset="0.2344" style="stop-color:#F9D9FC"/>
							<stop  offset="0.3285" style="stop-color:#ECABEF;stop-opacity:0.7571"/>
							<stop  offset="0.5408" style="stop-color:#CB39CD;stop-opacity:0.2089"/>
							<stop  offset="0.5829" style="stop-color:#C422C6;stop-opacity:0.1"/>
							<stop  offset="0.6227" style="stop-color:#CF49D1;stop-opacity:0.1987"/>
							<stop  offset="0.6741" style="stop-color:#DC74DE;stop-opacity:0.326"/>
							<stop  offset="0.7264" style="stop-color:#E697E8;stop-opacity:0.4555"/>
							<stop  offset="0.7788" style="stop-color:#EEB3F1;stop-opacity:0.5855"/>
							<stop  offset="0.8316" style="stop-color:#F3C6F6;stop-opacity:0.7162"/>
							<stop  offset="0.8848" style="stop-color:#F7D2FA;stop-opacity:0.8481"/>
							<stop  offset="0.9392" style="stop-color:#F8D6FB;stop-opacity:0.9831"/>
						</linearGradient>
						
							<path style="fill:url(#SVGID_00000055670234411419768930000008055978018496044452_);stroke:#FFFFFF;stroke-width:0.881;stroke-miterlimit:10;" d="
							M1276.04,603.07c0.38,2.95-0.95,5.86-2.97,6.51c-2.01,0.65-3.95-1.21-4.33-4.15c-0.38-2.95,0.95-5.86,2.97-6.51
							C1273.72,598.27,1275.66,600.13,1276.04,603.07z"/>
						
							<linearGradient id="SVGID_00000062161598416875489050000001521107304710717863_" gradientUnits="userSpaceOnUse" x1="832.7206" y1="1639.6273" x2="872.9949" y2="1675.0409" gradientTransform="matrix(1.1334 -0.3668 0.1134 0.8884 245.8757 -575.0556)">
							<stop  offset="0.2344" style="stop-color:#F9D9FC"/>
							<stop  offset="0.3285" style="stop-color:#ECABEF;stop-opacity:0.7571"/>
							<stop  offset="0.5408" style="stop-color:#CB39CD;stop-opacity:0.2089"/>
							<stop  offset="0.5829" style="stop-color:#C422C6;stop-opacity:0.1"/>
							<stop  offset="0.6227" style="stop-color:#CF49D1;stop-opacity:0.1987"/>
							<stop  offset="0.6741" style="stop-color:#DC74DE;stop-opacity:0.326"/>
							<stop  offset="0.7264" style="stop-color:#E697E8;stop-opacity:0.4555"/>
							<stop  offset="0.7788" style="stop-color:#EEB3F1;stop-opacity:0.5855"/>
							<stop  offset="0.8316" style="stop-color:#F3C6F6;stop-opacity:0.7162"/>
							<stop  offset="0.8848" style="stop-color:#F7D2FA;stop-opacity:0.8481"/>
							<stop  offset="0.9392" style="stop-color:#F8D6FB;stop-opacity:0.9831"/>
						</linearGradient>
						
							<path style="fill:url(#SVGID_00000062161598416875489050000001521107304710717863_);stroke:#FFFFFF;stroke-width:0.7217;stroke-miterlimit:10;" d="
							M1388.04,578.35c0.31,2.41-0.78,4.8-2.43,5.34c-1.65,0.53-3.24-0.99-3.54-3.4s0.78-4.8,2.43-5.34
							C1386.15,574.42,1387.74,575.94,1388.04,578.35z"/>
						
							<linearGradient id="SVGID_00000029040270810539282230000009374729599696338875_" gradientUnits="userSpaceOnUse" x1="865.9982" y1="1577.6404" x2="906.2725" y2="1613.054" gradientTransform="matrix(1.1334 -0.3668 0.1134 0.8884 245.8757 -575.0556)">
							<stop  offset="0.2344" style="stop-color:#F9D9FC"/>
							<stop  offset="0.3285" style="stop-color:#ECABEF;stop-opacity:0.7571"/>
							<stop  offset="0.5408" style="stop-color:#CB39CD;stop-opacity:0.2089"/>
							<stop  offset="0.5829" style="stop-color:#C422C6;stop-opacity:0.1"/>
							<stop  offset="0.6227" style="stop-color:#CF49D1;stop-opacity:0.1987"/>
							<stop  offset="0.6741" style="stop-color:#DC74DE;stop-opacity:0.326"/>
							<stop  offset="0.7264" style="stop-color:#E697E8;stop-opacity:0.4555"/>
							<stop  offset="0.7788" style="stop-color:#EEB3F1;stop-opacity:0.5855"/>
							<stop  offset="0.8316" style="stop-color:#F3C6F6;stop-opacity:0.7162"/>
							<stop  offset="0.8848" style="stop-color:#F7D2FA;stop-opacity:0.8481"/>
							<stop  offset="0.9392" style="stop-color:#F8D6FB;stop-opacity:0.9831"/>
						</linearGradient>
						
							<path style="fill:url(#SVGID_00000029040270810539282230000009374729599696338875_);stroke:#FFFFFF;stroke-width:0.7217;stroke-miterlimit:10;" d="
							M1418.73,511.08c0.31,2.41-0.78,4.8-2.43,5.34c-1.65,0.53-3.24-0.99-3.54-3.4s0.78-4.8,2.43-5.34
							C1416.84,507.14,1418.42,508.67,1418.73,511.08z"/>
						
							<linearGradient id="SVGID_00000073720533622181659930000010979916996136444584_" gradientUnits="userSpaceOnUse" x1="885.8224" y1="1614.3802" x2="926.0967" y2="1649.7938" gradientTransform="matrix(1.1334 -0.3668 0.1134 0.8884 245.8757 -575.0556)">
							<stop  offset="0.2344" style="stop-color:#F9D9FC"/>
							<stop  offset="0.3285" style="stop-color:#ECABEF;stop-opacity:0.7571"/>
							<stop  offset="0.5408" style="stop-color:#CB39CD;stop-opacity:0.2089"/>
							<stop  offset="0.5829" style="stop-color:#C422C6;stop-opacity:0.1"/>
							<stop  offset="0.6227" style="stop-color:#CF49D1;stop-opacity:0.1987"/>
							<stop  offset="0.6741" style="stop-color:#DC74DE;stop-opacity:0.326"/>
							<stop  offset="0.7264" style="stop-color:#E697E8;stop-opacity:0.4555"/>
							<stop  offset="0.7788" style="stop-color:#EEB3F1;stop-opacity:0.5855"/>
							<stop  offset="0.8316" style="stop-color:#F3C6F6;stop-opacity:0.7162"/>
							<stop  offset="0.8848" style="stop-color:#F7D2FA;stop-opacity:0.8481"/>
							<stop  offset="0.9392" style="stop-color:#F8D6FB;stop-opacity:0.9831"/>
						</linearGradient>
						
							<path style="fill:url(#SVGID_00000073720533622181659930000010979916996136444584_);stroke:#FFFFFF;stroke-width:0.7217;stroke-miterlimit:10;" d="
							M1445.37,536.45c0.31,2.41-0.78,4.8-2.43,5.34c-1.65,0.53-3.24-0.99-3.54-3.4s0.78-4.8,2.43-5.34
							C1443.47,532.51,1445.06,534.03,1445.37,536.45z"/>
						
							<linearGradient id="SVGID_00000164516261526713881790000011212225221288207506_" gradientUnits="userSpaceOnUse" x1="908.2861" y1="1572.7217" x2="948.5602" y2="1608.1353" gradientTransform="matrix(1.1334 -0.3668 0.1134 0.8884 245.8757 -575.0556)">
							<stop  offset="0.2344" style="stop-color:#F9D9FC"/>
							<stop  offset="0.3285" style="stop-color:#ECABEF;stop-opacity:0.7571"/>
							<stop  offset="0.5408" style="stop-color:#CB39CD;stop-opacity:0.2089"/>
							<stop  offset="0.5829" style="stop-color:#C422C6;stop-opacity:0.1"/>
							<stop  offset="0.6227" style="stop-color:#CF49D1;stop-opacity:0.1987"/>
							<stop  offset="0.6741" style="stop-color:#DC74DE;stop-opacity:0.326"/>
							<stop  offset="0.7264" style="stop-color:#E697E8;stop-opacity:0.4555"/>
							<stop  offset="0.7788" style="stop-color:#EEB3F1;stop-opacity:0.5855"/>
							<stop  offset="0.8316" style="stop-color:#F3C6F6;stop-opacity:0.7162"/>
							<stop  offset="0.8848" style="stop-color:#F7D2FA;stop-opacity:0.8481"/>
							<stop  offset="0.9392" style="stop-color:#F8D6FB;stop-opacity:0.9831"/>
						</linearGradient>
						
							<path style="fill:url(#SVGID_00000164516261526713881790000011212225221288207506_);stroke:#FFFFFF;stroke-width:0.7217;stroke-miterlimit:10;" d="
							M1466.1,491.2c0.31,2.41-0.78,4.8-2.43,5.34c-1.65,0.53-3.24-0.99-3.54-3.4s0.78-4.8,2.43-5.34
							C1464.21,487.26,1465.79,488.78,1466.1,491.2z"/>
					</g>
				</g>
				<g>
					<path class="st64" d="M1461.9,455.66c-5.29,3.96-11.35,8.02-18.28,12.06c-8.41,4.91-18.1,9.8-29.26,14.48"/>
					<path class="st64" d="M1461.9,440.16c-5.29,3.96-11.35,8.02-18.28,12.06c-8.41,4.91-18.1,9.8-29.26,14.48"/>
					<path class="st64" d="M1461.9,424.67c-5.29,3.96-11.35,8.02-18.28,12.06c-8.41,4.91-18.1,9.8-29.26,14.48"/>
				</g>
			</g>
		</g>
	</g>
	<g>
		<path class="st22" d="M1438.8,264.12l0.93,3.04c0.07,0.22,0.24,0.39,0.47,0.45l3.18,0.89c0.67,0.19,0.67,1.09,0,1.28l-3.18,0.89
			c-0.23,0.06-0.41,0.23-0.47,0.45l-0.93,3.04c-0.19,0.64-1.14,0.64-1.33,0l-0.93-3.04c-0.07-0.22-0.24-0.39-0.47-0.45l-3.18-0.89
			c-0.67-0.19-0.67-1.09,0-1.28l3.18-0.89c0.23-0.06,0.41-0.23,0.47-0.45l0.93-3.04C1437.66,263.49,1438.61,263.49,1438.8,264.12z"
			/>
		<path class="st22" d="M930.62,712.18l0.9,3.09c0.06,0.22,0.24,0.4,0.46,0.46l3.09,0.9c0.65,0.19,0.65,1.11,0,1.3l-3.09,0.9
			c-0.22,0.06-0.4,0.24-0.46,0.46l-0.9,3.09c-0.19,0.65-1.11,0.65-1.3,0l-0.9-3.09c-0.06-0.22-0.24-0.4-0.46-0.46l-3.09-0.9
			c-0.65-0.19-0.65-1.11,0-1.3l3.09-0.9c0.22-0.06,0.4-0.24,0.46-0.46l0.9-3.09C929.51,711.53,930.43,711.53,930.62,712.18z"/>
		<path class="st22" d="M1699.63,381.82l0.9,3.09c0.06,0.22,0.24,0.4,0.46,0.46l3.09,0.9c0.65,0.19,0.65,1.11,0,1.3l-3.09,0.9
			c-0.22,0.06-0.4,0.24-0.46,0.46l-0.9,3.09c-0.19,0.65-1.11,0.65-1.3,0l-0.9-3.09c-0.06-0.22-0.24-0.39-0.46-0.46l-3.09-0.9
			c-0.65-0.19-0.65-1.11,0-1.3l3.09-0.9c0.22-0.06,0.4-0.24,0.46-0.46l0.9-3.09C1698.52,381.17,1699.44,381.17,1699.63,381.82z"/>
		<path class="st22" d="M833.44,737.5l0.42,1.45c0.03,0.1,0.11,0.19,0.22,0.22l1.45,0.42c0.31,0.09,0.31,0.52,0,0.61l-1.45,0.42
			c-0.1,0.03-0.19,0.11-0.22,0.22l-0.42,1.45c-0.09,0.31-0.52,0.31-0.61,0l-0.42-1.45c-0.03-0.1-0.11-0.19-0.22-0.22l-1.45-0.42
			c-0.31-0.09-0.31-0.52,0-0.61l1.45-0.42c0.1-0.03,0.19-0.11,0.22-0.22l0.42-1.45C832.92,737.19,833.35,737.19,833.44,737.5z"/>
		<path class="st22" d="M1550.44,934.29l0.86,2.96c0.06,0.21,0.23,0.38,0.44,0.44l2.96,0.86c0.62,0.18,0.62,1.06,0,1.24l-2.96,0.86
			c-0.21,0.06-0.38,0.23-0.44,0.44l-0.86,2.96c-0.18,0.62-1.06,0.62-1.24,0l-0.86-2.96c-0.06-0.21-0.23-0.38-0.44-0.44l-2.96-0.86
			c-0.62-0.18-0.62-1.06,0-1.24l2.96-0.86c0.21-0.06,0.38-0.23,0.44-0.44l0.86-2.96C1549.38,933.67,1550.25,933.67,1550.44,934.29z"
			/>
		<path class="st22" d="M1760.2,732.68l1.74,5.96c0.12,0.43,0.46,0.76,0.89,0.89l5.96,1.74c1.25,0.37,1.25,2.14,0,2.5l-5.96,1.74
			c-0.43,0.12-0.76,0.46-0.89,0.89l-1.74,5.96c-0.37,1.25-2.14,1.25-2.5,0l-1.74-5.96c-0.12-0.43-0.46-0.76-0.89-0.89l-5.96-1.74
			c-1.25-0.37-1.25-2.14,0-2.5l5.96-1.74c0.43-0.12,0.76-0.46,0.89-0.89l1.74-5.96C1758.06,731.43,1759.84,731.43,1760.2,732.68z"/>
		<path class="st22" d="M1005.33,372.16l2.05,7.02c0.15,0.5,0.54,0.9,1.04,1.04l7.02,2.05c1.47,0.43,1.47,2.52,0,2.95l-7.02,2.05
			c-0.5,0.15-0.9,0.54-1.04,1.04l-2.05,7.02c-0.43,1.47-2.52,1.47-2.95,0l-2.05-7.02c-0.15-0.5-0.54-0.9-1.04-1.04l-7.02-2.05
			c-1.47-0.43-1.47-2.52,0-2.95l7.02-2.05c0.5-0.15,0.9-0.54,1.04-1.04l2.05-7.02C1002.81,370.69,1004.9,370.69,1005.33,372.16z"/>
	</g>
</g>
<g id="TEXTS">
</g>
</svg>
