<?xml version="1.0" encoding="UTF-8"?>
<svg xmlns="http://www.w3.org/2000/svg" xmlns:xlink="http://www.w3.org/1999/xlink" viewBox="0 0 1389.27 1035.04">
  <defs>
    <style>
      .cls-1, .cls-2, .cls-3, .cls-4, .cls-5, .cls-6, .cls-7, .cls-8 {
        fill: none;
      }

      .cls-2 {
        stroke-width: 1.06px;
      }

      .cls-2, .cls-9, .cls-10, .cls-11, .cls-12, .cls-13, .cls-3, .cls-14, .cls-15, .cls-4, .cls-16, .cls-5, .cls-6, .cls-17, .cls-7, .cls-8 {
        stroke-miterlimit: 10;
      }

      .cls-2, .cls-9, .cls-10, .cls-11, .cls-12, .cls-13, .cls-14, .cls-15, .cls-18, .cls-19, .cls-20, .cls-16, .cls-21, .cls-22, .cls-23, .cls-24, .cls-25, .cls-26, .cls-17, .cls-7, .cls-8 {
        stroke: #fff;
      }

      .cls-27 {
        clip-path: url(#clippath);
      }

      .cls-9 {
        fill: url(#Degradado_sin_nombre_52-2);
      }

      .cls-9, .cls-10, .cls-11, .cls-12, .cls-13 {
        stroke-width: .72px;
      }

      .cls-9, .cls-10, .cls-11, .cls-12, .cls-13, .cls-14, .cls-16, .cls-17, .cls-8 {
        mix-blend-mode: lighten;
      }

      .cls-10 {
        fill: url(#Degradado_sin_nombre_52-4);
      }

      .cls-11 {
        fill: url(#Degradado_sin_nombre_52-6);
      }

      .cls-12 {
        fill: url(#Degradado_sin_nombre_52-7);
      }

      .cls-13 {
        fill: url(#Degradado_sin_nombre_52-5);
      }

      .cls-3 {
        stroke: #3f2094;
        stroke-width: .88px;
      }

      .cls-28 {
        fill: #eaecf9;
      }

      .cls-29 {
        fill: #fff;
      }

      .cls-30 {
        fill: #ffa486;
      }

      .cls-31 {
        fill: #991161;
      }

      .cls-32 {
        fill: #cdf239;
      }

      .cls-33 {
        fill: #da3095;
      }

      .cls-34 {
        fill: #1d1d1b;
      }

      .cls-35 {
        fill: #3f2094;
      }

      .cls-36 {
        fill: #291561;
      }

      .cls-37 {
        fill: #38758f;
      }

      .cls-38 {
        fill: #50b7e0;
      }

      .cls-14 {
        fill: url(#Degradado_sin_nombre_345);
      }

      .cls-14, .cls-15, .cls-17 {
        stroke-width: .96px;
      }

      .cls-15 {
        fill: url(#Degradado_sin_nombre_1399);
      }

      .cls-18 {
        fill: url(#Degradado_sin_nombre_1906);
      }

      .cls-18, .cls-19, .cls-20 {
        stroke-width: .66px;
      }

      .cls-18, .cls-19, .cls-20, .cls-21, .cls-22, .cls-23, .cls-24, .cls-25, .cls-26 {
        stroke-linejoin: round;
      }

      .cls-19 {
        fill: url(#Degradado_sin_nombre_1969);
      }

      .cls-20 {
        fill: url(#Degradado_sin_nombre_1892);
      }

      .cls-4 {
        stroke-width: .93px;
      }

      .cls-4, .cls-5, .cls-6 {
        stroke: #000;
      }

      .cls-16 {
        fill: url(#Degradado_sin_nombre_52-3);
        stroke-width: .88px;
      }

      .cls-21 {
        fill: url(#Degradado_sin_nombre_1588-3);
      }

      .cls-21, .cls-22, .cls-23 {
        stroke-width: .79px;
      }

      .cls-21, .cls-22, .cls-23, .cls-8 {
        stroke-linecap: round;
      }

      .cls-22 {
        fill: url(#Degradado_sin_nombre_1588-4);
      }

      .cls-23 {
        fill: url(#Degradado_sin_nombre_1588-2);
      }

      .cls-39 {
        fill: url(#Degradado_sin_nombre_160);
      }

      .cls-40 {
        fill: url(#Degradado_sin_nombre_236);
      }

      .cls-41 {
        clip-path: url(#clippath-1);
      }

      .cls-42 {
        clip-path: url(#clippath-4);
      }

      .cls-43 {
        clip-path: url(#clippath-3);
      }

      .cls-44 {
        clip-path: url(#clippath-2);
      }

      .cls-45 {
        fill: #152245;
      }

      .cls-45, .cls-46 {
        mix-blend-mode: soft-light;
      }

      .cls-46 {
        fill: #232c45;
      }

      .cls-5 {
        stroke-width: 1.18px;
      }

      .cls-47 {
        fill: url(#Degradado_sin_nombre_87);
      }

      .cls-48 {
        fill: url(#Degradado_sin_nombre_57);
      }

      .cls-49 {
        fill: url(#Degradado_sin_nombre_54);
      }

      .cls-50 {
        fill: url(#Degradado_sin_nombre_63);
      }

      .cls-51 {
        fill: url(#Degradado_sin_nombre_65);
      }

      .cls-52 {
        fill: url(#Degradado_sin_nombre_67);
      }

      .cls-53 {
        fill: url(#Degradado_sin_nombre_62);
      }

      .cls-54 {
        fill: url(#Degradado_sin_nombre_69);
      }

      .cls-6 {
        stroke-width: 1.23px;
      }

      .cls-55 {
        fill: url(#Degradado_sin_nombre_236-2);
      }

      .cls-24 {
        fill: url(#Degradado_sin_nombre_1707);
      }

      .cls-24, .cls-25, .cls-26 {
        stroke-width: .88px;
      }

      .cls-25 {
        fill: url(#Degradado_sin_nombre_1705);
      }

      .cls-26 {
        fill: url(#Degradado_sin_nombre_1941);
      }

      .cls-56 {
        isolation: isolate;
      }

      .cls-57 {
        fill: url(#Degradado_sin_nombre_1920);
      }

      .cls-58 {
        fill: url(#Degradado_sin_nombre_1918);
      }

      .cls-59 {
        fill: url(#Degradado_sin_nombre_1712);
      }

      .cls-60 {
        fill: url(#Degradado_sin_nombre_2088);
      }

      .cls-61 {
        fill: url(#Degradado_sin_nombre_1595);
      }

      .cls-62 {
        fill: url(#Degradado_sin_nombre_1588);
      }

      .cls-63 {
        fill: url(#Degradado_sin_nombre_2108);
      }

      .cls-64 {
        fill: url(#Degradado_sin_nombre_1837);
      }

      .cls-65 {
        fill: url(#Degradado_sin_nombre_1258);
      }

      .cls-17 {
        fill: url(#Degradado_sin_nombre_52);
      }

      .cls-7 {
        stroke-width: .95px;
      }

      .cls-8 {
        stroke-width: 1.92px;
      }

      .cls-66 {
        fill: url(#Degradado_sin_nombre_1920-2);
      }

      .cls-67 {
        fill: url(#Degradado_sin_nombre_1258-2);
      }

      .cls-68 {
        fill: url(#Degradado_sin_nombre_1258-3);
      }
    </style>
    <linearGradient id="Degradado_sin_nombre_1588" data-name="Degradado sin nombre 1588" x1="-157.84" y1="-234.05" x2="590.9" y2="388.76" gradientUnits="userSpaceOnUse">
      <stop offset=".12" stop-color="#f0bdf5"/>
      <stop offset=".21" stop-color="#eebbf4" stop-opacity=".99"/>
      <stop offset=".28" stop-color="#ebb4f2" stop-opacity=".95"/>
      <stop offset=".34" stop-color="#e6aaee" stop-opacity=".89"/>
      <stop offset=".39" stop-color="#de9be8" stop-opacity=".8"/>
      <stop offset=".44" stop-color="#d488e2" stop-opacity=".68"/>
      <stop offset=".48" stop-color="#c870d9" stop-opacity=".54"/>
      <stop offset=".53" stop-color="#b954cf" stop-opacity=".36"/>
      <stop offset=".57" stop-color="#a835c4" stop-opacity=".17"/>
      <stop offset=".6" stop-color="#9a19ba" stop-opacity="0"/>
    </linearGradient>
    <linearGradient id="Degradado_sin_nombre_236" data-name="Degradado sin nombre 236" x1="79.49" y1="466.77" x2="92.25" y2="629.16" gradientUnits="userSpaceOnUse">
      <stop offset="0" stop-color="#e964f5"/>
      <stop offset=".99" stop-color="#9a19ba" stop-opacity="0"/>
    </linearGradient>
    <linearGradient id="Degradado_sin_nombre_236-2" data-name="Degradado sin nombre 236" x1="1251.14" y1="689.51" x2="1102.34" y2="819.57" xlink:href="#Degradado_sin_nombre_236"/>
    <linearGradient id="Degradado_sin_nombre_1258" data-name="Degradado sin nombre 1258" x1="203.43" y1="-14.01" x2="189.21" y2="29.31" gradientTransform="translate(-96.94 764.91) rotate(11.29)" gradientUnits="userSpaceOnUse">
      <stop offset="0" stop-color="#c422c6" stop-opacity=".1"/>
      <stop offset=".27" stop-color="#d55ed7" stop-opacity=".4"/>
      <stop offset=".53" stop-color="#e493e7" stop-opacity=".66"/>
      <stop offset=".74" stop-color="#efb8f2" stop-opacity=".84"/>
      <stop offset=".91" stop-color="#f6d0f9" stop-opacity=".96"/>
      <stop offset="1" stop-color="#f9d9fc"/>
    </linearGradient>
    <linearGradient id="Degradado_sin_nombre_1258-2" data-name="Degradado sin nombre 1258" x1="201.56" y1="8.75" x2="249.92" y2="10.19" xlink:href="#Degradado_sin_nombre_1258"/>
    <linearGradient id="Degradado_sin_nombre_1258-3" data-name="Degradado sin nombre 1258" x1="207.07" y1="-28" x2="209" y2="13.51" xlink:href="#Degradado_sin_nombre_1258"/>
    <linearGradient id="Degradado_sin_nombre_160" data-name="Degradado sin nombre 160" x1="563.77" y1="-1016" x2="1117.69" y2="-296.71" gradientTransform="translate(-340.1 644.88) rotate(22.51)" gradientUnits="userSpaceOnUse">
      <stop offset="0" stop-color="#e9a1ec" stop-opacity=".7"/>
      <stop offset=".05" stop-color="#e187e4" stop-opacity=".57"/>
      <stop offset=".12" stop-color="#d660d8" stop-opacity=".37"/>
      <stop offset=".18" stop-color="#cc40cf" stop-opacity=".21"/>
      <stop offset=".24" stop-color="#c62ac8" stop-opacity=".09"/>
      <stop offset=".3" stop-color="#c21cc4" stop-opacity=".02"/>
      <stop offset=".34" stop-color="#c118c3" stop-opacity="0"/>
      <stop offset=".5" stop-color="#c320c5" stop-opacity=".05"/>
      <stop offset=".63" stop-color="#c422c6" stop-opacity=".1"/>
      <stop offset=".79" stop-color="#d96edc" stop-opacity=".48"/>
      <stop offset="1" stop-color="#f7d6fc"/>
    </linearGradient>
    <clipPath id="clippath">
      <path class="cls-29" d="M1233.07,540.45c2.55,1.95,2.79,7.61,2.59,10.21-.92,12.02-10.1,24.77-18.59,32.83-4.54,4.31-9.9,7.75-14.05,12.45-9.17,10.37-12.11,26.37-24.07,33.31-3.23,1.88-7.07,2.92-10.74,2.21-5.79-1.11-11.98-7.25-14.52-12.47-1.41-2.89-.37-3.5-3.25-6.45-2.66-2.72-5.91-5.01-8.93-7.29-11.92-9-25.23-16.7-34.46-28.75-.52-.67-1.03-1.4-1.12-2.25-.11-1.03,.44-2,.98-2.89,5.65-9.3,12.17-18.06,19.44-26.15,.61-.68,1.26-1.38,2.09-1.77,2.79-1.3,5.73,1.33,7.74,3.66,8.34,9.66,17.63,18.5,27.7,26.33,15.51-3.78,29.59-11.94,43.04-20.57,6.71-4.31,14.21-9.91,21.73-12.61,.86-.31,1.77-.57,2.68-.5,.67,.05,1.25,.29,1.74,.67Z"/>
    </clipPath>
    <clipPath id="clippath-1">
      <path class="cls-29" d="M956.69,826.94c2.62,2.76,5.29,5.45,8.17,8,1.87,1.66,3.79,3.29,5.29,5.29,1.91,2.55,3.06,5.58,4.33,8.5,4.64,10.64,11.82,20.68,21.55,27.19,9.73,6.51,23.02,12.3,34.82,11.61,4.51-.27,9.58-1.81,11.44-5.94,.98-2.17,.86-4.68,.5-7.03-1.66-10.84-8.06-20.4-15.53-28.39-7.48-7.99-16.14-14.78-23.76-22.64-9.41-9.71-17.16-21.02-22.83-33.31-1.99-4.32-3.78-8.85-6.89-12.44-3.11-3.6-7.94-6.15-12.57-5.07-4.23,.98-7.25,4.65-9.64,8.28-4.15,6.32-10.96,17.09-10.75,24.99,.15,5.74,5.5,9.82,9.05,13.64,2.29,2.46,4.53,4.92,6.82,7.34Z"/>
    </clipPath>
    <clipPath id="clippath-2">
      <path class="cls-1" d="M1137.78,529.8c-1.69-14.13-14.83-23.6-26.7-31.39-47.82-31.41-61.82-42.32-106.34-78.29h-.04c-2.16-2.68-4.63-5.12-7.3-7.28-18.83-15.25-51.84-20.76-75.76-24.45-42.51-6.56-103.05-15.26-149.78-18.79-20.92-1.58-68.5-6.99-87.79,1.28-9.97,4.28-15.4,12.19-18.59,21.65-20.78,2.63-33.39,27.09-55.8,39.02-12.51,6.66-26.32,11.61-34.5,23.89-9.06,13.6-4.95,36.16-.31,50.87,4.62,14.64,13.63,28.2,26.55,36.44,9.03,5.76,19.64,8.78,28.36,14.99,16.46,11.71,24.18,33.21,41.23,44.05,16.87,10.73,38.58,8.47,55.54,18.75,7.46,4.52,11.87,12.9,18.36,18.86,7.79,7.16,16.02,13.74,26.13,17.28,11.58,4.06,24.88,5.92,33.09,15.07,10.27,11.45,8.36,29.69,16.67,42.63,5.96,9.29,16.31,14.58,24.65,21.8,17.57,15.23,18.47,36.81,30.14,55.46,10.88,17.39,33.32,26.11,53.14,21.75,18.37-4.04,40.17-8.12,47.81-28.05,5.09-13.29-2.12-27.82-8.99-40.28-27.65-50.2-52.84-101.76-75.44-154.44l-2.33-2.85c-5.39-11.99-13.74-22.91-23.11-32.23-15.7-15.63-34.37-27.9-50.88-42.65-3.42-3.06-6.73-6.24-9.99-9.46,19.13,.38,37.28,6.83,57.06,3.6,9.27-1.51,18.84-4.28,27.86-1.66,7.64,2.22,13.85,8.07,21.52,10.23,10.16,2.87,19.35-.83,29.26-1.6,9.97-.78,18.89,4.82,25.74,11.92,7.38,7.65,12.88,18.27,23.02,21.38,8.98,2.75,18.6-1.44,27.98-.85,11.47,.72,21.24,8.45,29.32,16.65,8.08,8.19,15.6,17.41,25.86,22.61,22.8,11.55,39.65-8.44,52.13-24.82,6.92-9.08,13.57-19.72,12.22-31.06Z"/>
    </clipPath>
    <clipPath id="clippath-3">
      <path class="cls-1" d="M465.25,240.97c-5.79-15.87-18.61-30.57-36.33-31.97-27.25-2.16-44.61,26.64-56.05,47.27-22.52,40.59-43.77,88.02-56.92,132.56-6.2,21.02-8.87,39.24-2.33,60.82,.86,2.82,1.94,5.59,3.26,8.23,6.85,15.35,21.82,26.39,39.7,27.31,5.59,.29,10.03-.06,16.94-.45,18.71-1.06,30.39-23.47,31.39-43.35,.57-11.16-2.86-21.6-9.03-29.91,2.09-2.01,4.17-4.02,6.24-6.05,11.34-11.11,22.45-22.45,33.33-34.02,.43-.46,.88-1.12,.73-1.67,4.07-3.5,11.66-28.91,13-32.42,5.11-13.44,9.7-27.11,13.22-41.06,.15-.58,.29-1.16,.43-1.74,4.34-17.6,8.86-35.88,2.4-53.55Z"/>
    </clipPath>
    <linearGradient id="Degradado_sin_nombre_2108" data-name="Degradado sin nombre 2108" x1="61.42" y1="626.18" x2="-243.56" y2="546.34" gradientTransform="translate(65.6 -328.83) rotate(-8.49)" gradientUnits="userSpaceOnUse">
      <stop offset=".12" stop-color="#f0d3f5"/>
      <stop offset=".21" stop-color="#eed0f4" stop-opacity=".99"/>
      <stop offset=".28" stop-color="#ebc9f2" stop-opacity=".95"/>
      <stop offset=".34" stop-color="#e6bdee" stop-opacity=".89"/>
      <stop offset=".39" stop-color="#deade8" stop-opacity=".8"/>
      <stop offset=".44" stop-color="#d497e2" stop-opacity=".68"/>
      <stop offset=".48" stop-color="#c87cd9" stop-opacity=".54"/>
      <stop offset=".53" stop-color="#b95ccf" stop-opacity=".36"/>
      <stop offset=".57" stop-color="#a839c4" stop-opacity=".17"/>
      <stop offset=".6" stop-color="#9a19ba" stop-opacity="0"/>
    </linearGradient>
    <linearGradient id="Degradado_sin_nombre_1595" data-name="Degradado sin nombre 1595" x1="-15.88" y1="773.71" x2="-9.39" y2="557.02" gradientTransform="translate(65.6 -328.83) rotate(-8.49)" gradientUnits="userSpaceOnUse">
      <stop offset=".12" stop-color="#f0bdf5"/>
      <stop offset=".21" stop-color="#eebaf4" stop-opacity=".98"/>
      <stop offset=".29" stop-color="#eab2f1" stop-opacity=".94"/>
      <stop offset=".37" stop-color="#e3a5ec" stop-opacity=".86"/>
      <stop offset=".45" stop-color="#da93e6" stop-opacity=".75"/>
      <stop offset=".53" stop-color="#cd7bdd" stop-opacity=".6"/>
      <stop offset=".61" stop-color="#be5fd3" stop-opacity=".43"/>
      <stop offset=".69" stop-color="#ad3dc7" stop-opacity=".22"/>
      <stop offset=".77" stop-color="#9a19ba" stop-opacity="0"/>
    </linearGradient>
    <linearGradient id="Degradado_sin_nombre_2088" data-name="Degradado sin nombre 2088" x1="-46.15" y1="641.45" x2="45.24" y2="570.42" gradientTransform="translate(65.6 -328.83) rotate(-8.49)" gradientUnits="userSpaceOnUse">
      <stop offset=".27" stop-color="#9500ba" stop-opacity="0"/>
      <stop offset=".62" stop-color="#f0bdf5"/>
    </linearGradient>
    <linearGradient id="Degradado_sin_nombre_1712" data-name="Degradado sin nombre 1712" x1="-4205.06" y1="616.44" x2="-4322.54" y2="700.93" gradientTransform="translate(-4167.61 303.43) rotate(171.51) scale(1 -1)" gradientUnits="userSpaceOnUse">
      <stop offset=".27" stop-color="#9a19ba" stop-opacity="0"/>
      <stop offset=".62" stop-color="#f0bdf5"/>
    </linearGradient>
    <linearGradient id="Degradado_sin_nombre_1941" data-name="Degradado sin nombre 1941" x1="-4061.24" y1="1181.27" x2="-3875.62" y2="1100.96" gradientTransform="translate(-2417.73 -2840.83) rotate(-113.23)" gradientUnits="userSpaceOnUse">
      <stop offset=".32" stop-color="#ffedff"/>
      <stop offset=".34" stop-color="#feebfe" stop-opacity=".94"/>
      <stop offset=".46" stop-color="#fce5fd" stop-opacity=".61"/>
      <stop offset=".56" stop-color="#fbdffd" stop-opacity=".35"/>
      <stop offset=".65" stop-color="#f9dcfc" stop-opacity=".16"/>
      <stop offset=".71" stop-color="#f9d9fc" stop-opacity=".04"/>
      <stop offset=".75" stop-color="#f9d9fc" stop-opacity="0"/>
    </linearGradient>
    <linearGradient id="Degradado_sin_nombre_1705" data-name="Degradado sin nombre 1705" x1="-3767.6" y1="1223.42" x2="-3911.18" y2="1113.8" gradientTransform="translate(-2417.73 -2840.83) rotate(-113.23)" gradientUnits="userSpaceOnUse">
      <stop offset=".07" stop-color="#ffb6ff"/>
      <stop offset=".1" stop-color="#feb8fe" stop-opacity=".94"/>
      <stop offset=".29" stop-color="#fcc3fd" stop-opacity=".61"/>
      <stop offset=".45" stop-color="#fbccfd" stop-opacity=".35"/>
      <stop offset=".59" stop-color="#f9d3fc" stop-opacity=".16"/>
      <stop offset=".69" stop-color="#f9d7fc" stop-opacity=".04"/>
      <stop offset=".75" stop-color="#f9d9fc" stop-opacity="0"/>
    </linearGradient>
    <linearGradient id="Degradado_sin_nombre_1707" data-name="Degradado sin nombre 1707" x1="-92.19" y1="235.55" x2="411.5" y2="411.46" gradientTransform="translate(-3.34 11.47) rotate(.3)" gradientUnits="userSpaceOnUse">
      <stop offset=".07" stop-color="#ffb6ff"/>
      <stop offset=".08" stop-color="#feb8fe" stop-opacity=".94"/>
      <stop offset=".19" stop-color="#fcc3fd" stop-opacity=".61"/>
      <stop offset=".28" stop-color="#fbccfd" stop-opacity=".35"/>
      <stop offset=".35" stop-color="#f9d3fc" stop-opacity=".16"/>
      <stop offset=".41" stop-color="#f9d7fc" stop-opacity=".04"/>
      <stop offset=".44" stop-color="#f9d9fc" stop-opacity="0"/>
    </linearGradient>
    <linearGradient id="Degradado_sin_nombre_1837" data-name="Degradado sin nombre 1837" x1="-1581.11" y1="2668.51" x2="-1544.94" y2="2555.14" gradientTransform="translate(2122.07 -1660.57) rotate(-.73)" gradientUnits="userSpaceOnUse">
      <stop offset=".23" stop-color="#4e0778"/>
      <stop offset=".37" stop-color="#500a79"/>
      <stop offset=".49" stop-color="#581380"/>
      <stop offset=".58" stop-color="#65238a"/>
      <stop offset=".68" stop-color="#783b99"/>
      <stop offset=".76" stop-color="#9058ac"/>
      <stop offset=".85" stop-color="#ae7dc3"/>
      <stop offset=".93" stop-color="#d1a7de"/>
      <stop offset="1" stop-color="#f7d6fc"/>
    </linearGradient>
    <linearGradient id="Degradado_sin_nombre_1918" data-name="Degradado sin nombre 1918" x1="-1484.98" y1="-4351.3" x2="-1477.82" y2="-4137.5" gradientTransform="translate(-1260.64 -3141.33) rotate(-43.28) scale(1 -1)" gradientUnits="userSpaceOnUse">
      <stop offset=".12" stop-color="#f0bdf5"/>
      <stop offset=".22" stop-color="#edbaf3"/>
      <stop offset=".3" stop-color="#e6b0ed"/>
      <stop offset=".36" stop-color="#daa1e3"/>
      <stop offset=".42" stop-color="#c88bd4"/>
      <stop offset=".48" stop-color="#b26ec2"/>
      <stop offset=".53" stop-color="#964bab"/>
      <stop offset=".58" stop-color="#762291"/>
      <stop offset=".61" stop-color="#5e037d"/>
    </linearGradient>
    <linearGradient id="Degradado_sin_nombre_1920" data-name="Degradado sin nombre 1920" x1="808.61" y1="-1132.08" x2="809.3" y2="-1010.91" gradientTransform="translate(-744.82 1114.71) rotate(46.72)" gradientUnits="userSpaceOnUse">
      <stop offset=".23" stop-color="#4e0778"/>
      <stop offset=".4" stop-color="#6e2f91"/>
      <stop offset=".77" stop-color="#c193d1"/>
      <stop offset="1" stop-color="#f7d6fc"/>
    </linearGradient>
    <linearGradient id="Degradado_sin_nombre_1920-2" data-name="Degradado sin nombre 1920" x1="542.35" y1="942.56" x2="614.87" y2="970.88" gradientTransform="matrix(1, 0, 0, 1, 0, 0)" xlink:href="#Degradado_sin_nombre_1920"/>
    <linearGradient id="Degradado_sin_nombre_1969" data-name="Degradado sin nombre 1969" x1="698.64" y1="1068.51" x2="567.9" y2="948.79" gradientUnits="userSpaceOnUse">
      <stop offset=".07" stop-color="#fff"/>
      <stop offset=".39" stop-color="#fcecfd" stop-opacity=".51"/>
      <stop offset=".64" stop-color="#f9defc" stop-opacity=".14"/>
      <stop offset=".75" stop-color="#f9d9fc" stop-opacity="0"/>
    </linearGradient>
    <linearGradient id="Degradado_sin_nombre_1892" data-name="Degradado sin nombre 1892" x1="-4604.94" y1="1320.91" x2="-4700.64" y2="1247.85" gradientTransform="translate(-2429.85 -2839.53) rotate(-113.53)" gradientUnits="userSpaceOnUse">
      <stop offset=".28" stop-color="#fff"/>
      <stop offset=".3" stop-color="#fefcfe" stop-opacity=".94"/>
      <stop offset=".43" stop-color="#fcf0fd" stop-opacity=".61"/>
      <stop offset=".54" stop-color="#fbe6fd" stop-opacity=".35"/>
      <stop offset=".64" stop-color="#f9dffc" stop-opacity=".16"/>
      <stop offset=".71" stop-color="#f9dafc" stop-opacity=".04"/>
      <stop offset=".75" stop-color="#f9d9fc" stop-opacity="0"/>
    </linearGradient>
    <linearGradient id="Degradado_sin_nombre_1906" data-name="Degradado sin nombre 1906" x1="427.33" y1="927.81" x2="763.01" y2="1045.04" gradientUnits="userSpaceOnUse">
      <stop offset=".07" stop-color="#ffe3ff"/>
      <stop offset=".16" stop-color="#fde0fe" stop-opacity=".75"/>
      <stop offset=".25" stop-color="#fcdefd" stop-opacity=".53"/>
      <stop offset=".34" stop-color="#fbdcfd" stop-opacity=".34"/>
      <stop offset=".42" stop-color="#fadafc" stop-opacity=".19"/>
      <stop offset=".5" stop-color="#f9d9fc" stop-opacity=".09"/>
      <stop offset=".57" stop-color="#f9d9fc" stop-opacity=".02"/>
      <stop offset=".62" stop-color="#f9d9fc" stop-opacity="0"/>
    </linearGradient>
    <radialGradient id="Degradado_sin_nombre_54" data-name="Degradado sin nombre 54" cx="1510.65" cy="-108.65" fx="1510.65" fy="-108.65" r="118.52" gradientTransform="translate(-834.59 49.35) rotate(13.07) scale(1.45) skewX(.09)" gradientUnits="userSpaceOnUse">
      <stop offset=".12" stop-color="#f0bdf5"/>
      <stop offset=".28" stop-color="#c080ce"/>
      <stop offset=".45" stop-color="#964bab"/>
      <stop offset=".59" stop-color="#772392"/>
      <stop offset=".7" stop-color="#640b82"/>
      <stop offset=".77" stop-color="#5e037d"/>
    </radialGradient>
    <linearGradient id="Degradado_sin_nombre_67" data-name="Degradado sin nombre 67" x1="1391.12" y1="-260.54" x2="1389.19" y2="-296.71" gradientTransform="translate(-128.46 331.64) rotate(12.79)" gradientUnits="userSpaceOnUse">
      <stop offset=".7" stop-color="#4e0778"/>
      <stop offset=".76" stop-color="#793c9a"/>
      <stop offset=".82" stop-color="#a572bc"/>
      <stop offset=".87" stop-color="#c99dd8"/>
      <stop offset=".93" stop-color="#e2bceb"/>
      <stop offset=".97" stop-color="#f1cff7"/>
      <stop offset="1" stop-color="#f7d6fc"/>
    </linearGradient>
    <linearGradient id="Degradado_sin_nombre_65" data-name="Degradado sin nombre 65" x1="1412.56" y1="-253.72" x2="1356.32" y2="-286.04" gradientTransform="translate(-117.59 332.36) rotate(13.03)" gradientUnits="userSpaceOnUse">
      <stop offset=".63" stop-color="#4e0778"/>
      <stop offset=".71" stop-color="#733495"/>
      <stop offset=".91" stop-color="#d1a7de"/>
      <stop offset="1" stop-color="#f7d6fc"/>
    </linearGradient>
    <linearGradient id="Degradado_sin_nombre_87" data-name="Degradado sin nombre 87" x1="1378.13" y1="-291.69" x2="1378.13" y2="-264.98" gradientTransform="translate(-117.59 332.36) rotate(13.03)" gradientUnits="userSpaceOnUse">
      <stop offset=".29" stop-color="#390557"/>
      <stop offset=".37" stop-color="#3d095a"/>
      <stop offset=".47" stop-color="#4a1866"/>
      <stop offset=".58" stop-color="#5f2f78"/>
      <stop offset=".69" stop-color="#7d5092"/>
      <stop offset=".8" stop-color="#a47bb4"/>
      <stop offset=".92" stop-color="#d3aedc"/>
      <stop offset="1" stop-color="#f7d6fc"/>
    </linearGradient>
    <linearGradient id="Degradado_sin_nombre_63" data-name="Degradado sin nombre 63" x1="1376.77" y1="-386.33" x2="1421.63" y2="-165.88" gradientTransform="translate(-117.59 332.36) rotate(13.03)" gradientUnits="userSpaceOnUse">
      <stop offset=".29" stop-color="#4e0778"/>
      <stop offset=".37" stop-color="#520b7b"/>
      <stop offset=".47" stop-color="#5d1a84"/>
      <stop offset=".58" stop-color="#703193"/>
      <stop offset=".69" stop-color="#8b52a8"/>
      <stop offset=".81" stop-color="#ae7dc3"/>
      <stop offset=".92" stop-color="#d8b0e4"/>
      <stop offset="1" stop-color="#f7d6fc"/>
    </linearGradient>
    <linearGradient id="Degradado_sin_nombre_62" data-name="Degradado sin nombre 62" x1="1465.57" y1="-294.95" x2="1424.61" y2="-191.77" gradientTransform="translate(-117.59 332.36) rotate(13.03)" gradientUnits="userSpaceOnUse">
      <stop offset=".38" stop-color="#4e0778"/>
      <stop offset=".44" stop-color="#520c7b"/>
      <stop offset=".53" stop-color="#5f1c85"/>
      <stop offset=".63" stop-color="#753797"/>
      <stop offset=".74" stop-color="#945cae"/>
      <stop offset=".85" stop-color="#bb8ccd"/>
      <stop offset=".97" stop-color="#eac6f2"/>
      <stop offset="1" stop-color="#f7d6fc"/>
    </linearGradient>
    <linearGradient id="Degradado_sin_nombre_57" data-name="Degradado sin nombre 57" x1="1254.7" y1="-236.58" x2="1406.02" y2="-345.03" gradientTransform="translate(-117.59 332.36) rotate(13.03)" gradientUnits="userSpaceOnUse">
      <stop offset=".28" stop-color="#4e0778"/>
      <stop offset=".41" stop-color="#500a79"/>
      <stop offset=".52" stop-color="#581380"/>
      <stop offset=".61" stop-color="#65238a"/>
      <stop offset=".7" stop-color="#783b99"/>
      <stop offset=".78" stop-color="#9058ac"/>
      <stop offset=".86" stop-color="#ae7dc3"/>
      <stop offset=".93" stop-color="#d1a7de"/>
      <stop offset="1" stop-color="#f7d6fc"/>
    </linearGradient>
    <radialGradient id="Degradado_sin_nombre_69" data-name="Degradado sin nombre 69" cx="1506.11" cy="-98.79" fx="1506.11" fy="-98.79" r="40.7" gradientTransform="translate(-834.59 49.35) rotate(13.07) scale(1.45) skewX(.09)" gradientUnits="userSpaceOnUse">
      <stop offset=".52" stop-color="#4e0778"/>
      <stop offset=".6" stop-color="#500a79"/>
      <stop offset=".67" stop-color="#581480"/>
      <stop offset=".74" stop-color="#66248a"/>
      <stop offset=".79" stop-color="#793c99"/>
      <stop offset=".85" stop-color="#925aad"/>
      <stop offset=".9" stop-color="#b07fc5"/>
      <stop offset=".96" stop-color="#d4abe0"/>
      <stop offset="1" stop-color="#f7d6fc"/>
    </radialGradient>
    <linearGradient id="Degradado_sin_nombre_1399" data-name="Degradado sin nombre 1399" x1="948.17" y1="274.82" x2="927.07" y2="73.75" gradientUnits="userSpaceOnUse">
      <stop offset="0" stop-color="#ba00bb" stop-opacity="0"/>
      <stop offset=".42" stop-color="#c31ec5" stop-opacity=".02"/>
      <stop offset=".72" stop-color="#df80e2" stop-opacity=".54"/>
      <stop offset="1" stop-color="#f9d9fc"/>
    </linearGradient>
    <linearGradient id="Degradado_sin_nombre_345" data-name="Degradado sin nombre 345" x1="1530.6" y1="333.72" x2="110.33" y2="335.58" gradientUnits="userSpaceOnUse">
      <stop offset="0" stop-color="#c422c6" stop-opacity=".1"/>
      <stop offset=".04" stop-color="#cc47cd" stop-opacity=".23"/>
      <stop offset=".11" stop-color="#db8fdc" stop-opacity=".48"/>
      <stop offset=".18" stop-color="#e7c4e7" stop-opacity=".67"/>
      <stop offset=".22" stop-color="#eee4ee" stop-opacity=".78"/>
      <stop offset=".25" stop-color="#f1f1f1" stop-opacity=".82"/>
      <stop offset=".31" stop-color="#e8c9e9" stop-opacity=".67"/>
      <stop offset=".45" stop-color="#d363d5" stop-opacity=".27"/>
      <stop offset=".51" stop-color="#cb3bcd" stop-opacity=".11"/>
      <stop offset=".54" stop-color="#cd43cf" stop-opacity=".15"/>
      <stop offset=".59" stop-color="#d258d4" stop-opacity=".26"/>
      <stop offset=".66" stop-color="#dc7bde" stop-opacity=".44"/>
      <stop offset=".74" stop-color="#e9aceb" stop-opacity=".69"/>
      <stop offset=".83" stop-color="#faeafc"/>
    </linearGradient>
    <linearGradient id="Degradado_sin_nombre_52" data-name="Degradado sin nombre 52" x1="413.5" y1="273.01" x2="665.37" y2="558.74" gradientUnits="userSpaceOnUse">
      <stop offset=".23" stop-color="#f9d9fc"/>
      <stop offset=".31" stop-color="#eeb5f1" stop-opacity=".82"/>
      <stop offset=".48" stop-color="#d45bd6" stop-opacity=".38"/>
      <stop offset=".58" stop-color="#c422c6" stop-opacity=".1"/>
      <stop offset=".61" stop-color="#cb3dcd" stop-opacity=".23"/>
      <stop offset=".66" stop-color="#d765d9" stop-opacity=".43"/>
      <stop offset=".7" stop-color="#e187e3" stop-opacity=".6"/>
      <stop offset=".75" stop-color="#e9a4ec" stop-opacity=".74"/>
      <stop offset=".8" stop-color="#efb9f2" stop-opacity=".85"/>
      <stop offset=".84" stop-color="#f4c9f7" stop-opacity=".92"/>
      <stop offset=".89" stop-color="#f7d2fa" stop-opacity=".97"/>
      <stop offset=".94" stop-color="#f8d6fb" stop-opacity=".98"/>
    </linearGradient>
    <clipPath id="clippath-4">
      <path class="cls-1" d="M632.7,360.32c-109.88,5.93-174-6.19-174-6.19v133.34s98.68,15.11,174,9.75v-136.9Z"/>
    </clipPath>
    <linearGradient id="Degradado_sin_nombre_1588-2" data-name="Degradado sin nombre 1588" x1="542.49" y1="363.45" x2="548.66" y2="526.23" xlink:href="#Degradado_sin_nombre_1588"/>
    <linearGradient id="Degradado_sin_nombre_1588-3" data-name="Degradado sin nombre 1588" x1="427.53" y1="616.53" x2="750.33" y2="269.25" xlink:href="#Degradado_sin_nombre_1588"/>
    <linearGradient id="Degradado_sin_nombre_1588-4" data-name="Degradado sin nombre 1588" x1="462" y1="348.18" x2="497.92" y2="404.51" xlink:href="#Degradado_sin_nombre_1588"/>
    <linearGradient id="Degradado_sin_nombre_52-2" data-name="Degradado sin nombre 52" x1="252.65" y1="1270.89" x2="311.08" y2="1322.27" gradientTransform="translate(286.1 -679.24) rotate(-17.93) scale(1.19 .88) skewX(-7.92)" xlink:href="#Degradado_sin_nombre_52"/>
    <linearGradient id="Degradado_sin_nombre_52-3" data-name="Degradado sin nombre 52" x1="184.01" y1="1391.25" x2="255.33" y2="1453.97" gradientTransform="translate(286.1 -679.24) rotate(-17.93) scale(1.19 .88) skewX(-7.92)" xlink:href="#Degradado_sin_nombre_52"/>
    <linearGradient id="Degradado_sin_nombre_52-4" data-name="Degradado sin nombre 52" x1="328.6" y1="1411.32" x2="387.03" y2="1462.7" gradientTransform="translate(286.1 -679.24) rotate(-17.93) scale(1.19 .88) skewX(-7.92)" xlink:href="#Degradado_sin_nombre_52"/>
    <linearGradient id="Degradado_sin_nombre_52-5" data-name="Degradado sin nombre 52" x1="376.82" y1="1321.21" x2="435.25" y2="1372.58" gradientTransform="translate(286.1 -679.24) rotate(-17.93) scale(1.19 .88) skewX(-7.92)" xlink:href="#Degradado_sin_nombre_52"/>
    <linearGradient id="Degradado_sin_nombre_52-6" data-name="Degradado sin nombre 52" x1="405.51" y1="1374.54" x2="463.94" y2="1425.92" gradientTransform="translate(286.1 -679.24) rotate(-17.93) scale(1.19 .88) skewX(-7.92)" xlink:href="#Degradado_sin_nombre_52"/>
    <linearGradient id="Degradado_sin_nombre_52-7" data-name="Degradado sin nombre 52" x1="438.07" y1="1313.98" x2="496.49" y2="1365.35" gradientTransform="translate(286.1 -679.24) rotate(-17.93) scale(1.19 .88) skewX(-7.92)" xlink:href="#Degradado_sin_nombre_52"/>
  </defs>
  <g class="cls-56">
    <g id="Layer_2" data-name="Layer 2">
      <g id="OBJECTS">
        <g>
          <path class="cls-62" d="M377.89,77.99H33.11s17.56-7.42,27.3-20.55C78.25,33.37,98.37-1.46,137.7,14.53c14.06,5.72,25.61,27.16,42.11,26.37,2.05-.1,4.04-.8,5.77-1.9,13.87-8.83,21.02-22.56,40.23-20.48,5.66,.61,11.05,2.7,15.84,5.78,13.13,8.44,23.85,19.58,39.1,23.82,13.9,3.86,28.08,1.07,40.76-5.39,5.39-2.75,10.48-6.82,16.52-7.08,10.85-.47,17.79,10.82,24.78,19.17,8.78,10.49,25.34,20.16,38.66,23.17q-15.84,0-23.59,0Z"/>
          <path class="cls-40" d="M162.22,557.99H0s8.26-3.49,12.84-9.67c8.4-11.32,17.86-27.71,36.37-20.19,6.64,2.7,12.09,12.86,19.91,12.4,.89-.05,1.75-.34,2.5-.82,6.49-4.08,9.84-10.47,18.58-9.75,2.87,.24,5.63,1.28,8.05,2.84,6.12,3.96,11.14,9.15,18.27,11.13,6.54,1.82,13.21,.5,19.18-2.54,2.54-1.29,4.93-3.21,7.77-3.33,5.11-.22,8.37,5.09,11.66,9.02,4.13,4.94,11.92,9.48,18.19,10.9h-11.1Z"/>
          <path class="cls-55" d="M1233.71,760.99h-135.03s6.88-2.91,10.69-8.05c6.99-9.43,14.87-23.07,30.27-16.8,5.53,2.25,10.07,10.71,16.57,10.32,.74-.04,1.46-.29,2.08-.68,5.4-3.4,8.19-8.71,15.46-8.12,2.44,.2,4.76,1.1,6.81,2.44,5.05,3.29,9.21,7.55,15.1,9.19,5.44,1.51,11,.42,15.96-2.11,2.11-1.08,4.1-2.67,6.47-2.77,4.25-.19,6.97,4.24,9.71,7.51,3.44,4.11,9.92,7.89,15.14,9.08h-9.24Z"/>
          <g>
            <polygon class="cls-65" points="101.03 835.09 80.01 817 85.46 789.61 106.48 807.7 101.03 835.09"/>
            <polygon class="cls-67" points="101.03 835.09 127.37 826.48 132.81 799.09 106.48 807.7 101.03 835.09"/>
            <polygon class="cls-68" points="106.47 807.75 132.84 799.06 111.8 780.96 85.45 789.57 106.47 807.75"/>
          </g>
          <g>
            <ellipse class="cls-39" cx="704.2" cy="420.99" rx="391.39" ry="392.89"/>
            <path class="cls-7" d="M985.23,135.59c80.36-28.85,138.8-32.83,158.49-5.28,42.85,59.95-114.12,246.5-350.6,416.69-236.48,170.18-462.92,259.55-505.76,199.6-20.13-28.17,3.85-84.28,59.46-153.52"/>
            <path class="cls-7" d="M1023.77,192.91c79.12-28.07,136.59-31.69,156.08-4.43,42.85,59.95-114.12,246.5-350.6,416.69-236.48,170.18-462.92,259.55-505.76,199.6-19.75-27.63,2.95-82.15,56.32-149.57,1.04-1.31,3.95-5.18,5.01-6.5"/>
          </g>
        </g>
        <g>
          <g>
            <g>
              <g>
                <g>
                  <g>
                    <path class="cls-28" d="M1233.07,540.45c2.55,1.95,2.79,7.61,2.59,10.21-.92,12.02-10.1,24.77-18.59,32.83-4.54,4.31-9.9,7.75-14.05,12.45-9.17,10.37-12.11,26.37-24.07,33.31-3.23,1.88-7.07,2.92-10.74,2.21-5.79-1.11-11.98-7.25-14.52-12.47-1.41-2.89-.37-3.5-3.25-6.45-2.66-2.72-5.91-5.01-8.93-7.29-11.92-9-25.23-16.7-34.46-28.75-.52-.67-1.03-1.4-1.12-2.25-.11-1.03,.44-2,.98-2.89,5.65-9.3,12.17-18.06,19.44-26.15,.61-.68,1.26-1.38,2.09-1.77,2.79-1.3,5.73,1.33,7.74,3.66,8.34,9.66,17.63,18.5,27.7,26.33,15.51-3.78,29.59-11.94,43.04-20.57,6.71-4.31,14.21-9.91,21.73-12.61,.86-.31,1.77-.57,2.68-.5,.67,.05,1.25,.29,1.74,.67Z"/>
                    <g>
                      <path class="cls-29" d="M1233.07,540.45c2.55,1.95,2.79,7.61,2.59,10.21-.92,12.02-10.1,24.77-18.59,32.83-4.54,4.31-9.9,7.75-14.05,12.45-9.17,10.37-12.11,26.37-24.07,33.31-3.23,1.88-7.07,2.92-10.74,2.21-5.79-1.11-11.98-7.25-14.52-12.47-1.41-2.89-.37-3.5-3.25-6.45-2.66-2.72-5.91-5.01-8.93-7.29-11.92-9-25.23-16.7-34.46-28.75-.52-.67-1.03-1.4-1.12-2.25-.11-1.03,.44-2,.98-2.89,5.65-9.3,12.17-18.06,19.44-26.15,.61-.68,1.26-1.38,2.09-1.77,2.79-1.3,5.73,1.33,7.74,3.66,8.34,9.66,17.63,18.5,27.7,26.33,15.51-3.78,29.59-11.94,43.04-20.57,6.71-4.31,14.21-9.91,21.73-12.61,.86-.31,1.77-.57,2.68-.5,.67,.05,1.25,.29,1.74,.67Z"/>
                      <g class="cls-27">
                        <g>
                          <path class="cls-38" d="M1172.95,606.16c9.14-2,19.66,1.85,24.22,10.05,.22,.4,.44,.83,.45,1.28,.02,.69-.41,1.3-.82,1.85-5.78,7.8-12.07,15.98-21.15,19.37-4.27,1.59-8.98,2-13.46,1.16-3.1-.58-6.17-1.81-8.38-4.07-10.85-11.11,9.2-27.47,19.14-29.64Z"/>
                          <path class="cls-38" d="M1220.19,585.01c-.98-.04-1.97-.32-2.97-.92-2.72-1.61-4.29-4.63-5.27-7.64-2.79-8.61-1.75-18.14,1.41-26.63,1.72-4.62,4.27-9.41,8.32-12.39,3.13-2.3,9.24-2.42,12.65-.54,1.96,1.08,3.32,3.02,4.21,5.08,3.54,8.21,.27,17.64-3.25,25.87-2.16,5.05-8.17,17.43-15.09,17.18Z"/>
                        </g>
                      </g>
                    </g>
                  </g>
                  <path class="cls-31" d="M1150.92,566.03l-20.64,27.48c-2.71,3.6-7.7,4.56-11.54,2.21l-27.55-16.86,39.21-44.18,19.73,19.87c3.07,3.09,3.41,7.99,.79,11.48Z"/>
                </g>
                <path class="cls-33" d="M1137.78,529.8c-1.69-14.13-14.83-23.6-26.7-31.39-47.82-31.41-61.82-42.32-106.34-78.29h-.04c-2.16-2.68-4.63-5.12-7.3-7.28-18.83-15.25-51.84-20.76-75.76-24.45-42.51-6.56-103.05-15.26-149.78-18.79-20.92-1.58-68.5-6.99-87.79,1.28-12.54,5.38-17.91,16.5-20.66,29.22-2.87,13.31-7.87,25.09-10.07,38.73-1.1,6.84-2.2,13.92-.48,20.63,2.14,8.33,8.46,15.1,15.81,19.52s15.73,6.77,24.05,8.87c9.77,2.47,19.61,4.65,29.5,6.57,24.71,4.8,51.85,10.65,77.1,9.1,21.57-1.33,41.55,7.09,63.55,3.5,9.27-1.51,18.84-4.28,27.86-1.66,7.64,2.22,13.85,8.07,21.52,10.23,10.16,2.87,19.35-.83,29.26-1.6,9.97-.78,18.89,4.82,25.74,11.92,7.38,7.65,12.88,18.27,23.02,21.38,8.98,2.75,18.6-1.44,27.98-.85,11.47,.72,21.24,8.45,29.32,16.65,8.08,8.19,15.6,17.41,25.86,22.61,22.8,11.55,39.65-8.44,52.13-24.82,6.92-9.08,13.57-19.72,12.22-31.06Z"/>
              </g>
              <path class="cls-5" d="M962.33,489.77c-4.69,1.96-9.66,3.23-14.71,3.78-2.61,.28-5.63,.21-7.33-1.8-1.67-1.97-1.31-4.92-.6-7.4,1.75-6.14,5.01-11.73,8.46-17.1,6.78-10.57,14.4-20.57,22.01-30.55"/>
            </g>
            <g>
              <g>
                <g>
                  <path class="cls-28" d="M956.69,826.94c2.62,2.76,5.29,5.45,8.17,8,1.87,1.66,3.79,3.29,5.29,5.29,1.91,2.55,3.06,5.58,4.33,8.5,4.64,10.64,11.82,20.68,21.55,27.19,9.73,6.51,23.02,12.3,34.82,11.61,4.51-.27,9.58-1.81,11.44-5.94,.98-2.17,.86-4.68,.5-7.03-1.66-10.84-8.06-20.4-15.53-28.39-7.48-7.99-16.14-14.78-23.76-22.64-9.41-9.71-17.16-21.02-22.83-33.31-1.99-4.32-3.78-8.85-6.89-12.44-3.11-3.6-7.94-6.15-12.57-5.07-4.23,.98-7.25,4.65-9.64,8.28-4.15,6.32-10.96,17.09-10.75,24.99,.15,5.74,5.5,9.82,9.05,13.64,2.29,2.46,4.53,4.92,6.82,7.34Z"/>
                  <g>
                    <path class="cls-29" d="M956.69,826.94c2.62,2.76,5.29,5.45,8.17,8,1.87,1.66,3.79,3.29,5.29,5.29,1.91,2.55,3.06,5.58,4.33,8.5,4.64,10.64,11.82,20.68,21.55,27.19,9.73,6.51,23.02,12.3,34.82,11.61,4.51-.27,9.58-1.81,11.44-5.94,.98-2.17,.86-4.68,.5-7.03-1.66-10.84-8.06-20.4-15.53-28.39-7.48-7.99-16.14-14.78-23.76-22.64-9.41-9.71-17.16-21.02-22.83-33.31-1.99-4.32-3.78-8.85-6.89-12.44-3.11-3.6-7.94-6.15-12.57-5.07-4.23,.98-7.25,4.65-9.64,8.28-4.15,6.32-10.96,17.09-10.75,24.99,.15,5.74,5.5,9.82,9.05,13.64,2.29,2.46,4.53,4.92,6.82,7.34Z"/>
                    <g class="cls-41">
                      <path class="cls-38" d="M1023.21,869.67c5.49-1.32,9.86-5.35,13.95-9.25,.68-.65,1.41-1.33,2.34-1.53,1.47-.32,2.9,.69,3.92,1.8,2.86,3.11,4.24,7.33,4.77,11.53,.33,2.59,.34,5.31-.71,7.7-1.05,2.39-3.07,4.2-5.13,5.78-10.04,7.69-34.64,17.14-44.85,4.69-4.12-5.02-1.93-11.38,2.63-15.23,7.02-5.94,14.96-3.54,23.08-5.49Z"/>
                    </g>
                  </g>
                </g>
                <path class="cls-31" d="M933.33,814.66c2.01,1.51,4.11,2.92,6.18,4.3,3.59,2.39,7.43,4.87,11.74,5.02,3.51,.12,6.87-1.34,10.01-2.94,8.13-4.15,15.69-9.44,22.39-15.66,1.76-1.63,3.53-3.46,4.06-5.8,.59-2.61-.49-5.27-1.61-7.7-2.24-4.89-4.71-9.67-7.39-14.33-3.07-5.32-5.27-3.78-9.93-2.21-5.21,1.76-10.36,3.52-15.38,5.8-9.46,4.29-18.56,9.85-26.6,16.22-1.52,1.21-3.8,2.13-3.82,4.37-.01,1.33,.63,2.58,1.34,3.71,2.32,3.67,5.53,6.6,9.01,9.23Z"/>
                <path class="cls-33" d="M967.56,745.05c-27.65-50.2-52.84-101.76-75.44-154.44l-2.33-2.85c-5.39-11.99-13.74-22.91-23.11-32.23-15.7-15.63-34.37-27.9-50.88-42.65-9.01-8.05-17.36-16.82-25.7-25.58-11.04-11.6-21.74-26.07-34.4-35.84-8.28-6.39-16.31-11.9-24.13-19.15-15.05-13.97-33.04-33.11-53.46-38.73-29.04-7.99-41.83,23.82-68.43,37.99-12.51,6.66-26.32,11.61-34.5,23.89-9.06,13.6-4.95,36.16-.31,50.87,4.62,14.64,13.63,28.2,26.55,36.44,9.03,5.76,19.64,8.78,28.36,14.99,16.46,11.71,24.18,33.21,41.23,44.05,16.87,10.73,38.58,8.47,55.54,18.75,7.46,4.52,11.87,12.9,18.36,18.86,7.79,7.16,16.02,13.74,26.13,17.28,11.58,4.06,24.88,5.92,33.09,15.07,10.27,11.45,8.36,29.69,16.67,42.63,5.96,9.29,16.31,14.58,24.65,21.8,17.57,15.23,18.47,36.81,30.13,55.46,10.88,17.39,33.32,26.11,53.14,21.75,18.37-4.04,40.17-8.12,47.81-28.05,5.09-13.29-2.12-27.82-8.99-40.28Z"/>
              </g>
              <g>
                <path class="cls-5" d="M641.4,542.19c.59-1.51,36.53-27.56-14.31-83.15"/>
                <path class="cls-5" d="M805.81,503.41c-15.23-13.47-31.3-20.02-60.85-45.39"/>
                <path class="cls-5" d="M841.88,650.98c19.75-8.77,35.95-25.32,44.34-45.29"/>
              </g>
            </g>
            <g class="cls-44">
              <path class="cls-45" d="M716.51,364.79s-25.54,147.37-151.81,179.42l-.51-34.77,152.32-144.64Z"/>
            </g>
          </g>
          <g>
            <g>
              <g>
                <g>
                  <g>
                    <path class="cls-38" d="M533.35,180.66c37.95,28.82,67.55,68.56,84.35,113.24,.56,1.48,1.14,3.03,2.33,4.07,2.03,1.78,5.05,1.51,7.75,1.66,11.19,.64,17.32,11.09,19.23,20.87,7.71-.33,15.41-2.15,23.15-1.71,6.4,.37,11.3,3.46,17.16,4.85,11.87,2.81,19.55,9.19,24.99,21.68,5.02,11.54,5.33,21.59,.53,33.22-10.35,25.05-30.05,48.4-47.47,68.86-17.01,19.97-36.1,40.21-56.94,56.28-19.31,14.89-42.8,18.3-64.49,5.47-39.15-23.15-65-71.85-83.17-112.04-17.38-38.43-33.98-78.18-42.41-119.5-5.04-24.73-15.94-59.91,8.23-78.13,3.61-2.72,7.74-4.82,10.8-8.15,.39-.42,1.41-4.41,1.76-3.96,.35,.45,1.06,.2,1.56-.08,29.51-16.59,65.68-27.12,92.64-6.64Z"/>
                    <path class="cls-38" d="M443.36,155.78c-11.27,4.21-22.26,10.8-28.35,21.2-3.3,5.64-4.99,12.23-4.82,18.77,.11,4.12,1.06,8.45,3.94,11.39,2.96,3.02,7.39,4.02,11.59,4.48,10.31,1.12,21.2-1.2,31.11,1.63,11.1,3.17,22.31,5.91,33.61,8.24,7.11,1.47,14.36,2.77,21.6,2.13,3.27-.29,6.56-1,9.38-2.7,2.89-1.74,5.11-4.4,7.14-7.1,7.67-10.17,13.64-21.62,17.6-33.74,1.45-4.44,2.61-9.34,.93-13.69-1.99-5.13-7.34-8.05-10.63-12.46-2.29-3.08-3.58-6.9-6.33-9.57-4.88-4.76-12.63-4.47-19.38-3.59-11.99,1.57-23.87,4.03-35.5,7.36-4.86,1.39-8.81,2.93-13.84,3.33-6.19,.49-12.24,2.15-18.04,4.31Z"/>
                    <circle class="cls-38" cx="358.7" cy="438.99" r="46" transform="translate(-208.2 438.93) rotate(-50.74)"/>
                    <path class="cls-38" d="M462.28,296.25c-3.53,13.95-8.11,27.62-13.22,41.06-1.43,3.75-9.99,32.45-13.77,32.82-.74,.07,.2-1.27,.64-.67,.44,.6-.09,1.41-.6,1.95-10.87,11.57-21.99,22.91-33.33,34.02-12.2,11.94-24.65,23.61-37.37,35-6.36,5.69-12.78,11.31-19.26,16.86-3.24,2.77-6.5,5.53-9.77,8.27-1.76,1.47-4.86,6.37-7.37,6-.82-.12-1.51-.67-2.13-1.22-6.15-5.39-10.24-12.86-12.61-20.69-6.5-21.45-3.68-51.38,6.82-71.15,6.45-12.14,16.83-21.97,22.32-34.58,6.96-15.99,5.32-34.82,12.78-50.58,5.52-11.67,15.53-20.58,22.33-31.55,6.67-10.77,10.13-23.33,17.03-33.95,20.4-31.42,59-17.95,70.35,13.14,6.45,17.67,1.94,35.94-2.41,53.55-.14,.58-.29,1.16-.43,1.74Z"/>
                    <path class="cls-38" d="M476.65,347.08c3.02-.49,6.05-.7,9.1-.37,19.96,2.13,29.31,22.51,28.97,40.69-.51,27.06-21.46,40.55-42.37,53.05-10.91,6.53-23.95,12.64-34.86,19.17-6.89,4.12-13.8,8.26-21.08,11.65-9.92,4.62-23.2,9.64-33.83,11.92-8.84,1.89-15.85,2.86-29.31,.54-10.21-1.76-2.26-21.02,.27-31.1,2.09-8.32,5.45-16.26,9.14-24.01,8.65-18.19,19.22-35.87,35.12-48.41,7.21-5.69,12.89-11.81,21.4-15.88,8.08-3.86,16.75-6.37,25.35-8.75,7.22-2,14.43-4,21.65-6,3.44-.96,6.94-1.92,10.47-2.49Z"/>
                    <path class="cls-38" d="M743.62,207.19c5.95-4.67,12.29-9.51,19.78-10.5,6.61-.87,13.37,1.47,18.73,5.43,5.36,3.97,9.45,9.45,12.75,15.25,2.83,4.97,5.15,10.29,6.19,15.92,2.21,11.93-1.58,24.39-8.07,34.63-6.49,10.24-15.52,18.59-24.7,26.49-18.01,15.5-37.05,29.81-56.95,42.79-4.72,3.08-9.67,6.15-15.25,6.92-5.15,.71-10.36-.62-15.24-2.42-2.11-.78-4.3-1.74-5.56-3.6-1.33-1.97-1.34-4.52-1.27-6.89,.65-22.78,3.88-45.49,9.63-67.53,1.83-7.04,3.68-13.9,9.56-18.59,5.84-4.66,12.57-8.21,18.48-12.85,10.64-8.35,21.27-16.7,31.91-25.04Z"/>
                    <path class="cls-38" d="M535.96,185.65c.83-1.24,.62-3.66,1.62-5.18,8.35-12.68,27.85-5.86,37.35,1.89,2.66,2.17,5.03,4.69,7.88,6.6,5.26,3.53,11.69,4.7,17.83,6.22,7.53,1.86,15.21,4.53,20.65,10.07,4.3,4.38,7,10.36,12.08,13.8,6.71,4.56,16.16,3.7,22.52,8.76,4.94,3.93,7.37,12.66,13.31,15.15,5.19,2.18,9.99-3.52,15.62-3.55,3.37-.02,10.66,1.02,11.26,5.24,.44,3.08,.08,6.51,0,9.62-.16,6.28-.62,12.54-1.18,18.79-1.12,12.46-2.62,24.89-2.98,37.4-.36,12.41-.71,24.82-1.07,37.23-11.54-4.72-23.99-6.64-36.05-9.81-12.06-3.17-24.21-7.9-32.81-16.95-9.56-10.06-13.51-24.03-19.19-36.71-5.65-12.61-13.29-24.32-22.54-34.57-14.09-15.61-32.32-28.46-40.43-47.89-2.82-6.76-7.93-10.04-3.86-16.12Z"/>
                  </g>
                  <g>
                    <g>
                      <path class="cls-32" d="M453.1,142.99c.6,1.14,1.45,2.17,2.43,3,.75,.64,2.05,1.42,2.27,2.46,.13,.65-.19,1.52-.25,2.18-.07,.81-.08,1.63,.04,2.44,.25,1.69,1.14,3.37,2.67,4.12,2.19,1.08,5.16,.07,7.02,1.65,.52,.44,.88,1.04,1.32,1.58,1.42,1.74,3.81,2.91,6.06,2.5,2.34-.43,1.71-3.17,1.55-4.98-.36-4.09,.02-8.35,.75-12.38,.05-.29,.11-.58,.03-.87-.11-.45-.51-.76-.88-1.03-4.46-3.34-8.67-7.01-12.59-10.97-.87-.88-1.78-1.81-2.96-2.19-3.96-1.28-8.17,5.25-8.37,8.57-.08,1.37,.27,2.71,.91,3.92Z"/>
                      <path class="cls-32" d="M461.14,100.32s-9.35,29.97,11.39,46.3l1.4-22.64-3.32-24.62-9.47,.96Z"/>
                      <g>
                        <path class="cls-30" d="M464.25,119.39c4.57-1.25,7.9,1.82,9.71,4.19l-4.21-28.26,55.91-8s6.56,23.59,11.89,58.04c5.33,34.45-31.89,27.26-31.89,27.26,0,0-1.06-.16-2.75-.64l.58,5.75c.67,6.69,1.51,11.28,2.68,22.43,.16,1.49-2.19,2.44-2.29,4.21l-27.36-13.28c-.55-1.03-.71-4.51-1.48-12.15l-3.03-37.37c-2.26-1.59-4.3-3.49-5.83-5.08-2.53-2.62-4.35-5.87-5.08-9.43-.66-3.22-.44-6.69,3.13-7.66Z"/>
                        <path class="cls-36" d="M502.91,171.97h0c-1.53-.36-3-.7-4.36-1.24-2.9-1.15-6.08-3.31-8.77-5.51l-3.92-3.75,2.43,5.47c2.98,6.33,8.03,11.06,14.67,13.22l.8,.26-.85-8.44Z"/>
                        <g>
                          <path class="cls-34" d="M502.05,121.13c.17,1.68,1.14,2.96,2.17,2.85,1.03-.1,1.73-1.55,1.56-3.23-.17-1.68-1.14-2.96-2.17-2.85-1.03,.1-1.73,1.55-1.56,3.23Z"/>
                          <path class="cls-34" d="M524.96,118.8c.17,1.68,1.14,2.96,2.17,2.85,1.03-.1,1.73-1.55,1.56-3.23-.17-1.68-1.14-2.96-2.17-2.85-1.03,.1-1.73,1.55-1.56,3.23Z"/>
                          <path class="cls-4" d="M518.8,133.77s9.1,2.27,5.63-4.38c-2.81-5.39-3.96-7.06-3.96-7.06"/>
                          <path d="M497.98,116.59c1.77-1.79,4.13-2.55,6.57-2.69,.8-.03,1.62,.02,2.5,.29,0,0,.04,.14,.04,.14-2.25,.66-6.8,1.86-9.07,2.4,0,0-.04-.14-.04-.14h0Z"/>
                          <path d="M521.58,112.72c2.24-1.16,4.72-1.15,7.08-.53,.77,.22,1.54,.52,2.29,1.05v.14c-2.35-.07-7.05-.33-9.38-.53,0,0,0-.14,0-.14h0Z"/>
                        </g>
                        <path class="cls-4" d="M499.41,141.26s4.34,11.18,12.48,3.96"/>
                      </g>
                      <g>
                        <path class="cls-32" d="M479.64,132.23c-.32-3.24-1.22-6.41-2.66-9.32,2.03,.05,4.62-.27,5.19-2.23,.17-.58,.11-1.2,0-1.8-.45-2.76-1.6-5.39-3.33-7.58,1.76-.38,4.88-1.04,6.13-2.46,1.19-1.36,1.19-3.63,1.04-5.3-.15-1.81-.45-3.68-1.44-5.21-1.16-1.77-3.17-2.85-5.24-3.29s-4.21-.31-6.31-.09c-1.96,.2-3.94,.48-5.82,1.12-.57,.19-2.05,.53-2.39,1.07-.4,.63,.15,1.66,.34,2.34,1.15,4.13,2.29,8.26,3.44,12.39,2.25,8.1,3.35,16.68,7.53,24.07,.37,.66,.86,1.37,1.6,1.49,1.43,.22,2.08-1.74,2.04-3.18-.02-.67-.06-1.34-.12-2Z"/>
                        <path class="cls-32" d="M539.9,81.84c-.64-.82-1.41-1.52-2.3-2.07-2.06-1.26-4.79-1.86-5.83-4.04-.51-1.08-.47-2.33-.62-3.52-.6-4.71-3.58-7.55-8.3-7.44-1.61,.04-3.12,.45-4.68,.77-1.43,.3-1.9-.09-3.23-.81-2.49-1.35-5.63-1.42-8.18-.18-2.35,1.14-3.61,3.05-4.65,5.35-1.06,2.36-2.03,2.47-4.5,3.29-1.52,.5-3.07,.91-4.57,1.49-4.23,1.65-8.44,3.34-12.61,5.14-3.73,1.61-7.45,3.27-11.03,5.21-2.1,1.13-4.73,2.39-6.2,4.35-4.83,6.46-1.4,10.98-1.4,10.98l17.45-1.77c8.94-1.22,17.87-2.45,26.81-3.67,2.62-.36,6.89-1.94,9.44-.88,2,.83,3.23,2.87,5.31,3.75,2.18,.92,5.2,2.76,7.59,1.62,4.01-1.91,3-5.86,8.33-5.47,3.17,.23,5.28-2.6,5.31-5.6,.02-2.31-.72-4.67-2.14-6.49Z"/>
                      </g>
                      <path class="cls-32" d="M544.85,84.87c-1.93-4.26-4.4-6.93-7.34-7.94-3.88-1.33-7.51,.61-8.7,1.24-.25,.14-.43,.22-.5,.24l-.55-1.62c.05-.02,.14-.07,.25-.13,3.63-1.93,7.01-2.39,10.05-1.35,3.4,1.16,6.2,4.14,8.34,8.84l-1.55,.71Z"/>
                    </g>
                    <g>
                      <g>
                        <path class="cls-35" d="M478.42,127.2l-20.83,4.99c-1.92,.46-3.62-.67-3.81-2.53l-.83-8.31c-.19-1.85,1.22-3.73,3.13-4.19l20.83-4.99c1.92-.46,3.62,.67,3.81,2.53l.83,8.31c.19,1.85-1.22,3.73-3.13,4.19Z"/>
                        <path class="cls-35" d="M492.75,74.73s16.68,2.69,17.29,21.16l12.73-1.69s.09-11.71-11.84-19.89c-6.09-4.17-10.92-3.5-13.78-2.87-1.76,.39-3.49,1.3-4.4,3.3Z"/>
                        <g>
                          <path class="cls-36" d="M533.66,90.01l-15.53,2.07-30.24,4.02c-9.98,1.33-17.03,10.89-15.66,21.24,1.37,10.35,10.66,17.74,20.64,16.41l45.77-6.09c9.98-1.33,17.03-10.89,15.66-21.24-1.37-10.35-10.66-17.74-20.64-16.41Z"/>
                          <path class="cls-29" d="M562,101.54c-2.16-8.54-10.67-13.88-19.38-12.72l-14.04,1.87-27.82,3.7c-8.71,1.16-15.54,8.54-15.4,17.35,.16,10.44,9.39,18.17,19.41,16.84l42.87-5.71c10.02-1.33,16.92-11.21,14.36-21.33Z"/>
                          <path class="cls-3" d="M547.14,118.97l-31.46,4.19c-7.12,.95-13.72-4.12-14.66-11.27l-.07-.53c-.94-7.14,4.11-13.76,11.23-14.71l31.46-4.19c7.12-.95,13.72,4.12,14.66,11.27l.07,.53c.94,7.14-4.11,13.76-11.23,14.71Z"/>
                        </g>
                      </g>
                      <g>
                        <path class="cls-32" d="M482.22,67.08c-1.52,.19-3,.71-4.29,1.55-1.05,.69-1.99,1.58-3.17,2.04-1.74,.67-3.67,.26-5.52,.09-2.64-.25-5.37,0-7.82,1.03-2.45,1.04-4.59,2.93-5.64,5.38-1.15,2.67-.98,5.83-2.44,8.35-2.21,3.81-7.41,4.98-9.76,8.7-.77,1.22-1.17,2.63-1.48,4.04-.49,2.25-.73,4.66,.16,6.79,1.09,2.61,3.35,2.28,5.01,3.95,1.8,1.82-.06,4.89,.24,7.09,.26,1.9,1.36,3.81,3.16,4.47,1.82,.67,3.88-.09,5.46-1.21,.92-.66,1.77-1.45,2.82-1.89,1.45-.61,3.16-.47,4.57-1.18,2.36-1.19,3.06-4.42,3.98-6.67,1.22-2.97,2.26-5.93,3.81-8.76,2.84-5.19,6.55-9.91,10.94-13.87,1.8-1.62,3.71-3.12,5.73-4.46,1.26-.84,2.67-1.63,3.65-2.82,.9-1.08,1.95-1.47,3.24-2.07,.11-.05,.22-.1,.28-.21,.37-.62-2.37-4.33-2.77-5.03-1.19-2.08-2.92-3.77-5.17-4.67-1.57-.63-3.3-.83-4.97-.62Z"/>
                        <path class="cls-32" d="M493.54,76.82c-.39-4.67-1.81-8.02-4.24-9.96-3.21-2.56-7.27-1.97-8.61-1.78-.29,.04-.48,.06-.56,.05l.03-1.71c.06,0,.15-.02,.28-.04,4.07-.59,7.4,.13,9.91,2.13,2.81,2.24,4.45,5.99,4.88,11.15l-1.7,.14Z"/>
                        <path class="cls-32" d="M437.58,103.19c-.3-6.36,1.27-11.12,4.68-14.15,5.28-4.7,12.95-3.47,13.27-3.41l-.28,1.68c-.07-.01-7.21-1.15-11.87,3.02-3,2.67-4.38,6.98-4.1,12.78l-1.7,.08Z"/>
                      </g>
                    </g>
                  </g>
                </g>
                <g>
                  <path class="cls-46" d="M524.47,368.49l-12.35,6.28s9.39,13.56,2.59,29.24c-6.8,15.68-34.74,31.78-34.74,31.78l13.35,22.88s58.04-36.38,31.67-82.31c0,0,19.84,4.19,22.55-15.97l-23.06,8.09Z"/>
                  <g class="cls-43">
                    <path class="cls-45" d="M370.69,475.27c-.58,8.55-2.5,18.59-8.37,22.2-5.59,3.43-13.16,2.18-19.27-.46-13.89-6.01-23.74-18.05-31.1-30.6-8.19-13.97-14.28-29.79-12.86-45.88,.54-6.13,3-13.85,8.54-17.38,5.18-3.29,12.92-.87,18.29,.78,15.05,4.61,28.27,15.15,36.14,28.82,5.84,10.16,8.75,21.87,8.86,33.56,.02,2.43,0,5.57-.23,8.94Z"/>
                  </g>
                </g>
              </g>
              <g>
                <path class="cls-5" d="M374.51,387.59c20.14-13.99,26.52-18.07,48.8-28.42,20.61-9.57,48.14-20.65,71.12-14.95"/>
                <path class="cls-5" d="M463.58,168.41c-3.4-.42-7.11,1.92-6.61,5.68,.61,4.55,5.69,8.66,9.14,11.2,5.05,3.71,10.77,6.43,16.35,9.23,5.93,2.97,15.45,7.25,21.38,10.23,3.64-5.64,8.99-17.81,10.55-24.35"/>
                <path class="cls-5" d="M482.68,434.07c6.33-3.89,15.44-10.35,21.2-15.15,8.45-7.03,13.51-16.48,12.29-27.69"/>
                <path class="cls-5" d="M453.57,343.67c5.59-6.94,4.99-7.84-1.83-13.56,5.37-12.65,9.08-20.24,10.54-33.85"/>
                <path class="cls-5" d="M558.89,216.64c9.46,9.57,18.5,19.56,27.08,29.93,3.4,4.11,7.36,7.54,10.76,11.51,4.75,5.55,7.46,15.61,14.53,17.67,7.69,2.25,14.29,4.1,17.73,12.38,.49,1.18,.9,2.46,1.82,3.35,1.02,.98,2.49,1.31,3.87,1.62,28.16,6.28,53.98,22.62,71.77,45.4"/>
                <path class="cls-5" d="M668.37,293.36c4.33-11.24,9.56-22.13,15.62-32.53,2.21-3.79,5.1-12.02-2.49-10.95-4.61,.65-8.53,5.84-10.95,9.41"/>
                <path class="cls-5" d="M504.5,212.83c3.34,2.2,5.2,6.15,5.89,10.1,.69,3.95,.37,8,.27,12.01-.26,10.86,1.24,22.03,6.41,31.57,5.17,9.54,14.47,17.25,25.22,18.55"/>
                <path class="cls-5" d="M516.15,211.54c4.98,1.24,8.74,5.26,12.04,9.2,5.55,6.61,10.75,13.59,17.18,19.33s14.37,10.26,22.97,10.79,17.8-3.65,21.5-11.46"/>
                <path class="cls-5" d="M426.72,207.91c18.5-.98,37.17,1.38,54.85,6.93"/>
                <path class="cls-5" d="M548.45,174.36c-4.29,5.27-9.87,13.81-15.5,17.62"/>
                <path class="cls-5" d="M544.45,393.74c-1.39,8.36,7.11,15.81,15.55,16.22,21.18,1.04,38.82-21.81,48.24-37.87,11.83-20.16,14.33-39.15,15.96-62.5"/>
              </g>
            </g>
            <g>
              <g>
                <path class="cls-30" d="M755.49,148.81c-.23,14.34,2.38,28.55,3.91,42.82,.99,9.21,1.26,19.41-4.41,26.72-3.07,3.96-7.53,6.56-11.23,9.94-3.7,3.38-6.82,8.24-5.79,13.15,.37,1.79,1.4,3.55,3.08,4.25,3,1.25,6.1-1.3,8.58-3.4,7.28-6.14,15.72-8.44,25.04-9.19,4.92-.4,10.24-1.25,13.62-4.86,.72-.77,1.33-1.65,2.14-2.32,1.29-1.07,2.96-1.52,4.53-2.07,3.92-1.37,7.71-3.62,9.92-7.15,2.25-3.61,2.59-8.12,2.11-12.35-.75-6.62-3.39-13.02-7.5-18.24-7.76,2.35-15.75,2.62-23.82,3.29l.38-.47c-2.88-11.5-6.66-23.28-9.82-34.7-.54-1.96-1.11-3.96-2.22-5.66-1.11-1.7-2.88-3.1-4.91-3.25-2.02-.15-3.59,1.45-3.62,3.49Z"/>
                <path class="cls-30" d="M776.81,178.77c2.02-2.5,5.02-4.52,8.21-4.24,3,.26,5.44,2.44,7.61,4.53,5.65,5.43,11.12,11.06,15.99,17.2,.77,.97,1.57,2.06,1.58,3.3,.02,1.88-1.82,3.33-3.66,3.67-3.49,.65-6.86-1.49-9.58-3.78-3.44-2.89-5.87-5.3-8.56-8.9-2.18,3.15-5.04,5.42-7.22,8.57-2.59-3.11-6.76-6.61-8.22-10.46-1.29-3.39,1.86-7.43,3.86-9.89Z"/>
                <path class="cls-30" d="M790.15,182.07c1.83-2.41,4.59-4.4,7.6-4.22,2.83,.16,5.18,2.14,7.29,4.04,5.46,4.95,10.77,10.09,15.52,15.72,.75,.89,1.53,1.89,1.58,3.06,.07,1.77-1.61,3.18-3.34,3.56-3.26,.71-6.49-1.21-9.12-3.28-3.32-2.62-6.33-5.63-8.96-8.94-1.96,3.03-3.93,6.05-5.89,9.08-2.53-2.85-6.54-6.02-8.03-9.61-1.31-3.15,1.54-7.04,3.35-9.41Z"/>
                <path class="cls-30" d="M800.11,184.34c.97-2.38,2.79-4.62,5.29-5.15,2.35-.5,4.72,.6,6.86,1.69,5.57,2.84,11.05,5.87,16.19,9.43,.82,.56,1.67,1.21,1.97,2.16,.45,1.43-.62,2.96-1.95,3.66-2.52,1.31-5.59,.45-8.19-.66-3.29-1.41-6.43-3.2-9.31-5.33-.94,2.92-1.88,5.83-2.82,8.75-2.7-1.77-6.69-3.48-8.7-6.08-1.77-2.29-.29-6.11,.66-8.45Z"/>
                <path class="cls-5" d="M787.66,193.1s6.88,11.44,18.88,10.13"/>
                <path class="cls-5" d="M809.94,199.99s1.07-.87-.36-2.46-14.64-16.88-14.64-16.88"/>
                <line class="cls-5" x1="803.8" y1="181.1" x2="817.24" y2="193.68"/>
                <path class="cls-5" d="M789.31,218.99c-1.03-6.78-7.05-10.29-12.81-12.29,4.07-1.95,8.58-2.91,12.65-5.05"/>
              </g>
              <g>
                <g>
                  <g>
                    <path class="cls-30" d="M498.97,354.38l13.13-7.46s8.99-35.64,22.92-33.29c0,0,5.38-9.56,12.01-4.96,0,0,2.39-8.4,8.67-3.49l31.31-31.18s11.84,1.73-6.55,23.08c-2.72,3.16-4.59,7.97-6.85,11.48-1.84,2.85-3.77,6.13-4.05,9.57-.15,1.8,.06,3.6,.31,5.38,.58,4.07,2.73,7.98,4.28,11.77l2.87,7.03s-16.49,23.03-29.47,18.07c0,0-10.61,15.49-23.06,8.09l-12.67,7.77c-5.5,3.37-12.65,2.06-16.6-3.05-4.73-6.12-2.95-15.02,3.77-18.83Z"/>
                    <path class="cls-30" d="M577,342.33l19.59-17.7s1.3-5.81-8.27-4.25c-6.16,1-17.26,8.98-17.26,8.98l5.94,12.98Z"/>
                  </g>
                  <g>
                    <path class="cls-6" d="M538.14,350.63c1.75,1.65,4.7,2.66,7.05,2.85,3.33,.28,5.96-3.11,6.49-6.1,.45-2.53-.6-4.82-1.44-7.15-.95-2.66-1.97-5.29-3.21-7.83-2.73-5.56-6.11-10.77-9.35-16.04"/>
                    <path class="cls-6" d="M559.31,309.54c3.12,4.79,5.82,9.81,7.53,15.29,1.63,5.2,3.75,12.07,.82,17.15-.6,1.04-1.4,1.99-2.43,2.6-1.04,.6-2.33,.82-3.45,.39-.21,2.21-1.66,4.27-3.67,5.2-2.02,.93-4.52,.69-6.32-.6"/>
                    <path class="cls-6" d="M549.98,312.17s10.08,14.62,12.26,32.93"/>
                    <path class="cls-6" d="M539.43,343.42c.36,5.6-.38,10.23-6.22,12.02"/>
                  </g>
                </g>
                <path class="cls-37" d="M490.28,351.7c-2.15,1.05-4.34,2.21-5.83,4.09-2.2,2.77-2.76,6.95-3.19,10.38-1.3,10.35,3.87,18.82,13.28,23.07,3.21,1.45,5.89,1.33,9.11,.09,3.95-1.51,7.76-3.37,11.39-5.55,2.77-1.66,6.76-3.45,8-6.66,.74-1.92,.44-4.06,.04-6.08-.07-.33-.19-.72-.52-.79-.2-.04-.39,.06-.57,.15-1.74,.94-5.8,4.28-7.57,2.93-1.9-1.45-3.37-4.59-4.41-6.69-2.37-4.8-3.55-10.2-3.22-15.55,.29-4.59-.42-5.99-4.81-4.46-4,1.39-7.91,3.21-11.71,5.07Z"/>
              </g>
            </g>
          </g>
        </g>
        <g>
          <g>
            <g>
              <g>
                <polygon class="cls-63" points="118.39 308.35 177.91 299.43 137.87 234.79 118.39 308.35"/>
                <polygon class="cls-61" points="177.91 299.43 118.39 308.35 158.44 373 177.91 299.43"/>
              </g>
              <polygon class="cls-60" points="148.15 303.89 137.87 234.79 177.91 299.43 148.15 303.89"/>
              <polygon class="cls-59" points="148.15 303.89 158.44 373 177.91 299.43 148.15 303.89"/>
            </g>
            <g>
              <polygon class="cls-26" points="254.39 280.43 221.73 385.11 114.24 407.93 146.9 303.26 254.39 280.43"/>
              <polygon class="cls-25" points="254.39 280.43 182.27 198.01 74.79 220.83 146.9 303.26 254.39 280.43"/>
              <polygon class="cls-24" points="147.08 303.22 74.63 220.78 41.95 325.54 114.13 408.04 147.08 303.22"/>
            </g>
          </g>
          <g>
            <g>
              <g>
                <g>
                  <ellipse class="cls-64" cx="594.2" cy="964.49" rx="27.53" ry="39.43" transform="translate(-495.79 655.89) rotate(-42.56)"/>
                  <path class="cls-58" d="M574.52,983.46c14.86,15.83,35.84,20.22,46.86,9.8l-6.37,6.02c-11.02,10.42-32,6.03-46.86-9.8-14.86-15.83-17.97-37.11-6.95-47.52l6.37-6.02c-11.02,10.42-7.91,31.69,6.95,47.52Z"/>
                </g>
                <path class="cls-57" d="M609.63,950.28c-11.28-12.02-27.21-15.35-35.58-7.44-8.37,7.91-6.01,24.06,5.28,36.08,11.28,12.02,27.21,15.35,35.58,7.44,8.37-7.91,6.01-24.06-5.28-36.08Z"/>
              </g>
              <path class="cls-66" d="M599.33,981.49l-1.58-3.96-4.3,.1c-.96,.02-1.91-.23-2.87-.75-.96-.52-1.83-1.24-2.62-2.14-.79-.91-1.4-1.9-1.83-2.98l-1.01-2.54,5.1-.11,.93,2.34,4.1-.09-2.04-5.13-4.27,.09c-.93,.02-1.88-.22-2.83-.73-.95-.51-1.83-1.22-2.63-2.12-.8-.9-1.43-1.94-1.89-3.1l-2.28-5.74c-.45-1.13-.64-2.15-.58-3.06,.06-.91,.36-1.64,.9-2.18,.54-.54,1.28-.82,2.24-.84l4.3-.1-1.58-3.96,5.1-.11,1.58,3.96,4.27-.09c.96-.02,1.91,.22,2.87,.73,.95,.51,1.82,1.21,2.6,2.1,.78,.89,1.4,1.91,1.85,3.04l1.03,2.59-5.1,.11-.95-2.38-4.1,.09,2.16,5.41,4.27-.09c.96-.02,1.91,.23,2.87,.75,.96,.52,1.82,1.22,2.6,2.08,.77,.87,1.36,1.81,1.77,2.83l2.29,5.74c.43,1.08,.61,2.08,.54,3-.07,.93-.37,1.67-.9,2.22-.53,.56-1.26,.84-2.2,.86l-4.27,.09,1.58,3.96-5.11,.11Zm-8.58-21.45l-2.16-5.41-4.1,.09,2.16,5.41,4.1-.09Zm9.64,11.2l4.1-.09-2.04-5.13-4.1,.09,2.04,5.13Z"/>
            </g>
            <g>
              <polygon class="cls-19" points="661.47 949.18 640.06 1019.05 568.51 1034.63 589.91 964.76 661.47 949.18"/>
              <polygon class="cls-20" points="661.47 949.18 613.12 894.49 541.56 910.08 589.91 964.76 661.47 949.18"/>
              <polygon class="cls-18" points="590.03 964.73 541.46 910.04 520.04 979.98 568.43 1034.71 590.03 964.73"/>
            </g>
          </g>
          <g>
            <path class="cls-49" d="M1273.22,378.03s-19.32-27.38,5.23-57.88c24.56-30.49,50.27-29.41,50.27-29.41,0,0,18.84-.57,32,7.69l-6.92-15.44s-22.06-26.01-65.39-7.08c-13.9,6.07-21.54,13.3-29.05,20.8-4.82,4.81-9.67,11.33-12.48,16.11-7.76,13.21-7.67,24.21-7.67,24.21,0,0-4.33,12.65,8.85,31.07,0,0,5.88,10.8,25.15,9.93Z"/>
            <g>
              <path class="cls-52" d="M1298.62,368.59l-19.32-3.47c-3.18-.57-5.31-3.65-4.75-6.83h0c.57-3.19,3.63-5.33,6.81-4.76l19.32,3.47c3.18,.57,5.31,3.65,4.75,6.83h0c-.57,3.19-3.63,5.33-6.81,4.76Z"/>
              <path class="cls-51" d="M1301.07,371.03l-12.41-2.23-12.41-2.23s-9.13,1.73-9.6,10.29l19.07,7.13,20.81,.03c2.51-8.19-5.46-12.99-5.46-12.99Z"/>
              <polygon class="cls-47" points="1294.09 369.48 1283.23 367.53 1283.53 365.88 1294.39 367.83 1294.09 369.48"/>
            </g>
            <path class="cls-50" d="M1344.76,378.7c-.37-.45-.59-.71-.59-.71,0,0,20.19-13.55,29.06-34.77,8.86-21.22,7.12-36.3,.4-50.65-6.72-14.35-30.16-26.91-51.07-24.12l13.6,2.21,10.21,5.1,13.46,17.27,2.1,16.74-8.62,28.61-19.37,22.97-27.34,15.25-26.36,4.68-18.94-3.04-10.69-7.1-7.38-9.68-4.47-6.33s3.12,19.44,20.66,33.99c0,0,7.18,6.91,9.53,19.4,1.32,7.02,3.27,15.11,8.67,20.18,4.35,4.09,10.57,4.28,16.1,3.12,2.95-.62,5.82-1.61,8.6-2.79,1.51-.64,6.8-2,6.43-3.93,.27,.36,.56,.7,.85,1.05,3.98-18.86,16.84-39.63,35.17-47.47Z"/>
            <path class="cls-53" d="M1367.61,409.66c-.09-.07-.18-.13-.27-.2-1.21-.85-2.53-1.61-3.41-2.8-1.5-2.02-1.39-4.85-2.64-7.04-2.06-3.61-7.12-4.47-9.49-7.88-1.27-1.82-1.59-4.12-2.28-6.23-.86-2.62-2.73-7.25-5.83-6.35-2.5,.73-5.09,2.68-7.21,4.16-4.75,3.32-8.9,7.45-12.48,12-7.03,8.95-12.06,19.69-14.41,30.84,3.1,3.73,7.29,6.96,10.73,10.3,2.34,2.27,4.71,4.5,7.01,6.81,0,0,9.55,9.56,20.72,10.05,11.17,.5,20.56-4.87,23.51-16.77,2.21-8.91,4.68-20.55-3.94-26.9Z"/>
            <path class="cls-48" d="M1356.91,283.57c-16.34-22.14-54.74-21.4-85.77,1.66-31.03,23.06-42.93,59.7-26.59,81.84,16.34,22.14,54.74,21.4,85.77-1.66,31.03-23.06,42.93-59.7,26.59-81.84Zm-29.49,77.92c-29.27,21.75-65.5,22.45-80.92,1.56-15.42-20.89-4.19-55.46,25.09-77.22s65.5-22.45,80.92-1.56c15.42,20.89,4.19,55.46-25.09,77.22Z"/>
            <path class="cls-54" d="M1299.63,411.48c.07,4.78-1.42,9.5-3.78,13.65-1.67,2.94-3.82,5.68-6.65,7.53-2.83,1.84-5.96,2.93-9.3,2.47-5.83-.8-10.11-6.15-11.99-11.75-1.88-5.6-1.96-11.62-3-17.43-.87-4.81-1.86-11.75,4.33-11.07,6.58,.73,15.05,2.9,19.74,4.75,6.25,2.45,10.52,3.87,10.64,11.86Z"/>
          </g>
          <g>
            <g>
              <path class="cls-15" d="M898.54,86.23l2.53,103.67c57.55-33.7,69.08-68.01,69.08-68.01,0,0,2.33-43.45-71.62-35.66Z"/>
              <path class="cls-14" d="M900.12,189.9c-11,6.44-23.67,12.85-38.27,19.01-79.99,33.71-217.67,59.42-452.65,37.05v282.15s505.24,89.94,560-117.94V121.88s-8.19,24.36-45.18,52.18c-6.91,5.2-14.84,10.52-23.9,15.83Z"/>
            </g>
            <g>
              <g>
                <path class="cls-17" d="M633.2,359.98c-109.88,5.93-174-6.19-174-6.19v133.34s98.68,15.11,174,9.75v-136.9Z"/>
                <g class="cls-42">
                  <g>
                    <g>
                      <path class="cls-23" d="M635.47,461.54l-54.31-48.97c-5.31-4.79-13.31-4.98-18.84-.46l-30.81,25.2-17.56-15.31c-5.16-4.5-12.74-4.77-18.21-.65l-39.19,29.52"/>
                      <path class="cls-21" d="M635.2,527.91l-179-16.3v-60.74h0c52.39,6.94,105.17,10.48,158.01,10.62l20.99,.05v66.37Z"/>
                    </g>
                    <path class="cls-22" d="M482.71,401.58c5.86,4.39,13.73,3.47,17.58-2.07,3.84-5.53,2.21-13.58-3.65-17.97-5.86-4.39-13.73-3.47-17.58,2.07-3.84,5.53-2.21,13.58,3.65,17.97Z"/>
                  </g>
                </g>
              </g>
              <g>
                <path class="cls-2" d="M672.26,488.35l57.95-127.72s99.99,96.32,101.8,98.06c1.81,1.74,44.54-98.17,44.54-98.17l38.77,37.34,29.96-66.04"/>
                <g>
                  <path class="cls-9" d="M734.59,360.35c.45,3.51-1.13,6.98-3.52,7.75-2.39,.78-4.69-1.44-5.13-4.94-.45-3.51,1.13-6.98,3.52-7.75,2.39-.78,4.69,1.44,5.13,4.94Z"/>
                  <path class="cls-16" d="M674.42,493.16c.54,4.28-1.38,8.52-4.29,9.46s-5.72-1.75-6.26-6.03c-.54-4.28,1.38-8.52,4.29-9.46,2.92-.95,5.72,1.75,6.26,6.03Z"/>
                  <path class="cls-10" d="M836.6,457.25c.45,3.51-1.13,6.98-3.52,7.75-2.39,.78-4.69-1.44-5.13-4.94-.45-3.51,1.13-6.98,3.52-7.75,2.39-.78,4.69,1.44,5.13,4.94Z"/>
                  <path class="cls-13" d="M881.03,359.5c.45,3.51-1.13,6.98-3.52,7.75-2.39,.78-4.69-1.44-5.13-4.94-.45-3.51,1.13-6.98,3.52-7.75,2.39-.78,4.69,1.44,5.13,4.94Z"/>
                  <path class="cls-11" d="M919.6,396.36c.45,3.51-1.13,6.98-3.52,7.75-2.39,.78-4.69-1.44-5.13-4.94-.45-3.51,1.13-6.98,3.52-7.75,2.39-.78,4.69,1.44,5.13,4.94Z"/>
                  <path class="cls-12" d="M949.63,330.62c.45,3.51-1.13,6.98-3.52,7.75-2.39,.78-4.69-1.44-5.13-4.94-.45-3.51,1.13-6.98,3.52-7.75,2.39-.78,4.69,1.44,5.13,4.94Z"/>
                </g>
              </g>
              <g>
                <path class="cls-8" d="M943.54,278.98c-7.66,5.76-16.43,11.65-26.46,17.53-12.17,7.13-26.21,14.23-42.37,21.04"/>
                <path class="cls-8" d="M943.54,256.47c-7.66,5.76-16.43,11.65-26.46,17.53-12.17,7.13-26.21,14.23-42.37,21.04"/>
                <path class="cls-8" d="M943.54,233.96c-7.66,5.76-16.43,11.65-26.46,17.53-12.17,7.13-26.21,14.23-42.37,21.04"/>
              </g>
            </g>
          </g>
        </g>
        <g>
          <path class="cls-29" d="M910.09,.7l1.34,4.42c.1,.32,.35,.56,.68,.66l4.6,1.29c.97,.27,.97,1.58,0,1.85l-4.6,1.29c-.33,.09-.59,.34-.68,.66l-1.34,4.42c-.28,.93-1.65,.93-1.93,0l-1.34-4.42c-.1-.32-.35-.56-.68-.66l-4.6-1.29c-.97-.27-.97-1.58,0-1.85l4.6-1.29c.33-.09,.59-.34,.68-.66l1.34-4.42c.28-.93,1.65-.93,1.93,0Z"/>
          <path class="cls-29" d="M174.26,651.68l1.31,4.49c.09,.32,.34,.57,.67,.67l4.48,1.31c.94,.28,.94,1.61,0,1.89l-4.48,1.31c-.32,.09-.57,.35-.67,.67l-1.31,4.49c-.27,.94-1.61,.94-1.88,0l-1.31-4.49c-.09-.32-.34-.57-.67-.67l-4.48-1.31c-.94-.28-.94-1.61,0-1.89l4.48-1.31c.32-.09,.57-.35,.67-.67l1.31-4.49c.27-.94,1.61-.94,1.88,0Z"/>
          <path class="cls-29" d="M1287.77,171.7l1.31,4.49c.09,.32,.34,.57,.67,.67l4.48,1.31c.94,.28,.94,1.61,0,1.89l-4.48,1.31c-.32,.09-.57,.35-.67,.67l-1.31,4.49c-.27,.94-1.61,.94-1.88,0l-1.31-4.49c-.09-.32-.34-.57-.67-.67l-4.48-1.31c-.94-.28-.94-1.61,0-1.89l4.48-1.31c.32-.09,.57-.35,.67-.67l1.31-4.49c.27-.94,1.61-.94,1.88,0Z"/>
          <path class="cls-29" d="M33.55,688.47l.61,2.11c.04,.15,.16,.27,.31,.31l2.1,.62c.44,.13,.44,.76,0,.89l-2.1,.62c-.15,.04-.27,.16-.31,.31l-.61,2.11c-.13,.44-.75,.44-.88,0l-.61-2.11c-.04-.15-.16-.27-.31-.31l-2.1-.62c-.44-.13-.44-.76,0-.89l2.1-.62c.15-.04,.27-.16,.31-.31l.61-2.11c.13-.44,.75-.44,.88,0Z"/>
          <path class="cls-29" d="M1071.74,974.4l1.25,4.29c.09,.31,.33,.55,.64,.64l4.28,1.25c.9,.26,.9,1.54,0,1.8l-4.28,1.25c-.31,.09-.55,.33-.64,.64l-1.25,4.29c-.26,.9-1.54,.9-1.8,0l-1.25-4.29c-.09-.31-.33-.55-.64-.64l-4.28-1.25c-.9-.26-.9-1.54,0-1.8l4.28-1.25c.31-.09,.55-.33,.64-.64l1.25-4.29c.26-.9,1.54-.9,1.8,0Z"/>
          <path class="cls-29" d="M1375.47,681.48l2.52,8.66c.18,.62,.66,1.11,1.28,1.29l8.63,2.53c1.81,.53,1.81,3.11,0,3.64l-8.63,2.53c-.62,.18-1.1,.67-1.28,1.29l-2.52,8.66c-.53,1.82-3.1,1.82-3.63,0l-2.52-8.66c-.18-.62-.66-1.11-1.28-1.29l-8.63-2.53c-1.81-.53-1.81-3.11,0-3.64l8.63-2.53c.62-.18,1.1-.67,1.28-1.29l2.52-8.66c.53-1.82,3.1-1.82,3.63,0Z"/>
          <path class="cls-29" d="M282.44,157.67l2.97,10.2c.21,.73,.78,1.3,1.51,1.52l10.17,2.98c2.13,.63,2.13,3.66,0,4.28l-10.17,2.98c-.73,.21-1.3,.79-1.51,1.52l-2.97,10.2c-.62,2.14-3.65,2.14-4.27,0l-2.97-10.2c-.21-.73-.78-1.3-1.51-1.52l-10.17-2.98c-2.13-.63-2.13-3.66,0-4.28l10.17-2.98c.73-.21,1.3-.79,1.51-1.52l2.97-10.2c.62-2.14,3.65-2.14,4.27,0Z"/>
        </g>
      </g>
    </g>
  </g>
</svg>