<?xml version="1.0" encoding="UTF-8"?><svg xmlns="http://www.w3.org/2000/svg" viewBox="0 0 404.9 66"><defs><style>.d{fill:#1e1e1c;}</style></defs><g id="a"/><g id="b"><g id="c"><g><g><path class="d" d="M21,41.7l8.7-8.7h0l3.3-3.3L50.4,12.3,41.7,3.6c-2.3-2.3-5.4-3.6-8.7-3.6s-6.4,1.3-8.7,3.6L3.6,24.4c-4.8,4.8-4.8,12.6,0,17.3l12.4,12.4c-.1-4.4,1.6-8.9,5-12.4Z"/><path class="d" d="M24.3,62.4h0c.8,.8,1.6,1.3,2.5,1.9,1.9,1.1,4.1,1.7,6.2,1.7,.8,0,1.6-.1,2.3-.2,2.3-.4,4.5-1.6,6.3-3.4l8.7-8.7-17.3-17.3-8.7,8.7c-4.8,4.7-4.8,12.5,0,17.3Z"/><path class="d" d="M83,3.7h0c-.8-.8-1.6-1.3-2.5-1.9-1.9-1.1-4.1-1.7-6.2-1.7-.8,0-1.6,.1-2.3,.2-2.3,.4-4.5,1.6-6.3,3.4l-8.7,8.7,17.4,17.4,8.7-8.7c4.7-4.8,4.7-12.6-.1-17.4Z"/><path class="d" d="M86.3,24.4l-8.7,8.7h0l-3.3,3.3-17.4,17.3,8.7,8.7c2.3,2.3,5.4,3.6,8.7,3.6s6.4-1.3,8.7-3.6l20.7-20.7c4.8-4.8,4.8-12.6,0-17.4l-12.4-12.4c0,4.5-1.6,9.1-5,12.5Z"/></g><g><path class="d" d="M150.5,17.2c.3,0,.5,.1,.7,.3,.2,.2,.3,.5,.3,.7v29.7c0,.3-.1,.5-.3,.7s-.5,.3-.7,.3h-4.3c-.3,0-.5-.1-.7-.3s-.3-.4-.3-.7V28.1l-3.8,6c-.2,.2-.4,.5-.6,.6-.3,.2-.6,.2-.9,.2h-2c-.3,0-.6-.1-.9-.2-.3-.2-.5-.4-.6-.6l-3.8-6.1v19.8c0,.3-.1,.5-.3,.7s-.5,.3-.7,.3h-4.3c-.3,0-.5-.1-.7-.3s-.3-.4-.3-.7V18.2c0-.3,.1-.5,.3-.7s.4-.3,.7-.3h4.6c.2,0,.3,.1,.5,.2,.3,.2,.5,.4,.7,.6l5.9,10.2,5.9-10.2,.6-.6,.4-.2c.1-.1,.3-.1,.4-.1h4.2v.1Z"/><path class="d" d="M181.5,28.1c0,1-.2,1.9-.5,2.7s-.7,1.6-1.3,2.3c.5,.7,.9,1.4,1.3,2.3,.3,.8,.5,1.8,.5,2.7v2.7c0,1.1-.2,2.2-.6,3.1-.4,1-1,1.9-1.8,2.6-.7,.7-1.6,1.3-2.6,1.8-1,.4-2.1,.6-3.2,.6h-9c-1.1,0-2.2-.2-3.2-.6-1-.4-1.9-1-2.6-1.8-.7-.7-1.3-1.6-1.8-2.6-.4-1-.6-2-.6-3.1v-.4c0-.3,.1-.5,.3-.7s.4-.3,.7-.3h4.3c.3,0,.5,.1,.7,.3s.3,.4,.3,.7v.4c0,.5,.2,1,.5,1.3,.4,.3,.8,.5,1.3,.5h9c.5,0,1-.2,1.3-.5s.5-.8,.5-1.3v-2.7c0-.5-.2-1-.5-1.3-.3-.4-.8-.5-1.3-.5h-9.9c-.3,0-.5-.1-.7-.3s-.3-.4-.3-.7v-4.3c0-.3,.1-.5,.3-.7s.4-.3,.7-.3h9.9c.5,0,1-.2,1.3-.5,.3-.4,.5-.8,.5-1.3v-2.7c0-.5-.2-1-.5-1.3s-.8-.5-1.3-.5h-9c-.5,0-1,.2-1.3,.5-.4,.3-.5,.8-.5,1.3v.4c0,.3-.1,.5-.3,.7s-.4,.3-.7,.3h-4.3c-.3,0-.5-.1-.7-.3s-.3-.4-.3-.7v-.4c0-1.1,.2-2.2,.6-3.1,.4-1,1-1.9,1.8-2.6,.7-.7,1.6-1.3,2.6-1.8,1-.4,2.1-.6,3.2-.6h9c1.1,0,2.2,.2,3.2,.6s1.9,1,2.6,1.8c.7,.7,1.3,1.6,1.8,2.6,.4,1,.6,2,.6,3.1v2.6Z"/><path class="d" d="M210.4,17.2c.3,0,.5,.1,.7,.3,.2,.2,.3,.4,.3,.7v4.3c0,.3-.1,.5-.3,.7s-.4,.3-.7,.3h-8.5v24.4c0,.3-.1,.5-.3,.7s-.4,.3-.7,.3h-4.4c-.3,0-.5-.1-.7-.3s-.3-.4-.3-.7V23.5h-8.5c-.3,0-.5-.1-.7-.3s-.3-.4-.3-.7v-4.4c0-.3,.1-.5,.3-.7s.4-.3,.7-.3h23.4v.1Z"/><path class="d" d="M233,17.2c.3,0,.5,.1,.8,.3,.3,.2,.4,.4,.5,.6l6.7,16.6c.1,.2,.2,.6,.3,1s.1,.7,.1,1v11.3c0,.3-.1,.5-.3,.7s-.4,.3-.7,.3h-4.4c-.3,0-.5-.1-.7-.3s-.3-.4-.3-.7v-5.3h-12.7v5.3c0,.3-.1,.5-.3,.7s-.4,.3-.7,.3h-4.3c-.3,0-.5-.1-.7-.3s-.3-.4-.3-.7v-11.4c0-.3,0-.6,.1-1s.2-.7,.3-1l6.6-16.6c.1-.2,.3-.5,.6-.6,.3-.2,.5-.3,.8-.3h8.6v.1Zm-10.5,19.1h12.3l-5.1-12.8h-2l-5.2,12.8Z"/><g><path class="d" d="M280.3,26.7c-.3,0-.5-.1-.7-.3s-.3-.4-.3-.7v-.3c0-.5-.2-1-.5-1.3-.3-.4-.8-.5-1.3-.5h-9.1c-.5,0-.9,.2-1.3,.5-.4,.4-.5,.8-.5,1.3v2.7c0,.5,.2,1,.5,1.3,.4,.4,.8,.5,1.3,.5h9.1c1.1,0,2.2,.2,3.1,.6,1,.4,1.9,1,2.6,1.8,.7,.7,1.3,1.6,1.8,2.6,.4,1,.6,2,.6,3.1v2.7c0,1.1-.2,2.2-.6,3.2s-1,1.9-1.8,2.6c-.7,.7-1.6,1.3-2.6,1.8-1,.4-2,.6-3.1,.6h-9.1c-1.1,0-2.2-.2-3.1-.6-1-.4-1.9-1-2.6-1.8-.7-.7-1.3-1.6-1.8-2.6-.4-1-.6-2.1-.6-3.2v-.3c0-.3,.1-.5,.3-.7,.2-.2,.4-.3,.7-.3h4.3c.3,0,.5,.1,.7,.3s.3,.4,.3,.7v.3c0,.5,.2,1,.5,1.3,.4,.4,.8,.5,1.3,.5h9.1c.5,0,1-.2,1.3-.5,.3-.4,.5-.8,.5-1.3v-2.7c0-.5-.2-1-.5-1.3s-.8-.5-1.3-.5h-9.1c-1.1,0-2.2-.2-3.1-.6-1-.4-1.9-1-2.6-1.8s-1.3-1.6-1.8-2.6c-.4-1-.6-2.1-.6-3.2v-2.7c0-1.1,.2-2.2,.6-3.2s1-1.9,1.8-2.6c.7-.7,1.6-1.3,2.6-1.8,1-.4,2-.6,3.1-.6h9.1c1.1,0,2.2,.2,3.1,.6,1,.4,1.9,1,2.6,1.8,.7,.7,1.3,1.6,1.8,2.6,.4,1,.6,2.1,.6,3.2v.3c0,.3-.1,.5-.3,.7-.2,.2-.4,.3-.7,.3h-4.3v.1Z"/><path class="d" d="M315.1,22.5c0,.3-.1,.5-.3,.7-.2,.2-.4,.3-.7,.3h-17.1v6.4h15.5c.3,0,.5,.1,.7,.3s.3,.4,.3,.7v4.4c0,.3-.1,.5-.3,.7-.2,.2-.4,.3-.7,.3h-15.5v6.3h17.1c.3,0,.5,.1,.7,.3s.3,.4,.3,.7v4.3c0,.3-.1,.5-.3,.7-.2,.2-.4,.3-.7,.3h-22.5c-.3,0-.5-.1-.7-.3s-.3-.4-.3-.7V18.2c0-.3,.1-.5,.3-.7,.2-.2,.4-.3,.7-.3h22.5c.3,0,.5,.1,.7,.3,.2,.2,.3,.4,.3,.7v4.3Z"/><path class="d" d="M345.1,48c.1,.2,.1,.5,0,.6-.1,.2-.3,.3-.6,.3h-5c-.3,0-.5-.1-.8-.3s-.5-.4-.6-.6l-5.3-11.7h-6.3v11.7c0,.3-.1,.5-.3,.7-.2,.2-.4,.3-.7,.3h-4.4c-.3,0-.5-.1-.7-.3s-.3-.4-.3-.7V18.2c0-.3,.1-.5,.3-.7,.2-.2,.4-.3,.7-.3h16.2c1.1,0,2.2,.2,3.2,.6s1.9,1,2.6,1.8c.7,.7,1.3,1.6,1.8,2.6,.4,1,.6,2.1,.6,3.2v2.7c0,.9-.1,1.8-.4,2.7-.3,.8-.7,1.6-1.2,2.3s-1.2,1.3-1.9,1.8c-.7,.5-1.5,.9-2.4,1.1l5.5,12Zm-7.7-18.1c.5,0,1-.2,1.3-.5,.4-.4,.5-.8,.5-1.3v-2.7c0-.5-.2-1-.5-1.3-.4-.4-.8-.5-1.3-.5h-10.8v6.4h10.8v-.1Z"/><path class="d" d="M367.1,48.9h-8.6c-.3,0-.6-.1-.8-.3-.3-.2-.5-.4-.6-.6l-6.6-16.6c-.1-.2-.2-.6-.3-.9-.1-.4-.1-.7-.1-1v-11.3c0-.3,.1-.5,.3-.7,.2-.2,.4-.3,.7-.3h4.4c.3,0,.5,.1,.7,.3,.2,.2,.3,.4,.3,.7v10.1c0,.3,0,.6,.1,1s.2,.7,.3,.9l5,12.4h2l5-12.4c.1-.2,.2-.6,.3-.9,.1-.4,.1-.7,.1-1v-10.1c0-.3,.1-.5,.3-.7,.2-.2,.4-.3,.7-.3h4.4c.3,0,.5,.1,.7,.3,.2,.2,.3,.4,.3,.7v11.3c0,.3,0,.6-.1,1s-.2,.7-.3,.9l-6.6,16.6c-.1,.2-.3,.5-.6,.6-.4,.2-.7,.3-1,.3Z"/><path class="d" d="M404.9,22.5c0,.3-.1,.5-.3,.7-.2,.2-.4,.3-.7,.3h-17.1v6.4h15.5c.3,0,.5,.1,.7,.3s.3,.4,.3,.7v4.4c0,.3-.1,.5-.3,.7-.2,.2-.4,.3-.7,.3h-15.5v6.3h17.1c.3,0,.5,.1,.7,.3s.3,.4,.3,.7v4.3c0,.3-.1,.5-.3,.7-.2,.2-.4,.3-.7,.3h-22.5c-.3,0-.5-.1-.7-.3s-.3-.4-.3-.7V18.2c0-.3,.1-.5,.3-.7,.2-.2,.4-.3,.7-.3h22.5c.3,0,.5,.1,.7,.3,.2,.2,.3,.4,.3,.7v4.3Z"/></g></g></g></g></g></svg>