<?xml version="1.0" encoding="UTF-8"?>
<svg width="272px" height="50px" viewBox="0 0 272 50" version="1.1" xmlns="http://www.w3.org/2000/svg" xmlns:xlink="http://www.w3.org/1999/xlink">
    <title>Logo/entier</title>
    <defs>
        <polygon id="path-1" points="0 0 212.5 0 212.5 18 0 18"></polygon>
        <polygon id="path-3" points="0 0 30.5 0 30.5 14 0 14"></polygon>
        <polygon id="path-5" points="0 0 29.5 0 29.5 34.5 0 34.5"></polygon>
    </defs>
    <g id="Symbols" stroke="none" stroke-width="1" fill="none" fill-rule="evenodd">
        <g id="Menu/home-log" transform="translate(-81.000000, -35.000000)">
            <g id="Group-26" transform="translate(81.000000, 35.000000)">
                <g id="Group-3" transform="translate(59.000000, 16.000000)">
                    <mask id="mask-2" fill="white">
                        <use xlink:href="#path-1"></use>
                    </mask>
                    <g id="Clip-2"></g>
                    <path d="M202.551423,2.81375162 L202.551423,7.60544783 L211.186993,7.60544783 L211.186993,10.292552 L202.551423,10.292552 L202.551423,15.1855882 L212.500066,15.1855882 L212.500066,17.8729124 L199.572298,17.8729124 L199.572298,0.126427366 L212.196619,0.126427366 L212.196619,2.81375162 L202.551423,2.81375162 Z M196.517121,2.78877424 L194.774686,4.9689586 C193.486819,3.5746265 191.643564,2.71274177 189.851049,2.71274177 C186.316099,2.71274177 183.538614,5.45068098 183.538614,8.94927501 C183.538614,12.4479791 186.316099,15.2114458 189.851049,15.2114458 C191.618579,15.2114458 193.436518,14.4001761 194.774686,13.1071839 L196.542216,15.0844683 C194.749591,16.8590728 192.19928,18 189.699599,18 C184.523254,18 180.508751,14.0705186 180.508751,8.97469252 C180.508751,3.92959141 184.573774,0.0507249921 189.80042,0.0507249921 C192.300101,0.0507249921 194.799891,1.09009218 196.517121,2.78877424 L196.517121,2.78877424 Z M171.696745,12.4982639 C171.444366,12.5236814 171.166563,12.5236814 170.88876,12.5236814 L166.697383,12.5236814 L166.697383,17.8729124 L163.718149,17.8729124 L163.718149,0.126427366 L170.88876,0.126427366 C175.408679,0.126427366 178.00918,2.33213928 178.00918,6.18558818 C178.00918,9.02497738 176.696217,11.0278994 174.347876,11.9405091 L178.312188,17.8729124 L174.928687,17.8729124 L171.696745,12.4982639 Z M170.88876,9.83635719 C173.615725,9.83635719 175.181505,8.67001247 175.181505,6.26162066 C175.181505,3.92926132 173.615725,2.81386165 170.88876,2.81386165 L166.697383,2.81386165 L166.697383,9.83635719 L170.88876,9.83635719 Z M159.45039,10.5210896 C159.45039,15.1603907 156.546991,17.99989 151.774693,17.99989 C147.002505,17.99989 144.073462,15.1603907 144.073462,10.5210896 L144.073462,0.126647431 L147.052696,0.126647431 L147.052696,10.5210896 C147.052696,13.5125437 148.89595,15.3126757 151.799788,15.3126757 C154.678202,15.3126757 156.471156,13.5378512 156.471156,10.5210896 L156.471156,0.126647431 L159.45039,0.126647431 L159.45039,10.5210896 Z M141.246225,8.99955987 C141.246225,14.0700785 137.155668,17.9996699 131.878503,17.9996699 C126.601228,17.9996699 122.511,14.0700785 122.511,8.99955987 C122.511,3.9038438 126.601228,0.050284862 131.878503,0.050284862 C137.155668,0.050284862 141.246225,3.92915128 141.246225,8.99955987 L141.246225,8.99955987 Z M125.540864,8.99955987 C125.540864,12.5236814 128.444373,15.3124557 131.903927,15.3124557 C135.363153,15.3124557 138.190828,12.5236814 138.190828,8.99955987 C138.190828,5.47576839 135.363153,2.73771915 131.903927,2.73771915 C128.419278,2.73771915 125.540864,5.47576839 125.540864,8.99955987 L125.540864,8.99955987 Z M120.263589,1.82543952 L119.026351,4.46203878 C117.107372,3.29591413 115.188393,2.81430178 113.850334,2.81430178 C112.10801,2.81430178 110.971592,3.47339658 110.971592,4.66493875 C110.971592,8.54380517 120.515968,6.46496076 120.490922,12.853669 C120.490922,16.0227156 117.713279,17.9749126 113.824691,17.9749126 C111.047316,17.9749126 108.42161,16.8339854 106.603561,15.1606108 L107.89099,12.5747365 C109.709149,14.2481111 111.981656,15.1606108 113.87543,15.1606108 C115.945749,15.1606108 117.183096,14.3748686 117.183096,13.0058439 C117.183096,9.05083502 107.63872,11.2565469 107.63872,4.94365112 C107.63872,1.90147199 110.239331,0 114.077508,0 C116.375111,0 118.622523,0.735237303 120.263589,1.82543952 L120.263589,1.82543952 Z M99.432183,17.8734626 L96.4780444,17.8734626 L96.4780444,12.0679267 L89.8876972,0.126977529 L92.8924651,0.126977529 L97.942566,8.77190258 L102.891299,0.126977529 L105.9216,0.126977529 L99.432183,11.9664768 L99.432183,17.8734626 Z M84.0300492,2.81375162 L84.0300492,17.8729124 L81.0503768,17.8729124 L81.0503768,2.81375162 L75.4702033,2.81375162 L75.4702033,0.126427366 L89.6353182,0.126427366 L89.6353182,2.81375162 L84.0300492,2.81375162 Z M69.9657544,17.8734626 L60.5477322,5.14666112 L60.5477322,17.8734626 L57.5684981,17.8734626 L57.5684981,0.126977529 L60.4974317,0.126977529 L69.9657544,12.8793066 L69.9657544,0.126977529 L72.894688,0.126977529 L72.894688,17.8734626 L69.9657544,17.8734626 Z M53.3018352,10.5210896 C53.3018352,15.1603907 50.3984354,17.99989 45.6261377,17.99989 C40.8540592,17.99989 37.925016,15.1603907 37.925016,10.5210896 L37.925016,0.126647431 L40.9041405,0.126647431 L40.9041405,10.5210896 C40.9041405,13.5125437 42.747395,15.3126757 45.6512331,15.3126757 C48.5297567,15.3126757 50.3227107,13.5378512 50.3227107,10.5210896 L50.3227107,0.126647431 L53.3018352,0.126647431 L53.3018352,10.5210896 Z M35.0965738,8.99955987 C35.0965738,14.0700785 31.0060173,17.9996699 25.7287424,17.9996699 C20.4520155,17.9996699 16.3614589,14.0700785 16.3614589,8.99955987 C16.3614589,3.9038438 20.4520155,0.050284862 25.7287424,0.050284862 C31.0060173,0.050284862 35.0965738,3.92915128 35.0965738,8.99955987 L35.0965738,8.99955987 Z M19.3912126,8.99955987 C19.3912126,12.5236814 22.294722,15.3124557 25.7542762,15.3124557 C29.2135016,15.3124557 32.0411767,12.5236814 32.0411767,8.99955987 C32.0411767,5.47576839 29.2135016,2.73771915 25.7542762,2.73771915 C22.2696266,2.73771915 19.3912126,5.47576839 19.3912126,8.99955987 L19.3912126,8.99955987 Z M7.67613581,0.127087561 C11.3374398,0.127087561 13.6100564,1.80024207 13.6100564,4.56370883 C13.6100564,6.56652077 12.4228997,8.06241289 10.5039205,8.51871775 C12.8777956,8.92429763 14.2915784,10.6228696 14.2915784,13.006064 C14.2915784,16.0482431 11.8425266,17.8736827 7.85289976,17.8736827 L0,17.8736827 L0,0.127087561 L7.67613581,0.127087561 Z M2.97978199,7.4791305 L7.52479607,7.4791305 C9.41857021,7.4791305 10.5546593,6.59193828 10.5546593,5.09626623 C10.5546593,3.60037411 9.41857021,2.78910434 7.52479607,2.78910434 L2.97978199,2.78910434 L2.97978199,7.4791305 Z M2.97978199,15.2117759 L7.52479607,15.2117759 C9.84749399,15.2117759 11.2361813,14.2989461 11.2361813,12.6257916 C11.2361813,11.053867 9.84749399,10.1159498 7.52479607,10.1159498 L2.97978199,10.1159498 L2.97978199,15.2117759 Z" id="Fill-1" fill="#485F64" mask="url(#mask-2)"></path>
                </g>
                <path d="M33.6326876,40 C33.1778728,40.0004359 32.8088864,39.631045 32.8085601,39.1751686 C32.8082337,38.8851744 32.9597662,38.6162291 33.2076789,38.4668151 C34.3114833,37.8007774 35.3300032,37.0019029 36.2405031,36.0881869 C42.3808844,29.9321096 42.3808844,19.9156966 36.2408295,13.7596193 C33.4459101,10.9578331 29.7336374,9.32082212 25.7878113,9.15025016 C25.3335403,9.13051005 24.9811975,8.74530534 25.0007781,8.28986512 L25.0007781,8.28986512 C25.02025,7.83420678 25.3980477,7.48706448 25.8589543,7.50036997 C30.2174969,7.68904611 34.3180102,9.49717433 37.4052251,12.5922265 C40.6907485,15.8862067 42.5,20.2656745 42.5,24.9241212 C42.5,29.5821317 40.6907485,33.9615995 37.4052251,37.2555797 C36.399759,38.2646153 35.2749598,39.1467036 34.0560647,39.8819952 C33.9282466,39.9592107 33.7818269,40 33.6326876,40" id="Fill-4" fill="#33CCFF"></path>
                <path d="M20.5232244,42 C20.4456983,42 20.3668393,41.9892628 20.2885357,41.9669118 C17.4342855,41.1498972 14.8079489,39.6158994 12.6935291,37.53014 C5.76882364,30.6989685 5.76882364,19.5840854 12.6935291,12.7531331 C15.1130553,10.3664029 18.151791,8.72941542 21.4814163,8.01922515 C21.9349109,7.92138499 22.3826299,8.20668821 22.4808148,8.65447403 C22.5789998,9.10215028 22.2906648,9.54358141 21.8367259,9.6404355 L21.8367259,9.6404355 C18.8235361,10.2831347 16.0732465,11.7649803 13.8826334,13.9260098 C7.61345694,20.1104282 7.61345694,30.1727353 13.8826334,36.3572633 C15.797129,38.2456989 18.174338,39.6346347 20.7572467,40.3736402 C21.2032996,40.5012816 21.4600911,40.9614481 21.3306957,41.4014549 C21.226402,41.7560022 20.8974157,42 20.5232244,42" id="Fill-6" fill="#A2DFFC"></path>
                <path d="M37.4308094,42.4502766 C36.9724155,42.4507192 36.6004365,42.0757059 36.5999975,41.6127537 C36.5997785,41.3461686 36.725124,41.0954213 36.9375424,40.9372644 C37.7362225,40.3416289 38.4896115,39.6866291 39.191678,38.9778028 C40.7210467,37.4330046 41.9772434,35.6664767 42.9252853,33.7276154 C43.1280533,33.312509 43.6257068,33.1419477 44.036726,33.346732 C44.0369453,33.3468428 44.037055,33.3469535 44.0372743,33.3470643 C44.4482935,33.5519594 44.6169562,34.0546722 44.4140785,34.4697786 C43.3856531,36.5733313 42.0234118,38.4891557 40.3655173,40.1633148 C39.6048905,40.931616 38.7883352,41.641439 37.9227603,42.2865817 C37.7804169,42.3930164 37.6079161,42.450387 37.4308094,42.4502766 M25.2611094,46.5 C19.7485389,46.5 14.3199708,44.3254539 10.1995799,40.1638685 C8.19536774,38.1399481 6.63551253,35.7828792 5.5630024,33.1586715 C5.38808894,32.7307177 5.58986999,32.24052 6.01371985,32.0638672 C6.01371985,32.0638672 6.01371985,32.0638672 6.01382951,32.0638672 C6.43658274,31.8866607 6.92294085,32.091002 7.09774465,32.5186236 C8.08636211,34.9379362 9.52492937,37.111264 11.3735289,38.9783566 C17.5006542,45.1665206 26.7664618,46.5917044 34.4299743,42.52426 C34.8358393,42.3091755 35.3374407,42.4666678 35.5509557,42.8762365 C35.7642514,43.2860267 35.6083098,43.7927267 35.2026641,44.0082542 C35.2025544,44.0082542 35.2024448,44.0082542 35.2024448,44.008365 C32.0457777,45.683853 28.637323,46.5 25.2611094,46.5" id="Fill-8" fill="#33CCFF"></path>
                <path d="M44.5642415,32.5 C44.4735945,32.5 44.3834937,32.4849036 44.2977613,32.4556883 C43.8656048,32.3092858 43.6346189,31.8424922 43.7815106,31.4127337 C46.2094288,24.3235095 44.4119983,16.6322759 39.0906955,11.3402832 C31.4529813,3.74484104 19.0251771,3.74549268 11.3866983,11.3402832 C7.79413092,14.9135675 5.75796047,19.66209 5.65333425,24.7117802 C5.64405113,25.1589159 5.27687643,25.5166679 4.82713657,25.5168851 C4.82134827,25.5168851 4.81566918,25.5168851 4.80966246,25.5165593 C4.35336981,25.507219 3.99089128,25.1318727 4,24.6780033 C4,24.6778947 4,24.6778947 4,24.6777861 C4.1137561,19.2017042 6.3218281,14.0520955 10.2174621,10.1778607 C18.5001894,1.9405502 31.9770953,1.94087602 40.2597134,10.1778607 C46.0301007,15.9160116 47.9793375,24.2556301 45.3469723,31.9425194 C45.2327353,32.2756176 44.9182014,32.4996742 44.5642415,32.5" id="Fill-10" fill="#A2DFFC"></path>
                <g id="Group-14" transform="translate(3.000000, 0.000000)">
                    <mask id="mask-4" fill="white">
                        <use xlink:href="#path-3"></use>
                    </mask>
                    <g id="Clip-13"></g>
                    <path d="M0.83745327,14 C0.374318251,13.9993523 -0.000553111675,13.633258 -1.0658141e-14,13.182166 C0.000222102369,13.044638 0.0361034381,12.9093751 0.104211529,12.7888898 C1.25318949,10.760378 2.69619506,8.89377179 4.39336009,7.24106216 C5.24388064,6.41255004 6.15309597,5.64325588 7.11425064,4.93878867 C7.48878976,4.67344044 8.01327744,4.75401569 8.2857098,5.11881559 C8.55216194,5.47563346 8.47951331,5.97407826 8.12147517,6.24460402 C7.22333433,6.90268922 6.37369974,7.6215025 5.5789946,8.39565059 C3.99301741,9.94006362 2.64503093,11.6837036 1.57235618,13.5780311 C1.42462254,13.8386333 1.14299835,14.0003231 0.83745327,14 M10.1060231,4.80827207 C9.6428881,4.80859545 9.26724153,4.44325623 9.26690906,3.99227209 C9.2666878,3.70006544 9.42682487,3.42986327 9.68685381,3.2840296 C15.7906677,-0.138746926 23.1616243,-0.929398381 29.910527,1.11637181 C30.3526205,1.25034031 30.5994708,1.70801209 30.4619257,2.13860971 C30.3241591,2.56888375 29.8538257,2.8097466 29.4123966,2.6754545 C23.1080238,0.764839328 16.2234586,1.50231327 10.5234205,4.69943593 C10.3965069,4.77073479 10.2525386,4.80827207 10.1060231,4.80827207" id="Fill-12" fill="#33CCFF" mask="url(#mask-4)"></path>
                </g>
                <g id="Group-17" transform="translate(0.000000, 15.500000)">
                    <mask id="mask-6" fill="white">
                        <use xlink:href="#path-5"></use>
                    </mask>
                    <g id="Clip-16"></g>
                    <path d="M25.0787466,34.5 C18.483767,34.5 12.0507031,31.9067462 7.33615092,27.2271643 C0.276496287,20.2203617 -1.91444231,9.73670701 1.75470018,0.51895805 C1.92262083,0.0977480033 2.40258126,-0.108793378 2.82707766,0.0575450377 C3.25157406,0.223991817 3.45978256,0.70057576 3.29208028,1.12200253 C-0.134898372,9.73139718 1.91115681,19.5227157 8.50482619,26.0672383 C13.7341676,31.2576471 21.2284725,33.6991916 28.5498344,32.6008162 C28.9998792,32.5321136 29.4207726,32.8386748 29.4899935,33.2853503 C29.4902119,33.2865423 29.4904302,33.2878427 29.4905394,33.2890347 C29.558996,33.7369022 29.2485939,34.1549697 28.7973481,34.2229138 C28.797239,34.2229138 28.797239,34.2229138 28.7971298,34.2229138 C27.5664396,34.4074573 26.3234119,34.5 25.0787466,34.5" id="Fill-15" fill="#A2DFFC" mask="url(#mask-6)"></path>
                </g>
                <path d="M32.811979,48.5 C32.464953,48.4997809 32.1563187,48.2743602 32.043932,47.9390769 C31.8988374,47.5058703 32.1248976,47.0344364 32.5489213,46.8861275 C35.87162,45.7239728 38.8253087,43.8385657 41.3278422,41.2823731 C41.9384621,40.658687 42.5146582,40.000936 43.0538568,39.3118582 C43.3333221,38.9539014 43.8443168,38.8956293 44.1948817,39.1810747 C44.5450176,39.4668486 44.6022833,39.9884491 44.3226035,40.3464059 C43.7458712,41.0837881 43.1293532,41.7877625 42.4757304,42.4549335 C39.7966812,45.191419 36.6337689,47.2102383 33.0750367,48.4549816 C32.9903178,48.4846653 32.9015237,48.4998905 32.811979,48.5" id="Fill-18" fill="#33CCFF"></path>
                <path d="M48.4583551,31.5 C48.3917934,31.5 48.3254563,31.4921075 48.2606906,31.4768705 C47.8043,31.3707599 47.5224513,30.9234072 47.631105,30.4776988 C47.6312173,30.4774796 47.6312173,30.47737 47.6312173,30.4771507 C49.5842906,22.4739114 47.1983983,14.2266615 41.2489327,8.41644786 C40.9171347,8.09263511 40.9170225,7.56745336 41.248596,7.24342137 C41.2487082,7.24331176 41.2488205,7.24320214 41.2489327,7.24309252 C41.5806184,6.91906053 42.1184993,6.91895091 42.4502973,7.24287328 C42.4502973,7.2429829 42.4504096,7.24309252 42.4504096,7.24309252 C48.8206839,13.4640463 51.3753936,22.2935891 49.2843704,30.8623498 C49.1928902,31.23571 48.8514391,31.4993423 48.4583551,31.5" id="Fill-20" fill="#A2DFFC"></path>
                <path d="M33,24.9999444 C33,29.4180699 29.4182426,33 24.9999444,33 C20.5816461,33 17,29.4180699 17,24.9999444 C17,20.5817075 20.5816461,17 24.9999444,17 C29.4182426,17 33,20.5817075 33,24.9999444" id="Fill-22" fill="#33CCFF"></path>
                <path d="M24.9999454,37.5 C18.1072553,37.5 12.5,31.8925754 12.5,25.0000546 C12.5,18.1074246 18.1072553,12.5 24.9999454,12.5 C29.6959249,12.5 33.9536754,15.093659 36.1113112,19.2683116 C36.335501,19.7021707 36.165776,20.235681 35.7319131,20.4596506 C35.2984868,20.6839475 34.7646444,20.5144423 34.540782,20.0803649 C32.6874506,16.4953241 29.0320873,14.2680715 24.9999454,14.2680715 C19.0822735,14.2680715 14.2680869,19.0825435 14.2680869,25.0000546 C14.2680869,30.9175657 19.0822735,35.7319285 24.9999454,35.7319285 C30.9176173,35.7319285 35.7319131,30.9175657 35.7319131,25.0000546 C35.7319131,24.511622 36.1276834,24.1159643 36.6160111,24.1159643 C37.1043388,24.1159643 37.5,24.511622 37.5,25.0000546 C37.5,31.8925754 31.8926356,37.5 24.9999454,37.5" id="Fill-24" fill="#33CCFF"></path>
            </g>
        </g>
    </g>
</svg>