<svg width="197" height="39" viewBox="0 0 197 39" fill="none" xmlns="http://www.w3.org/2000/svg">
<g clip-path="url(#clip0_1370_20953)">
<path d="M38.261 0.183105C38.261 5.22061 36.2599 10.0518 32.6978 13.6138C29.1358 17.1759 24.3046 19.177 19.2671 19.177V0.183105H38.261Z" fill="#03EB70"/>
<path d="M19.2671 38.1712C19.2671 33.1337 21.2682 28.3025 24.8303 24.7404C28.3923 21.1784 33.2235 19.1772 38.261 19.1772V38.1712H19.2671Z" fill="#03EB70"/>
<path d="M19.2669 38.1712C16.7723 38.1716 14.3021 37.6806 11.9973 36.7262C9.69252 35.7718 7.5983 34.3728 5.83424 32.609C4.07018 30.8452 2.67083 28.7512 1.71612 26.4466C0.761402 24.1419 0.27002 21.6718 0.27002 19.1772H19.2669V38.1712Z" fill="#7A1CCA"/>
<path d="M0.27002 0.183106C2.76458 0.182724 5.2348 0.673732 7.53958 1.6281C9.84437 2.58246 11.9386 3.98148 13.7026 5.74527C15.4667 7.50906 16.8661 9.60307 17.8208 11.9077C18.7755 14.2123 19.2669 16.6825 19.2669 19.177H0.27002V0.183106Z" fill="#03EB70"/>
<path d="M47.7613 35.9648V10.4513H65.7249L65.0927 15.0259H53.4144V20.6047H64.3116V25.1792H53.4144V31.3903H65.2042L65.8365 35.9648H47.7613ZM74.415 19.7492C75.977 17.6417 77.9978 16.5879 80.4772 16.5879C82.4112 16.5879 83.9981 17.1086 85.2378 18.15C86.5023 19.1914 87.1346 20.7038 87.1346 22.6874V35.9648H81.7046V23.8775C81.7046 22.9105 81.4194 22.1171 80.8492 21.4973C80.3037 20.8526 79.597 20.5303 78.7292 20.5303C77.7623 20.5303 76.9316 20.9022 76.2374 21.646C75.5431 22.3651 75.196 23.2453 75.196 24.2866V35.9648H69.766V16.9599H73.8199L74.415 19.7492ZM91.9204 9.18679H97.4248V13.4638H91.9204V9.18679ZM91.9576 35.9648V16.9599H97.3876V35.9648H91.9576ZM107.739 19.1542C108.284 18.4351 109.003 17.8277 109.896 17.3318C110.813 16.8359 111.867 16.5879 113.057 16.5879C114.446 16.5879 115.685 16.9475 116.776 17.6665C117.892 18.3855 118.772 19.4641 119.417 20.9022C120.062 22.3403 120.384 24.0883 120.384 26.1462V26.5553C120.384 28.7125 120.037 30.5225 119.343 31.9853C118.648 33.4482 117.706 34.5392 116.516 35.2582C115.326 35.9772 113.987 36.3368 112.499 36.3368C111.136 36.3368 109.921 36.064 108.855 35.5185C107.788 34.9483 106.896 34.1301 106.177 33.0639L105.544 34.0309C105.297 34.4524 105.061 34.8243 104.838 35.1466C104.615 35.4442 104.429 35.7169 104.28 35.9648H102.309V9.18679H107.739V19.1542ZM114.88 25.0305C114.88 23.5676 114.545 22.4518 113.875 21.6832C113.206 20.9146 112.351 20.5303 111.309 20.5303C110.268 20.5303 109.412 20.9146 108.743 21.6832C108.074 22.4518 107.739 23.5676 107.739 25.0305V28.1174C107.739 29.5555 108.074 30.6712 108.743 31.4646C109.412 32.2333 110.268 32.6176 111.309 32.6176C112.351 32.6176 113.206 32.2333 113.875 31.4646C114.545 30.6712 114.88 29.5555 114.88 28.1174V25.0305ZM124.428 35.9648V9.18679H129.858V35.9648H124.428ZM153.151 27.0016C153.151 28.9108 152.742 30.572 151.923 31.9853C151.13 33.3986 150.027 34.4772 148.613 35.221C147.2 35.9648 145.613 36.3368 143.853 36.3368H143.258C141.497 36.3368 139.911 35.9648 138.497 35.221C137.084 34.4772 135.968 33.3986 135.15 31.9853C134.357 30.572 133.96 28.9108 133.96 27.0016V25.9231C133.96 24.0139 134.357 22.3527 135.15 20.9394C135.968 19.5261 137.084 18.4475 138.497 17.7037C139.911 16.9599 141.497 16.5879 143.258 16.5879H143.853C145.613 16.5879 147.2 16.9599 148.613 17.7037C150.027 18.4475 151.13 19.5261 151.923 20.9394C152.742 22.3527 153.151 24.0139 153.151 25.9231V27.0016ZM147.646 24.9561C147.646 23.4436 147.262 22.2907 146.493 21.4973C145.75 20.7038 144.77 20.3071 143.555 20.3071C142.34 20.3071 141.349 20.7038 140.58 21.4973C139.836 22.2907 139.464 23.4436 139.464 24.9561V27.9686C139.464 29.4811 139.836 30.634 140.58 31.4275C141.349 32.2209 142.34 32.6176 143.555 32.6176C144.77 32.6176 145.75 32.2209 146.493 31.4275C147.262 30.634 147.646 29.4811 147.646 27.9686V24.9561ZM161.837 28.2662C161.837 29.5059 162.16 30.5472 162.804 31.3903C163.449 32.2085 164.317 32.6176 165.408 32.6176C166.548 32.6176 167.441 32.2705 168.086 31.5762C168.755 30.8572 169.09 29.8034 169.09 28.4149H174.222C174.222 30.1753 173.838 31.6506 173.069 32.8407C172.325 34.0309 171.334 34.9111 170.094 35.4814C168.854 36.0516 167.491 36.3368 166.003 36.3368H165.408C162.631 36.3368 160.424 35.5185 158.788 33.8821C157.151 32.2209 156.333 29.9274 156.333 27.0016V25.9231C156.333 23.9891 156.717 22.3279 157.486 20.9394C158.279 19.5261 159.358 18.4475 160.722 17.7037C162.085 16.9599 163.647 16.5879 165.408 16.5879H166.003C167.466 16.5879 168.817 16.9103 170.057 17.5549C171.321 18.1748 172.325 19.0922 173.069 20.3071C173.838 21.4973 174.222 22.9105 174.222 24.547H168.829C168.829 23.2577 168.544 22.2287 167.974 21.4601C167.404 20.6914 166.561 20.3071 165.445 20.3071C164.329 20.3071 163.449 20.7534 162.804 21.646C162.16 22.5138 161.837 23.6172 161.837 24.9561V28.2662ZM190.34 35.9648L185.84 29.7538L183.72 31.7994V35.9648H178.29V9.18679H183.72V25.8115L190.378 16.9599H196.514L189.522 25.8859L196.812 35.9648H190.34Z" fill="#101010"/>
</g>
<defs>
<clipPath id="clip0_1370_20953">
<rect width="197" height="38.6519" fill="white"/>
</clipPath>
</defs>
</svg>
