<?xml version="1.0" encoding="UTF-8"?>
<svg id="Layer_2" data-name="Layer 2" xmlns="http://www.w3.org/2000/svg" viewBox="0 0 500 500.01">
  <defs>
    <style>
      .cls-1 {
        stroke-linejoin: round;
      }

      .cls-1, .cls-2, .cls-3, .cls-4, .cls-5, .cls-6, .cls-7 {
        fill: none;
      }

      .cls-1, .cls-2, .cls-7 {
        stroke: #fff;
      }

      .cls-8 {
        fill: #00152c;
      }

      .cls-9 {
        fill: #ee17e4;
      }

      .cls-10 {
        fill: #ef656d;
      }

      .cls-11 {
        fill: #fff;
      }

      .cls-12 {
        fill: #fe2b99;
      }

      .cls-13 {
        fill: #ff9199;
      }

      .cls-14 {
        fill: #820bb7;
      }

      .cls-15 {
        fill: #750cff;
      }

      .cls-16 {
        fill: #c1ff44;
      }

      .cls-2 {
        stroke-dasharray: 0 0 4.95 4.95;
      }

      .cls-2, .cls-3, .cls-4, .cls-5, .cls-6, .cls-7 {
        stroke-miterlimit: 10;
      }

      .cls-3 {
        stroke: #1e2c2c;
      }

      .cls-4 {
        stroke: #0a96ff;
      }

      .cls-5 {
        stroke: #c1ff44;
      }

      .cls-6 {
        stroke: #ee17e4;
      }
    </style>
  </defs>
  <g id="BACKGROUND">
    <rect class="cls-14" width="500" height="500"/>
  </g>
  <g id="OBJECT">
    <circle class="cls-15" cx="250" cy="243.85" r="203.94" transform="translate(-99.2 248.2) rotate(-45)"/>
    <g>
      <rect class="cls-16" x="247.77" y="232.66" width="173.64" height="30.23"/>
      <rect class="cls-16" x="247.77" y="451.65" width="173.64" height="30.23"/>
      <rect class="cls-16" x="421.41" y="262.89" width="30.23" height="188.76"/>
    </g>
    <g>
      <polygon class="cls-8" points="30.52 468.35 48.4 486.22 30.85 486.22 30.52 485.9 30.52 468.35"/>
      <polygon class="cls-8" points="30.52 414.72 102.03 486.22 84.48 486.22 30.52 432.27 30.52 414.72"/>
      <polygon class="cls-8" points="31.83 362.39 155.66 486.22 138.1 486.22 30.52 378.64 30.52 363.7 31.83 362.39"/>
      <polygon class="cls-8" points="58.64 335.58 209.28 486.22 191.73 486.22 49.87 344.35 58.64 335.58"/>
      <polygon class="cls-8" points="85.45 308.77 245.36 468.67 245.36 486.22 76.68 317.54 85.45 308.77"/>
      <polygon class="cls-8" points="112.27 281.95 245.36 415.04 245.36 432.59 103.49 290.73 112.27 281.95"/>
      <polygon class="cls-8" points="139.09 255.14 245.36 361.42 245.36 378.97 130.31 263.91 139.09 255.14"/>
    </g>
    <path class="cls-9" d="M124.58,213.19l-21.8-19.26c27.59-31.22,63.7-61.82,106.47-84.85,44.79-24.12,128.58-51.16,119.88-48.32l6.4,28.38c-36.02,8.12-74.66,23.73-111.74,45.13-39.38,22.74-73.69,50.03-99.22,78.92Z"/>
    <g>
      <g>
        <line class="cls-7" x1="370.17" y1="226.11" x2="368.01" y2="224.86"/>
        <line class="cls-2" x1="363.72" y1="222.39" x2="254.31" y2="159.22"/>
        <polyline class="cls-7" points="252.17 157.98 250 156.73 247.83 157.98"/>
        <line class="cls-2" x1="243.54" y1="160.46" x2="134.14" y2="223.62"/>
        <line class="cls-7" x1="131.99" y1="224.86" x2="129.83" y2="226.11"/>
      </g>
      <g>
        <line class="cls-7" x1="250" y1="156.73" x2="250" y2="154.23"/>
        <line class="cls-2" x1="250" y1="149.28" x2="250" y2="22.94"/>
        <line class="cls-7" x1="250" y1="20.46" x2="250" y2="17.96"/>
      </g>
    </g>
    <g>
      <polygon class="cls-7" points="370.17 226.11 370.17 87.35 250 17.96 129.83 87.35 129.83 226.11 250 295.5 370.17 226.11"/>
      <rect class="cls-11" x="113.33" y="114.01" width="28.09" height="7.07"/>
      <polyline class="cls-7" points="129.83 87.32 250 156.7 370.17 87.32"/>
      <line class="cls-7" x1="250" y1="295.5" x2="250" y2="156.73"/>
    </g>
    <g>
      <path class="cls-12" d="M333.4,434.87l-121.62-9.35s-29.59,13.13-38.13,38.97c-8.54,25.83-10.57,35.53-10.57,35.53h176.57s7.01-28.66-6.25-65.14Z"/>
      <path class="cls-11" d="M211.15,357.53s-2.78,48.46-7.16,61.69c-4.37,13.22,44.87,32.99,71.16,33.03,26.29,.03,62.44-17.16,64.2-22.45,1.76-5.29-5.06-43.36-.33-85.82l-127.87,13.55Z"/>
      <path class="cls-8" d="M211.15,357.53c-5.86-9.61,120.55-30.17,127.87-13.55,7.33,16.62-110.4,42.22-127.87,13.55Z"/>
      <path class="cls-8" d="M203.99,236.15s3.12-4.04,5.54-5.26c2.42-1.22,8.15,1.79,8.38,12.96,0,0-11.75-1-13.92-7.7Z"/>
      <path class="cls-13" d="M318.85,348.25c-2.17,2.43-4.99,4.51-8.28,6.27-23.68,12.77-71.28,9.59-71.28,9.59,0,0,.43-5.19,.74-11.43,.41-8.72,.55-19.5-1.17-21.04-15.47-13.93-14.12-41.57-14.12-41.57-.3-3.53-3.04-17.33-9.68-25.36-7.02-8.48-14.11-17.16-13.53-21.56,.59-4.41,2.35-8.82,5.59-8.52,3.23,.29,15.57,9.99,18.8,14.11,3.24,4.11,10.5,6.42,10.5,6.42,1.31-1.4,3.1-2.64,4.6-5.64,0,0-6.27-25.14-15-28.25-2.8-1-16.03-2.81-23.31-4.23-5.99-1.18-10.65-10.07-5.07-11.83,5.58-1.76,25.34-3.32,33.57-.22,13.24,4.99,26.62,29.74,27.03,30.51-.09-.82-2.41-20.05-5.58-25.5-3.23-5.58-19.28-11.49-23.43-14.07-8.16-5.07-8.59-14.43,.22-13.85,8.81,.59,33.2,10.87,37.62,15.29,4.4,4.4,11.76,29.35,11.76,29.35,0,0,.58-19.69,.58-22.04s-17.92-30.56-18.51-36.15c-.59-5.58,2.64-15.87,9.1-13.82,6.47,2.06,26.45,43.2,26.45,43.2,0,0,4.86-12.64,12.71-10.88,7.86,1.77,5.82,32.59,6.03,39.05,.22,6.46,1.68,21.74,3.44,25.86,1.77,4.11-8.48,50.83-7.31,62.89,.35,3.48,1.3,8.39,2.43,13.38,2.22,9.87,5.09,20.05,5.09,20.05Z"/>
      <path class="cls-10" d="M318.85,348.25c-2.17,2.43-4.99,4.51-8.28,6.27-23.68,12.77-71.28,9.59-71.28,9.59,0,0,.43-5.19,.74-11.43,15.97-4.46,48.9-14.11,73.73-24.48,2.22,9.87,5.09,20.05,5.09,20.05Z"/>
      <path class="cls-11" d="M318.84,348.25c-2.17,2.43-4.99,4.51-8.28,6.27-2.84-14.31-6.3-33.77-5.77-41.46,.88-12.78,9.69-50.25,9.26-57.38-.45-7.13-2.64-30.34-2.21-42.68,.45-12.35-2.69-25.98-2.69-25.98,7.86,1.77,5.82,32.59,6.03,39.05,.22,6.46,1.68,21.74,3.44,25.86,1.77,4.11-8.48,50.83-7.31,62.89,1.01,10.36,7.52,33.43,7.52,33.43Z"/>
      <path class="cls-3" d="M318.64,251.93c-4.85-23.83-11.9-20.93-19.84-50.18"/>
    </g>
    <g>
      <path class="cls-4" d="M322.81,316.44c38.69,6.99,65.22,21.35,65.22,37.93,0,23.45-53.1,42.47-118.61,42.47s-118.61-19.01-118.61-42.47c0-18.27,32.24-33.85,77.46-39.84"/>
      <path class="cls-4" d="M339.65,418.99c26.45,7.45,43.2,18.22,42.92,29.83-.49,20.51-53.94,35.85-119.37,34.27-65.43-1.58-118.08-19.48-117.58-39.98,.33-13.74,24.44-25.17,60.01-30.73"/>
    </g>
    <g>
      <rect class="cls-16" x="98.34" y="253.92" width="7.36" height="7.36"/>
      <rect class="cls-16" x="109.68" y="242.58" width="7.36" height="7.36"/>
    </g>
    <g>
      <polygon class="cls-16" points="93.41 51.6 118.22 26.79 131.99 26.79 107.27 51.51 93.41 51.6"/>
      <polygon class="cls-16" points="84.8 38.09 96.11 26.79 102.38 26.79 91.12 38.05 84.8 38.09"/>
    </g>
    <g>
      <polyline class="cls-1" points="349.89 170.07 376.04 170.07 416.06 130.05 439.95 130.05"/>
      <rect class="cls-11" x="437.24" y="127.34" width="5.42" height="5.42"/>
    </g>
    <g>
      <path class="cls-9" d="M301.67,174.83c0,1.88-1.53,3.64-3.41,3.92-1.88,.28-3.41-1.02-3.41-2.91s1.53-3.64,3.41-3.92c1.88-.28,3.41,1.02,3.41,2.91Z"/>
      <path class="cls-11" d="M318.6,172.32c0,1.88-1.53,3.64-3.41,3.92s-3.41-1.02-3.41-2.91,1.53-3.64,3.41-3.92,3.41,1.02,3.41,2.91Z"/>
      <path class="cls-8" d="M335.54,169.82c0,1.88-1.53,3.64-3.41,3.92-1.88,.28-3.41-1.02-3.41-2.91s1.53-3.64,3.41-3.92c1.88-.28,3.41,1.02,3.41,2.91Z"/>
    </g>
    <g>
      <g>
        <rect class="cls-9" x="369.68" y="389.54" width="24.87" height="11.75"/>
        <rect class="cls-9" x="388.62" y="400.86" width="17.77" height="5.82"/>
      </g>
      <rect class="cls-11" x="406.39" y="419.17" width="36.27" height="12.86"/>
      <rect class="cls-8" x="346.45" y="291.58" width="35.67" height="13.36"/>
    </g>
    <g>
      <path class="cls-7" d="M354.65,70.81c50.66-7.3,90.81,2.06,106.54,29.3,13.08,22.65,7,53.74-13.61,86.7"/>
      <path class="cls-7" d="M155.92,354.38c-38.13,1.06-67.49-9.25-80.4-31.61-15.67-27.13-3.85-66.39,27.53-106.44"/>
      <path class="cls-9" d="M178.88,367.17l-3.58-28.87c42.33-5.25,91.2-22.9,137.61-49.7,46.16-26.65,85.75-59.98,111.47-93.83l23.16,17.6c-28.01,36.87-70.66,72.89-120.09,101.43-49.7,28.7-102.47,47.65-148.57,53.37Z"/>
    </g>
    <g>
      <polyline class="cls-5" points="24.92 104.01 11.85 104.01 11.85 299.98 27.13 299.98"/>
      <polyline class="cls-5" points="475.08 104.01 488.15 104.01 488.15 299.98 472.87 299.98"/>
    </g>
    <g>
      <rect class="cls-15" x="29.03" y="144.01" width="20.87" height="6.71"/>
      <rect class="cls-15" x="29.03" y="158.14" width="20.87" height="6.71"/>
    </g>
    <g>
      <circle class="cls-11" cx="437.96" cy="168.05" r="2.02"/>
      <circle class="cls-11" cx="447.36" cy="168.05" r="2.02"/>
    </g>
    <g>
      <g>
        <polygon class="cls-11" points="468.08 229.79 475.37 229.79 471.73 234.84 468.08 239.89 464.44 234.84 460.8 229.79 468.08 229.79"/>
        <polygon class="cls-16" points="468.08 245.04 475.37 245.04 471.73 250.09 468.08 255.14 464.44 250.09 460.8 245.04 468.08 245.04"/>
      </g>
      <polygon class="cls-8" points="402.16 90.93 402.16 98.22 397.11 94.58 392.06 90.93 397.11 87.29 402.16 83.64 402.16 90.93"/>
    </g>
    <g>
      <rect class="cls-16" x="44.21" y="81.41" width="30.07" height="1.98" transform="translate(-40.91 66.02) rotate(-45)"/>
      <rect class="cls-16" x="58.26" y="67.36" width="1.98" height="30.07" transform="translate(-40.91 66.03) rotate(-45)"/>
    </g>
    <g>
      <circle class="cls-7" cx="451.31" cy="332.97" r="19.21" transform="translate(-7.15 9.91) rotate(-1.25)"/>
      <line class="cls-6" x1="472.87" y1="311.87" x2="429.76" y2="354.07"/>
    </g>
    <g>
      <circle class="cls-7" cx="451.31" cy="393.72" r="19.21" transform="translate(-83.92 662.47) rotate(-67.76)"/>
      <line class="cls-6" x1="472.87" y1="372.62" x2="429.76" y2="414.82"/>
    </g>
  </g>
</svg>