<?xml version="1.0" encoding="UTF-8"?>
<svg id="Layer_2" data-name="Layer 2" xmlns="http://www.w3.org/2000/svg" xmlns:xlink="http://www.w3.org/1999/xlink" viewBox="0 0 500 500">
  <defs>
    <style>
      .cls-1, .cls-2, .cls-3, .cls-4, .cls-5, .cls-6, .cls-7, .cls-8 {
        fill: none;
      }

      .cls-9 {
        clip-path: url(#clippath);
      }

      .cls-10 {
        fill: #00152c;
      }

      .cls-11 {
        fill: #ee17e4;
      }

      .cls-12 {
        fill: #fff;
      }

      .cls-13 {
        fill: #fe2b99;
      }

      .cls-14 {
        fill: #820bb7;
      }

      .cls-15 {
        fill: #750cff;
      }

      .cls-16 {
        fill: #c1ff44;
      }

      .cls-2 {
        stroke-width: 2px;
      }

      .cls-2, .cls-3, .cls-4, .cls-5, .cls-6, .cls-7, .cls-8 {
        stroke-miterlimit: 10;
      }

      .cls-2, .cls-5 {
        stroke: #c1ff44;
      }

      .cls-3 {
        stroke-width: 4px;
      }

      .cls-3, .cls-7, .cls-8 {
        stroke: #fff;
      }

      .cls-4 {
        stroke: #1e2c2c;
      }

      .cls-6 {
        stroke: #ee17e4;
      }

      .cls-17 {
        opacity: .5;
      }

      .cls-8 {
        stroke-width: .5px;
      }
    </style>
    <clipPath id="clippath">
      <path class="cls-1" d="M241.34,111.46c9.02-4.01,76.81,2.1,87.11,3.89s15.31,8.95,17.78,24.64c2.47,15.7,9.28,37.94-1.15,44.99-10.43,7.05-25.53-.47-43.99-.76-18.46-.3-39.28,4.25-49.37-5.65-10.09-9.9-23.77-61.16-10.4-67.1Z"/>
    </clipPath>
  </defs>
  <g id="BACKGROUND">
    <rect class="cls-14" width="500" height="500"/>
  </g>
  <g id="OBJECT">
    <g>
      <path class="cls-15" d="M453.73,0l-131.49,131.49-.02-.02-.03,.04c-19.41-14.37-43.41-22.88-69.41-22.88-64.5,0-116.78,52.28-116.78,116.77,0,26,8.51,50.01,22.88,69.42l-44.29,44.29c-25.47-30.92-40.76-70.53-40.76-113.71,0-98.83,80.11-178.95,178.95-178.95,39.89,0,76.72,13.08,106.48,35.15L440.86,0h12.87Z"/>
      <path class="cls-16" d="M431.73,225.4c0,98.84-80.12,178.95-178.95,178.95-39.89,0-76.71-13.07-106.47-35.13L15.53,500H2.66l180.71-180.71,.05,.05c19.39,14.34,43.38,22.84,69.36,22.84,64.49,0,116.77-52.28,116.77-116.78,0-26-8.51-50-22.87-69.41l44.29-44.29c25.46,30.92,40.76,70.52,40.76,113.7Z"/>
    </g>
    <g>
      <g>
        <path class="cls-12" d="M353.7,172.15l-18.22,65.73c14.68,2.96,32.73-9,37.02-27.27,4.3-18.27-4.12-35.49-18.8-38.46Z"/>
        <path class="cls-10" d="M353.36,173.21l-17.32,64.57c11.64-2.18,22.45-13.75,26.1-29.26,3.41-14.51-.42-28.29-8.78-35.31Z"/>
        <path class="cls-5" d="M339.29,223.99c6.03-2.59,11.25-9.1,13.21-17.42,2.1-8.94-.17-17.44-5.2-21.93"/>
      </g>
      <path class="cls-6" d="M220.86,286.22c19.4,4,40.58-2.42,50.53-5.5,9.96-3.08,20.82-8.76,28.96-3.82,8.15,4.94,13.58,9.08,23.53,9.94,9.96,.87,9.05-13.22,9.05-26.73s5.43-31.68,13.58-65.38c0,0-166.53-9.92-166.53,0s-9.78,81.03,40.88,91.48Z"/>
      <path class="cls-6" d="M342.46,140.2s-7.8-38.46-40.22-45.37c-50.99-10.87-153.6,7.96-139.1,112.76"/>
      <path class="cls-6" d="M278.02,245.15c-1.32-2.64,11.87-9.76,16.09-11.6,4.22-1.85,8.18-.79,11.87-1.32,3.69-.53,12.4,9.23,10.81,10.29-1.58,1.06-9.74-2.2-15.03-2.11-10.55,.18-22.67,6.88-23.74,4.75Z"/>
      <path class="cls-6" d="M288.05,253.59c-2.15-.34,8.97-7.6,14.77-8.02,5.8-.42,9.49,7.76,9.23,8.02-.14,.14-4.73-1.7-10.02-1.58-4.74,.1-9.99,2.21-13.98,1.58Z"/>
      <path class="cls-6" d="M179.22,245.55s8.93,29.77,12.25,46.03c1.63,7.99,.18,20.58-4.8,30.08"/>
      <path class="cls-6" d="M329.75,284.63c-3.2,16.25-30.16,18.6-30.16,18.6-4.57,5.2-6.11,14.68,.16,29.11"/>
      <ellipse class="cls-10" cx="174.07" cy="214.38" rx="27.46" ry="33.86" transform="translate(-30.41 28.78) rotate(-8.7)"/>
      <g>
        <polygon class="cls-10" points="170.2 153.99 183.06 149.05 191.47 194.66 174.45 200.14 170.2 153.99"/>
        <ellipse class="cls-12" cx="166.55" cy="215.53" rx="21.62" ry="32.49" transform="translate(-30.67 27.66) rotate(-8.7)"/>
        <path class="cls-5" d="M167.32,183.42c11.8-1.81,23.57,11.11,26.28,28.85,2.71,17.74-4.65,33.58-16.46,35.39"/>
        <path class="cls-16" d="M177.83,213.81c1.43,9.36-2.46,17.72-8.68,18.67s-12.44-5.86-13.87-15.22c-1.43-9.36,2.46-17.72,8.68-18.67s12.44,5.86,13.87,15.22Z"/>
        <path class="cls-12" d="M156.25,196.02s.1-20.86,.98-27.79,5.68-11.74,12.98-14.24l3.79,38-17.75,4.02Z"/>
      </g>
      <g>
        <path class="cls-10" d="M184.23,164.75s-2.61,41.23,26.29,52.52c28.9,11.3,72.25-13.39,87.61-12.96,15.36,.43,12.47,18.88,25.97,18.88,24.23,0,32.14-45.09,32.14-45.09l-3.82-23.5-168.19,10.15Z"/>
        <path class="cls-12" d="M214.91,123.65s-24.88,12.47-35.32,18.46c-7.22,4.14-5.92,18.35-4.75,31.35l44.41-16.27-4.34-33.54Z"/>
        <path class="cls-12" d="M226.51,116.86s-18.7,10.72-25.26,15.35c-6.57,4.63-6.03,29-1.8,47.8,4.23,18.8,9.66,34.04,32.35,30.16,28.9-4.93,52.17-9.42,61.96-10.73,15.73-2.1,19.47,5.66,23.41,8.9,17.21,14.18,31.46-9.79,38.21-27.3l-12.09-49.86-116.77-14.33Z"/>
        <path class="cls-11" d="M213.12,181.14h0c-5.07,1.08-9.89-3.13-10.76-9.4l-2.04-14.67c-.87-6.27,2.53-12.23,7.6-13.3h0c5.07-1.08,9.89,3.13,10.76,9.4l2.04,14.67c.87,6.27-2.53,12.23-7.6,13.3Z"/>
        <path class="cls-10" d="M211.39,168.89h0c-1.29,.27-2.52-.81-2.73-2.42l-.96-7.1c-.22-1.6,.66-3.12,1.95-3.38h0c1.29-.27,2.52,.81,2.73,2.42l.96,7.1c.22,1.6-.66,3.12-1.95,3.38Z"/>
        <path class="cls-12" d="M223.35,119.88c2.84-4.4,11.19-8.58,19.41-8.87,27.81-.99,76.2,2.33,85.69,4.33,14.92,3.14,21.12,11.55,23.72,27.23s10.28,37.76-2.52,45.24c-12.8,7.48-30.87,.51-53.19,.92-22.32,.41-47.63,5.77-59.58-3.79-11.95-9.56-24.24-48.5-13.52-65.06Z"/>
        <path class="cls-10" d="M241.34,111.46c9.02-4.01,76.81,2.1,87.11,3.89s15.31,8.95,17.78,24.64c2.47,15.7,9.28,37.94-1.15,44.99-10.43,7.05-25.53-.47-43.99-.76-18.46-.3-39.28,4.25-49.37-5.65-10.09-9.9-23.77-61.16-10.4-67.1Z"/>
        <path class="cls-4" d="M354.95,182c-10.47,19.61-36.18,6.32-58.5,6.73-22.32,.41-47.63,5.77-59.58-3.79-11.95-9.56-25.85-48.66-10.13-68.5"/>
        <path class="cls-10" d="M219.74,141.55l4.07-.07s3.11,24.18,11.81,34.24l-2.98,4.72s-6.51-8.8-10.02-21.25-2.87-17.65-2.87-17.65Z"/>
        <g class="cls-17">
          <g class="cls-9">
            <g>
              <path class="cls-8" d="M244.46,104.43s12.18,73.38,14.05,103.88"/>
              <path class="cls-8" d="M257.35,102.07s12.18,73.38,14.05,103.88"/>
              <path class="cls-8" d="M270.24,99.72s12.18,73.38,14.05,103.88"/>
              <path class="cls-8" d="M283.13,97.36s12.18,73.38,14.05,103.88"/>
              <path class="cls-8" d="M296.02,95s12.18,73.38,14.05,103.88"/>
              <path class="cls-8" d="M308.91,92.64s12.18,73.38,14.05,103.88"/>
              <path class="cls-8" d="M321.8,90.29s12.18,73.38,14.05,103.88"/>
              <path class="cls-8" d="M334.69,87.93s12.18,73.38,14.05,103.88"/>
              <path class="cls-8" d="M232.2,117.32s70.07-2.45,122.38,3.53"/>
              <path class="cls-8" d="M233.5,128.19s70.07-2.45,122.38,3.53"/>
              <path class="cls-8" d="M234.8,139.07s70.07-2.45,122.38,3.53"/>
              <path class="cls-8" d="M236.1,149.95s70.07-2.45,122.38,3.53"/>
              <path class="cls-8" d="M237.4,160.83s70.07-2.45,122.38,3.53"/>
              <path class="cls-8" d="M238.7,171.7s70.07-2.45,122.38,3.53"/>
              <path class="cls-8" d="M240,182.58s70.07-2.45,122.38,3.53"/>
            </g>
          </g>
        </g>
        <g>
          <circle class="cls-5" cx="298.24" cy="148.55" r="24.44" transform="translate(-32.55 108.66) rotate(-19.6)"/>
          <line class="cls-6" x1="325.67" y1="121.7" x2="270.81" y2="175.41"/>
        </g>
        <g>
          <path class="cls-2" d="M264.29,180.98c-8.13-8.49-13.03-20.09-12.77-32.77,.27-12.67,5.66-24.05,14.14-32.19"/>
          <path class="cls-2" d="M330.63,117.38c8.14,8.49,13.03,20.09,12.77,32.76-.27,12.69-5.64,24.05-14.14,32.19"/>
        </g>
      </g>
    </g>
    <g>
      <polygon class="cls-16" points="455.19 445.29 455.19 452.57 450.14 448.93 445.09 445.29 450.14 441.64 455.19 438 455.19 445.29"/>
      <polygon class="cls-13" points="439.94 445.29 439.94 452.57 434.89 448.93 429.84 445.29 434.89 441.64 439.94 438 439.94 445.29"/>
    </g>
    <g>
      <g>
        <rect class="cls-10" x="378.69" y="143.33" width="6.84" height="6.84"/>
        <rect class="cls-10" x="389.23" y="132.79" width="6.84" height="6.84"/>
      </g>
      <g>
        <rect class="cls-11" x="105.56" y="298.2" width="6.84" height="6.84"/>
        <rect class="cls-11" x="116.1" y="308.73" width="6.84" height="6.84"/>
      </g>
    </g>
    <g>
      <polygon class="cls-16" points="176.01 298.33 189.52 284.83 197.01 284.83 183.56 298.28 176.01 298.33"/>
      <polygon class="cls-16" points="171.33 290.98 177.48 284.83 180.9 284.83 174.77 290.96 171.33 290.98"/>
    </g>
    <g>
      <path class="cls-6" d="M281.53,218.03c-.95-2.98,9.38-17.22,18.59-17.21,6.1,0,10.49,15.36,8.9,17.21-1.59,1.84-4.76-2-10.79-1.08-6.04,.92-15.82,3.84-16.7,1.08Z"/>
      <path class="cls-6" d="M290.95,211.58c-.54-2.37,4.66-6.61,6.27-6.3,1.61,.31-5.54,9.53-6.27,6.3Z"/>
      <path class="cls-6" d="M301.5,206.51c-1.76,.15,.3,6.76,2.88,6.76s-1.11-6.91-2.88-6.76Z"/>
    </g>
    <g>
      <polygon class="cls-11" points="119.58 21.11 39.74 100.95 39.74 77.36 96 21.11 119.58 21.11"/>
      <polygon class="cls-11" points="145.11 21.11 145.11 44.69 39.74 150.06 39.74 126.47 145.11 21.11"/>
      <polygon class="cls-11" points="145.11 70.22 145.11 93.81 88.86 150.06 65.27 150.06 145.11 70.22"/>
      <polygon class="cls-11" points="145.11 119.34 145.11 142.92 137.97 150.06 114.39 150.06 145.11 119.34"/>
    </g>
    <g>
      <path class="cls-12" d="M269.53,328.18c-1.8,.08-3.33-1.31-3.41-3.11-.08-1.8,1.31-3.33,3.11-3.41,1.8-.08,3.33,1.31,3.41,3.11,.08,1.8-1.31,3.33-3.11,3.41Z"/>
      <path class="cls-11" d="M250.15,329.05c-1.8,.08-3.33-1.31-3.41-3.11-.08-1.8,1.31-3.33,3.11-3.41s3.33,1.31,3.41,3.11c.08,1.8-1.31,3.33-3.11,3.41Z"/>
      <path class="cls-16" d="M230.77,329.93c-1.8,.08-3.33-1.31-3.41-3.11-.08-1.8,1.31-3.33,3.11-3.41,1.8-.08,3.33,1.31,3.41,3.11,.08,1.8-1.31,3.33-3.11,3.41Z"/>
    </g>
    <g>
      <rect class="cls-16" x="61.99" y="254.33" width="36.87" height="2.43" transform="translate(-157.14 131.71) rotate(-45)"/>
      <rect class="cls-16" x="79.21" y="237.11" width="2.43" height="36.87" transform="translate(-157.14 131.71) rotate(-45)"/>
    </g>
    <g>
      <polyline class="cls-7" points="35.74 438 19.03 421.29 19.03 305.2 32.95 291.28 32.95 208.73 19.03 194.81 19.03 78.72 35.74 62.01"/>
      <polyline class="cls-7" points="464.26 438 480.97 421.29 480.97 305.2 467.05 291.28 467.05 208.73 480.97 194.81 480.97 78.72 464.26 62.01"/>
    </g>
    <rect class="cls-12" x="7.2" y="391.45" width="23.65" height="8.53"/>
    <g>
      <rect class="cls-10" x="432.15" y="383.63" width="23.31" height="6.14"/>
      <rect class="cls-10" x="443.8" y="398.44" width="11.66" height="6.14"/>
    </g>
    <g>
      <g>
        <polyline class="cls-7" points="116.93 88.29 143.78 115.98 197.44 116.8"/>
        <rect class="cls-12" x="86.72" y="82.2" width="31.64" height="7.25" transform="translate(1.33 -1.57) rotate(.88)"/>
      </g>
      <g>
        <polyline class="cls-7" points="458.62 154.27 433.26 180.43 382.56 181.21"/>
        <rect class="cls-12" x="457.27" y="148.52" width="29.89" height="6.85" transform="translate(946.71 296.61) rotate(179.12)"/>
      </g>
      <g>
        <polygon class="cls-12" points="377.36 346.21 369.11 346.21 373.41 337.95 381.66 337.95 377.36 346.21"/>
        <polygon class="cls-12" points="459.56 346.21 396.77 346.21 401.07 337.95 463.87 337.95 459.56 346.21"/>
        <line class="cls-7" x1="420.33" y1="342.08" x2="375.38" y2="342.08"/>
      </g>
    </g>
    <circle class="cls-3" cx="80.42" cy="255.54" r="34.92"/>
    <g>
      <polygon class="cls-2" points="448.91 104.73 407.35 104.73 402.33 98.68 423.06 61.83 426.39 61.83 429.77 61.83 433.1 61.83 454.07 98.58 448.91 104.73"/>
      <polygon class="cls-11" points="437.85 95.28 418.48 95.28 416.14 92.46 425.8 75.28 427.35 75.28 428.93 75.28 430.48 75.28 440.26 92.41 437.85 95.28"/>
      <polygon class="cls-7" points="433.55 91.82 422.81 91.82 421.51 90.26 426.87 80.73 427.73 80.73 428.6 80.73 429.47 80.73 434.89 90.23 433.55 91.82"/>
    </g>
  </g>
</svg>