<?xml version="1.0" encoding="UTF-8"?>
<svg xmlns="http://www.w3.org/2000/svg" xmlns:xlink="http://www.w3.org/1999/xlink" viewBox="0 0 683.22 575.29">
  <defs>
    <style>
      .cls-1, .cls-2, .cls-3, .cls-4, .cls-5 {
        fill: none;
      }

      .cls-2 {
        mix-blend-mode: lighten;
        stroke-linecap: round;
        stroke-width: 1.33px;
      }

      .cls-2, .cls-6, .cls-7, .cls-5, .cls-8, .cls-9, .cls-10, .cls-11, .cls-12, .cls-13 {
        stroke: #fff;
      }

      .cls-2, .cls-3, .cls-4, .cls-5 {
        stroke-miterlimit: 10;
      }

      .cls-14 {
        clip-path: url(#clippath);
      }

      .cls-15 {
        fill: #fff;
      }

      .cls-16 {
        fill: #cdf239;
      }

      .cls-17 {
        fill: #e06464;
      }

      .cls-18 {
        fill: #1d1d1b;
      }

      .cls-19 {
        fill: #3f2094;
      }

      .cls-20 {
        fill: #27145c;
      }

      .cls-21 {
        fill: #50b7e0;
      }

      .cls-6 {
        fill: url(#Degradado_sin_nombre_1941);
      }

      .cls-6, .cls-7, .cls-8, .cls-9, .cls-10, .cls-11, .cls-12, .cls-13 {
        stroke-linejoin: round;
      }

      .cls-6, .cls-7, .cls-9 {
        stroke-width: .82px;
      }

      .cls-7 {
        fill: url(#Degradado_sin_nombre_1705);
      }

      .cls-22 {
        fill: url(#Degradado_sin_nombre_236);
      }

      .cls-23 {
        fill: url(#Degradado_sin_nombre_201);
      }

      .cls-24 {
        fill: url(#Degradado_sin_nombre_207);
      }

      .cls-25 {
        clip-path: url(#clippath-1);
      }

      .cls-26 {
        clip-path: url(#clippath-2);
      }

      .cls-3 {
        stroke: #000;
        stroke-width: 1.39px;
      }

      .cls-4 {
        stroke: #3f2094;
      }

      .cls-4, .cls-5 {
        stroke-width: 1.39px;
      }

      .cls-8 {
        fill: url(#Degradado_sin_nombre_357);
      }

      .cls-8, .cls-10, .cls-11, .cls-12, .cls-13 {
        stroke-width: .99px;
      }

      .cls-27 {
        fill: #3f355c;
        mix-blend-mode: soft-light;
      }

      .cls-9 {
        fill: url(#Degradado_sin_nombre_16);
      }

      .cls-28 {
        fill: url(#Degradado_sin_nombre_87);
      }

      .cls-29 {
        fill: url(#Degradado_sin_nombre_57);
      }

      .cls-30 {
        fill: url(#Degradado_sin_nombre_54);
      }

      .cls-31 {
        fill: url(#Degradado_sin_nombre_63);
      }

      .cls-32 {
        fill: url(#Degradado_sin_nombre_65);
      }

      .cls-33 {
        fill: url(#Degradado_sin_nombre_67);
      }

      .cls-34 {
        fill: url(#Degradado_sin_nombre_62);
      }

      .cls-35 {
        fill: url(#Degradado_sin_nombre_69);
      }

      .cls-36 {
        fill: url(#Degradado_sin_nombre_36);
      }

      .cls-37 {
        fill: url(#Degradado_sin_nombre_19);
      }

      .cls-10 {
        fill: url(#Degradado_sin_nombre_236-3);
      }

      .cls-11 {
        fill: url(#Degradado_sin_nombre_357-3);
      }

      .cls-12 {
        fill: url(#Degradado_sin_nombre_357-4);
      }

      .cls-13 {
        fill: url(#Degradado_sin_nombre_357-2);
      }

      .cls-38 {
        fill: url(#Degradado_sin_nombre_357-5);
      }

      .cls-39 {
        fill: url(#Degradado_sin_nombre_236-2);
      }

      .cls-40 {
        isolation: isolate;
      }

      .cls-41 {
        fill: url(#Degradado_sin_nombre_1920);
      }

      .cls-42 {
        fill: url(#Degradado_sin_nombre_1918);
      }

      .cls-43 {
        fill: url(#Degradado_sin_nombre_1712);
      }

      .cls-44 {
        fill: url(#Degradado_sin_nombre_1595);
      }

      .cls-45 {
        fill: url(#Degradado_sin_nombre_1837);
      }

      .cls-46 {
        fill: url(#Degradado_sin_nombre_1258);
      }

      .cls-47 {
        fill: url(#Degradado_sin_nombre_1918-4);
      }

      .cls-48 {
        fill: url(#Degradado_sin_nombre_1918-3);
      }

      .cls-49 {
        fill: url(#Degradado_sin_nombre_1918-2);
      }

      .cls-50 {
        fill: url(#Degradado_sin_nombre_1920-4);
      }

      .cls-51 {
        fill: url(#Degradado_sin_nombre_1920-5);
      }

      .cls-52 {
        fill: url(#Degradado_sin_nombre_1920-6);
      }

      .cls-53 {
        fill: url(#Degradado_sin_nombre_1920-7);
      }

      .cls-54 {
        fill: url(#Degradado_sin_nombre_1920-2);
      }

      .cls-55 {
        fill: url(#Degradado_sin_nombre_1920-3);
      }

      .cls-56 {
        fill: url(#Degradado_sin_nombre_1258-2);
      }

      .cls-57 {
        fill: url(#Degradado_sin_nombre_1258-3);
      }

      .cls-58 {
        fill: url(#Degradado_sin_nombre_1837-3);
      }

      .cls-59 {
        fill: url(#Degradado_sin_nombre_1837-2);
      }

      .cls-60 {
        fill: url(#Degradado_sin_nombre_1837-4);
      }
    </style>
    <linearGradient id="Degradado_sin_nombre_236" data-name="Degradado sin nombre 236" x1="20.22" y1="353.29" x2="73.47" y2="451.49" gradientTransform="translate(683.22) rotate(-180) scale(1 -1)" gradientUnits="userSpaceOnUse">
      <stop offset="0" stop-color="#e964f5"/>
      <stop offset=".99" stop-color="#9a19ba" stop-opacity="0"/>
    </linearGradient>
    <linearGradient id="Degradado_sin_nombre_236-2" data-name="Degradado sin nombre 236" x1="541.92" y1="513.83" x2="453.91" y2="590.76" xlink:href="#Degradado_sin_nombre_236"/>
    <linearGradient id="Degradado_sin_nombre_1258" data-name="Degradado sin nombre 1258" x1="-87.85" y1="605.76" x2="-98.73" y2="638.91" gradientTransform="translate(795.72 -397.65) rotate(-156.4) scale(1 -1)" gradientUnits="userSpaceOnUse">
      <stop offset="0" stop-color="#c422c6" stop-opacity=".1"/>
      <stop offset=".27" stop-color="#d55ed7" stop-opacity=".4"/>
      <stop offset=".53" stop-color="#e493e7" stop-opacity=".66"/>
      <stop offset=".74" stop-color="#efb8f2" stop-opacity=".84"/>
      <stop offset=".91" stop-color="#f6d0f9" stop-opacity=".96"/>
      <stop offset="1" stop-color="#f9d9fc"/>
    </linearGradient>
    <linearGradient id="Degradado_sin_nombre_1258-2" data-name="Degradado sin nombre 1258" x1="-89.25" y1="623.17" x2="-52.11" y2="624.27" xlink:href="#Degradado_sin_nombre_1258"/>
    <linearGradient id="Degradado_sin_nombre_1258-3" data-name="Degradado sin nombre 1258" x1="-85.01" y1="595.03" x2="-83.53" y2="626.82" xlink:href="#Degradado_sin_nombre_1258"/>
    <linearGradient id="Degradado_sin_nombre_36" data-name="Degradado sin nombre 36" x1="481.81" y1="-35.16" x2="642.07" y2="188.61" gradientTransform="translate(683.22) rotate(-180) scale(1 -1)" gradientUnits="userSpaceOnUse">
      <stop offset="0" stop-color="#f1bff5"/>
      <stop offset=".99" stop-color="#9a19ba" stop-opacity="0"/>
    </linearGradient>
    <linearGradient id="Degradado_sin_nombre_207" data-name="Degradado sin nombre 207" x1="115.81" y1="-717.94" x2="429.52" y2="-310.58" gradientTransform="translate(662.9 763.71) rotate(176.36) scale(1 -1)" gradientUnits="userSpaceOnUse">
      <stop offset="0" stop-color="#e9a1ec" stop-opacity=".5"/>
      <stop offset=".03" stop-color="#e490e7" stop-opacity=".44"/>
      <stop offset=".12" stop-color="#d55cd7" stop-opacity=".25"/>
      <stop offset=".2" stop-color="#ca37cc" stop-opacity=".11"/>
      <stop offset=".27" stop-color="#c320c5" stop-opacity=".03"/>
      <stop offset=".31" stop-color="#c118c3" stop-opacity="0"/>
      <stop offset=".45" stop-color="#c320c5" stop-opacity=".05"/>
      <stop offset=".56" stop-color="#c422c6" stop-opacity="0"/>
      <stop offset=".71" stop-color="#d766da" stop-opacity=".38"/>
      <stop offset=".85" stop-color="#e8a2ec" stop-opacity=".71"/>
      <stop offset=".95" stop-color="#f2c7f7" stop-opacity=".92"/>
      <stop offset="1" stop-color="#f7d6fc"/>
    </linearGradient>
    <clipPath id="clippath">
      <path class="cls-1" d="M.11,207.28C4.44,71.55,210.39,23.75,346.12,28.08c135.73,4.34,242.25,117.88,237.91,253.61-3.12,97.62-62.73,180.13-146.46,217.16-1.62,.72-4.8-.05-6.44,.64-23.89,9.95-48.1,17.69-75.01,19.62-9.74,8.96-18.03,16.6-26.7,16.32-14.72-.47-21.23,5.23-42.36-21.73-46.52-10.45-76.47-32.71-107.92-60.98-4.05-3.64-99.33,12.72-103.12,8.83C30.99,415.35-2.12,276.85,.11,207.28Z"/>
    </clipPath>
    <clipPath id="clippath-1">
      <path class="cls-1" d="M156.12,326.88s50.26-76.59,109.21-77.89c.57-.06,1.11-.1,1.62-.1l154.32,.31c.54,0,1.1,.06,1.66,.18,79.4,8.12,49.46,146.85,49.46,146.85l-103.18-15.76-14.85,35.69,75.22,16.21v75.09c0,6.8-5.56,12.36-12.36,12.36h-157.9c-6.8,0-12.36-5.56-12.36-12.36v-133.39s-3.95,19.26-3.95,19.26l-86.89-66.44Z"/>
    </clipPath>
    <clipPath id="clippath-2">
      <path class="cls-1" d="M260.8,519.81h154.94c7.61,0,13.84-6.23,13.84-13.84v-247.13c0-5.47-5.42-9.64-10.9-9.64l-157.88-.31c-7.61,0-13.84,6.23-13.84,13.84v243.25c0,7.61,6.23,13.84,13.84,13.84Z"/>
    </clipPath>
    <linearGradient id="Degradado_sin_nombre_19" data-name="Degradado sin nombre 19" x1="631.48" y1="267.08" x2="715.68" y2="272.41" gradientTransform="translate(600.1 33.36) rotate(163.47) scale(1 -1)" gradientUnits="userSpaceOnUse">
      <stop offset=".12" stop-color="#f0d3f5"/>
      <stop offset=".21" stop-color="#eed0f4" stop-opacity=".99"/>
      <stop offset=".28" stop-color="#ebc9f2" stop-opacity=".95"/>
      <stop offset=".34" stop-color="#e6bdee" stop-opacity=".89"/>
      <stop offset=".39" stop-color="#deade8" stop-opacity=".8"/>
      <stop offset=".44" stop-color="#d497e2" stop-opacity=".68"/>
      <stop offset=".48" stop-color="#c87cd9" stop-opacity=".54"/>
      <stop offset=".53" stop-color="#b95ccf" stop-opacity=".36"/>
      <stop offset=".57" stop-color="#a839c4" stop-opacity=".17"/>
      <stop offset=".6" stop-color="#9a19ba" stop-opacity="0"/>
    </linearGradient>
    <linearGradient id="Degradado_sin_nombre_1595" data-name="Degradado sin nombre 1595" x1="649.94" y1="366.01" x2="653.87" y2="234.63" gradientTransform="translate(601.33 34.74) rotate(163.15) scale(1 -1)" gradientUnits="userSpaceOnUse">
      <stop offset=".12" stop-color="#f0bdf5"/>
      <stop offset=".21" stop-color="#eebaf4" stop-opacity=".98"/>
      <stop offset=".29" stop-color="#eab2f1" stop-opacity=".94"/>
      <stop offset=".37" stop-color="#e3a5ec" stop-opacity=".86"/>
      <stop offset=".45" stop-color="#da93e6" stop-opacity=".75"/>
      <stop offset=".53" stop-color="#cd7bdd" stop-opacity=".6"/>
      <stop offset=".61" stop-color="#be5fd3" stop-opacity=".43"/>
      <stop offset=".69" stop-color="#ad3dc7" stop-opacity=".22"/>
      <stop offset=".77" stop-color="#9a19ba" stop-opacity="0"/>
    </linearGradient>
    <linearGradient id="Degradado_sin_nombre_201" data-name="Degradado sin nombre 201" x1="631.6" y1="285.82" x2="686.99" y2="242.76" gradientTransform="translate(601.33 34.74) rotate(163.15) scale(1 -1)" gradientUnits="userSpaceOnUse">
      <stop offset=".27" stop-color="#694692"/>
      <stop offset=".62" stop-color="#f0bdf5"/>
    </linearGradient>
    <linearGradient id="Degradado_sin_nombre_1712" data-name="Degradado sin nombre 1712" x1="-4160.2" y1="270.19" x2="-4231.49" y2="321.46" gradientTransform="translate(3995.61 -992.53) rotate(-16.85)" gradientUnits="userSpaceOnUse">
      <stop offset=".27" stop-color="#9a19ba" stop-opacity="0"/>
      <stop offset=".62" stop-color="#f0bdf5"/>
    </linearGradient>
    <linearGradient id="Degradado_sin_nombre_1837" data-name="Degradado sin nombre 1837" x1="569.69" y1="235.69" x2="475.5" y2="208.37" gradientTransform="translate(431 723.9) rotate(-95.61) scale(1 -1)" gradientUnits="userSpaceOnUse">
      <stop offset=".23" stop-color="#4e0778"/>
      <stop offset=".37" stop-color="#500a79"/>
      <stop offset=".49" stop-color="#581380"/>
      <stop offset=".58" stop-color="#65238a"/>
      <stop offset=".68" stop-color="#783b99"/>
      <stop offset=".76" stop-color="#9058ac"/>
      <stop offset=".85" stop-color="#ae7dc3"/>
      <stop offset=".93" stop-color="#d1a7de"/>
      <stop offset="1" stop-color="#f7d6fc"/>
    </linearGradient>
    <linearGradient id="Degradado_sin_nombre_1918" data-name="Degradado sin nombre 1918" x1="-964.38" y1="-163.8" x2="-958.85" y2="1.4" gradientTransform="translate(157.13 -730.33) rotate(-84.39) scale(1 -1)" gradientUnits="userSpaceOnUse">
      <stop offset=".12" stop-color="#f0bdf5"/>
      <stop offset=".22" stop-color="#edbaf3"/>
      <stop offset=".3" stop-color="#e6b0ed"/>
      <stop offset=".36" stop-color="#daa1e3"/>
      <stop offset=".42" stop-color="#c88bd4"/>
      <stop offset=".48" stop-color="#b26ec2"/>
      <stop offset=".53" stop-color="#964bab"/>
      <stop offset=".58" stop-color="#762291"/>
      <stop offset=".61" stop-color="#5e037d"/>
    </linearGradient>
    <linearGradient id="Degradado_sin_nombre_1920" data-name="Degradado sin nombre 1920" x1="-2219.28" y1="-494.76" x2="-2218.75" y2="-401.09" gradientTransform="translate(-294.98 2441.88) rotate(90)" gradientUnits="userSpaceOnUse">
      <stop offset=".23" stop-color="#4e0778"/>
      <stop offset=".4" stop-color="#6e2f91"/>
      <stop offset=".77" stop-color="#c193d1"/>
      <stop offset="1" stop-color="#f7d6fc"/>
    </linearGradient>
    <linearGradient id="Degradado_sin_nombre_1920-2" data-name="Degradado sin nombre 1920" x1="-160.65" y1="-851.37" x2="-104.54" y2="-829.46" gradientTransform="translate(1169.72 448.98) rotate(138.9) scale(1 -1) skewX(-41.26)" xlink:href="#Degradado_sin_nombre_1920"/>
    <linearGradient id="Degradado_sin_nombre_1837-2" data-name="Degradado sin nombre 1837" x1="572.26" y1="226.82" x2="478.07" y2="199.51" gradientTransform="translate(421.66 714.77) rotate(-95.61) scale(1 -1)" xlink:href="#Degradado_sin_nombre_1837"/>
    <linearGradient id="Degradado_sin_nombre_1918-2" data-name="Degradado sin nombre 1918" x1="-954.67" y1="-163.22" x2="-949.14" y2="1.99" xlink:href="#Degradado_sin_nombre_1918"/>
    <linearGradient id="Degradado_sin_nombre_1920-3" data-name="Degradado sin nombre 1920" x1="-2219.86" y1="-504.47" x2="-2219.33" y2="-410.8" gradientTransform="translate(-304.31 2432.75) rotate(90)" xlink:href="#Degradado_sin_nombre_1920"/>
    <linearGradient id="Degradado_sin_nombre_1920-4" data-name="Degradado sin nombre 1920" x1="-173.53" y1="-858.45" x2="-117.42" y2="-836.54" gradientTransform="translate(1169.72 448.98) rotate(138.9) scale(1 -1) skewX(-41.26)" xlink:href="#Degradado_sin_nombre_1920"/>
    <linearGradient id="Degradado_sin_nombre_1837-3" data-name="Degradado sin nombre 1837" x1="574.83" y1="217.96" x2="480.64" y2="190.64" gradientTransform="translate(412.33 705.63) rotate(-95.61) scale(1 -1)" xlink:href="#Degradado_sin_nombre_1837"/>
    <linearGradient id="Degradado_sin_nombre_1918-3" data-name="Degradado sin nombre 1918" x1="-944.97" y1="-162.64" x2="-939.43" y2="2.57" xlink:href="#Degradado_sin_nombre_1918"/>
    <linearGradient id="Degradado_sin_nombre_1920-5" data-name="Degradado sin nombre 1920" x1="-2220.45" y1="-514.18" x2="-2219.91" y2="-420.51" gradientTransform="translate(-313.65 2423.61) rotate(90)" xlink:href="#Degradado_sin_nombre_1920"/>
    <linearGradient id="Degradado_sin_nombre_1837-4" data-name="Degradado sin nombre 1837" x1="555.89" y1="235" x2="510.12" y2="160.66" gradientTransform="translate(671.76 386.08) rotate(-138.9) scale(1 -1)" xlink:href="#Degradado_sin_nombre_1837"/>
    <linearGradient id="Degradado_sin_nombre_1918-4" data-name="Degradado sin nombre 1918" x1="-1616.18" y1="-992.16" x2="-1610.65" y2="-826.96" gradientTransform="translate(762.27 -1569.34) rotate(-41.1) scale(1 -1)" xlink:href="#Degradado_sin_nombre_1918"/>
    <linearGradient id="Degradado_sin_nombre_1920-6" data-name="Degradado sin nombre 1920" x1="-1390.92" y1="155.87" x2="-1390.39" y2="249.54" gradientTransform="translate(1225.83 1095.77) rotate(48.9)" xlink:href="#Degradado_sin_nombre_1920"/>
    <linearGradient id="Degradado_sin_nombre_1920-7" data-name="Degradado sin nombre 1920" x1="666.26" y1="197.9" x2="722.37" y2="219.81" gradientTransform="translate(690.55 -15.92) rotate(-177.82) scale(1 -1) skewX(-41.26)" xlink:href="#Degradado_sin_nombre_1920"/>
    <linearGradient id="Degradado_sin_nombre_1941" data-name="Degradado sin nombre 1941" x1="-2796.44" y1="1470.6" x2="-2644.73" y2="1404.96" gradientTransform="translate(2975.82 -886.23) rotate(-49.18) scale(1 -1)" gradientUnits="userSpaceOnUse">
      <stop offset=".32" stop-color="#ffedff"/>
      <stop offset=".34" stop-color="#feebfe" stop-opacity=".94"/>
      <stop offset=".46" stop-color="#fce5fd" stop-opacity=".61"/>
      <stop offset=".56" stop-color="#fbdffd" stop-opacity=".35"/>
      <stop offset=".65" stop-color="#f9dcfc" stop-opacity=".16"/>
      <stop offset=".71" stop-color="#f9d9fc" stop-opacity=".04"/>
      <stop offset=".75" stop-color="#f9d9fc" stop-opacity="0"/>
    </linearGradient>
    <linearGradient id="Degradado_sin_nombre_1705" data-name="Degradado sin nombre 1705" x1="-2556.65" y1="1504.89" x2="-2673.84" y2="1415.43" gradientTransform="translate(2975.82 -886.23) rotate(-49.18) scale(1 -1)" gradientUnits="userSpaceOnUse">
      <stop offset=".07" stop-color="#ffb6ff"/>
      <stop offset=".1" stop-color="#feb8fe" stop-opacity=".94"/>
      <stop offset=".29" stop-color="#fcc3fd" stop-opacity=".61"/>
      <stop offset=".45" stop-color="#fbccfd" stop-opacity=".35"/>
      <stop offset=".59" stop-color="#f9d3fc" stop-opacity=".16"/>
      <stop offset=".69" stop-color="#f9d7fc" stop-opacity=".04"/>
      <stop offset=".75" stop-color="#f9d9fc" stop-opacity="0"/>
    </linearGradient>
    <linearGradient id="Degradado_sin_nombre_16" data-name="Degradado sin nombre 16" x1="-459.99" y1="410.38" x2="-48.53" y2="554.08" gradientTransform="translate(47.56 -308.07) rotate(-162.72) scale(1 -1)" gradientUnits="userSpaceOnUse">
      <stop offset=".2" stop-color="#fff5ff"/>
      <stop offset=".26" stop-color="#fdecfe" stop-opacity=".71"/>
      <stop offset=".33" stop-color="#fbe5fd" stop-opacity=".45"/>
      <stop offset=".38" stop-color="#fae0fc" stop-opacity=".26"/>
      <stop offset=".43" stop-color="#f9dcfc" stop-opacity=".12"/>
      <stop offset=".47" stop-color="#f9d9fc" stop-opacity=".03"/>
      <stop offset=".5" stop-color="#f9d9fc" stop-opacity="0"/>
    </linearGradient>
    <radialGradient id="Degradado_sin_nombre_54" data-name="Degradado sin nombre 54" cx="131.33" cy="577.59" fx="131.33" fy="577.59" r="114.5" gradientTransform="translate(688.58 -34.31) rotate(-177.11) scale(1 -1)" gradientUnits="userSpaceOnUse">
      <stop offset=".12" stop-color="#f0bdf5"/>
      <stop offset=".28" stop-color="#c080ce"/>
      <stop offset=".45" stop-color="#964bab"/>
      <stop offset=".59" stop-color="#772392"/>
      <stop offset=".7" stop-color="#640b82"/>
      <stop offset=".77" stop-color="#5e037d"/>
    </radialGradient>
    <linearGradient id="Degradado_sin_nombre_67" data-name="Degradado sin nombre 67" x1="110.85" y1="578.84" x2="109.57" y2="554.81" gradientTransform="translate(701.19 -30.66) rotate(-176.86) scale(1 -1)" gradientUnits="userSpaceOnUse">
      <stop offset=".7" stop-color="#4e0778"/>
      <stop offset=".76" stop-color="#793c9a"/>
      <stop offset=".82" stop-color="#a572bc"/>
      <stop offset=".87" stop-color="#c99dd8"/>
      <stop offset=".93" stop-color="#e2bceb"/>
      <stop offset=".97" stop-color="#f1cff7"/>
      <stop offset="1" stop-color="#f7d6fc"/>
    </linearGradient>
    <linearGradient id="Degradado_sin_nombre_65" data-name="Degradado sin nombre 65" x1="122.75" y1="588.49" x2="85.26" y2="566.94" gradientTransform="translate(688.58 -34.31) rotate(-177.11) scale(1 -1)" gradientUnits="userSpaceOnUse">
      <stop offset=".63" stop-color="#4e0778"/>
      <stop offset=".71" stop-color="#733495"/>
      <stop offset=".91" stop-color="#d1a7de"/>
      <stop offset="1" stop-color="#f7d6fc"/>
    </linearGradient>
    <linearGradient id="Degradado_sin_nombre_87" data-name="Degradado sin nombre 87" x1="99.85" y1="563.37" x2="99.85" y2="581.21" gradientTransform="translate(489.13 1103.13) rotate(-2.89) scale(1 -1)" gradientUnits="userSpaceOnUse">
      <stop offset=".29" stop-color="#390557"/>
      <stop offset=".37" stop-color="#3d095a"/>
      <stop offset=".47" stop-color="#4a1866"/>
      <stop offset=".58" stop-color="#5f2f78"/>
      <stop offset=".69" stop-color="#7d5092"/>
      <stop offset=".8" stop-color="#a47bb4"/>
      <stop offset=".92" stop-color="#d3aedc"/>
      <stop offset="1" stop-color="#f7d6fc"/>
    </linearGradient>
    <linearGradient id="Degradado_sin_nombre_63" data-name="Degradado sin nombre 63" x1="98.99" y1="500.46" x2="128.82" y2="647.04" gradientTransform="translate(688.58 -34.31) rotate(-177.11) scale(1 -1)" gradientUnits="userSpaceOnUse">
      <stop offset=".29" stop-color="#4e0778"/>
      <stop offset=".37" stop-color="#520b7b"/>
      <stop offset=".47" stop-color="#5d1a84"/>
      <stop offset=".58" stop-color="#703193"/>
      <stop offset=".69" stop-color="#8b52a8"/>
      <stop offset=".81" stop-color="#ae7dc3"/>
      <stop offset=".92" stop-color="#d8b0e4"/>
      <stop offset="1" stop-color="#f7d6fc"/>
    </linearGradient>
    <linearGradient id="Degradado_sin_nombre_62" data-name="Degradado sin nombre 62" x1="158.12" y1="561.2" x2="130.87" y2="629.83" gradientTransform="translate(688.58 -34.31) rotate(-177.11) scale(1 -1)" gradientUnits="userSpaceOnUse">
      <stop offset=".38" stop-color="#4e0778"/>
      <stop offset=".44" stop-color="#520c7b"/>
      <stop offset=".53" stop-color="#5f1c85"/>
      <stop offset=".63" stop-color="#753797"/>
      <stop offset=".74" stop-color="#945cae"/>
      <stop offset=".85" stop-color="#bb8ccd"/>
      <stop offset=".97" stop-color="#eac6f2"/>
      <stop offset="1" stop-color="#f7d6fc"/>
    </linearGradient>
    <linearGradient id="Degradado_sin_nombre_57" data-name="Degradado sin nombre 57" x1="17.57" y1="600.2" x2="118.47" y2="527.89" gradientTransform="translate(688.58 -34.31) rotate(-177.11) scale(1 -1)" gradientUnits="userSpaceOnUse">
      <stop offset=".28" stop-color="#4e0778"/>
      <stop offset=".41" stop-color="#500a79"/>
      <stop offset=".52" stop-color="#581380"/>
      <stop offset=".61" stop-color="#65238a"/>
      <stop offset=".7" stop-color="#783b99"/>
      <stop offset=".78" stop-color="#9058ac"/>
      <stop offset=".86" stop-color="#ae7dc3"/>
      <stop offset=".93" stop-color="#d1a7de"/>
      <stop offset="1" stop-color="#f7d6fc"/>
    </linearGradient>
    <radialGradient id="Degradado_sin_nombre_69" data-name="Degradado sin nombre 69" cx="126.95" cy="587.12" fx="126.95" fy="587.12" r="39.32" gradientTransform="translate(688.58 -34.31) rotate(-177.11) scale(1 -1)" gradientUnits="userSpaceOnUse">
      <stop offset=".52" stop-color="#4e0778"/>
      <stop offset=".6" stop-color="#500a79"/>
      <stop offset=".67" stop-color="#581480"/>
      <stop offset=".74" stop-color="#66248a"/>
      <stop offset=".79" stop-color="#793c99"/>
      <stop offset=".85" stop-color="#925aad"/>
      <stop offset=".9" stop-color="#b07fc5"/>
      <stop offset=".96" stop-color="#d4abe0"/>
      <stop offset="1" stop-color="#f7d6fc"/>
    </radialGradient>
    <linearGradient id="Degradado_sin_nombre_236-3" data-name="Degradado sin nombre 236" x1="-2478.9" y1="-83.22" x2="-2478.9" y2="-31.83" gradientTransform="translate(3028.28 106.25)" xlink:href="#Degradado_sin_nombre_236"/>
    <linearGradient id="Degradado_sin_nombre_357" data-name="Degradado sin nombre 357" x1="663.52" y1="115.77" x2="-199.53" y2="125.86" gradientTransform="translate(683.22) rotate(-180) scale(1 -1)" gradientUnits="userSpaceOnUse">
      <stop offset=".09" stop-color="#f3ddf5"/>
      <stop offset=".31" stop-color="#f0bdf5"/>
      <stop offset=".36" stop-color="#eebbf4" stop-opacity=".99"/>
      <stop offset=".4" stop-color="#ebb4f2" stop-opacity=".95"/>
      <stop offset=".44" stop-color="#e6aaee" stop-opacity=".89"/>
      <stop offset=".47" stop-color="#de9be8" stop-opacity=".8"/>
      <stop offset=".5" stop-color="#d488e2" stop-opacity=".68"/>
      <stop offset=".53" stop-color="#c870d9" stop-opacity=".54"/>
      <stop offset=".56" stop-color="#b954cf" stop-opacity=".36"/>
      <stop offset=".58" stop-color="#a835c4" stop-opacity=".17"/>
      <stop offset=".6" stop-color="#9a19ba" stop-opacity="0"/>
    </linearGradient>
    <linearGradient id="Degradado_sin_nombre_357-2" data-name="Degradado sin nombre 357" x1="411.55" y1="143.38" x2="39.17" y2="147.73" xlink:href="#Degradado_sin_nombre_357"/>
    <linearGradient id="Degradado_sin_nombre_357-3" data-name="Degradado sin nombre 357" x1="186.67" y1="93.77" x2="235.56" y2="210.91" xlink:href="#Degradado_sin_nombre_357"/>
    <linearGradient id="Degradado_sin_nombre_357-4" data-name="Degradado sin nombre 357" x1="175.97" y1="99.57" x2="224.21" y2="215.12" xlink:href="#Degradado_sin_nombre_357"/>
    <linearGradient id="Degradado_sin_nombre_357-5" data-name="Degradado sin nombre 357" x1="137.75" y1="93.19" x2="184.48" y2="143.45" xlink:href="#Degradado_sin_nombre_357"/>
  </defs>
  <g class="cls-40">
    <g id="Layer_2" data-name="Layer 2">
      <g id="OBJECTS">
        <g>
          <path class="cls-22" d="M567.29,430.21h115.93s-5.9-2.49-9.18-6.89c-6-8.06-12.76-19.74-25.99-14.38-4.73,1.92-8.61,9.11-14.17,8.84-.79-.04-1.55-.38-2.21-.82-4.4-2.9-6.83-7.2-12.89-6.72-2.75,.22-5.27,1.61-7.51,3.21-3.64,2.6-6.92,5.53-11.33,6.75-4.67,1.29-9.44,.36-13.7-1.81-1.81-.92-3.52-2.29-5.55-2.37-3.65-.16-5.98,3.63-8.33,6.42-2.95,3.52-8.52,6.75-13,7.76q5.33,0,7.93,0Z"/>
          <path class="cls-39" d="M151.61,556.1h79.88s-4.07-1.71-6.32-4.75c-4.13-5.56-8.79-13.6-17.91-9.91-3.26,1.32-5.93,6.28-9.76,6.09-.55-.03-1.07-.26-1.52-.56-3.03-2-4.7-4.96-8.88-4.63-1.89,.15-3.63,1.11-5.17,2.21-2.51,1.79-4.77,3.81-7.81,4.65-3.22,.89-6.51,.25-9.44-1.24-1.25-.63-2.43-1.57-3.83-1.64-2.51-.11-4.12,2.5-5.74,4.43-2.04,2.42-5.87,4.65-8.96,5.35h5.46Z"/>
          <g>
            <polygon class="cls-46" points="617.1 222.18 638.27 220.05 646.83 200.45 625.66 202.58 617.1 222.18"/>
            <polygon class="cls-56" points="617.1 222.18 604.27 205.2 612.83 185.6 625.66 202.58 617.1 222.18"/>
            <polygon class="cls-57" points="625.65 202.61 612.83 185.57 634.02 183.44 646.86 200.43 625.65 202.61"/>
          </g>
          <path class="cls-36" d="M54.43,61.93H220.68s-8.47-3.57-13.16-9.88c-8.61-11.57-18.31-28.3-37.27-20.62-6.78,2.75-12.35,13.06-20.32,12.67-1.14-.06-2.22-.54-3.17-1.17-6.31-4.16-9.79-10.32-18.48-9.63-3.94,.31-7.55,2.3-10.77,4.6-5.22,3.72-9.93,7.92-16.25,9.68-6.7,1.86-13.54,.51-19.65-2.59-2.6-1.32-5.05-3.28-7.96-3.4-5.23-.23-8.58,5.2-11.95,9.21-4.24,5.04-12.22,9.69-18.64,11.14h11.37Z"/>
          <circle class="cls-24" cx="338.27" cy="297.29" r="222.44" transform="translate(-111.14 326.27) rotate(-45)"/>
        </g>
        <g class="cls-14">
          <g>
            <g>
              <g>
                <g>
                  <g>
                    <g>
                      <path class="cls-16" d="M364.27,379.71l108.13,16.52s30.38-140.7-51.12-147.02l-57,130.5Z"/>
                      <path class="cls-16" d="M243.01,393.32l-86.89-66.44s54.45-82.99,116.48-77.68l-29.59,144.12Z"/>
                      <path class="cls-16" d="M259.32,519.81h157.9c6.8,0,12.36-5.56,12.36-12.36V255.58c0-3.68-4.63-6.38-8.31-6.38l-154.32-.31c-6.8,0-19.98,5.56-19.98,12.36v246.21c0,6.8,5.56,12.36,12.36,12.36Z"/>
                    </g>
                    <g class="cls-25">
                      <g>
                        <path class="cls-5" d="M490.83,334.15c-14.86,11.93-29.72,23.86-44.57,35.79-4.21-9.65-7.99-19.49-11.34-29.48-23.9,18.38-46.2,38.84-66.57,61.07"/>
                        <path class="cls-5" d="M373.27,387.3c-13.15,13.79-26.29,27.59-39.44,41.38-5.45-9.01-10.51-18.26-15.15-27.72-21.26,21.38-61.21,71.35-78.45,96.08"/>
                        <path class="cls-5" d="M470.7,257.83c-6.9,7.08-12.45,14.47-20.05,20.82-8.87,7.41-17.94,14.57-27,21.74-2.56-9.51-5.13-19.02-7.69-28.53-.12-.45-.27-.94-.67-1.19-.71-.43-1.57,.2-2.15,.79-16,16.26-30.61,33.8-45.65,50.92-16.29,18.54-32.2,37.41-47.63,56.67,.03-9.49-.93-18.98-2.86-28.26-22.99,25.57-45.49,51.58-67.48,78.03"/>
                        <path class="cls-5" d="M440.1,460.27c.23-.67,.62-1.21,1.16-1.64-2.53,1.99-5.13,5.65-6.87,8.34-2.01,3.12-4.36,6.07-6.56,9.1-4.62,6.35-8.95,12.9-13,19.63-2.27-7.11-3.83-14.45-4.63-21.87,.09,.82-1.79,3.08-2.23,3.83-.9,1.53-1.82,3.04-2.75,4.55-1.86,3.02-3.76,6.01-5.72,8.97-3.83,5.79-7.84,11.46-12.03,17-3.46,4.57-7.21,8.77-10.77,13.28-1.42,1.8-5.63,8.59-8.44,8.31"/>
                        <path class="cls-5" d="M281.62,241.79c.05,.79,1.33-.4,.64-.8-.69-.4-1.49,.26-2.02,.86-13.38,15.4-26.79,30.83-38.49,47.53-5.17,7.39-10.01,15.01-14.48,22.84-3.13-8-5.93-16.12-8.37-24.36-17.34,26.05-35.27,51.71-53.77,76.96"/>
                      </g>
                      <path class="cls-5" d="M316.94,286.34c-11.98,15.01-23.96,30.02-35.95,45.03-1.92-11.14-2.72-22.48-2.39-33.78-24.37,29.82-48.74,59.65-73.11,89.47"/>
                    </g>
                    <line class="cls-3" x1="364.27" y1="379.71" x2="398.41" y2="316.52"/>
                  </g>
                  <g class="cls-26">
                    <ellipse class="cls-17" cx="339.61" cy="259.52" rx="48.15" ry="39.22" transform="translate(-77.76 351.65) rotate(-49.83)"/>
                  </g>
                </g>
                <g>
                  <g>
                    <path class="cls-21" d="M336.46,239.7l-29.43-.54s3.66-23.06,3.05-33.45l18.13,.8,8.25,33.2Z"/>
                    <path class="cls-21" d="M304.23,239.17c.15-.94,3.67-23.25,3.05-33.6l-1.38,.08c.61,10.2-3,33.07-3.04,33.3l1.37,.22Z"/>
                    <g>
                      <path class="cls-21" d="M370.76,147.13c1.23,.54,2.2,2.69,2.7,3.79,1.47,3.24,1.76,6.95,1.44,10.46-.48,5.36-2.2,10.56-2.51,15.93-.41,7.17,1.02,14.25,1.94,21.32,1.12,8.57,7.66,40.52,7.67,40.52-16.06,1.1-35.87,.93-43.72,.12-.28-5.78,14.78-16.26,15.07-22.04,.24-4.86,1.49-9.99,.38-14.73-1.63-6.96-1.32-14.82-1.89-21.96l.96-25.41c.02-.45,4.25-2.14,4.68-2.35,2.91-1.46,5.81-2.93,8.73-4.38,1.13-.56,3.1-1.77,4.42-1.32,.04,.01,.09,.03,.13,.05Z"/>
                      <g>
                        <path class="cls-17" d="M361.29,174.66c-4.8-.82-7.9,2.64-9.51,5.23l1.51-29.21-57.95-2.61s-2.51,23.44-4.54,57.7c-.11,1.9-.13,3.84,.12,5.73,3.18,24.87,34.79,14.45,36.5,13.79l-.03,24.97c1.14,2.92,20.56,5.87,26.98-1.05l1.16-51.18c2.85,.17,3.98-.47,5.39-2.24,2.32-2.92,3.93-9.92,4.33-13.63,.36-3.35-.22-6.85-3.96-7.49Z"/>
                        <g>
                          <path class="cls-3" d="M360.99,178.29s-6.81,.42-6.62,11.69"/>
                          <path class="cls-3" d="M356.33,182.27s4.64,1.6,1.33,7.72"/>
                        </g>
                        <g>
                          <path class="cls-18" d="M319.75,182.73c0,1.73-.87,3.13-1.94,3.12-1.06,0-1.92-1.41-1.91-3.14,0-1.73,.87-3.13,1.94-3.12s1.92,1.41,1.91,3.14Z"/>
                          <path class="cls-18" d="M298.77,182.65c0,1.73-.87,3.13-1.94,3.12s-1.92-1.41-1.91-3.14c0-1.73,.87-3.13,1.94-3.12s1.92,1.41,1.91,3.14Z"/>
                          <path class="cls-3" d="M307.03,194.31s-7.49,1.12-1.6-7.11"/>
                          <path d="M323.82,175.32c-3.13,1.92-7.14,1.25-9.51-1.54,0,0,.03-.21,.03-.21,3.19,.39,6.36,.9,9.51,1.54,0,0-.03,.21-.03,.21h0Z"/>
                          <path d="M302.05,173.73c-2.39,2.79-6.41,3.39-9.52,1.47,0,0-.03-.21-.03-.21,3.15-.62,6.33-1.11,9.52-1.47,0,0,.03,.21,.03,.21h0Z"/>
                        </g>
                        <path class="cls-20" d="M327.42,225.29s5.86-1.12,14.19-6.87c0,0-7.38,11.26-14.22,14.14l.03-7.27Z"/>
                        <path class="cls-3" d="M312.82,204.93s6.48,3.32,10.2-4.75"/>
                      </g>
                      <path class="cls-21" d="M292.33,156.48l52.24-1.62s27.37,9.79,27.45,9.8c.33,.04,.92-11.52,.82-12.53-1.51-15.22-19.1-23.93-32.86-22.45-3.85,.41-7.41,2.14-11.13,2.89-4.21,.85-8.98,.21-13-1.18-2.47-.85-4.56-1.04-7.13-1.5-6.29-1.13-12.87,2.87-15.47,8.51-2.7,5.85-3.34,12.08-.91,18.08Z"/>
                      <path class="cls-21" d="M305.99,143.29c-2.05,28,45.85,37.01,45.85,37.01l4.62-31.98-50.48-5.03Z"/>
                      <path class="cls-21" d="M286.96,144.4c2.29-6.3,5.92-10.52,10.79-12.55,8.47-3.53,17.98,.78,18.08,.83l.58-1.26c-.41-.19-10.14-4.61-19.18-.85-5.25,2.18-9.14,6.68-11.57,13.36l1.3,.47Z"/>
                    </g>
                  </g>
                  <g>
                    <path class="cls-19" d="M349.98,181.28l23.89,3.13c1.92,.23,3.45-1.05,3.43-2.87l-.1-8.15c-.02-1.82-1.59-3.48-3.51-3.71l-23.89-3.13c-1.92-.23-3.45,1.05-3.43,2.87l.1,8.15c.02,1.82,1.59,3.48,3.51,3.71Z"/>
                    <path class="cls-19" d="M330.28,132s-15.93,4.44-14.5,22.41l-12.57-.24s-1.37-11.34,9.34-20.58c5.47-4.72,10.24-4.59,13.09-4.3,1.75,.18,3.54,.88,4.64,2.71Z"/>
                    <g>
                      <path class="cls-20" d="M292.16,151.33l15.33,.29,29.85,.57c9.86,.19,17.76,8.68,17.57,18.86s-8.42,18.37-18.27,18.18l-45.19-.86c-9.86-.19-17.76-8.68-17.57-18.86,.19-10.19,8.42-18.37,18.27-18.18Z"/>
                      <path class="cls-15" d="M265.86,165.63c1.16-8.52,8.86-14.63,17.45-14.47l13.86,.26,27.46,.52c8.6,.16,16.05,6.56,16.89,15.12,.99,10.13-7.14,18.65-17.03,18.46l-42.33-.81c-9.89-.19-17.69-9.01-16.31-19.09Z"/>
                      <path class="cls-4" d="M282.47,155.1h31.07c7.05,0,12.78,5.73,12.78,12.78v.52c0,7.05-5.73,12.78-12.78,12.78h-31.06c-7.05,0-12.78-5.73-12.78-12.78v-.52c0-7.05,5.73-12.78,12.78-12.78Z" transform="translate(592.75 341.93) rotate(-178.91)"/>
                    </g>
                  </g>
                </g>
              </g>
              <g>
                <g>
                  <circle class="cls-17" cx="116.57" cy="409.51" r="42.01" transform="translate(-255.43 202.37) rotate(-45)"/>
                  <path class="cls-17" d="M81.25,270.25l39.92,97.25-43.66,58.84s-19.1-20.87-45.09-153.43"/>
                  <path class="cls-17" d="M122.87,367.98l37.25-38.04,64.29,49.16s-35.41,46.47-92.87,69.73l-8.66-80.84Z"/>
                  <line class="cls-3" x1="121.88" y1="367.84" x2="119.84" y2="399.32"/>
                  <polygon class="cls-20" points="160.12 329.94 214.36 390.66 219.94 384.88 224.4 379.09 160.12 329.94"/>
                </g>
                <g>
                  <path class="cls-17" d="M32.64,273.85l48.77-3.4,29.98-51.72s2.43-11.58-9-7.42l-15.58,17.78s-5.71,6.95-8.97-5.34c-.29-1.1-.59-2.24-.75-3.38-.11-.78-.67-2.12-.23-2.8,.13-.2,.31-.35,.49-.51,1.38-1.26,1.84-3.42,1.09-5.13-.4-.92-1.1-1.68-1.86-2.33-1.01-.88-.92-1.81-.99-3.07-.08-1.46-.15-2.91-.21-4.37-.1-2.64-.16-5.27-.18-7.91-.02-2.67-.03-5.33,.04-8,0,0,17.14-14.96,17.12-26.59,0,0-1.8-6.09-4.83-5.54l-25.02,23.32-7.8,18.47-38.39,34.09s5.47,20.4,16.32,43.85Z"/>
                  <path class="cls-17" d="M16.32,230s-4.48-20.4,5.18-25.73c0,0,2.32-1.88,5.69-.1,0,0-.14-8.87,6.63-11.82,0,0,2.8-1.44,6.25,1.53,0,0,.48-7.66,6.12-6.55,5.65,1.1,10.07,4.92,10.07,4.92l1.15,6.34-41.09,31.42Z"/>
                  <path class="cls-3" d="M63.56,262.84c1.92-4.56,1.59-9.83,.12-14.56-1.47-4.73-4.01-9.05-6.48-13.34"/>
                  <path class="cls-3" d="M31.75,220.77c2.79,2.04,5.83,3.74,9.03,5.06,1.2,.49,2.43,.93,3.72,1.06,2.12,.21,4.32-.49,5.93-1.89,.93-.8,1.7-1.93,1.65-3.16-.07-1.78-1.73-3.02-3.22-3.99-7.04-4.55-14.09-9.11-21.13-13.66"/>
                  <path class="cls-3" d="M52.54,222.17c1.2,.49,5.01,2.01,6.3,2.13,2.09,.21,4.56-.46,6.13-1.89,2.26-2.04,1.32-4.74-.63-6.66-1.58-1.55-3.46-2.75-5.15-4.16-1.93-1.62-3.82-3.29-5.68-4.99-3.98-3.64-7.88-7.37-11.93-10.94-.41-.36-.83-.73-1.24-1.09"/>
                  <path class="cls-3" d="M65.34,216.35c2.25,.92,4.5,1.96,6.97,2.07,2.52,.11,6.07-.95,6.7-3.76,.21-.95-.07-1.96-.57-2.8-.66-1.1-1.65-2.04-2.59-2.89-6.22-5.6-13.26-10.2-19.06-16.27"/>
                </g>
              </g>
            </g>
            <g>
              <g>
                <circle class="cls-17" cx="323.02" cy="490.6" r="42.86" transform="translate(-252.3 372.1) rotate(-45)"/>
                <path class="cls-17" d="M280.16,354.33l42.86,93.41-38.02,62.64s-20.22-19.79-53.43-150.73"/>
                <path class="cls-17" d="M323.02,447.75l41.25-68.04,85.73,13.1s-52.62,98.81-103.78,133.83l-23.21-78.88Z"/>
                <line class="cls-3" x1="323.02" y1="447.75" x2="323.02" y2="481.7"/>
              </g>
              <g>
                <path class="cls-17" d="M280.16,354.33l-48.6,5.33-38.71-45.56s-4.45-10.96,7.54-8.91l18.5,14.73s6.85,5.82,7.88-6.85c.09-1.14,.18-2.31,.14-3.46-.03-.79,.28-2.2-.27-2.8-.16-.17-.37-.29-.57-.41-1.58-.99-2.42-3.04-1.98-4.85,.23-.98,.79-1.84,1.42-2.63,.84-1.04,.58-1.94,.43-3.19-.18-1.45-.37-2.9-.57-4.34-.37-2.61-.78-5.22-1.23-7.82-.45-2.63-.92-5.25-1.47-7.86,0,0-19.52-11.67-21.58-23.12,0,0,.69-6.31,3.77-6.31l28.77,18.5,10.96,16.78,43.84,26.72s-1.75,21.05-8.26,46.05Z"/>
                <path class="cls-3" d="M247.78,349c-2.71-4.15-3.31-9.39-2.7-14.3s2.34-9.61,4-14.28"/>
                <path class="cls-17" d="M288.42,308.28s.78-20.87-9.67-24.4c0,0-2.61-1.44-5.62,.91,0,0-1.44-8.76-8.63-10.46,0,0-3.01-.91-5.88,2.61,0,0-1.83-7.45-7.19-5.36s-9.03,6.63-9.03,6.63v6.44s46.02,23.61,46.02,23.61Z"/>
                <path class="cls-3" d="M271.6,301.95c-2.39,2.51-5.07,4.72-7.99,6.59-1.09,.7-2.23,1.35-3.48,1.71-2.05,.58-4.34,.29-6.17-.8-1.06-.63-2.01-1.6-2.18-2.81-.25-1.76,1.16-3.28,2.46-4.5,6.12-5.73,12.24-11.47,18.36-17.2"/>
                <path class="cls-3" d="M251.39,307.02c-1.09,.7-4.57,2.86-5.82,3.22-2.02,.58-4.57,.36-6.37-.76-2.59-1.61-2.14-4.43-.57-6.67,1.28-1.81,2.92-3.32,4.33-5.01,1.62-1.94,3.17-3.92,4.7-5.92,3.27-4.29,6.45-8.65,9.79-12.89,.34-.43,.68-.86,1.03-1.29"/>
                <path class="cls-3" d="M237.76,303.58c-2.05,1.31-4.07,2.73-6.49,3.27-2.46,.55-6.14,.15-7.27-2.51-.38-.9-.28-1.94,.06-2.86,.45-1.2,1.26-2.3,2.04-3.31,5.12-6.62,11.24-12.4,15.86-19.41"/>
              </g>
              <polygon class="cls-20" points="364.27 379.71 442.85 405.14 450 392.8 364.27 379.71"/>
            </g>
          </g>
        </g>
        <g>
          <path class="cls-15" d="M309.66,.73l-1.36,4.64c-.1,.33-.36,.59-.69,.69l-4.64,1.36c-.98,.28-.98,1.67,0,1.95l4.64,1.36c.33,.1,.59,.36,.69,.69l1.36,4.64c.28,.98,1.67,.98,1.95,0l1.36-4.64c.1-.33,.36-.59,.69-.69l4.64-1.36c.98-.28,.98-1.67,0-1.95l-4.64-1.36c-.33-.1-.59-.36-.69-.69l-1.36-4.64c-.28-.98-1.67-.98-1.95,0Z"/>
          <path class="cls-15" d="M518.1,282.08l-.66,2.26c-.05,.16-.17,.29-.34,.34l-2.26,.66c-.47,.14-.47,.81,0,.95l2.26,.66c.16,.05,.29,.17,.34,.34l.66,2.26c.14,.47,.81,.47,.95,0l.66-2.26c.05-.16,.17-.29,.34-.34l2.26-.66c.47-.14,.47-.81,0-.95l-2.26-.66c-.16-.05-.29-.17-.34-.34l-.66-2.26c-.14-.47-.81-.47-.95,0Z"/>
          <path class="cls-15" d="M368.74,563.8l-.97,3.32c-.07,.24-.26,.42-.49,.49l-3.32,.97c-.7,.2-.7,1.19,0,1.4l3.32,.97c.24,.07,.42,.26,.49,.49l.97,3.32c.2,.7,1.19,.7,1.4,0l.97-3.32c.07-.24,.26-.42,.49-.49l3.32-.97c.7-.2,.7-1.19,0-1.4l-3.32-.97c-.24-.07-.42-.26-.49-.49l-.97-3.32c-.2-.7-1.19-.7-1.4,0Z"/>
          <path class="cls-15" d="M159.24,474.94l-.97,3.32c-.07,.24-.26,.42-.49,.49l-3.32,.97c-.7,.2-.7,1.19,0,1.4l3.32,.97c.24,.07,.42,.26,.49,.49l.97,3.32c.2,.7,1.19,.7,1.4,0l.97-3.32c.07-.24,.26-.42,.49-.49l3.32-.97c.7-.2,.7-1.19,0-1.4l-3.32-.97c-.24-.07-.42-.26-.49-.49l-.97-3.32c-.2-.7-1.19-.7-1.4,0Z"/>
          <path class="cls-15" d="M624.53,78.41l-1.43,4.91c-.1,.35-.38,.63-.73,.73l-4.91,1.43c-1.03,.3-1.03,1.76,0,2.06l4.91,1.43c.35,.1,.63,.38,.73,.73l1.43,4.91c.3,1.03,1.76,1.03,2.06,0l1.43-4.91c.1-.35,.38-.63,.73-.73l4.91-1.43c1.03-.3,1.03-1.76,0-2.06l-4.91-1.43c-.35-.1-.63-.38-.73-.73l-1.43-4.91c-.3-1.03-1.76-1.03-2.06,0Z"/>
          <path class="cls-15" d="M47.36,136.4l-.44,1.5c-.03,.11-.12,.19-.22,.22l-1.5,.44c-.31,.09-.31,.54,0,.63l1.5,.44c.11,.03,.19,.12,.22,.22l.44,1.5c.09,.31,.54,.31,.63,0l.44-1.5c.03-.11,.12-.19,.22-.22l1.5-.44c.31-.09,.31-.54,0-.63l-1.5-.44c-.11-.03-.19-.12-.22-.22l-.44-1.5c-.09-.31-.54-.31-.63,0Z"/>
        </g>
        <g>
          <g>
            <g>
              <polygon class="cls-37" points="76.66 490.04 41.62 500.66 46.86 454.8 76.66 490.04"/>
              <polygon class="cls-44" points="41.62 500.66 76.66 490.04 71.42 535.9 41.62 500.66"/>
            </g>
            <polygon class="cls-23" points="59.14 495.35 46.86 454.8 41.62 500.66 59.14 495.35"/>
            <polygon class="cls-43" points="59.14 495.35 71.42 535.9 41.62 500.66 59.14 495.35"/>
          </g>
          <g>
            <g>
              <g>
                <g>
                  <g>
                    <ellipse class="cls-45" cx="157.83" cy="222.84" rx="21.23" ry="30.39" transform="translate(-79.38 358.12) rotate(-84.39)"/>
                    <path class="cls-42" d="M155.76,243.96c16.7,1.64,31.17-6.49,32.32-18.15l-.66,6.75c-1.15,11.67-15.62,19.79-32.32,18.15-16.7-1.64-29.31-12.43-28.16-24.1l.66-6.75c-1.15,11.67,11.46,22.46,28.16,24.1Z"/>
                  </g>
                  <ellipse class="cls-41" cx="157.83" cy="222.84" rx="16.12" ry="23.07" transform="translate(-79.38 358.12) rotate(-84.39)"/>
                </g>
                <path class="cls-54" d="M171.59,229.73l-3.11-1.34-2.59,2.16c-.57,.47-1.29,.81-2.16,1-.87,.19-1.8,.25-2.78,.15-.98-.09-1.9-.32-2.74-.68l-4.5-1.95c-.8-.35-1.42-.78-1.85-1.29-.43-.51-.63-1.05-.6-1.61,.03-.56,.33-1.08,.91-1.57l2.59-2.16-4.25-1.84-2.49,2.08,1.87,.81-3.09,2.58-2.03-.88c-.89-.38-1.56-.84-2.01-1.35-.45-.52-.66-1.06-.62-1.61,.04-.56,.35-1.07,.93-1.56l2.59-2.16-3.11-1.34,3.09-2.58,3.11,1.34,2.61-2.18c.58-.48,1.3-.83,2.16-1.02,.87-.2,1.78-.25,2.74-.16,.96,.09,1.89,.33,2.78,.71l4.5,1.95c.91,.39,1.59,.85,2.05,1.38,.46,.53,.66,1.07,.63,1.63-.04,.56-.34,1.07-.91,1.54l-2.59,2.16,4.03,1.74,2.49-2.08-1.84-.8,3.09-2.58,2,.86c.85,.37,1.5,.81,1.96,1.34,.46,.52,.68,1.07,.65,1.63-.03,.56-.33,1.08-.91,1.57l-2.61,2.18,3.11,1.34-3.09,2.58Zm-11.24-11.95l-4.25-1.84-2.49,2.08,4.25,1.84,2.49-2.08Zm-.75,6.77l-2.49,2.08,4.03,1.74,2.49-2.08-4.03-1.74Z"/>
              </g>
              <g>
                <g>
                  <g>
                    <ellipse class="cls-59" cx="158.2" cy="213.12" rx="21.23" ry="30.39" transform="translate(-69.37 349.72) rotate(-84.39)"/>
                    <path class="cls-49" d="M156.13,234.25c16.7,1.64,31.17-6.49,32.32-18.15l-.66,6.75c-1.15,11.67-15.62,19.79-32.32,18.15-16.7-1.64-29.31-12.43-28.16-24.1l.66-6.75c-1.15,11.67,11.46,22.46,28.16,24.1Z"/>
                  </g>
                  <ellipse class="cls-55" cx="158.2" cy="213.12" rx="16.12" ry="23.07" transform="translate(-69.37 349.72) rotate(-84.39)"/>
                </g>
                <path class="cls-50" d="M171.96,220.01l-3.11-1.34-2.59,2.16c-.57,.47-1.29,.81-2.16,1-.87,.19-1.8,.25-2.78,.15-.98-.09-1.9-.32-2.74-.68l-4.5-1.95c-.8-.35-1.42-.78-1.85-1.29-.43-.51-.63-1.05-.6-1.61,.03-.56,.33-1.08,.91-1.57l2.59-2.16-4.25-1.84-2.49,2.08,1.87,.81-3.09,2.58-2.03-.88c-.89-.38-1.56-.84-2.01-1.35-.45-.52-.66-1.06-.62-1.61,.04-.56,.35-1.07,.93-1.56l2.59-2.16-3.11-1.34,3.09-2.58,3.11,1.34,2.61-2.18c.58-.48,1.3-.83,2.16-1.02,.87-.2,1.78-.25,2.74-.16,.96,.09,1.89,.33,2.78,.71l4.5,1.95c.91,.39,1.59,.85,2.05,1.38,.46,.53,.66,1.07,.63,1.63s-.34,1.07-.91,1.54l-2.59,2.16,4.03,1.74,2.49-2.08-1.84-.8,3.09-2.58,2,.86c.85,.37,1.5,.81,1.96,1.34,.46,.52,.68,1.07,.65,1.63-.03,.56-.33,1.08-.91,1.57l-2.61,2.18,3.11,1.34-3.09,2.58Zm-11.24-11.95l-4.25-1.84-2.49,2.08,4.25,1.84,2.49-2.08Zm-.75,6.77l-2.49,2.08,4.03,1.74,2.49-2.08-4.03-1.74Z"/>
              </g>
              <g>
                <g>
                  <ellipse class="cls-58" cx="158.58" cy="203.4" rx="21.23" ry="30.39" transform="translate(-59.37 341.32) rotate(-84.39)"/>
                  <path class="cls-48" d="M156.5,224.53c16.7,1.64,31.17-6.49,32.32-18.15l-.66,6.75c-1.15,11.67-15.62,19.79-32.32,18.15-16.7-1.64-29.31-12.43-28.16-24.1l.66-6.75c-1.15,11.67,11.46,22.46,28.16,24.1Z"/>
                </g>
                <ellipse class="cls-51" cx="158.58" cy="203.4" rx="16.12" ry="23.07" transform="translate(-59.37 341.32) rotate(-84.39)"/>
              </g>
              <path class="cls-27" d="M163.61,208.88l-5.03-1.09-30.28-4.98s-2.02-7.53,8.66-15.07l33.2,20.9s-4.24,.41-6.54,.24Z"/>
              <g>
                <g>
                  <g>
                    <ellipse class="cls-60" cx="162.57" cy="177.76" rx="21.23" ry="30.39" transform="translate(-76.79 150.68) rotate(-41.1)"/>
                    <path class="cls-47" d="M146.57,191.71c11.03,12.65,27.14,16.65,35.97,8.94l-5.11,4.46c-8.83,7.71-24.94,3.7-35.97-8.94-11.03-12.65-12.81-29.14-3.98-36.85l5.11-4.46c-8.83,7.71-7.05,24.21,3.98,36.85Z"/>
                  </g>
                  <path class="cls-52" d="M174.71,167.16c-8.38-9.6-20.6-12.64-27.31-6.79-6.71,5.85-5.35,18.38,3.02,27.98,8.38,9.6,20.6,12.64,27.31,6.79,6.71-5.85,5.35-18.38-3.02-27.98Z"/>
                </g>
                <path class="cls-53" d="M167.86,192.2l-1.34-3.11-3.36-.2c-.74-.04-1.49-.3-2.26-.75-.77-.46-1.48-1.06-2.13-1.8-.65-.74-1.16-1.53-1.53-2.38l-1.94-4.5c-.35-.8-.5-1.54-.47-2.21,.04-.67,.26-1.19,.66-1.58,.41-.39,.98-.56,1.74-.51l3.36,.2-1.83-4.25-3.23-.19,.81,1.87-4.02-.24-.88-2.03c-.38-.89-.56-1.68-.53-2.36,.03-.69,.25-1.22,.66-1.6,.41-.38,.99-.54,1.75-.5l3.36,.2-1.34-3.11,4.02,.24,1.34,3.11,3.39,.2c.75,.05,1.51,.29,2.28,.74,.77,.45,1.47,1.04,2.11,1.76,.64,.73,1.15,1.54,1.53,2.42l1.94,4.5c.39,.91,.57,1.71,.54,2.41-.03,.7-.25,1.24-.66,1.61s-.98,.54-1.72,.5l-3.37-.2,1.74,4.03,3.23,.19-.79-1.84,4.02,.24,.86,2c.36,.85,.54,1.62,.51,2.32-.02,.7-.24,1.24-.64,1.63-.4,.39-.98,.56-1.74,.51l-3.39-.2,1.34,3.11-4.02-.24Zm.01-16.4l-1.83-4.25-3.23-.19,1.83,4.25,3.23,.19Zm-5.19,4.42l-3.23-.19,1.74,4.03,3.23,.19-1.74-4.03Z"/>
              </g>
            </g>
            <g>
              <polygon class="cls-6" points="82.77 160.16 82.47 249.65 160.74 293.98 161.04 204.49 82.77 160.16"/>
              <polygon class="cls-7" points="82.77 160.16 159.37 113.88 237.64 158.21 161.04 204.49 82.77 160.16"/>
              <polygon class="cls-9" points="160.91 204.41 237.77 158.21 237.46 247.78 160.8 294.09 160.91 204.41"/>
            </g>
          </g>
          <g>
            <path class="cls-30" d="M568.22,538.83s17.39-13.97,7.2-37.96c-10.19-23.99-26.88-28-26.88-28,0,0-11.99-3.82-21.94-.94l7.25-8.6s18.9-12.59,43.25,7.44c7.81,6.42,11.39,12.45,14.84,18.62,2.21,3.96,4.14,9.01,5.07,12.58,2.57,9.86,.5,16.88,.5,16.88,0,0,.47,8.88-11.35,18.24,0,0-5.74,5.83-17.95,1.74Z"/>
            <g>
              <path class="cls-33" d="M553.65,528.15l13.03,1.32c2.14,.22,4.07-1.36,4.29-3.5h0c.22-2.14-1.36-4.07-3.5-4.29l-13.03-1.32c-2.14-.22-4.07,1.36-4.29,3.5h0c-.22,2.14,1.36,4.07,3.5,4.29Z"/>
              <path class="cls-32" d="M551.68,529.07l8.37,.85,8.37,.85s5.54,2.78,4.28,8.34l-13.54,1.07-13.36-3.79c-.12-5.7,5.87-7.31,5.87-7.31Z"/>
              <rect class="cls-28" x="556.42" y="528.81" width="7.36" height="1.12" transform="translate(1063.96 1112.52) rotate(-174.21)"/>
            </g>
            <path class="cls-31" d="M522.2,526.17c.32-.22,.51-.34,.51-.34,0,0-10.48-12.36-12.3-27.55-1.82-15.19,2.06-24.51,8.98-32.46,6.93-7.95,24.26-11.69,37.16-6.08l-9.13-1.08-7.48,1.39-11.79,8.58-4.4,10.32,.31,19.87,8.23,18.23,14.76,14.75,16.06,7.82,12.71,1.52,8.15-2.58,6.5-4.84,4.02-3.23s-5.55,11.86-19.45,17.95c0,0-5.87,3.1-9.65,10.66-2.13,4.25-4.85,9.06-9.24,11.32-3.54,1.82-7.56,.8-10.9-.95-1.78-.93-3.44-2.1-5.01-3.36-.85-.68-4-2.52-3.41-3.69-.24,.18-.49,.35-.74,.52,.89-12.79-3.58-28.42-13.91-36.79Z"/>
            <path class="cls-34" d="M501.89,541.79c.07-.03,.14-.05,.21-.08,.93-.32,1.91-.57,2.69-1.16,1.33-1.02,1.78-2.85,2.98-4.01,1.98-1.93,5.38-1.55,7.52-3.3,1.15-.93,1.77-2.34,2.6-3.57,1.03-1.51,3.08-4.14,4.9-2.99,1.47,.93,2.78,2.65,3.86,3.98,2.44,2.99,4.35,6.39,5.82,9.95,2.88,7.01,4.15,14.79,3.62,22.36-2.67,1.82-5.95,3.12-8.76,4.62-1.91,1.02-3.84,2.02-5.74,3.07,0,0-7.87,4.36-15.13,2.64-7.26-1.73-12.3-6.88-12.02-15.02,.21-6.1,.75-13.99,7.44-16.48Z"/>
            <path class="cls-29" d="M533.89,520.32c15.7,20.42,40.2,27.92,54.73,16.76,14.52-11.17,13.57-36.77-2.13-57.19-15.7-20.42-40.2-27.92-54.73-16.76-14.52,11.17-13.57,36.77,2.13,57.19Zm.56-55.94c13.7-10.53,36.82-3.46,51.63,15.81,14.81,19.27,15.71,43.43,2.01,53.96-13.7,10.53-36.82,3.46-51.63-15.81-14.81-19.27-15.71-43.43-2.01-53.96Z"/>
            <path class="cls-35" d="M545.17,555.39c-.92,3.04-.82,6.33-.07,9.42,.53,2.19,1.41,4.33,2.89,6.03,1.48,1.7,3.29,2.96,5.52,3.28,3.89,.55,7.61-2.08,9.84-5.32,2.22-3.24,3.38-7.07,5.11-10.6,1.43-2.91,3.34-7.17-.76-7.87-4.35-.74-10.19-.9-13.53-.58-4.46,.43-7.46,.55-8.99,5.63Z"/>
          </g>
          <g>
            <g>
              <path class="cls-10" d="M541.42,37.81l.56,22.97c12.8-7.47,15.36-15.07,15.36-15.07,0,0,.52-9.63-15.92-7.9Z"/>
              <path class="cls-8" d="M541.98,60.78c-15.84,9.25-47.37,18.28-109.15,12.42v123.25s112.33,9.12,124.51-36.94V45.71s-2.56,7.6-15.36,15.07Z"/>
            </g>
            <g>
              <g>
                <path class="cls-13" d="M449.95,174.81c30.37,3.07,45.87-4.81,53.66-9.64v-48.97c-12.03,5.25-28.27,8.54-53.66,6.5v52.12Z"/>
                <g>
                  <path class="cls-11" d="M469.89,140.6c0,4.6,3.51,7.56,7.83,6.61,4.33-.96,7.83-5.46,7.83-10.07s-3.51-7.56-7.83-6.61c-4.33,.96-7.83,5.46-7.83,10.07Z"/>
                  <path class="cls-12" d="M495.72,169.36c0-10.58-8.06-18.33-18-16.14-9.94,2.2-17.98,11.65-17.98,22.23,0,0,19.63,1.29,35.98-6.09Z"/>
                </g>
              </g>
              <g>
                <path class="cls-2" d="M544.72,144.51c-3.16,2.57-6.75,5.09-10.81,7.47-4.93,2.89-10.57,5.56-17.01,7.82"/>
                <path class="cls-2" d="M545.7,131.22c-3.16,2.57-6.75,5.09-10.81,7.47-4.93,2.89-10.57,5.56-17.01,7.82"/>
                <path class="cls-2" d="M546.68,117.94c-3.16,2.57-6.75,5.09-10.81,7.47-4.93,2.89-10.57,5.56-17.01,7.82"/>
                <path class="cls-38" d="M517.88,119.96c6.43-2.27,12.07-4.94,17.01-7.82,4.07-2.38,7.65-4.91,10.81-7.47v-8.82c-3.16,2.57-6.75,5.09-10.81,7.47-4.93,2.89-10.57,5.56-17.01,7.82v8.82Z"/>
              </g>
            </g>
          </g>
        </g>
      </g>
    </g>
  </g>
</svg>