<?xml version="1.0" encoding="UTF-8"?>
<svg id="Layer_2" data-name="Layer 2" xmlns="http://www.w3.org/2000/svg" xmlns:xlink="http://www.w3.org/1999/xlink" viewBox="0 0 750 500">
  <defs>
    <style>
      .cls-1, .cls-2, .cls-3, .cls-4, .cls-5, .cls-6, .cls-7 {
        fill: none;
      }

      .cls-2 {
        stroke-linejoin: round;
      }

      .cls-2, .cls-7 {
        stroke: #fff;
      }

      .cls-8 {
        clip-path: url(#clippath);
      }

      .cls-9 {
        fill: #00152c;
      }

      .cls-10 {
        fill: #ee17e4;
      }

      .cls-11 {
        fill: #ef656d;
      }

      .cls-12 {
        fill: #fff;
      }

      .cls-13 {
        fill: #fe2b99;
      }

      .cls-14 {
        fill: #ff9199;
      }

      .cls-15 {
        fill: #820bb7;
      }

      .cls-16 {
        fill: #750cff;
      }

      .cls-17 {
        fill: #c1ff44;
      }

      .cls-18 {
        fill: #115ae5;
      }

      .cls-19 {
        fill: #0a96ff;
      }

      .cls-20 {
        fill: #7617fd;
      }

      .cls-3 {
        stroke: #1e2c2c;
      }

      .cls-3, .cls-4, .cls-5, .cls-6, .cls-7 {
        stroke-miterlimit: 10;
      }

      .cls-4 {
        stroke: #00152c;
      }

      .cls-5 {
        stroke: #c1ff44;
      }

      .cls-6 {
        stroke: #ee17e4;
      }

      .cls-21 {
        opacity: .3;
      }
    </style>
    <clipPath id="clippath">
      <rect class="cls-1" width="750" height="500"/>
    </clipPath>
  </defs>
  <g id="BACKGROUND">
    <g>
      <rect class="cls-15" width="750" height="500"/>
      <g class="cls-21">
        <g class="cls-8">
          <g>
            <g>
              <rect class="cls-7" x="-13.78" y="-41.35" width="99.6" height="65.17"/>
              <rect class="cls-7" x="85.82" y="-41.35" width="99.6" height="65.17"/>
              <rect class="cls-7" x="185.42" y="-41.35" width="99.6" height="65.17"/>
              <rect class="cls-7" x="285.02" y="-41.35" width="99.6" height="65.17"/>
              <rect class="cls-7" x="384.61" y="-41.35" width="99.6" height="65.17"/>
              <rect class="cls-7" x="484.21" y="-41.35" width="99.6" height="65.17"/>
              <rect class="cls-7" x="583.81" y="-41.35" width="99.6" height="65.17"/>
              <rect class="cls-7" x="683.41" y="-41.35" width="99.6" height="65.17"/>
              <rect class="cls-7" x="-13.78" y="23.83" width="99.6" height="65.17"/>
              <rect class="cls-7" x="85.82" y="23.83" width="99.6" height="65.17"/>
              <rect class="cls-7" x="185.42" y="23.83" width="99.6" height="65.17"/>
              <rect class="cls-7" x="285.02" y="23.83" width="99.6" height="65.17"/>
              <rect class="cls-7" x="384.61" y="23.83" width="99.6" height="65.17"/>
              <rect class="cls-7" x="484.21" y="23.83" width="99.6" height="65.17"/>
              <rect class="cls-7" x="583.81" y="23.83" width="99.6" height="65.17"/>
              <rect class="cls-7" x="683.41" y="23.83" width="99.6" height="65.17"/>
              <rect class="cls-7" x="-13.78" y="89" width="99.6" height="65.17"/>
              <rect class="cls-7" x="85.82" y="89" width="99.6" height="65.17"/>
              <rect class="cls-7" x="185.42" y="89" width="99.6" height="65.17"/>
              <rect class="cls-7" x="285.02" y="89" width="99.6" height="65.17"/>
              <rect class="cls-7" x="384.61" y="89" width="99.6" height="65.17"/>
              <rect class="cls-7" x="484.21" y="89" width="99.6" height="65.17"/>
              <rect class="cls-7" x="583.81" y="89" width="99.6" height="65.17"/>
              <rect class="cls-7" x="683.41" y="89" width="99.6" height="65.17"/>
              <rect class="cls-7" x="-13.78" y="154.18" width="99.6" height="65.17"/>
              <rect class="cls-7" x="85.82" y="154.18" width="99.6" height="65.17"/>
              <rect class="cls-7" x="185.42" y="154.18" width="99.6" height="65.17"/>
              <rect class="cls-7" x="285.02" y="154.18" width="99.6" height="65.17"/>
              <rect class="cls-7" x="384.61" y="154.18" width="99.6" height="65.17"/>
              <rect class="cls-7" x="484.21" y="154.18" width="99.6" height="65.17"/>
              <rect class="cls-7" x="583.81" y="154.18" width="99.6" height="65.17"/>
              <rect class="cls-7" x="683.41" y="154.18" width="99.6" height="65.17"/>
              <rect class="cls-7" x="-13.78" y="219.35" width="99.6" height="65.17"/>
              <rect class="cls-7" x="85.82" y="219.35" width="99.6" height="65.17"/>
              <rect class="cls-7" x="185.42" y="219.35" width="99.6" height="65.17"/>
              <rect class="cls-7" x="285.02" y="219.35" width="99.6" height="65.17"/>
              <rect class="cls-7" x="384.61" y="219.35" width="99.6" height="65.17"/>
              <rect class="cls-7" x="484.21" y="219.35" width="99.6" height="65.17"/>
              <rect class="cls-7" x="583.81" y="219.35" width="99.6" height="65.17"/>
              <rect class="cls-7" x="683.41" y="219.35" width="99.6" height="65.17"/>
              <rect class="cls-7" x="-13.78" y="284.53" width="99.6" height="65.17"/>
              <rect class="cls-7" x="85.82" y="284.53" width="99.6" height="65.17"/>
              <rect class="cls-7" x="185.42" y="284.53" width="99.6" height="65.17"/>
              <rect class="cls-7" x="285.02" y="284.53" width="99.6" height="65.17"/>
              <rect class="cls-7" x="384.61" y="284.53" width="99.6" height="65.17"/>
              <rect class="cls-7" x="484.21" y="284.53" width="99.6" height="65.17"/>
              <rect class="cls-7" x="583.81" y="284.53" width="99.6" height="65.17"/>
              <rect class="cls-7" x="683.41" y="284.53" width="99.6" height="65.17"/>
            </g>
            <g>
              <polygon class="cls-7" points="-40.95 414.88 -140.55 414.88 -13.78 349.7 85.82 349.7 -40.95 414.88"/>
              <polygon class="cls-7" points="58.65 414.88 -40.95 414.88 85.82 349.7 185.42 349.7 58.65 414.88"/>
              <polygon class="cls-7" points="158.24 414.88 58.65 414.88 185.42 349.7 285.02 349.7 158.24 414.88"/>
              <polygon class="cls-7" points="257.84 414.88 158.24 414.88 285.02 349.7 384.61 349.7 257.84 414.88"/>
              <polygon class="cls-7" points="357.44 414.88 257.84 414.88 384.61 349.7 484.21 349.7 357.44 414.88"/>
              <polygon class="cls-7" points="457.04 414.88 357.44 414.88 484.21 349.7 583.81 349.7 457.04 414.88"/>
              <polygon class="cls-7" points="556.64 414.88 457.04 414.88 583.81 349.7 683.41 349.7 556.64 414.88"/>
              <polygon class="cls-7" points="656.24 414.88 556.64 414.88 683.41 349.7 783.01 349.7 656.24 414.88"/>
              <polygon class="cls-7" points="755.84 414.88 656.24 414.88 783.01 349.7 882.61 349.7 755.84 414.88"/>
              <polygon class="cls-7" points="-68.13 480.05 -167.73 480.05 -40.95 414.88 58.65 414.88 -68.13 480.05"/>
              <polygon class="cls-7" points="31.47 480.05 -68.13 480.05 58.65 414.88 158.24 414.88 31.47 480.05"/>
              <polygon class="cls-7" points="131.07 480.05 31.47 480.05 158.24 414.88 257.84 414.88 131.07 480.05"/>
              <polygon class="cls-7" points="230.67 480.05 131.07 480.05 257.84 414.88 357.44 414.88 230.67 480.05"/>
              <polygon class="cls-7" points="330.27 480.05 230.67 480.05 357.44 414.88 457.04 414.88 330.27 480.05"/>
              <polygon class="cls-7" points="429.87 480.05 330.27 480.05 457.04 414.88 556.64 414.88 429.87 480.05"/>
              <polygon class="cls-7" points="529.47 480.05 429.87 480.05 556.64 414.88 656.24 414.88 529.47 480.05"/>
              <polygon class="cls-7" points="629.06 480.05 529.47 480.05 656.24 414.88 755.84 414.88 629.06 480.05"/>
              <polygon class="cls-7" points="728.66 480.05 629.06 480.05 755.84 414.88 855.44 414.88 728.66 480.05"/>
              <polygon class="cls-7" points="828.26 480.05 728.66 480.05 855.44 414.88 955.03 414.88 828.26 480.05"/>
              <polygon class="cls-7" points="-95.3 545.23 -194.9 545.23 -68.13 480.05 31.47 480.05 -95.3 545.23"/>
              <polygon class="cls-7" points="4.3 545.23 -95.3 545.23 31.47 480.05 131.07 480.05 4.3 545.23"/>
              <polygon class="cls-7" points="103.9 545.23 4.3 545.23 131.07 480.05 230.67 480.05 103.9 545.23"/>
              <polygon class="cls-7" points="203.5 545.23 103.9 545.23 230.67 480.05 330.27 480.05 203.5 545.23"/>
              <polygon class="cls-7" points="303.09 545.23 203.5 545.23 330.27 480.05 429.87 480.05 303.09 545.23"/>
              <polygon class="cls-7" points="402.69 545.23 303.09 545.23 429.87 480.05 529.47 480.05 402.69 545.23"/>
              <polygon class="cls-7" points="502.29 545.23 402.69 545.23 529.47 480.05 629.06 480.05 502.29 545.23"/>
              <polygon class="cls-7" points="601.89 545.23 502.29 545.23 629.06 480.05 728.66 480.05 601.89 545.23"/>
              <polygon class="cls-7" points="701.49 545.23 601.89 545.23 728.66 480.05 828.26 480.05 701.49 545.23"/>
            </g>
          </g>
        </g>
      </g>
    </g>
  </g>
  <g id="OBJECT">
    <g>
      <g>
        <polyline class="cls-5" points="305.63 43.13 66.28 43.13 32.09 71.76 32.09 180.11 42.12 190.14 90.73 189.52 73.27 210.44"/>
        <polyline class="cls-5" points="444.37 43.13 683.72 43.13 717.91 71.76 717.91 180.11 707.88 190.14 659.27 189.52 676.73 210.44"/>
      </g>
      <g>
        <polygon class="cls-17" points="468.02 38.93 475.03 47.34 424.69 47.34 417.68 38.93 468.02 38.93"/>
        <polygon class="cls-17" points="412.29 38.93 419.3 47.34 415.44 47.34 408.43 38.93 412.29 38.93"/>
        <polygon class="cls-17" points="404.09 38.93 411.1 47.34 407.24 47.34 400.23 38.93 404.09 38.93"/>
        <g>
          <polygon class="cls-17" points="337.71 38.93 330.7 47.34 334.56 47.34 341.57 38.93 337.71 38.93"/>
          <polygon class="cls-17" points="345.91 38.93 338.9 47.34 342.76 47.34 349.77 38.93 345.91 38.93"/>
          <polygon class="cls-17" points="281.98 38.93 274.97 47.34 325.31 47.34 332.32 38.93 281.98 38.93"/>
        </g>
        <polygon class="cls-12" points="375 47.34 382.01 47.34 375 38.93 367.99 47.34 375 47.34"/>
      </g>
    </g>
    <g>
      <g>
        <polygon class="cls-9" points="140.6 361.02 294.62 207 468.24 207 443.36 231.88 360.42 231.88 140.6 451.69 140.6 361.02"/>
        <polygon class="cls-9" points="453.84 221.42 428.79 246.47 445.62 246.47 470.67 221.42 453.84 221.42"/>
      </g>
      <g>
        <polygon class="cls-9" points="503.53 384.09 503.53 422.59 535.13 422.59 605.23 352.49 605.23 282.39 503.53 384.09"/>
        <polygon class="cls-9" points="464.97 393.54 528.34 330.18 528.34 307.28 463.84 371.77 464.97 393.54"/>
        <polygon class="cls-9" points="524.97 303.41 524.97 314.97 567.89 272.06 567.89 260.49 524.97 303.41"/>
      </g>
    </g>
    <g>
      <g>
        <ellipse class="cls-7" cx="375" cy="444.54" rx="80.42" ry="9.61"/>
        <ellipse class="cls-5" cx="375" cy="444.54" rx="190.88" ry="22.81"/>
      </g>
      <path class="cls-5" d="M248.19,427.49c-39.31,4.18-64.07,10.27-64.07,17.05,0,12.6,85.46,22.81,190.88,22.81s190.88-10.21,190.88-22.81c0-10.88-63.79-19.99-149.13-22.26"/>
    </g>
    <g>
      <polygon class="cls-10" points="68.08 237 96.89 202.47 56.42 202.47 27.61 237 56.42 271.53 96.89 271.53 68.08 237"/>
      <polygon class="cls-10" points="681.92 237 653.11 202.47 693.58 202.47 722.39 237 693.58 271.53 653.11 271.53 681.92 237"/>
      <g>
        <g>
          <polygon class="cls-12" points="665.44 237 658.8 244.95 662.81 244.95 669.45 237 662.81 229.05 658.8 229.05 665.44 237"/>
          <polygon class="cls-17" points="659.4 237 655.54 241.63 655.54 232.38 659.4 237"/>
        </g>
        <g>
          <polygon class="cls-12" points="84.56 237 91.2 244.95 87.19 244.95 80.55 237 87.19 229.05 91.2 229.05 84.56 237"/>
          <polygon class="cls-17" points="90.6 237 94.46 241.63 94.46 232.38 90.6 237"/>
        </g>
      </g>
    </g>
    <g>
      <g>
        <g>
          <rect class="cls-12" x="63.23" y="64.87" width="23.64" height="12.85"/>
          <rect class="cls-12" x="71.2" y="89.33" width="74.51" height="12.85" transform="translate(99.47 -48.64) rotate(45)"/>
          <rect class="cls-12" x="63.23" y="157.36" width="23.64" height="12.85"/>
          <rect class="cls-12" x="71.2" y="132.9" width="74.51" height="12.85" transform="translate(-66.76 117.49) rotate(-45)"/>
        </g>
        <polygon class="cls-17" points="75.05 98.38 79.93 103.26 79.93 132.3 75.52 136.7 75.05 98.38"/>
      </g>
      <g>
        <g>
          <rect class="cls-12" x="663.13" y="64.87" width="23.64" height="12.85" transform="translate(1349.9 142.58) rotate(180)"/>
          <rect class="cls-12" x="604.3" y="89.33" width="74.51" height="12.85" transform="translate(1162.9 -290.18) rotate(135)"/>
          <rect class="cls-12" x="663.13" y="157.36" width="23.64" height="12.85" transform="translate(1349.9 327.58) rotate(180)"/>
          <rect class="cls-12" x="604.3" y="132.9" width="74.51" height="12.85" transform="translate(996.68 691.49) rotate(-135)"/>
        </g>
        <polygon class="cls-17" points="674.95 98.38 670.07 103.26 670.07 132.3 674.48 136.7 674.95 98.38"/>
      </g>
    </g>
    <g>
      <g>
        <polyline class="cls-7" points="301.03 264.87 292.63 264.87 352.42 150.2 360.82 150.2"/>
        <polyline class="cls-7" points="437.03 264.87 445.44 264.87 505.23 150.2 496.82 150.2"/>
      </g>
      <polygon class="cls-20" points="378.05 237.32 356.65 237.32 421.18 178.99 442.57 178.99 378.05 237.32"/>
      <polygon class="cls-12" points="373.42 201.78 357.37 201.78 389.63 172.61 405.68 172.61 373.42 201.78"/>
      <g>
        <polygon class="cls-12" points="395.03 258 389.68 258 392.47 252.65 397.82 252.65 395.03 258"/>
        <polygon class="cls-12" points="428.9 258 401.14 258 403.93 252.65 431.69 252.65 428.9 258"/>
        <line class="cls-7" x1="416.41" y1="255.32" x2="393.75" y2="255.32"/>
      </g>
      <path class="cls-17" d="M478.88,168.87c-1.01,1.94-3.4,3.51-5.34,3.51s-2.69-1.57-1.68-3.51c1.01-1.94,3.4-3.51,5.34-3.51s2.69,1.57,1.68,3.51Z"/>
      <path class="cls-17" d="M469.33,187.2c-1.01,1.94-3.4,3.51-5.34,3.51s-2.69-1.57-1.68-3.51c1.01-1.94,3.4-3.51,5.34-3.51s2.69,1.57,1.68,3.51Z"/>
      <path class="cls-10" d="M459.77,205.53c-1.01,1.94-3.4,3.51-5.34,3.51s-2.69-1.57-1.68-3.51c1.01-1.94,3.4-3.51,5.34-3.51s2.69,1.57,1.68,3.51Z"/>
    </g>
    <g>
      <g>
        <path class="cls-14" d="M278.15,151.73l-2.97,10.22s-7.1,5.77-11.02,2.31-6.8-12.17-6.8-12.17c0,0,7.6-8.72,11.55-14.61l9.23,14.25Z"/>
        <path class="cls-9" d="M277.59,153.67l-3.68-5.69s-10.56,7.78,1.28,13.96l2.4-8.27Z"/>
        <path class="cls-14" d="M288.05,137.1c-.42,15.09-5.59,21.74-16.39,12.8-4.96-4.11-7.77-8.82-6.5-15.14,1.28-6.31,7.43-10.4,13.74-9.12s9.32,5.02,9.15,11.46Z"/>
        <path class="cls-12" d="M287.01,131.24c.05,.82,.05,1.7,0,2.62-.63,11.52-3.13,18.95-7.66,20.03,5.61,.63,8.4-5.87,8.7-16.79,.06-2.3-.29-4.24-1.04-5.86Z"/>
        <path class="cls-9" d="M287.48,132.43c-7.61,.92-11.03,5.61-11.86,9.94-.98,5.06-4.38,6.55-5.32,6.98-.94,.43-7.66,2.82-9.74-7.38-.5-2.45-.51-16.95,5.61-20.58,.54-.32,2.15,1.05,2.15,1.05,0,0,3.11-4.25,6.83-3.62,3.72,.63,5.13,3.62,9.12,3.35,3.99-.27,6.95-4.63,6.95-4.63,0,0,3.05,3.18,1.31,5.83,0,0,2.71,2.6,5.28,1.11,0,0,.49,6.8-6.22,6.54,0,0,2.24,1.83,5.51,2.22,0,0-1.71,5.2-9.06,3.86l-.57-4.67Z"/>
        <path class="cls-12" d="M289.09,146.18h0c-2.43-.35-4.12-2.6-3.77-5.03l1.01-7.01c.35-2.43,2.6-4.12,5.03-3.77h0c2.43,.35,4.12,2.6,3.77,5.03l-1.01,7.01c-.35,2.43-2.6,4.12-5.03,3.77Z"/>
        <path class="cls-12" d="M261.53,128.94s8.37,3.78,25.94,3.42l-1.27,8.57s-16.04,.57-25.8-4.1c0,0-1.49-4.66,1.13-7.9Z"/>
        <path class="cls-4" d="M260.04,132.7s11.44,4.24,28.01,4.4"/>
        <path class="cls-17" d="M289.53,143.8h0c-1.57-.23-2.67-1.69-2.44-3.26l.65-4.54c.23-1.57,1.69-2.67,3.26-2.44h0c1.57,.23,2.67,1.69,2.44,3.26l-.65,4.54c-.23,1.57-1.69,2.67-3.26,2.44Z"/>
        <path class="cls-9" d="M292.45,130.82h2.94c1.64,0,2.98,1.33,2.98,2.98v10.02c0,1.64-1.33,2.98-2.98,2.98h-2.94c-1.64,0-2.98-1.33-2.98-2.98v-10.02c0-1.64,1.33-2.98,2.98-2.98Z" transform="translate(22.71 -40.35) rotate(8.17)"/>
        <g>
          <g>
            <rect class="cls-16" x="296.18" y="132.31" width="1.08" height="1.08" transform="translate(475.06 -138.98) rotate(99.15)"/>
            <rect class="cls-16" x="294.28" y="133.69" width="1.08" height="1.08" transform="translate(474.2 -135.5) rotate(99.15)"/>
          </g>
          <g>
            <rect class="cls-16" x="294.23" y="144.45" width="1.08" height="1.08" transform="translate(104.74 412.95) rotate(-80.85)"/>
            <rect class="cls-16" x="292.85" y="142.54" width="1.08" height="1.08" transform="translate(105.49 410) rotate(-80.85)"/>
          </g>
        </g>
      </g>
      <g>
        <path class="cls-19" d="M249.34,169.59c-5.33,3.13-11.63,5.91-17.54,7.72-18.49,5.64-52.64-4.75-52.64-4.75l6.33-23.63,4.07-15.22s55.23,12.13,68.16,17.11c9.99,3.85,2.95,12.11-8.39,18.77Z"/>
        <path class="cls-18" d="M250.21,164.6s-.25,1.91-.87,4.99c-5.33,3.13-11.63,5.91-17.54,7.72-18.49,5.64-52.64-4.75-52.64-4.75l6.33-23.63c15.89,.6,46.86,3.39,64.71,15.68Z"/>
        <path class="cls-9" d="M189.57,133.71c-10.16-.16-22.29,34.78-10.41,38.85,11.88,4.07,20.57-38.69,10.41-38.85Z"/>
      </g>
      <path class="cls-9" d="M119.71,211.32c-12.53,14.97,58.59,33.85,112.81,24.98,0,0-94.57-46.77-112.81-24.98Z"/>
      <g>
        <path class="cls-12" d="M396.48,443.18c5.2-3.18,17.45-19.06,22.12-34.86,4.85-16.41,3.83-27.18-3.59-30.78-7.42-3.6-9.72,4.63-15.64,19.52-5.92,14.89-14.97,37.08-17.89,39.78s-1.31,6.95,0,8.38,8.29,2.06,14.99-2.04Z"/>
        <path class="cls-13" d="M378.62,426.8s.42,6.74,.74,11.86c.62,9.88,14.04,3.28,20.71-2.98,9.09-8.54,14.74-27.16,15.87-38.87,1.13-11.7,.17-19.34-6.21-20.11-6.38-.77-31.11,50.1-31.11,50.1Z"/>
        <path class="cls-2" d="M396.7,390.22s6.69-.74,13.89,2.92c0,0-12.54,1.27-16.57,2.59,0,0,11.46,2.36,14.84,5.6,0,0-15.75-1.73-18.71-.95,0,0,10.78,2.95,13.91,5.5"/>
      </g>
      <g>
        <path class="cls-17" d="M400.85,394.84l-2.87,2.14-28.23,21.11-81-94.74c-8.12-4.25-117.15-56.22-126.08-73.19-8.93-16.97,2.19-45.7,2.19-45.7l60.98,28.29,1.68,.77s0,0,0,0h0c.88,.76,56.17,39.21,88.24,58.77,6.23,3.8,81.4,97.77,85.08,102.54Z"/>
        <path class="cls-12" d="M400.85,394.84l-2.87,2.14c-14.34-18.41-79.09-101.16-84.63-102.5-6.25-1.51-86.24-50-86.24-50l-1.26-11.74,1.68,.77s0,0,0,0h0s.02,.01,.04,.02l-.04-.02c.88,.76,56.17,39.21,88.24,58.76,6.23,3.8,81.4,97.77,85.08,102.54Z"/>
        <path class="cls-9" d="M232.52,236.3s17.22,44.5,27.39,72.72c0,0-39.52-19.19-45.79-22.12l18.41-50.6Z"/>
        <path class="cls-3" d="M288.77,323.63s-5.49-18.44-14.04-25.68c-8.55-7.25-5.36,4.38,1.19,11.1"/>
        <path class="cls-9" d="M369.75,418.09c-2.47-3.7,27.06-24.87,31.1-23.25s-27.07,29.29-31.1,23.25Z"/>
      </g>
      <g>
        <path class="cls-17" d="M258.26,379.56c.39,29.9-20.7,30.96-29.33,24.53-47.35-35.24-84.06-53.91-116.72-66.7l24.18-45.32c11.59-.46,66.58,24.54,66.58,24.54,0,0-17.52-49.76-19.27-65.9-1.75-16.14-4.53-42.29-4.53-42.29l48.44,25.31,4.9,2.56s22.2,110.03,25.37,138.44c.24,2.06,.37,3.69,.38,4.81Z"/>
        <path class="cls-9" d="M135.17,292.26c-14.95-6.48-37.52,38.54-22.96,45.12,14.56,6.59,43.69-36.14,22.96-45.12Z"/>
        <path class="cls-3" d="M181.26,224.01s-7.38,5.2,6.81,46.07"/>
        <path class="cls-3" d="M202.97,316.61s24.15,21.97,28.87,37.01c4.73,15.04,5.72-1-1.32-12.3-7.05-11.3,7.8-7.06,11.26,3.46"/>
        <path class="cls-12" d="M257.88,374.74l.38,4.81c-7.33-30.35-29.61-140.67-30.65-145.82l4.9,2.56s22.2,110.03,25.37,138.44Z"/>
      </g>
      <g>
        <path class="cls-14" d="M399.51,406.2c-3.3,10.27-20.88,20.15-20.88,20.15l-2.09-5.68-2.84-7.71s11.6-9.77,19.52-14.14l1.27,1.49,5.03,5.89Z"/>
        <path class="cls-11" d="M394.49,400.32c-4.42,4.7-13.97,15.75-17.94,20.36l-2.84-7.71s11.6-9.77,19.52-14.14l1.27,1.49Z"/>
      </g>
      <g>
        <path class="cls-14" d="M140.12,306.71s-10.34,26.7-21.81,26.11c-.22,0-.45-.03-.67-.06-.94-.13-1.88-.45-2.8-.97l-7.16-45.45,22.03,13.84,10.41,6.54Z"/>
        <path class="cls-11" d="M140.12,306.71s-10.34,26.7-21.81,26.11c-.22,0-.45-.03-.67-.06,10.8-14.15,12.07-32.59,12.07-32.59l10.41,6.54Z"/>
      </g>
      <g>
        <path class="cls-13" d="M75.51,265.69s6.88-.06,16.93,5.55c13.67,7.62,27.11,22.55,27.11,22.55,0,0,.61,23.92-3.23,33.37-3.83,9.45-2.72,18.12,4.51,34.82,10.5,24.25-15.83,45.08-31.55,30.99-15.72-14.09-13.77-127.28-13.77-127.28Z"/>
        <path class="cls-12" d="M64.6,278.2c-2.72,8.86-9.6,65.56,3.84,90.9,13.96,26.32,23.02,30.94,36.62,22.49,13.6-8.46,14.93-18.45,4.15-44.88-10.78-26.43-23.82-63.85-23.48-71.75,.34-7.89-6.83-9.9-10.21-9.27-3.38,.62-8.74,5.44-10.91,12.51Z"/>
        <path class="cls-3" d="M78.35,265.72s4.19,2.72,4.25,14.16c.05,11.44,21.23,71.82,23.61,85.75,2.38,13.93-4.64,30.27-20.65,26.89"/>
        <path class="cls-3" d="M62.32,291.21s17.16-2.91,21.79-2.34"/>
        <path class="cls-2" d="M120.28,337.77s-6-9.39-10.47-15.6c0,0,4.76,10.81,6.48,19.37,0,0-2.14-3.96-8.42-9.13"/>
      </g>
      <path class="cls-17" d="M227.57,233.55l-.04-.02h0s.02,0,.04,.02Z"/>
      <g>
        <path class="cls-14" d="M165.03,167.75l23.74,27.78-25.04,6.42s-21.73-25.7-25.41-30.98c-3.69-5.28-6.12-10,2.38-19.86,5.09-5.9,22.39-8.87,35.47-10.3,8.78-.96,15.66-1.23,15.66-1.23,.63,15.67-5.9,31.38-5.9,31.38l-5.17-.79-15.74-2.42Z"/>
        <path class="cls-11" d="M191.84,139.59c.63,15.67-5.9,31.38-5.9,31.38l-5.17-.79c-1.05-9.11-3.29-22.07-4.6-29.36,8.78-.96,15.66-1.23,15.66-1.23Z"/>
        <path class="cls-7" d="M165.03,167.75s-4.53-.49-10.01,1.08"/>
      </g>
      <g>
        <path class="cls-19" d="M119.71,211.32c6.01-5.56,28.28-4.53,42.81-1.9,34.42,6.22,69.99,26.88,69.99,26.88,2.6-2.83,29.51-25.79,41.47-36.21,.75-.65-4.49-47.91-13.7-48.44-57.59-3.32-107.35,37.42-107.35,37.42-31.57,10.8-33.22,22.26-33.22,22.26Z"/>
        <path class="cls-18" d="M258.69,185.95s-2.77,14.49,7.31,21.05l14.91-12.52-22.21-8.53Z"/>
        <path class="cls-3" d="M152.93,189.06s24.73-4.82,38.9-4.18c14.17,.64,3.09-5.17-5.48-6"/>
        <path class="cls-7" d="M182.11,199.98s42.1,17.49,58.5,29"/>
      </g>
      <g>
        <path class="cls-9" d="M318.95,178.62s.2,25.45-16.35,36.75c0,0,1.37-29.31,16.35-36.75Z"/>
        <path class="cls-19" d="M260.28,151.64c-14.98-4.84-12.41,18.29-1.59,34.31,10.83,16.02,43.9,29.42,43.9,29.42,0,0,4.93-26.47,16.35-36.75h0s-45.48-22.72-58.67-26.98Z"/>
      </g>
      <g>
        <path class="cls-14" d="M381.66,216h0c-3.82,4.07-10.75,6.23-18.57,5.31-8.76-1.03-25.73-3.88-39.17-6.22-10.9-1.9-19.46-3.47-19.46-3.47,4.2-9.43,13.6-30.57,13.6-30.57,1.98,.98,4.07,1.85,6.14,2.61,7.97,2.96,15.65,4.38,15.65,4.38l-18.39-30.61,17.57-8.69s0,0,0,0c.53,.51,34.34,33.61,44.09,53.16,2.81,5.62,1.84,10.57-1.46,14.09Z"/>
        <path class="cls-14" d="M321.44,157.43s-7.19-1.41-9.25-2.18c-2.06-.77-4.88-8.6-4.17-10.12,.72-1.52,3.14-2,3.14-2,0,0-1.39-2.66-.76-4.46s4.54-2.86,6.22-3.69c1.68-.83,4.08-4.33,6.69-4.39,2.6-.06,5.57,4.82,8.54,8.39,2.97,3.57,7.16,9.76,7.16,9.76l-17.57,8.69Z"/>
        <path class="cls-4" d="M311.17,143.13s3.14,5.76,3.77,7.08"/>
        <path class="cls-7" d="M339.83,188.04s15.35,3.34,26.84,4.5"/>
        <path class="cls-11" d="M324.18,183.66c-.06,5.85-.18,18.7-.27,31.43-10.9-1.9-19.46-3.47-19.46-3.47,4.55-17.42,13.6-30.57,13.6-30.57,1.98,.98,4.07,1.85,6.14,2.61Z"/>
        <path class="cls-12" d="M381.66,216h0c2.31-5.12,1.9-13.11-4.33-20.96-19.59-24.67-37.79-45.71-38.3-46.29,.53,.51,34.34,33.61,44.09,53.16,2.81,5.62,1.84,10.57-1.46,14.09Z"/>
      </g>
    </g>
    <g>
      <polygon class="cls-12" points="521.8 156.24 528.26 149.77 537.06 149.77 530.59 156.24 521.8 156.24"/>
      <polygon class="cls-12" points="535.77 156.24 542.24 149.77 551.04 149.77 544.57 156.24 535.77 156.24"/>
      <polygon class="cls-12" points="549.74 156.24 556.21 149.77 565.01 149.77 558.54 156.24 549.74 156.24"/>
      <polygon class="cls-12" points="563.72 156.24 570.19 149.77 578.99 149.77 572.52 156.24 563.72 156.24"/>
    </g>
    <g>
      <g>
        <circle class="cls-5" cx="679.92" cy="350.41" r="24.44" transform="translate(-81.59 278.37) rotate(-21.86)"/>
        <line class="cls-6" x1="707.35" y1="323.55" x2="652.48" y2="377.27"/>
      </g>
      <g>
        <circle class="cls-5" cx="679.92" cy="426.17" r="24.44" transform="translate(-109.8 283.82) rotate(-21.86)"/>
        <line class="cls-6" x1="707.35" y1="399.31" x2="652.48" y2="453.03"/>
      </g>
    </g>
    <g>
      <rect class="cls-13" x="606.44" y="426.66" width="23.34" height="6.14"/>
      <rect class="cls-13" x="618.11" y="441.47" width="11.67" height="6.14"/>
    </g>
    <g>
      <polyline class="cls-2" points="657.47 350.71 558.62 350.71 494.78 286.87 456.67 286.87"/>
      <rect class="cls-12" x="452.34" y="282.55" width="8.65" height="8.65" transform="translate(913.33 573.75) rotate(180)"/>
    </g>
  </g>
</svg>