<?xml version="1.0" encoding="UTF-8"?>
<svg id="Layer_2" data-name="Layer 2" xmlns="http://www.w3.org/2000/svg" viewBox="0 0 750.43 500.43">
  <defs>
    <style>
      .cls-1, .cls-2, .cls-3 {
        stroke-width: 6px;
      }

      .cls-1, .cls-2, .cls-3, .cls-4, .cls-5, .cls-6, .cls-7, .cls-8 {
        fill: none;
        stroke-miterlimit: 10;
      }

      .cls-1, .cls-4, .cls-6 {
        stroke: #c1ff44;
      }

      .cls-2, .cls-3 {
        stroke: #00152c;
      }

      .cls-3 {
        stroke-dasharray: 0 0 10.09 10.09;
      }

      .cls-9 {
        fill: #00152c;
      }

      .cls-10 {
        fill: #ee17e4;
      }

      .cls-11 {
        fill: #fff;
      }

      .cls-12 {
        fill: #fe2b99;
      }

      .cls-13 {
        fill: #ff9199;
      }

      .cls-14 {
        fill: #820bb7;
      }

      .cls-15 {
        fill: #750cff;
      }

      .cls-16 {
        fill: #c1ff44;
      }

      .cls-17 {
        fill: #7617fd;
      }

      .cls-4 {
        stroke-width: 4px;
      }

      .cls-5 {
        stroke: #1e2c2c;
      }

      .cls-7 {
        stroke: #ee17e4;
      }

      .cls-8 {
        stroke: #fff;
      }
    </style>
  </defs>
  <g id="BACKGROUND">
    <rect class="cls-14" x=".43" width="750" height="500"/>
  </g>
  <g id="OBJECT">
    <g>
      <g>
        <polygon class="cls-16" points="310.99 401.01 300.2 401.01 299.68 397.93 310.46 397.93 310.99 401.01"/>
        <polygon class="cls-16" points="311.66 423.09 307.38 397.93 310.46 397.93 314.74 423.09 311.66 423.09"/>
      </g>
      <g>
        <polygon class="cls-16" points="416.75 401.01 405.97 401.01 405.45 397.93 416.23 397.93 416.75 401.01"/>
        <polygon class="cls-16" points="417.42 423.09 413.15 397.93 416.23 397.93 420.51 423.09 417.42 423.09"/>
      </g>
      <g>
        <polygon class="cls-16" points="328.96 401.01 318.17 401.01 317.65 397.93 328.43 397.93 328.96 401.01"/>
        <polygon class="cls-16" points="329.63 423.09 325.35 397.93 328.43 397.93 332.71 423.09 329.63 423.09"/>
      </g>
      <g>
        <polygon class="cls-16" points="346.93 401.01 336.14 401.01 335.62 397.93 346.4 397.93 346.93 401.01"/>
        <polygon class="cls-16" points="347.6 423.09 343.32 397.93 346.4 397.93 350.68 423.09 347.6 423.09"/>
      </g>
      <g>
        <polygon class="cls-16" points="293.02 401.01 274.28 401.01 273.75 397.93 292.49 397.93 293.02 401.01"/>
        <polygon class="cls-16" points="278.03 423.09 273.75 397.93 276.83 397.93 281.11 423.09 278.03 423.09"/>
        <polygon class="cls-16" points="293.69 423.09 289.41 397.93 292.49 397.93 296.77 423.09 293.69 423.09"/>
        <polygon class="cls-16" points="296.77 423.09 278.03 423.09 277.51 420.01 296.25 420.01 296.77 423.09"/>
      </g>
      <g>
        <polygon class="cls-16" points="372.85 401.01 354.11 401.01 353.59 397.93 372.33 397.93 372.85 401.01"/>
        <polygon class="cls-16" points="357.87 423.09 353.59 397.93 356.67 397.93 360.95 423.09 357.87 423.09"/>
        <polygon class="cls-16" points="373.53 423.09 369.25 397.93 372.33 397.93 376.61 423.09 373.53 423.09"/>
        <polygon class="cls-16" points="376.61 423.09 357.87 423.09 357.34 420.01 376.08 420.01 376.61 423.09"/>
      </g>
      <g>
        <polygon class="cls-16" points="398.78 401.01 380.04 401.01 379.52 397.93 398.26 397.93 398.78 401.01"/>
        <polygon class="cls-16" points="383.8 423.09 379.52 397.93 382.6 397.93 386.88 423.09 383.8 423.09"/>
        <polygon class="cls-16" points="399.45 423.09 395.18 397.93 398.26 397.93 402.54 423.09 399.45 423.09"/>
        <polygon class="cls-16" points="402.54 423.09 383.8 423.09 383.27 420.01 402.01 420.01 402.54 423.09"/>
      </g>
      <g>
        <polygon class="cls-16" points="442.68 401.01 423.94 401.01 423.42 397.93 442.16 397.93 442.68 401.01"/>
        <polygon class="cls-16" points="427.69 423.09 423.42 397.93 426.5 397.93 430.77 423.09 427.69 423.09"/>
        <polygon class="cls-16" points="443.35 423.09 439.07 397.93 442.16 397.93 446.43 423.09 443.35 423.09"/>
        <polygon class="cls-16" points="446.43 423.09 427.69 423.09 427.17 420.01 445.91 420.01 446.43 423.09"/>
      </g>
      <g>
        <polygon class="cls-16" points="460.65 401.01 449.87 401.01 449.34 397.93 460.13 397.93 460.65 401.01"/>
        <polygon class="cls-16" points="461.32 423.09 457.04 397.93 460.13 397.93 464.4 423.09 461.32 423.09"/>
      </g>
      <g>
        <polygon class="cls-16" points="354.33 436.25 343.55 436.25 343.02 433.17 353.8 433.17 354.33 436.25"/>
        <polygon class="cls-16" points="355 458.32 350.72 433.17 353.8 433.17 358.08 458.32 355 458.32"/>
      </g>
      <g>
        <polygon class="cls-16" points="292.46 436.25 281.68 436.25 281.15 433.17 291.94 433.17 292.46 436.25"/>
        <polygon class="cls-16" points="293.13 458.32 288.86 433.17 291.94 433.17 296.21 458.32 293.13 458.32"/>
      </g>
      <g>
        <polygon class="cls-16" points="310.43 436.25 299.65 436.25 299.12 433.17 309.91 433.17 310.43 436.25"/>
        <polygon class="cls-16" points="311.1 458.32 306.83 433.17 309.91 433.17 314.18 458.32 311.1 458.32"/>
      </g>
      <g>
        <polygon class="cls-16" points="336.36 436.25 317.62 436.25 317.09 433.17 335.83 433.17 336.36 436.25"/>
        <polygon class="cls-16" points="321.37 458.32 317.09 433.17 320.17 433.17 324.45 458.32 321.37 458.32"/>
        <polygon class="cls-16" points="337.03 458.32 332.75 433.17 335.83 433.17 340.11 458.32 337.03 458.32"/>
        <polygon class="cls-16" points="340.11 458.32 321.37 458.32 320.85 455.24 339.59 455.24 340.11 458.32"/>
      </g>
      <g>
        <polygon class="cls-16" points="424.15 436.25 405.41 436.25 404.89 433.17 423.63 433.17 424.15 436.25"/>
        <polygon class="cls-16" points="409.17 458.32 404.89 433.17 407.97 433.17 412.25 458.32 409.17 458.32"/>
        <polygon class="cls-16" points="424.83 458.32 420.55 433.17 423.63 433.17 427.91 458.32 424.83 458.32"/>
        <polygon class="cls-16" points="427.91 458.32 409.17 458.32 408.64 455.24 427.38 455.24 427.91 458.32"/>
      </g>
      <g>
        <polygon class="cls-16" points="380.26 436.25 361.52 436.25 360.99 433.17 379.73 433.17 380.26 436.25"/>
        <polygon class="cls-16" points="365.27 458.32 360.99 433.17 364.07 433.17 368.35 458.32 365.27 458.32"/>
        <polygon class="cls-16" points="380.93 458.32 376.65 433.17 379.73 433.17 384.01 458.32 380.93 458.32"/>
        <polygon class="cls-16" points="384.01 458.32 365.27 458.32 364.75 455.24 383.49 455.24 384.01 458.32"/>
      </g>
      <g>
        <polygon class="cls-16" points="398.23 436.25 387.44 436.25 386.92 433.17 397.7 433.17 398.23 436.25"/>
        <polygon class="cls-16" points="398.9 458.32 394.62 433.17 397.7 433.17 401.98 458.32 398.9 458.32"/>
      </g>
    </g>
    <g>
      <g>
        <polygon class="cls-15" points="61.38 96.11 40.32 96.11 88.42 53.05 109.48 53.05 61.38 96.11"/>
        <polygon class="cls-15" points="87.32 40.24 71.52 40.24 103.28 11.52 119.08 11.52 87.32 40.24"/>
      </g>
      <g>
        <polygon class="cls-10" points="720.21 366.83 588.46 500.35 659.8 500.43 743.48 415.38 743.48 366.83 720.21 366.83"/>
        <polygon class="cls-10" points="1.85 212.4 195.41 18.84 413.59 18.84 382.32 50.1 278.09 50.1 1.85 326.34 1.85 212.4"/>
        <polygon class="cls-10" points="395.49 36.97 364.01 68.44 385.16 68.44 416.64 36.97 395.49 36.97"/>
      </g>
    </g>
    <g>
      <polygon class="cls-9" points="62.42 61.35 228.47 61.35 228.47 121.51 177.39 172.59 62.42 172.59 62.42 61.35"/>
      <polygon class="cls-9" points="193.01 172.59 229.2 136.4 229.2 151.13 207.74 172.59 193.01 172.59"/>
      <polygon class="cls-11" points="219.12 172.59 228.55 163.16 228.55 172.59 219.12 172.59"/>
      <g>
        <rect class="cls-10" x="204.86" y="71.35" width="4.39" height="4.39"/>
        <rect class="cls-10" x="214.09" y="71.35" width="4.39" height="4.39"/>
        <rect class="cls-10" x="214.09" y="80.57" width="4.39" height="4.39" transform="translate(299.05 -133.51) rotate(90)"/>
      </g>
      <g>
        <rect class="cls-10" x="81.65" y="158.21" width="4.39" height="4.39" transform="translate(167.69 320.8) rotate(180)"/>
        <rect class="cls-10" x="72.42" y="158.21" width="4.39" height="4.39" transform="translate(149.23 320.8) rotate(180)"/>
        <rect class="cls-10" x="72.42" y="148.98" width="4.39" height="4.39" transform="translate(-76.55 225.78) rotate(-90)"/>
      </g>
      <g>
        <circle class="cls-6" cx="102.05" cy="100.95" r="24.44" transform="translate(-21.66 28.14) rotate(-14.21)"/>
        <line class="cls-7" x1="129.48" y1="74.09" x2="74.62" y2="127.81"/>
      </g>
      <g>
        <circle class="cls-6" cx="167.17" cy="100.95" r="24.44" transform="translate(-24.15 61.8) rotate(-19.56)"/>
        <line class="cls-7" x1="194.6" y1="74.09" x2="139.74" y2="127.81"/>
      </g>
      <g>
        <rect class="cls-12" x="150.04" y="142.89" width="23.34" height="6.14"/>
        <rect class="cls-12" x="161.71" y="157.7" width="11.67" height="6.14"/>
      </g>
    </g>
    <g>
      <polyline class="cls-8" points="37.66 422.21 20.99 405.54 20.99 289.73 34.88 275.84 34.88 193.49 20.99 179.6 20.99 63.8 37.66 47.13"/>
      <polyline class="cls-8" points="713.19 422.21 729.86 405.54 729.86 289.73 715.97 275.84 715.97 193.49 729.86 179.6 729.86 63.8 713.19 47.13"/>
    </g>
    <g>
      <polygon class="cls-17" points="171.79 257.82 150.73 257.82 198.83 214.75 219.89 214.75 171.79 257.82"/>
      <polygon class="cls-17" points="132.19 257.82 116.39 257.82 148.16 229.1 163.96 229.1 132.19 257.82"/>
    </g>
    <g>
      <g>
        <rect class="cls-10" x="280.83" y="136.59" width="9.44" height="9.44" transform="translate(426.86 -144.24) rotate(90)"/>
        <rect class="cls-10" x="266.29" y="151.13" width="9.44" height="9.44" transform="translate(426.86 -115.16) rotate(90)"/>
      </g>
      <g>
        <rect class="cls-10" x="653.37" y="136.59" width="9.44" height="9.44" transform="translate(799.4 -516.79) rotate(90)"/>
        <rect class="cls-10" x="667.92" y="151.13" width="9.44" height="9.44" transform="translate(828.49 -516.79) rotate(90)"/>
      </g>
      <g>
        <rect class="cls-10" x="653.37" y="304.54" width="9.44" height="9.44" transform="translate(348.84 967.35) rotate(-90)"/>
        <rect class="cls-10" x="667.92" y="290" width="9.44" height="9.44" transform="translate(377.92 967.35) rotate(-90)"/>
      </g>
      <g>
        <rect class="cls-10" x="280.83" y="304.54" width="9.44" height="9.44" transform="translate(-23.71 594.81) rotate(-90)"/>
        <rect class="cls-10" x="266.29" y="290" width="9.44" height="9.44" transform="translate(-23.71 565.73) rotate(-90)"/>
      </g>
    </g>
    <g>
      <path class="cls-4" d="M374.37,296.82c-24.91-21.02-40.36-50.04-40.36-82.1s15.45-61.04,40.36-82.06"/>
      <path class="cls-4" d="M569.28,132.66c24.96,21.02,40.36,50.04,40.36,82.06s-15.41,61.04-40.36,82.06"/>
    </g>
    <g>
      <ellipse class="cls-6" cx="557.89" cy="214.74" rx="22.79" ry="45.29"/>
      <path class="cls-17" d="M483.59,219.76h-78.23c-3.74,0-6.78-3.03-6.78-6.78h0c0-3.74,3.03-6.78,6.78-6.78h78.23c3.74,0,6.78,3.03,6.78,6.78h0c0,3.74-3.03,6.78-6.78,6.78Z"/>
      <path class="cls-10" d="M538.29,219.76h-13.23c-3.74,0-6.78-3.03-6.78-6.78h0c0-3.74,3.03-6.78,6.78-6.78h13.23c3.74,0,6.78,3.03,6.78,6.78h0c0,3.74-3.03,6.78-6.78,6.78Z"/>
      <ellipse class="cls-6" cx="385.76" cy="214.74" rx="22.79" ry="45.29"/>
      <line class="cls-6" x1="385.76" y1="169.44" x2="557.89" y2="169.44"/>
      <line class="cls-6" x1="557.89" y1="260.03" x2="385.76" y2="260.03"/>
    </g>
    <path class="cls-7" d="M253.67,337.36c54.43-17.62,126.76-28.37,206.13-28.37,91.7,0,174,14.35,230.18,37.08V131.92c-56.18-22.73-138.48-37.08-230.18-37.08-79.37,0-151.7,10.75-206.13,28.37v214.14Z"/>
    <g>
      <ellipse class="cls-3" cx="172.01" cy="346.29" rx="42.86" ry="59.3" transform="translate(-183.33 193.86) rotate(-40.37)"/>
      <ellipse class="cls-11" cx="172.01" cy="346.29" rx="29.68" ry="41.07" transform="translate(-183.33 193.86) rotate(-40.37)"/>
      <path class="cls-2" d="M242.25,309.29c13.77,20.62,22.08,44.25,22.08,67.11,0,50.98-41.33,78.83-92.31,62.2-7.76-2.53-15.29-5.94-22.49-10.09"/>
      <ellipse class="cls-8" cx="172.01" cy="346.29" rx="103.62" ry="143.38" transform="translate(-183.33 193.86) rotate(-40.37)"/>
      <ellipse class="cls-1" cx="172.01" cy="346.29" rx="62.42" ry="86.38" transform="translate(-183.33 193.86) rotate(-40.37)"/>
      <line class="cls-7" x1="64.03" y1="203.08" x2="279.99" y2="489.49"/>
      <path class="cls-16" d="M98.59,322.33l-18.89-6.16c0,25.5,10.33,51.95,27.04,74.09l13.35-8.99c-13.29-17.62-21.5-38.66-21.5-58.94Z"/>
      <path class="cls-16" d="M120.09,381.27l-13.35,8.99c-16.71-22.14-27.04-48.59-27.04-74.09l18.89,6.16c0,20.28,8.21,41.32,21.5,58.94Z"/>
    </g>
    <path class="cls-6" d="M84.89,325.76c48.99,15.98,90.34,62.2,103.37,111.23"/>
    <g>
      <path class="cls-13" d="M200.39,435.82c-18.41-.57-24.74,8.06-42.01,14.39-17.26,6.33-55.81,13.23-55.81,13.23-16.11,8.06-40.51,36.56-40.51,36.56H.43v-64.41s20.23-14.24,33.64-24.05c9.53-6.97,29.94-55.7,29.94-61.45s-1.72-33.38,3.46-42.59c3.86-6.85,11.86-13.07,17.6-14.6,0-.01,0-.01,0-.01,1.96-.53,3.66-.5,4.83,.23,4.6,2.88-2.88,13.23-3.45,20.14-.58,6.9,0,22.44,0,22.44,0,0,8.05-18.41,11.5-23.02,3.46-4.6,17.84-21.29,23.02-23.59s10.93,5.18,10.93,5.18c0,0,12.66-17.26,18.99-20.14,6.33-2.88,12.66,7.48,11.1,16.69-1.56,9.2-16.75,19.25-19.63,28.46-2.87,9.21-5.93,25.71-5.93,25.71,10.93-4.6,55.32-54.17,62.22-54.17s12.09,16.11,1.73,27.04-37.98,51.21-41.43,64.45c-3.45,13.23,3.45,35.68,16.69,33.37,13.23-2.3,36.25-4.02,43.15,4.03,6.91,8.06,0,16.69-18.41,16.11Z"/>
      <path class="cls-5" d="M131.91,294.27s-11.89,14.73-18.03,21.85c-6.14,7.12-8.31,37.19-8.31,37.19"/>
      <path class="cls-11" d="M85.07,292.9c-4.68,2.62-13.61,9.18-16.15,17.41-2.54,8.24-1.32,34.82-1.32,41.67s-18.72,53.81-26.11,62.77C34.11,423.72,.43,450.62,.43,450.62v-15.03s20.23-14.24,33.64-24.05c9.53-6.97,29.94-55.7,29.94-61.45s-1.72-33.38,3.46-42.59c3.86-6.85,11.86-13.07,17.6-14.6Z"/>
    </g>
    <g>
      <path class="cls-13" d="M750.43,435.59v64.41h-61.63s-24.4-28.5-40.51-36.56c0,0-38.55-6.9-55.81-13.23-17.27-6.33-23.6-14.96-42.01-14.39-13.26,.42-20.56-3.95-21.02-9.43-.17-2.13,.68-4.43,2.61-6.68,6.9-8.05,25.81-5.88,43.15-4.03,13.36,1.42,20.14-20.14,16.69-33.37-3.45-13.24-31.07-53.52-41.43-64.45-10.36-10.93-5.18-27.04,1.73-27.04s51.29,49.57,62.22,54.17c0,0-3.06-16.5-5.93-25.71-2.88-9.21-23.3-24.17-30.58-30-13.45-10.78,0-21.76,6.33-18.88,6.33,2.88,22.24,13.72,22.24,13.72,0,0,5.75-7.48,10.93-5.18,5.18,2.3,5.4,.13,21.65,12.64,2.44,.01,7.61,.18,12.43,1.07,5.72,1.05,29.79,40.69,35.36,57.44,1.81,5.46,20.41,54.48,29.94,61.45,13.41,9.81,33.64,24.05,33.64,24.05Z"/>
      <path class="cls-11" d="M707.22,500h-18.42s-24.4-28.5-40.51-36.56c0,0-38.55-6.9-55.81-13.23-17.27-6.33-23.6-14.96-42.01-14.39-13.26,.42-20.56-3.95-21.02-9.43h.01s7.07,8.14,24.47,7.35c17.41-.79,31.39,11.08,44.84,14.77,13.45,3.69,44.31,8.18,53.01,10.81,8.7,2.64,55.44,40.68,55.44,40.68Z"/>
      <path class="cls-5" d="M606.48,284.12s19.29,20.12,25.62,26.45c6.33,6.33,15.03,33.6,15.03,33.6"/>
      <path class="cls-5" d="M639.07,291.59s11.23,11.08,14.79,15.82c3.56,4.75,14.24,34.42,14.24,34.42"/>
    </g>
    <g>
      <path class="cls-6" d="M21.76,500c-8.02-8.43-15.2-17.67-21.34-27.43"/>
      <path class="cls-6" d="M188.26,436.99c2.78,10.47,4.27,21.07,4.27,31.52,0,11.15-1.69,21.34-4.84,30.43"/>
      <path class="cls-6" d="M.43,339.12c15.44-14.48,38.59-21.21,63.88-18.14"/>
    </g>
    <g>
      <g>
        <rect class="cls-11" x="238.28" y="176.83" width="34.86" height="11.27"/>
        <line class="cls-8" x1="255.71" y1="182.47" x2="295.28" y2="182.47"/>
      </g>
      <g>
        <rect class="cls-11" x="238.28" y="200.43" width="34.86" height="11.27"/>
        <line class="cls-8" x1="255.71" y1="206.07" x2="295.28" y2="206.07"/>
      </g>
    </g>
    <g>
      <polygon class="cls-9" points="414.09 289.94 406.12 289.94 410.27 281.97 418.24 281.97 414.09 289.94"/>
      <polygon class="cls-9" points="493.52 289.94 432.85 289.94 437 281.97 497.67 281.97 493.52 289.94"/>
    </g>
    <g>
      <polygon class="cls-11" points="301.37 245.23 308.41 245.23 304.89 250.1 301.37 254.97 297.86 250.1 294.34 245.23 301.37 245.23"/>
      <polygon class="cls-16" points="301.37 259.95 308.41 259.95 304.89 264.82 301.37 269.7 297.86 264.82 294.34 259.95 301.37 259.95"/>
    </g>
    <g>
      <g>
        <circle class="cls-6" cx="651.49" cy="245.25" r="14.59"/>
        <line class="cls-7" x1="667.68" y1="229.05" x2="635.29" y2="261.45"/>
      </g>
      <g>
        <circle class="cls-6" cx="651.49" cy="194.27" r="14.59" transform="translate(53.45 517.57) rotate(-45)"/>
        <line class="cls-7" x1="667.68" y1="178.07" x2="635.29" y2="210.47"/>
      </g>
    </g>
    <g>
      <polyline class="cls-8" points="156.59 103.59 188.68 135.67 293.09 135.67"/>
      <rect class="cls-11" x="121.01" y="96.68" width="37.22" height="8.53"/>
    </g>
    <g>
      <polygon class="cls-11" points="374.5 349.86 387.69 349.86 374.5 363.04 374.5 349.86"/>
      <polygon class="cls-11" points="385.05 363.04 398.24 349.86 416.17 349.86 402.99 363.04 385.05 363.04"/>
      <polygon class="cls-11" points="413.54 363.04 426.72 349.86 444.66 349.86 431.47 363.04 413.54 363.04"/>
      <polygon class="cls-11" points="442.02 363.04 455.21 349.86 473.14 349.86 459.95 363.04 442.02 363.04"/>
      <polygon class="cls-11" points="470.5 363.04 483.69 349.86 501.63 349.86 488.44 363.04 470.5 363.04"/>
      <polygon class="cls-11" points="498.99 363.04 512.17 349.86 530.11 349.86 516.92 363.04 498.99 363.04"/>
      <polygon class="cls-11" points="527.47 363.04 540.66 349.86 558.59 349.86 545.41 363.04 527.47 363.04"/>
      <polygon class="cls-11" points="555.96 363.04 569.14 363.04 569.14 349.86 555.96 363.04"/>
    </g>
    <g>
      <rect class="cls-16" x="636.94" y="60.36" width="30.07" height="1.98" transform="translate(147.58 478.98) rotate(-45)"/>
      <rect class="cls-16" x="650.98" y="46.31" width="1.98" height="30.07" transform="translate(147.58 478.98) rotate(-45)"/>
    </g>
    <g>
      <rect class="cls-16" x="476.19" y="32.52" width="27.55" height="9.03"/>
      <rect class="cls-16" x="462.02" y="51.01" width="13.77" height="9.03"/>
      <rect class="cls-9" x="531.24" y="46.43" width="13.45" height="4.57"/>
      <rect class="cls-9" x="556.21" y="48.72" width="24.87" height="11.75"/>
      <rect class="cls-9" x="575.15" y="60.04" width="17.77" height="5.82"/>
    </g>
  </g>
</svg>