<?xml version="1.0" encoding="UTF-8"?>
<svg id="Layer_2" data-name="Layer 2" xmlns="http://www.w3.org/2000/svg" viewBox="0 0 750 500">
  <defs>
    <style>
      .cls-1 {
        stroke-width: 3px;
      }

      .cls-1, .cls-2, .cls-3, .cls-4, .cls-5, .cls-6, .cls-7, .cls-8, .cls-9, .cls-10, .cls-11 {
        fill: none;
      }

      .cls-1, .cls-3, .cls-4, .cls-5, .cls-6, .cls-7, .cls-8, .cls-9, .cls-10, .cls-11 {
        stroke-miterlimit: 10;
      }

      .cls-1, .cls-5, .cls-11 {
        stroke: #00152c;
      }

      .cls-2 {
        stroke-linejoin: round;
      }

      .cls-2, .cls-8 {
        stroke: #fff;
      }

      .cls-12 {
        fill: #00152c;
      }

      .cls-13 {
        fill: #ee17e4;
      }

      .cls-14 {
        fill: #ef656d;
      }

      .cls-15 {
        fill: #fff;
      }

      .cls-16 {
        fill: #fe2b99;
      }

      .cls-17 {
        fill: #ff9199;
      }

      .cls-18 {
        fill: #820bb7;
      }

      .cls-19 {
        fill: #750cff;
      }

      .cls-20 {
        fill: #c1ff44;
      }

      .cls-21 {
        fill: #115ae5;
      }

      .cls-22 {
        fill: #0a96ff;
      }

      .cls-23 {
        fill: #070000;
      }

      .cls-3 {
        stroke-width: 5px;
      }

      .cls-3, .cls-7 {
        stroke: #ee17e4;
      }

      .cls-4 {
        stroke-width: 2px;
      }

      .cls-4, .cls-6, .cls-9, .cls-10 {
        stroke: #c1ff44;
      }

      .cls-9 {
        stroke-width: 8px;
      }

      .cls-10, .cls-11 {
        stroke-width: .5px;
      }
    </style>
  </defs>
  <g id="BACKGROUND">
    <rect class="cls-18" width="750" height="500"/>
  </g>
  <g id="OBJECT">
    <g>
      <polyline class="cls-6" points="170.94 439.48 479.89 439.48 440.7 478.67 575.79 478.67"/>
      <polygon class="cls-20" points="566.41 483.49 576.06 473.84 585.18 473.84 575.53 483.49 566.41 483.49"/>
      <polygon class="cls-20" points="551.64 481.68 557.66 475.66 563.35 475.66 557.33 481.68 551.64 481.68"/>
    </g>
    <g>
      <polygon class="cls-12" points="58.35 309.62 58.35 379.72 0 438.08 0 367.98 58.35 309.62"/>
      <polygon class="cls-12" points="485.24 103.61 540.63 48.23 540.63 75.92 486.53 130.02 485.24 103.61"/>
      <polygon class="cls-19" points="304.45 201.29 472.52 33.22 472.52 201.29 451.05 201.29 451.08 85.35 304.03 232.4 304.45 201.29"/>
      <polygon class="cls-20" points="131.26 346.23 186.65 290.84 186.65 318.54 132.55 372.63 131.26 346.23"/>
      <polygon class="cls-20" points="102.11 397.89 125.52 374.47 125.52 402.17 103.4 424.29 102.11 397.89"/>
      <polygon class="cls-12" points="658.92 0 584.48 74.44 584.48 0 658.92 0"/>
      <polygon class="cls-12" points="148.88 210.36 291.39 67.85 421.5 67.85 398.48 90.87 352.27 90.87 148.88 294.26 148.88 210.36"/>
      <polygon class="cls-13" points="41.87 265.04 131.26 175.65 131.26 200.37 42.36 289.27 41.87 265.04"/>
      <polygon class="cls-20" points="86.57 191.67 131.26 146.97 131.26 159.33 86.81 203.78 86.57 191.67"/>
      <polygon class="cls-19" points="84.4 414.55 84.4 455.48 40.24 500 0 500 0 499.63 84.4 414.55"/>
      <polygon class="cls-20" points="547.1 260.31 606.8 200.61 606.8 217.12 547.43 276.49 547.1 260.31"/>
      <g>
        <polygon class="cls-13" points="418.96 349.01 419.97 373.77 532.14 261.6 532.14 235.83 418.96 349.01"/>
        <g>
          <polygon class="cls-13" points="552.23 127.32 580.79 98.77 580.79 117.64 552.61 145.82 552.23 127.32"/>
          <polygon class="cls-13" points="590.38 91.52 604.75 77.14 604.75 96.02 590.76 110.01 590.38 91.52"/>
        </g>
      </g>
      <g>
        <polygon class="cls-15" points="661.75 129.4 725.12 66.03 725.12 43.13 660.62 107.62 661.75 129.4"/>
        <polygon class="cls-15" points="721.75 39.26 721.75 50.83 748.3 24.28 748.3 12.72 721.75 39.26"/>
      </g>
    </g>
    <g>
      <polyline class="cls-8" points="124.93 311.24 150.7 337.01 201.4 337.01"/>
      <rect class="cls-15" x="96.36" y="305.7" width="29.89" height="6.85"/>
    </g>
    <polygon class="cls-8" points="265.97 473.11 440.05 371.45 440.05 26.92 265.97 128.58 265.97 473.11"/>
    <g>
      <g>
        <circle class="cls-6" cx="265.97" cy="413.79" r="19.5"/>
        <line class="cls-7" x1="287.62" y1="392.14" x2="244.32" y2="435.44"/>
      </g>
      <g>
        <circle class="cls-6" cx="265.97" cy="345.65" r="19.5"/>
        <line class="cls-7" x1="287.62" y1="324" x2="244.32" y2="367.3"/>
      </g>
    </g>
    <g>
      <g>
        <path class="cls-20" d="M459.39,210.86s12.09,49.2,16.05,71.17l-124.55-42.13s20.3-37.66,16.47-39.34c-22.92-10.07-49-40.67-49-40.67l39.53-34.37s13.47,13.78,24.24,21.18c14.06,9.67,29.05,10.17,29.05,10.17l17.47,.45s17.65,1.41,38.13,4.42c1.81,.27,3.64,.55,5.48,.84,3.66,.58,7.37,1.21,11.04,1.88,.61,.11,1.23,.23,1.85,.34,2.87,.54,5.75,1.08,8.62,1.63,23.02,4.4,44.71,9.01,44.71,9.01l-26.82,45.34s-42.1-9.95-52.27-9.92Z"/>
        <path class="cls-15" d="M411.19,156.87s-3.08-.26-4.47-.5c0,0-2.95,7.26,3.59,9.83,6.54,2.57,18.48-1.86,21.22-8.64l-2.88-.24-17.46-.44Z"/>
        <path class="cls-12" d="M475.45,282.03c-3.5,10.11-115.86-21.73-107.69-43.31,3-7.93,111.59,32.04,107.69,43.31Z"/>
        <path class="cls-12" d="M538.49,175.44c-9.45-1.98-34.13,41.62-26.82,45.35,7.31,3.72,33.12-44.03,26.82-45.35Z"/>
        <path class="cls-12" d="M357.91,125.51c-8.19-5.11-45.49,27.75-39.9,33.76,5.58,6.01,45.37-30.35,39.9-33.76Z"/>
        <path class="cls-5" d="M367.37,200.57s11.91-23.47,14.14-32.79c2.23-9.31-6.36,1.74-8.51,7.54"/>
        <polygon class="cls-12" points="459.39 210.86 445.25 210.39 463.98 229.88 459.39 210.86"/>
        <g>
          <rect class="cls-16" x="387.16" y="172.99" width="7.29" height="17.57" transform="translate(64.76 -100.13) rotate(15.9)"/>
          <rect class="cls-16" x="393.51" y="169.46" width="7.29" height="17.57" transform="translate(677.39 -154.87) rotate(105.9)"/>
          <rect class="cls-16" x="392.23" y="185.37" width="7.29" height="32.01" transform="translate(839.72 184.81) rotate(150.9)"/>
          <rect class="cls-16" x="423.77" y="183.42" width="7.29" height="17.57" transform="translate(785.8 494.17) rotate(-164.1)"/>
          <rect class="cls-16" x="420.23" y="177.07" width="7.29" height="17.57" transform="translate(718.77 -170.87) rotate(105.9)"/>
          <rect class="cls-16" x="409.13" y="190.18" width="7.29" height="32.01" transform="translate(392.2 -254.76) rotate(60.9)"/>
        </g>
        <path class="cls-19" d="M493.77,166.44l-24.98,13.65-6.8-1.99,4.79-16.35c1.81,.27,3.64,.55,5.48,.84l-3.24,11.04,16.13-8.81c2.87,.54,5.75,1.08,8.62,1.63Z"/>
        <path class="cls-8" d="M495.45,217.12s2.1-26.39,18.7-39.21"/>
        <path class="cls-8" d="M327.04,170.51s21.78-11.39,32.5-26.49"/>
      </g>
      <g>
        <g>
          <path class="cls-21" d="M395.42,317.95c-27.42-4.85-119.78-6.22-119.78-6.22-7.97,14.76-49.99,101-49.99,101l-48.78-20.6-2.61-1.11s51.75-124.5,63.28-130.81c17.51-9.58,125.49-16.11,125.49-16.11,.71,1.3,1.61,3.14,2.7,5.4h0c9.14,19.22,29.69,68.45,29.69,68.45Z"/>
          <path class="cls-5" d="M275.64,311.74s-12.05-11.39-13.77-18.49c-1.72-7.1,8.77,7.73,8.77,7.73"/>
          <path class="cls-15" d="M365.73,249.51h0s-121.23,10.17-127.57,15.95c-11.41,10.4-60.56,126.28-60.56,126.28,0,0-.25,.14-.72,.39l-2.61-1.11s51.75-124.5,63.28-130.81c17.51-9.58,125.49-16.11,125.49-16.11,.71,1.3,1.61,3.14,2.7,5.4Z"/>
          <path class="cls-12" d="M174.26,391.02c5.01-8.59,55.12,11.22,51.4,21.71-3.72,10.49-56.4-13.12-51.4-21.71Z"/>
        </g>
        <g>
          <g>
            <path class="cls-17" d="M198.16,433.58c-7.61-1.45-25.66-13.64-25.66-13.64l13.18-22.77,2.15-3.71c16.97,1.78,29.16,10.59,29.16,10.59l-6.23,9.78-12.6,19.76Z"/>
            <path class="cls-14" d="M210.76,413.81c-8.94-7.48-25.08-16.65-25.08-16.65l2.15-3.71c16.97,1.78,29.16,10.59,29.16,10.59l-6.23,9.78Z"/>
          </g>
          <g>
            <g>
              <path class="cls-16" d="M129.27,409.22s20.27,14.28,25.17,14.65c4.9,.37,19.72-14.99,23.16-15.63,3.44-.65,6.87,12.88,10,13.71,3.14,.83,14.06,1.63,16.84,4.43,2.78,2.8-3.19,9.45-1.89,13.4,1.31,3.95,1.88,10.62,.36,16.57,0,0-34.94-1.79-52.66-16.13-17.71-14.34-26.15-23.58-26.15-23.58l5.15-7.41Z"/>
              <path class="cls-2" d="M165.11,410.91s5.19,8.48,7.67,13.08c0,0-10.86-5.99-13.41-7.63,0,0,5.06,10.29,5.27,13.67,0,0-9.62-8.92-11.59-10.57,0,0,1.69,9.34,1.09,12.25,0,0-4.59-11.69-7.83-14.74"/>
              <path class="cls-15" d="M201.21,462.14c-.43,1.6,4.3-6.5-.28-13.72-4.18-6.59-43.18-9.76-50.03-13.51-6.85-3.75-18.76-15.74-18.76-15.74,0,0-.39-6.73-2.87-9.95s-14.23-3.25-17.45,5.47c0,0,11.13,22.07,33.45,33.19,22.31,11.12,55.94,14.26,55.94,14.26Z"/>
            </g>
            <g>
              <path class="cls-12" d="M111.82,414.69c6.85-4.02,28.52,21.33,37.23,24.34,8.71,3.01,44.67,8.1,49.78,14.35,5.11,6.25,2.2,13.35-3.9,14.84-6.1,1.5-41.03-5.57-50.99-9.45-9.96-3.88-42.53-37.97-32.12-44.08Z"/>
              <path class="cls-15" d="M180.38,467.23c2.58-6.53,3.29-12.96,3.8-19.9,.04-.6-.89-.72-.93-.11-.51,6.86-1.19,13.19-3.74,19.66-.22,.56,.65,.91,.87,.35Z"/>
            </g>
          </g>
        </g>
      </g>
      <g>
        <path class="cls-17" d="M624.31,147.68s-60.29,75.04-72.26,78.39c-4.02,1.12-14.08-2.69-22.89-5.82-8.65-3.07-16.22-6.2-16.22-6.2,0,0,7.78-25.95,21.7-36.57l4.96,1.29,4.22,1.1,63.74-45.98,16.75,13.78Z"/>
        <path class="cls-14" d="M539.6,178.77s-9.46,23.72-10.45,41.47c-8.65-3.07-16.22-6.2-16.22-6.2,0,0,7.78-25.95,21.7-36.57l4.96,1.29Z"/>
        <path class="cls-17" d="M607.56,133.9s6.93-9.89,8.78-11.4c1.86-1.51,12.98-4.47,15.55-4.91,2.57-.44,3.19,3.16,3.19,3.16,0,0,2.49,.63,3.48,1.78s.66,3.85,.66,3.85c0,0,.17,1.48,.84,2.86,.68,1.38-1.15,9.21-2.73,9.29-1.57,.08-3.33,.65-4.06-.55,0,0-.58,4.33-2.5,5.45-1.92,1.12-6.46,4.25-6.46,4.25l-16.75-13.78Z"/>
        <path class="cls-11" d="M621.34,125.56s6.71-1.93,8.06-1.29-.51,5.26-5.49,7.05c0,0,.56,5.69-5.18,7.85"/>
        <path class="cls-11" d="M635.08,120.74s-.13,5.08-.84,6.75c-.71,1.67-3.29,4.74-4.65,4.36-1.36-.39-2.31-1.93-1.23-3.6"/>
        <path class="cls-11" d="M630.58,131.88s-.48,2.77,1.47,2.84c1.95,.07,4.78-2.58,5.75-4.24,.97-1.66,1.4-2.4,1.42-4.1"/>
        <path class="cls-11" d="M632.7,134.74s-.9,1.7,.58,3.23"/>
      </g>
      <g>
        <path class="cls-17" d="M353.67,124.12l2.11,4.67c-6.38,12.21-22.74,22.26-29.44,26.01-1.82,1.02-2.93,1.56-2.93,1.56,0,0-4.37-6.93-8.85-14.94-4.58-8.15-10.04-17.42-9.61-21.57,1.29-12.38,65.06-84.47,65.06-84.47l16.41,14.19-34.56,70.59,1.8,3.97Z"/>
        <path class="cls-14" d="M353.67,124.12s-21.78,13.33-39.11,17.3c4.49,8.01,8.85,14.94,8.85,14.94,0,0,24.26-12.05,32.38-27.57l-2.11-4.67Z"/>
        <path class="cls-15" d="M364.49,44.84c-5.37,8.34-55.72,67.4-56.14,75.89-.32,6.37,11.88,25.11,17.99,34.07-1.82,1.02-2.93,1.56-2.93,1.56,0,0-4.37-6.93-8.85-14.94-4.58-8.15-10.04-17.42-9.61-21.57,1.29-12.38,65.06-84.47,65.06-84.47,0,0-.16,1.12-5.52,9.47Z"/>
        <path class="cls-17" d="M386.42,49.56s8.58-8.5,9.75-10.58c1.17-2.09,2.22-13.55,2.22-16.16,0-2.61-3.65-2.61-3.65-2.61,0,0-1.04-2.35-2.35-3.13s-3.91,0-3.91,0c0,0-1.49,.09-2.96-.35-1.47-.43-8.88,2.69-8.69,4.26,.19,1.56-.07,3.39,1.23,3.91,0,0-4.17,1.3-4.95,3.39-.78,2.09-3.1,7.09-3.1,7.09l16.41,14.18Z"/>
        <path class="cls-11" d="M392.31,34.57s.76-6.94-.09-8.17c-.85-1.22-5.1,1.39-6.02,6.6,0,0-5.7,.41-6.86,6.43"/>
        <path class="cls-11" d="M394.74,20.21s-4.99,.98-6.51,1.96c-1.53,.98-4.12,4.04-3.51,5.31,.61,1.27,2.29,1.95,3.76,.61"/>
        <path class="cls-11" d="M384.52,26.53s-2.65,.95-3.04-.97c-.4-1.91,1.73-5.15,3.21-6.38s2.13-1.78,3.8-2.1"/>
        <path class="cls-11" d="M381.34,24.92s-1.52,1.18-3.28-.02"/>
      </g>
      <g>
        <g>
          <path class="cls-22" d="M440.75,333.05c-23.71-5.49-95.88-33.85-95.88-33.85l-42.55,36.09s-54.5-82.21-50.1-98.71c4.39-16.49,14.03-29.67,31.59-26.16,26.91,5.36,51.36,11.7,72.89,18.18,.03,.01,.05,.01,.05,.01,64.52,19.44,102.8,40.19,102.8,40.19,27.5,38.69-2.03,68.14-18.81,64.26Z"/>
          <path class="cls-8" d="M319.18,260.31s76.16,32.36,83.55,35.74c7.4,3.38,6.41,18.22,10.2,18.34,2.75,.09-2.81-21.31,.75-22.3,2.51-.7,5.85,14.5,8.26,14.58,7.29,.24,15.89,.53,24.49,.82,5.25,.18,9.11-20.46,2.34-44.07"/>
          <path class="cls-12" d="M302.31,335.29c-5.41-8.34,34.87-44.14,42.55-36.09,7.68,8.05-37.14,44.43-42.55,36.09Z"/>
          <path class="cls-5" d="M314.82,242.42s-7.54-8.42-11.13-10.36,4.74,14.18,10.76,21.33c6.02,7.15,19.45,34.52,30.41,45.81"/>
          <path class="cls-15" d="M356.71,228.6c-2.03-.49-68.06-16.59-78.03-16.54-10.14,.05-21.51,11-26.45,24.53,4.39-16.49,14.03-29.67,31.59-26.16,26.91,5.36,51.36,11.7,72.89,18.18Z"/>
        </g>
        <g>
          <g>
            <path class="cls-17" d="M353.01,332.3c-5.4,5.55-25.51,13.93-25.51,13.93l-11.77-23.53-1.92-3.84c10.82-13.19,24.88-18.53,24.88-18.53l4.74,10.58,9.58,21.39Z"/>
            <path class="cls-14" d="M343.43,310.91c-11.17,3.35-27.7,11.79-27.7,11.79l-1.92-3.84c10.82-13.19,24.88-18.53,24.88-18.53l4.74,10.58Z"/>
          </g>
          <g>
            <g>
              <path class="cls-16" d="M294.77,376.44s23.07-9.07,26.08-12.96c3-3.89-1.67-24.71-.32-27.94,1.35-3.23,14.53,1.35,16.95-.82,2.42-2.16,9.09-10.85,12.96-11.63,3.87-.78,6.14,7.86,10.15,8.94s9.9,4.27,14.04,8.81c0,0-20.71,28.2-42.43,35.11-21.72,6.91-34.07,8.87-34.07,8.87l-3.36-8.38Z"/>
              <path class="cls-2" d="M315.9,347.44s9.94,.33,15.14,.79c0,0-10.97,5.78-13.75,7,0,0,11.38,1.43,14.32,3.12,0,0-12.74,3.13-15.2,3.87,0,0,8.73,3.73,10.83,5.83,0,0-12.28-2.6-16.62-1.57"/>
              <path class="cls-15" d="M378.54,345.47c1.1,1.24-3.06-7.17-11.61-7.31-7.8-.13-31.9,30.69-38.8,34.35-6.9,3.66-23.47,7.01-23.47,7.01,0,0-5.83-3.38-9.89-3.08-4.06,.3-10.54,10.1-5.03,17.58,0,0,24.55,2.84,46.12-9.68,21.56-12.52,42.68-38.87,42.68-38.87Z"/>
            </g>
            <g>
              <path class="cls-12" d="M289.75,394.02c.41-7.93,33.5-12.09,40.81-17.7,7.31-5.61,31.33-32.86,39.36-33.68,8.03-.83,12.36,5.5,10.25,11.42-2.11,5.92-27.22,31.21-35.94,37.39-8.72,6.18-55.1,14.64-54.48,2.58Z"/>
              <path class="cls-15" d="M371.33,365.66c-4.04-5.74-9.02-9.88-14.53-14.12-.48-.37-1.09,.35-.61,.72,5.45,4.19,10.36,8.25,14.36,13.94,.35,.49,1.12-.04,.77-.54Z"/>
            </g>
          </g>
        </g>
      </g>
      <g>
        <g>
          <path class="cls-21" d="M434.75,135.5s7.11,5.98,8.18,7.76c1.07,1.78-3.96,4.96-7.63,3.27-3.67-1.68-9.38-8.54-9.38-8.54l8.83-2.49Z"/>
          <path class="cls-22" d="M414.24,123.94s12.77,7.23,20.51,11.57c0,0,4.06-8.92-5.13-14.76-8.34-5.3-15.38,3.19-15.38,3.19Z"/>
        </g>
        <path class="cls-12" d="M427.81,144.49c.35-.28,5.43-2.03,6.76-9.12l-17.18-10.11s.96-7.69-2.22-9.63c-3.17-1.93-3.04,3.57-.89,4.68,0,0-4.08-6.54-7.04-5.22-2.96,1.31,3.49,6.24,3.49,6.24,0,0-11.22-1.2-9.85,1.98,1.37,3.18,5.37,1.78,5.37,1.78,0,0-6.26,2.5-4.52,4.74,1.74,2.24,11.04-.66,11.04-.66l15.03,15.33Z"/>
        <g>
          <path class="cls-17" d="M422.22,161.26c4.84-2.25,6.44-3.94,6.44-3.94l-.57-10.99-3.99-.04-13.62-.15s1.08,6.23,.71,10.74h0c-.08,.99-.27,1.33-.52,2.07-1.36,4.1,6.93,4.47,11.54,2.33Z"/>
          <path class="cls-12" d="M411.19,156.87h0c13.87-1.6,11.78-10.6,11.78-10.6l-12.49-.14s1.08,6.23,.71,10.74Z"/>
        </g>
        <path class="cls-17" d="M411.96,128.22s-2.39,7.5-5.14,11.7c-2.75,4.2-1.02,11.71,7.85,11.72,7.87,.01,12.23-.79,13.2-19.56,0,0-9.33-1.29-15.91-3.86Z"/>
        <path class="cls-15" d="M407.99,141.83c2.75-4.2,5.14-11.7,5.14-11.7,5.12,2,5.42,.67-1.17-1.9,0,0-2.39,7.5-5.14,11.7-1.66,2.55-1.67,6.29,.54,8.86-.95-2.31-.66-4.99,.63-6.96Z"/>
        <g>
          <path class="cls-17" d="M426.57,141.05s3.86,.05,3.31,3.53c-.55,3.47-3.5,3.9-5.2,3.43-2.09-.58,.36-6.37,1.89-6.96Z"/>
          <path class="cls-23" d="M424.99,146.47c.46,.45,1.45,1.2,1.84-.13,.08-.26-.03-.63-.07-.88-.1-.66-.31-1.3-.44-1.95-.08-.41-.37-1.29,.07-1.58,.56-.37,1.32,.63,1.59,.96,.57,.71,.92,1.53,1.11,2.42,.05,.24-.32,.34-.37,.1-.09-.43-1.32-3.71-2.17-2.95-.2,.18,.35,1.82,.42,2.1,.12,.5,.24,1.03,.25,1.54,0,1.67-1.55,1.57-2.49,.64-.18-.17,.09-.44,.27-.27Z"/>
        </g>
        <g>
          <path class="cls-20" d="M427.06,137.2s4.42,3.15,4.94,4.03c.52,.88-1.81,4.52-2.99,5.5l-5.37-3.36,3.43-6.18Z"/>
          <path class="cls-15" d="M427.06,137.2c.42-1.64,.02-3.16-1.66-4.44-1.68-1.29-8.81-3.93-8.81-3.93,0,0-7.2-2.43-9.32-2.49-2.12-.06-3.38,.87-4.09,2.41-.71,1.53-2.35,6.48-1.27,8.07s5.35,3.16,10.13,4.85c4.78,1.69,9.08,3.16,10.92,2.6,1.84-.56,3.68-5.43,4.09-7.07Z"/>
          <path class="cls-12" d="M425.86,137.22c.33-1.35-.07-2.63-1.62-3.75-1.55-1.12-8.05-3.51-8.05-3.51,0,0-6.56-2.23-8.47-2.34-1.91-.11-3.02,.63-3.62,1.89-.6,1.26-1.94,5.33-.92,6.68s4.91,2.78,9.27,4.32c4.35,1.54,8.28,2.88,9.92,2.47,1.65-.41,3.16-4.42,3.49-5.77Z"/>
          <path class="cls-16" d="M414.8,135.77l-2.24-.72c-.33-.11-.52-.46-.41-.8h0c.11-.33,.46-.52,.8-.41l2.24,.72c.33,.11,.52,.46,.41,.8h0c-.11,.33-.46,.52-.8,.41Z"/>
          <path class="cls-10" d="M415.88,130.82s-6.03-2.05-7.77-2.19c-1.74-.14-2.74,.46-3.25,1.51-.51,1.05-1.63,4.47-.66,5.64,.96,1.17,4.54,2.48,8.54,3.9"/>
          <path class="cls-10" d="M415.88,130.82s5.98,2.2,7.42,3.18c1.44,.99,1.84,2.08,1.57,3.22-.26,1.14-1.55,4.5-3.03,4.8s-5.09-.93-9.09-2.35"/>
        </g>
      </g>
    </g>
    <g>
      <path class="cls-8" d="M464.26,134.37s43.52,9.51,59.03,31.02v-45.24c-15.51-21.51-59.03-31.02-59.03-31.02v45.24Z"/>
      <path class="cls-3" d="M509.94,124.46c-15.48-11.96-40.15-17.35-40.15-17.35"/>
      <path class="cls-3" d="M489.66,127.61c-10.68-4.28-19.88-6.29-19.88-6.29"/>
    </g>
    <path class="cls-7" d="M395.39,247.12s62.67-20.61,85-52.28v60.7c-22.33,31.66-85,52.28-85,52.28v-60.7Z"/>
    <g>
      <path class="cls-8" d="M495.79,79.8s53.5,11.68,72.57,38.13V62.31c-19.06-26.44-72.57-38.13-72.57-38.13v55.62Z"/>
      <g>
        <path class="cls-20" d="M564.61,68.84c0,1.87-1.08,3.39-2.41,3.39s-2.41-1.52-2.41-3.39,1.08-3.39,2.41-3.39,2.41,1.52,2.41,3.39Z"/>
        <path class="cls-13" d="M564.61,81.3c0,1.87-1.08,3.39-2.41,3.39s-2.41-1.52-2.41-3.39,1.08-3.39,2.41-3.39,2.41,1.52,2.41,3.39Z"/>
        <path class="cls-15" d="M564.61,93.76c0,1.87-1.08,3.39-2.41,3.39s-2.41-1.52-2.41-3.39,1.08-3.39,2.41-3.39,2.41,1.52,2.41,3.39Z"/>
      </g>
      <g>
        <path class="cls-6" d="M542.21,80.25c-16.42-12.05-41.33-17.49-41.33-17.49"/>
        <path class="cls-9" d="M546.85,84.06c-2.74-2.55-5.91-4.85-9.28-6.92"/>
      </g>
      <g>
        <path class="cls-6" d="M542.21,58.95c-16.42-12.05-41.33-17.49-41.33-17.49"/>
        <path class="cls-9" d="M546.85,62.76c-2.74-2.55-5.91-4.85-9.28-6.92"/>
      </g>
    </g>
    <g>
      <ellipse class="cls-1" cx="421.44" cy="268.45" rx="12.94" ry="20.55"/>
      <ellipse class="cls-4" cx="421.44" cy="268.45" rx="6.47" ry="10.28"/>
    </g>
    <g>
      <path class="cls-8" d="M252.13,128.21s-43.09,4.07-58.45,23.47v-44.79c15.35-19.4,58.45-23.47,58.45-23.47v44.79Z"/>
      <g>
        <rect class="cls-16" x="222.91" y="100.04" width="23.34" height="6.14"/>
        <rect class="cls-16" x="234.58" y="114.85" width="11.67" height="6.14"/>
      </g>
    </g>
    <g>
      <polygon class="cls-12" points="447.44 269.28 443.08 272.07 445.35 264.73 449.71 261.94 447.44 269.28"/>
      <polygon class="cls-12" points="475.06 251.6 452.42 266.09 454.7 258.75 477.33 244.26 475.06 251.6"/>
      <line class="cls-5" x1="464.88" y1="255.17" x2="446.39" y2="267.01"/>
    </g>
    <g>
      <path class="cls-8" d="M242.36,228.46s-54.81,18.03-74.34,45.72v-53.09c19.53-27.69,74.34-45.72,74.34-45.72v53.09Z"/>
      <path class="cls-8" d="M242.36,268.61s-54.81-18.03-74.34-45.72v53.09c19.53,27.69,74.34,45.72,74.34,45.72v-53.09Z"/>
      <g>
        <polygon class="cls-13" points="176.32 265.22 175.8 262.97 234.07 284.74 234.58 286.98 176.32 265.22"/>
        <polygon class="cls-13" points="234.08 302.17 234.59 300.58 176.3 247.79 175.79 249.38 234.08 302.17"/>
      </g>
      <g>
        <rect class="cls-19" x="221.34" y="189.75" width="5.81" height="5.81"/>
        <rect class="cls-19" x="230.29" y="198.7" width="5.81" height="5.81"/>
      </g>
    </g>
    <polyline class="cls-8" points="265.97 473.11 440.05 371.45 440.05 26.92 381.34 61.21"/>
    <g>
      <polygon class="cls-13" points="702.27 413.06 710.22 413.06 716.02 405.11 708.07 405.11 702.27 413.06"/>
      <polygon class="cls-13" points="564.4 413.06 677.84 413.06 683.64 405.11 570.2 405.11 564.4 413.06"/>
      <line class="cls-7" x1="603.12" y1="409.08" x2="709.14" y2="409.08"/>
    </g>
    <g>
      <g>
        <rect class="cls-15" x="108.16" y="52.57" width="4.5" height="4.26"/>
        <rect class="cls-15" x="101.22" y="59.13" width="4.5" height="4.26"/>
      </g>
      <g>
        <rect class="cls-15" x="647.04" y="52.57" width="4.5" height="4.26"/>
        <rect class="cls-15" x="653.98" y="59.13" width="4.5" height="4.26"/>
      </g>
      <g>
        <rect class="cls-15" x="647.04" y="463.79" width="4.5" height="4.26"/>
        <rect class="cls-15" x="653.98" y="457.23" width="4.5" height="4.26"/>
      </g>
      <g>
        <rect class="cls-15" x="108.16" y="463.79" width="4.5" height="4.26"/>
        <rect class="cls-15" x="101.22" y="457.23" width="4.5" height="4.26"/>
      </g>
    </g>
    <g>
      <polyline class="cls-8" points="264.69 54.72 290.06 80.88 331.01 81.66"/>
      <rect class="cls-15" x="236.15" y="48.96" width="29.89" height="6.85" transform="translate(.84 -3.86) rotate(.88)"/>
    </g>
    <g>
      <g>
        <polygon class="cls-15" points="42.2 141.67 49.49 141.67 45.84 146.71 42.2 151.76 38.56 146.71 34.91 141.67 42.2 141.67"/>
        <polygon class="cls-20" points="42.2 156.92 49.49 156.92 45.84 161.97 42.2 167.02 38.56 161.97 34.91 156.92 42.2 156.92"/>
      </g>
      <g>
        <polygon class="cls-16" points="715.54 189.75 715.54 197.04 710.49 193.4 705.44 189.75 710.49 186.11 715.54 182.46 715.54 189.75"/>
        <polygon class="cls-22" points="700.29 189.75 700.29 197.04 695.24 193.4 690.19 189.75 695.24 186.11 700.29 182.46 700.29 189.75"/>
      </g>
    </g>
    <g>
      <g>
        <rect class="cls-13" x="640.58" y="251.32" width="24.87" height="11.75"/>
        <rect class="cls-13" x="659.52" y="262.64" width="17.77" height="5.82"/>
      </g>
      <rect class="cls-15" x="677.29" y="280.96" width="36.27" height="12.86"/>
    </g>
    <g>
      <rect class="cls-22" x="163.66" y="60.68" width="27.55" height="9.03"/>
      <rect class="cls-22" x="149.5" y="79.17" width="13.77" height="9.03"/>
    </g>
  </g>
</svg>