<?xml version="1.0" encoding="UTF-8"?>
<svg id="Layer_2" data-name="Layer 2" xmlns="http://www.w3.org/2000/svg" viewBox="0 0 750 500">
  <defs>
    <style>
      .cls-1 {
        stroke-width: 14px;
      }

      .cls-1, .cls-2, .cls-3, .cls-4, .cls-5, .cls-6, .cls-7, .cls-8, .cls-9, .cls-10, .cls-11, .cls-12 {
        fill: none;
        stroke-miterlimit: 10;
      }

      .cls-1, .cls-9 {
        stroke: #fff;
      }

      .cls-13 {
        fill: #00152c;
      }

      .cls-14 {
        fill: #eae5f9;
      }

      .cls-15 {
        fill: #ee17e4;
      }

      .cls-16 {
        fill: #fff;
      }

      .cls-17 {
        fill: #fe2b99;
      }

      .cls-18 {
        fill: #ff9199;
      }

      .cls-19 {
        fill: #820bb7;
      }

      .cls-20 {
        fill: #750cff;
      }

      .cls-21 {
        fill: #c1ff44;
      }

      .cls-22 {
        fill: #311457;
      }

      .cls-23 {
        fill: #c3ff44;
      }

      .cls-24 {
        fill: #7617fd;
      }

      .cls-2 {
        stroke-width: 4px;
      }

      .cls-2, .cls-7 {
        stroke: #ee17e4;
      }

      .cls-3, .cls-11 {
        stroke: #1e2c2c;
      }

      .cls-4, .cls-12 {
        stroke: #00152c;
      }

      .cls-5 {
        stroke: #c1ff44;
      }

      .cls-6, .cls-10 {
        stroke: #750cff;
      }

      .cls-8 {
        stroke: #fe2b99;
      }

      .cls-10 {
        stroke-width: 8px;
      }

      .cls-11, .cls-12 {
        stroke-width: .5px;
      }
    </style>
  </defs>
  <g id="BACKGROUND">
    <rect class="cls-19" width="750" height="500"/>
  </g>
  <g id="OBJECT">
    <circle class="cls-20" cx="375" cy="250.01" r="203.87"/>
    <g>
      <polygon class="cls-13" points="588.08 77.52 414.95 252.04 471.79 252.04 644.91 77.52 588.08 77.52"/>
      <polygon class="cls-13" points="620.71 129.69 447.59 304.21 504.42 304.21 620.71 186.98 620.71 129.69"/>
      <polygon class="cls-13" points="620.71 213.71 447.59 388.24 471.79 388.24 620.71 238.11 620.71 213.71"/>
      <polygon class="cls-13" points="200.2 195.27 354.22 41.25 527.84 41.25 502.96 66.12 420.02 66.12 200.2 285.94 200.2 195.27"/>
      <polygon class="cls-13" points="513.44 55.67 488.39 80.72 505.22 80.72 530.27 55.67 513.44 55.67"/>
    </g>
    <path class="cls-5" d="M375.01,159.32c-42.19,3.02-70.89,14.34-74.36,32.49"/>
    <g>
      <g>
        <path class="cls-13" d="M450.95,356.57s-.04,46.28-7.43,62.75c-1.21,2.7-7.77,13.79-16.23,27.78-16.69,4.42-34.21,6.77-52.29,6.77-22.31,0-43.77-3.58-63.86-10.2l26.69-36.75-51.28,26.82c-33.86-16.33-62.53-41.76-82.82-73.1l105.29-45.05,141.93,40.98Z"/>
        <g>
          <path class="cls-9" d="M437.99,350.51s-.65,41.71-6,56.4c-5.35,14.69-19.71,43.55-19.71,43.55"/>
          <path class="cls-9" d="M268.94,424.14s57.75-29.35,83.07-39.41"/>
          <path class="cls-9" d="M337.83,406.92s11.01-14.5,14.18-22.19c3.16-7.69-8.91-37.11-11.97-41.39-3.06-4.28-1.69,15.7,0,21.53"/>
        </g>
      </g>
      <g>
        <path class="cls-16" d="M316.95,296.61s-10.86,11.54-15.48,18c-4.62,6.46,120.79,46.37,152.27,47.29,0,0-.06-12.39,6.37-24.66,0,0-133-41.28-143.16-40.63Z"/>
        <path class="cls-17" d="M578.99,331.9c-.1,.6-.2,1.19-.31,1.79-3.97,21.32-15.24,41.37-37.25,65.38-16.53,18.02-33.24,17.54-33.24,17.54l-41.4-24.93s74.56-87.03,24.08-131.96c0,0,1.54,34.13-5.85,53.52-7.39,19.39-24.9,24.01-24.9,24.01,0,0-135.78-28.63-143.16-40.63-5.23-8.51-9.23-10.43,23.09-46.92,0,0-24.35,11.65-53.42,13.96-8.9,.71-18.25,.54-27.49-1.11-8.41-1.5-17.79-5.18-27.29-10.31-31.58-17.03-64.69-50.09-69.66-72.8l38.09-29.78s16.39-1.47,23.77,6.31c7.39,7.77,35.72,35.42,48.02,39.17,19.96,6.1,67.06-16.99,92.91-30.84,25.85-13.85,47.48-17.31,59.72-15.37l29.06,4.62s97.35,26.94,121.47,121.79c.22,.83,.43,1.67,.62,2.52,1.43,5.98,2.56,12.23,3.36,18.76,1.55,12.64,1.65,24.16-.22,35.3Z"/>
        <path class="cls-16" d="M414.1,148.42s2.84,18.03,22.26,19.87c19.41,1.85,24.52-12.25,24.52-12.25l-7.13-2.51-29.06-4.62s-6.43-.99-10.58-.5Z"/>
        <path class="cls-16" d="M431.65,153.17s-11.28,42.9-30.67,78.22l15.73,6.26s24.96-54.22,25.74-81.23l-10.8-3.26Z"/>
        <polygon class="cls-16" points="376.74 216 455.44 239.55 448.03 256.17 369.12 229.16 376.74 216"/>
        <path class="cls-16" d="M466.78,391.68s28.78,4.62,41.4,24.93c0,0-16.19,24.25-23.63,28.26-6.23,3.36-41.55-22.95-37.94-28.26,4.64-6.81,13.65-17.31,20.17-24.93Z"/>
        <path class="cls-13" d="M448.08,416.61c3.48-3.68,39.71,22.17,36.94,26.09-2.98,4.22-41.09-21.71-36.94-26.09Z"/>
        <path class="cls-16" d="M200.26,149.65s-14.42,25.34-37.87,30.03c0,0-17.03-23.67-18.18-32.04-.96-7.02,36.07-30.87,39.77-25.62,4.76,6.73,11.42,18.86,16.28,27.63Z"/>
        <path class="cls-13" d="M183.47,123.39c2.22,4.55-34.69,29.41-37.39,25.44-2.91-4.27,34.74-30.87,37.39-25.44Z"/>
        <path class="cls-4" d="M340.04,249.69s27.79-34.64,34.4-64.16c5.69-25.41-15.93,11.77-19.62,22.39"/>
        <path class="cls-4" d="M467.01,182.3s-8.57,16.47-1.18,39.55c7.39,23.09,14.88,29.24,25.04,37.86"/>
        <path class="cls-9" d="M506.25,283.81s1.76,9.71,1.93,16.84c.08,3.41,21.77,16.01,22.08,22.78s-16.62-9.85-20.32-12c-3.69-2.15,0,13.62,0,13.62"/>
        <path class="cls-21" d="M578.99,331.9c-.1,.6-.2,1.19-.31,1.79-9.29-3.33-21.08-10.87-21.72-27.78-.62-16.36,9.61-25.66,18.27-30.58,.22,.83,.43,1.67,.62,2.52,1.43,5.98,2.56,12.23,3.36,18.76,1.55,12.64,1.65,24.16-.22,35.3Z"/>
        <path class="cls-21" d="M286.61,263.65c-8.9,.71-18.25,.54-27.49-1.11-8.41-1.5-17.79-5.18-27.29-10.31,6.43-7.56,18.06-16.47,34.54-10.56,12.25,4.39,17.81,13.48,20.24,21.98Z"/>
        <rect class="cls-16" x="525.18" y="200.57" width="6" height="30.86" transform="translate(-17.21 383.88) rotate(-39.35)"/>
        <line class="cls-4" x1="520.14" y1="206.77" x2="536.36" y2="225.95"/>
        <path class="cls-9" d="M272.06,195.13s3.03,.25,5.8,3.02c2.77,2.77,19.08,18.47,22.16,17.85,3.08-.62-3.05-5.84-9.85-12.93"/>
        <path class="cls-9" d="M446.36,337.9l9.08-41.29c-9.95-10.82-14.37-29.35-14.37-29.35l-65.69-22.13s-20.17,15.37-35.35,18.92c0,0-13.27,21.65-19.8,35.29"/>
        <path class="cls-3" d="M127.96,124.64s2.44,4.2,4.23,5.95c1.79,1.75,3.72-3,2.8-7.92"/>
      </g>
      <g>
        <path class="cls-13" d="M422.26,105.6s-10.78,1.63-15.01-7.91c0,0,6.23,0,8.85-1.54,0,0-4.08-6.77-1.34-14.47,0,0,7.26,8.3,11.57,8.61,0,0-.22-2.45,.09-4.92,0,0,8.82,8.02,19.19,8.32,10.36,.3,13.13,2.38,12.82,7.04-.31,4.66-2.15,28.66-9.54,29.28-7.39,.62-37.21-19.1-37.21-19.1,0,0,7.66,.44,10.58-5.31Z"/>
        <path class="cls-18" d="M429.07,122.09l-6.8,26.08s17.02,13.39,29.06,4.62v-33.66l-22.25,2.96Z"/>
        <path class="cls-13" d="M422.26,148.17s28.16,2.73,22.62-28.19l-15.82,2.11-6.8,26.08Z"/>
        <path class="cls-18" d="M450.04,121.67c-1.27,10.15-16.76,16.44-25.18,15.81h-.02c-2.75-.2-4.74-1.16-5.23-2.95-1.58-5.7,4.15-21.4,6.75-28.03,.73-1.88,1.21-3.03,1.21-3.03,3.85-3.64,21.04-1.29,22.62,.28,1.58,1.56,1.55,4.45-.15,17.92Z"/>
        <path class="cls-16" d="M424.84,137.48c-2.75-.2-4.74-1.16-5.23-2.95-1.58-5.7,4.15-21.4,6.75-28.03l1.45,.1s-6.93,21.38-6.7,25.87c.2,3.87,2.97,4.83,3.73,5.01Z"/>
        <path class="cls-18" d="M449.34,113.61s3.24-4.54,6.19-3.96c2.95,.58,1.22,8.91-.37,11.4-1.45,2.27-5.46,1.58-6.06-.19-.6-1.76,.24-7.24,.24-7.24Z"/>
        <rect class="cls-13" x="420.55" y="107.14" width="29.55" height="18.47" rx="5.53" ry="5.53" transform="translate(9.11 -29.87) rotate(3.97)"/>
        <rect class="cls-16" x="413.03" y="106.62" width="29.55" height="18.47" rx="5.53" ry="5.53" transform="translate(9.05 -29.35) rotate(3.97)"/>
        <rect class="cls-13" x="407.49" y="106.23" width="29.55" height="18.47" rx="5.53" ry="5.53" transform="translate(9.01 -28.97) rotate(3.97)"/>
        <path class="cls-16" d="M414.82,124.21c-3.05-.21-5.34-2.85-5.13-5.9l.51-7.39c.21-3.05,2.85-5.34,5.9-5.13l-2.42-.17c-3.05-.21-5.69,2.09-5.9,5.13l-.51,7.39c-.21,3.05,2.09,5.69,5.13,5.9l2.42,.17Z"/>
        <path class="cls-12" d="M437.67,107.28s2.37,3.02,1.83,9.09c-.62,6.94-3.11,9.33-3.11,9.33"/>
        <path class="cls-13" d="M439.18,110.91l-.98,.73s.45,5.14-.47,9.3l.63,1.15s2.05-5.73,.83-11.18Z"/>
        <path class="cls-22" d="M454.5,105.85l4.54,1.93s-.25,3.54-.59,4.54l-5.88-3.24,1.92-3.24Z"/>
        <path class="cls-14" d="M456.66,106.17l-1.73,4.74s-14.09-8.36-22.81-4.02l-11.6-.81-1.3-.09s3.01-4.69,4.35-6.19c.24-.27,.97-.53,2.09-.73h0c5.23-.93,18.93-.51,30.99,7.09Z"/>
        <polygon class="cls-16" points="423.99 106.92 429.23 107.35 423.13 124.01 417.92 123.65 423.99 106.92"/>
        <rect class="cls-21" x="444.22" y="115.26" width="1.08" height="3.54" rx=".34" ry=".34" transform="translate(9.15 -30.45) rotate(3.96)"/>
        <path class="cls-11" d="M455.81,113.24c-.17-.67-1.56-1.85-1.7-1.8-.1,.03-1.89,4.15-2.27,6.2,.53,.11,1.96-.32,2.7-.87,.13,.94-.86,3.69-1.49,3.48-.36-.12-1.16-.52-1.67-1.15"/>
        <path class="cls-16" d="M425.67,99.08c-2.13,2.07-5.11,6.94-5.11,6.94l-.04,.07-1.3-.09s3.01-4.69,4.35-6.19c.24-.27,.97-.53,2.09-.73h0Z"/>
        <g>
          <path class="cls-22" d="M454.92,107.61c-.23,.8-.93,1.3-1.56,1.11-.63-.18-.96-.97-.73-1.77,.23-.8,.93-1.3,1.56-1.11,.63,.18,.96,.97,.73,1.77Z"/>
          <path class="cls-15" d="M455.42,107.76c-.23,.8-.93,1.3-1.56,1.11-.63-.18-.96-.97-.73-1.77,.23-.8,.93-1.3,1.56-1.11,.63,.18,.96,.97,.73,1.77Z"/>
          <path class="cls-16" d="M454.53,106.53s-.06-.01-.09-.01c.34,.16,.5,.61,.37,1.07-.13,.46-.51,.75-.88,.71,.03,.01,.06,.03,.09,.04,.4,.11,.83-.2,.97-.7s-.06-.99-.46-1.11Z"/>
        </g>
      </g>
      <g>
        <path class="cls-13" d="M437,439.34s-11,13.59-11,19.75,8.77,2.46,11-1.54c2.23-4,0-18.21,0-18.21Z"/>
        <path class="cls-18" d="M457.1,419.32s-19.4,16.36-20.87,21.64c-1.47,5.28-5.38,26.97-2.19,29.77,3.19,2.8,5.38-3.01,5.38-3.01,0,0-1.52,8.21,2.23,7.73,3.67-.47,6.38-8.72,6.38-8.72,0,0,.47,5.82,3.23,6.14,4.6,.53,6.18-5.07,6.18-5.07,0,0,4.78,3.5,5.32-.02s1.24-13.29,3.58-14.78c17.85-11.36,15.05-16.1,15.05-16.1,0,0-9.21-9.99-24.28-17.6Z"/>
      </g>
      <g>
        <path class="cls-18" d="M138.27,135.05c8.11,9.91,16.75,11.29,16.75,11.29,0,0,13.32-6.68,25.1-17.61,0,0-14.77-21.6-19.85-23.66-5.08-2.06-14.1-12.38-30.78-14.65-4.51-.62-6.51,4.14,.73,7.37,5.31,2.37,10.66,8.95,10.66,8.95,0,0-9.34-2.98-10.47-.31-1.43,3.41,.97,7.51,.97,7.51,0,0-3.91-.28-4.54,2.42-1.06,4.51,1.1,8.28,1.1,8.28,0,0-2.93,1.1-2.92,4.87,0,2.11,9.05,12,12.22,11.7,3.17-.31,1.01-6.16,1.01-6.16Z"/>
        <path class="cls-4" d="M160.27,105.07s-10-4.34-6.61,3.97c2.73,6.69,3.89,3.13,4.92,12.23s5.39,11.47,5.39,11.47"/>
        <path class="cls-4" d="M131.39,113.94s3.03,10.03,5.49,10.65c2.46,.62,4.08-4.57,1.92-11.16,0,0,2.31-.23,4.31,0"/>
        <path class="cls-4" d="M127.96,124.64s4.31,9.08,7.27,8.1c2.96-.98,2.92-4.46,1.66-8.16"/>
      </g>
    </g>
    <g>
      <g>
        <ellipse class="cls-5" cx="117.75" cy="80.92" rx="48.17" ry="25.93" transform="translate(-22 110.64) rotate(-46.5)"/>
        <path class="cls-5" d="M221.46,153.81c9.57-3.25,18.15-2.75,23.42,2.25,10.39,9.86,3.97,33.49-14.35,52.79-18.31,19.3-41.58,26.95-51.97,17.09-5.07-4.81-6.14-12.9-3.77-22.16"/>
        <line class="cls-5" x1="84.6" y1="115.86" x2="178.57" y2="225.95"/>
        <line class="cls-5" x1="150.91" y1="45.98" x2="244.88" y2="156.06"/>
        <ellipse class="cls-10" cx="117.75" cy="80.92" rx="21.51" ry="11.58" transform="translate(-22 110.64) rotate(-46.5)"/>
      </g>
      <g>
        <rect class="cls-15" x="184.4" y="73.78" width="7.05" height="65.79" transform="translate(-23.33 152.14) rotate(-41.73)"/>
        <rect class="cls-15" x="211.43" y="134.24" width="7.05" height="5.5" transform="translate(-36.65 177.82) rotate(-41.73)"/>
      </g>
    </g>
    <rect class="cls-8" x="400.52" y="101.11" width="48.33" height="30.21" rx="5.53" ry="5.53" transform="translate(9.07 -29.14) rotate(3.97)"/>
    <g>
      <rect class="cls-15" x="404.7" y="115" width="39.45" height="1.3" transform="translate(-13.9 78.49) rotate(-10.4)"/>
      <rect class="cls-15" x="423.77" y="95.93" width="1.3" height="39.45" transform="translate(174.32 477.53) rotate(-70.59)"/>
    </g>
    <g>
      <g>
        <rect class="cls-16" x="387.4" y="126.73" width="3.63" height="3.63" transform="translate(14.21 -36.95) rotate(5.54)"/>
        <rect class="cls-16" x="392.05" y="132.38" width="3.63" height="3.63" transform="translate(14.78 -37.37) rotate(5.54)"/>
      </g>
      <g>
        <rect class="cls-16" x="396.19" y="89.68" width="3.63" height="3.63" transform="translate(785.33 220.96) rotate(-174.47)"/>
        <rect class="cls-16" x="390.54" y="94.34" width="3.63" height="3.63" transform="translate(773.61 229.7) rotate(-174.47)"/>
      </g>
      <g>
        <rect class="cls-16" x="455.57" y="133.33" width="3.63" height="3.63" transform="translate(899.6 313.79) rotate(-174.46)"/>
        <rect class="cls-16" x="449.92" y="137.99" width="3.63" height="3.63" transform="translate(887.88 322.53) rotate(-174.46)"/>
      </g>
      <g>
        <rect class="cls-16" x="454.06" y="95.29" width="3.63" height="3.63" transform="translate(11.49 -43.51) rotate(5.53)"/>
        <rect class="cls-16" x="458.71" y="100.94" width="3.63" height="3.63" transform="translate(12.06 -43.93) rotate(5.53)"/>
      </g>
    </g>
    <g>
      <g>
        <path class="cls-1" d="M320.27,89.04c27.06,5.04,44.91,31.07,39.87,58.13s-31.07,44.91-58.13,39.87"/>
        <path class="cls-2" d="M316.89,107.21c17.03,3.17,28.26,19.55,25.09,36.58-3.17,17.03-19.55,28.26-36.58,25.09"/>
      </g>
      <path class="cls-5" d="M300.65,191.81c-6.15,32.2,69.5,73.69,168.97,92.68l26.09-136.65c-99.47-18.99-175.12-60.49-168.97-92.68,5.1-26.7,64.85-38.62,141.83-31.08l-13.57,71.05"/>
      <line class="cls-5" x1="326.74" y1="55.16" x2="300.65" y2="191.81"/>
    </g>
    <g>
      <rect class="cls-21" x="377.98" y="143.48" width="4.85" height="4.85" transform="translate(45.46 -86.07) rotate(13.72)"/>
      <rect class="cls-21" x="477.63" y="167.81" width="4.85" height="4.85" transform="translate(54.08 -109) rotate(13.72)"/>
      <rect class="cls-21" x="396.24" y="155.79" width="69.14" height="4.85" transform="translate(49.82 -97.67) rotate(13.72)"/>
      <line class="cls-5" x1="480.05" y1="170.23" x2="380.41" y2="145.9"/>
    </g>
    <g>
      <polygon class="cls-13" points="491.98 251.82 503.19 203.63 506.73 201.33 507.58 197.69 401.07 172.91 400.22 176.56 402.38 180.19 391.18 228.38 387.63 230.68 386.79 234.32 493.3 259.09 494.15 255.45 491.98 251.82"/>
      <rect class="cls-15" x="452.61" y="239.41" width="2.93" height="2.93" transform="translate(66.37 -96.59) rotate(13.09)"/>
      <rect class="cls-15" x="459.54" y="241.02" width="2.93" height="2.93" transform="translate(66.91 -98.12) rotate(13.09)"/>
      <rect class="cls-23" x="466.47" y="242.64" width="2.93" height="2.93" transform="translate(67.45 -99.65) rotate(13.09)"/>
      <rect class="cls-15" x="473.4" y="244.25" width="2.93" height="2.93" transform="translate(68 -101.18) rotate(13.09)"/>
      <polygon class="cls-9" points="477.25 225.75 482.97 201.13 409.47 184.03 401.89 216.64 467.41 231.88 477.25 225.75"/>
      <line class="cls-9" x1="487.62" y1="212.09" x2="496.16" y2="206.77"/>
      <line class="cls-9" x1="486.01" y1="219.02" x2="494.55" y2="213.7"/>
      <line class="cls-9" x1="484.4" y1="225.95" x2="492.94" y2="220.63"/>
      <line class="cls-9" x1="482.79" y1="232.88" x2="491.33" y2="227.56"/>
      <rect class="cls-23" x="389.25" y="225.01" width="37.94" height="1.81" transform="translate(61.79 -86.6) rotate(13.09)"/>
      <rect class="cls-23" x="430.47" y="230.44" width="2.23" height="1.81" transform="translate(63.62 -91.74) rotate(13.09)"/>
    </g>
    <g>
      <path class="cls-5" d="M566.67,365.62c10.85,8.66,16.44,18.2,13.77,25.78-4.58,12.99-31.68,15.27-60.54,5.11-28.86-10.17-48.55-28.94-43.97-41.92,2.29-6.49,10.21-10.31,21.16-11.24"/>
      <path class="cls-5" d="M497.29,431.67c4.38,5.67,6.04,11.17,3.96,15.21-4.27,8.28-22.64,7.31-41.04-2.17-18.4-9.48-29.86-23.88-25.59-32.16,2.48-4.82,9.75-6.5,19.02-5.2"/>
    </g>
    <g>
      <rect class="cls-13" x="551.04" y="376.54" width="16.87" height="4.44"/>
      <rect class="cls-13" x="559.47" y="387.24" width="8.43" height="4.44"/>
    </g>
    <g>
      <g>
        <polyline class="cls-6" points="496.21 331.78 487.94 331.78 546.81 218.88 555.08 218.88"/>
        <polyline class="cls-6" points="630.11 331.78 638.39 331.78 697.26 218.88 688.98 218.88"/>
      </g>
      <polygon class="cls-24" points="572.04 304.65 550.98 304.65 614.51 247.22 635.57 247.22 572.04 304.65"/>
      <polygon class="cls-16" points="567.48 269.66 551.68 269.66 583.45 240.94 599.24 240.94 567.48 269.66"/>
      <g>
        <polygon class="cls-16" points="588.76 325.01 583.49 325.01 586.24 319.74 591.5 319.74 588.76 325.01"/>
        <polygon class="cls-16" points="622.11 325.01 594.78 325.01 597.52 319.74 624.85 319.74 622.11 325.01"/>
        <line class="cls-9" x1="609.81" y1="322.38" x2="587.5" y2="322.38"/>
      </g>
      <path class="cls-21" d="M671.32,237.26c-.99,1.91-3.35,3.45-5.25,3.45s-2.65-1.55-1.65-3.45,3.35-3.45,5.25-3.45,2.65,1.55,1.65,3.45Z"/>
      <ellipse class="cls-21" cx="658.46" cy="255.3" rx="4.47" ry="2.67" transform="translate(-18.67 455.9) rotate(-37.69)"/>
      <path class="cls-15" d="M652.5,273.35c-.99,1.91-3.35,3.45-5.25,3.45s-2.65-1.55-1.65-3.45c.99-1.91,3.35-3.45,5.25-3.45s2.65,1.55,1.65,3.45Z"/>
    </g>
    <g>
      <rect class="cls-13" x="504.46" y="92.03" width="25.48" height="25.48"/>
      <rect class="cls-17" x="509.4" y="87.08" width="25.48" height="25.48"/>
      <g>
        <rect class="cls-16" x="511.52" y="97.64" width="21.25" height="4.35" transform="translate(82.35 398.45) rotate(-45)"/>
        <rect class="cls-16" x="519.96" y="89.2" width="4.35" height="21.25" transform="translate(82.35 398.45) rotate(-45)"/>
      </g>
    </g>
    <g>
      <g>
        <line class="cls-9" x1="127.96" y1="300.97" x2="342.51" y2="300.97"/>
        <polygon class="cls-16" points="133.49 312.31 116.75 312.31 128.09 289.63 144.84 289.63 133.49 312.31"/>
      </g>
      <g>
        <polyline class="cls-9" points="223.83 48.1 249.6 73.87 300.3 73.87"/>
        <rect class="cls-16" x="195.26" y="42.56" width="29.89" height="6.85"/>
      </g>
      <g>
        <polyline class="cls-9" points="365.65 75.89 398.86 52.69 518.82 52.69"/>
        <rect class="cls-16" x="516.82" y="50.69" width="4" height="4"/>
        <rect class="cls-16" x="364.02" y="73.89" width="4" height="4"/>
        <rect class="cls-16" x="486.8" y="50.69" width="16.65" height="4"/>
      </g>
      <g>
        <rect class="cls-21" x="45.96" y="169.24" width="30.07" height="1.98" transform="translate(-102.51 92.99) rotate(-45)"/>
        <rect class="cls-21" x="60" y="155.2" width="1.98" height="30.07" transform="translate(-102.51 92.99) rotate(-45)"/>
      </g>
    </g>
    <g>
      <g>
        <circle class="cls-5" cx="578.12" cy="159.32" r="24.44"/>
        <line class="cls-7" x1="605.27" y1="132.18" x2="550.98" y2="186.47"/>
      </g>
      <g>
        <circle class="cls-5" cx="578.12" cy="73.89" r="24.44" transform="translate(117.08 430.44) rotate(-45)"/>
        <line class="cls-7" x1="605.27" y1="46.74" x2="550.98" y2="101.03"/>
      </g>
    </g>
    <g>
      <g>
        <rect class="cls-21" x="102.91" y="235.22" width="27.55" height="9.03"/>
        <rect class="cls-21" x="88.75" y="253.71" width="13.77" height="9.03"/>
        <rect class="cls-13" x="115.08" y="249.14" width="13.45" height="4.57"/>
        <rect class="cls-13" x="140.05" y="251.42" width="24.87" height="11.75"/>
        <rect class="cls-13" x="158.99" y="262.74" width="17.77" height="5.82"/>
      </g>
      <rect class="cls-21" x="620.71" y="92.03" width="42.97" height="12.74"/>
      <g>
        <rect class="cls-16" x="610.38" y="165.89" width="50.75" height="15.43" transform="translate(1271.52 347.21) rotate(180)"/>
        <rect class="cls-16" x="661.14" y="155.6" width="18.3" height="10.29" transform="translate(1340.58 321.49) rotate(180)"/>
      </g>
      <g>
        <rect class="cls-15" x="159.85" y="21.41" width="5.81" height="5.81"/>
        <rect class="cls-15" x="168.79" y="30.36" width="5.81" height="5.81"/>
      </g>
      <g>
        <polygon class="cls-15" points="207.38 422.03 186.32 422.03 234.42 378.96 255.48 378.96 207.38 422.03"/>
        <polygon class="cls-15" points="167.78 422.03 151.98 422.03 183.74 393.31 199.54 393.31 167.78 422.03"/>
      </g>
    </g>
  </g>
</svg>