<?xml version="1.0" encoding="UTF-8"?>
<svg id="Layer_2" data-name="Layer 2" xmlns="http://www.w3.org/2000/svg" viewBox="0 0 750 500.07">
  <defs>
    <style>
      .cls-1 {
        stroke-linejoin: round;
      }

      .cls-1, .cls-2, .cls-3, .cls-4, .cls-5, .cls-6, .cls-7, .cls-8 {
        fill: none;
      }

      .cls-1, .cls-3, .cls-8 {
        stroke: #00152c;
      }

      .cls-9 {
        fill: #00152c;
      }

      .cls-10 {
        fill: #ee17e4;
      }

      .cls-11 {
        fill: #ef656d;
      }

      .cls-12 {
        fill: #fff;
      }

      .cls-13 {
        fill: #fe2b99;
      }

      .cls-14 {
        fill: #ff9199;
      }

      .cls-15 {
        fill: #820bb7;
      }

      .cls-16 {
        fill: #750cff;
      }

      .cls-17 {
        fill: #c1ff44;
      }

      .cls-18 {
        fill: #115ae5;
      }

      .cls-2 {
        stroke-width: 4px;
      }

      .cls-2, .cls-3, .cls-4, .cls-5, .cls-6, .cls-7, .cls-8 {
        stroke-miterlimit: 10;
      }

      .cls-2, .cls-4 {
        stroke: #c1ff44;
      }

      .cls-5 {
        stroke: #ee17e4;
      }

      .cls-6, .cls-7 {
        stroke: #fff;
      }

      .cls-7 {
        stroke-width: 7px;
      }

      .cls-8 {
        stroke-width: .5px;
      }
    </style>
  </defs>
  <g id="BACKGROUND">
    <rect class="cls-15" width="750" height="500"/>
  </g>
  <g id="OBJECT">
    <g>
      <polygon class="cls-9" points="469.42 482.13 487.3 500.01 469.75 500.01 469.42 499.68 469.42 482.13"/>
      <polygon class="cls-9" points="469.42 428.5 540.92 500.01 523.37 500.01 469.42 446.05 469.42 428.5"/>
      <polygon class="cls-9" points="470.72 376.17 594.55 500.01 577 500.01 469.42 392.42 469.42 377.48 470.72 376.17"/>
      <polygon class="cls-9" points="497.53 349.36 648.18 500.01 630.63 500.01 488.76 358.13 497.53 349.36"/>
      <polygon class="cls-9" points="524.35 322.55 684.26 482.45 684.26 500.01 515.57 331.32 524.35 322.55"/>
      <polygon class="cls-9" points="551.16 295.73 684.26 428.82 684.26 446.37 542.39 304.51 551.16 295.73"/>
      <polygon class="cls-9" points="577.98 268.92 684.26 375.2 684.26 392.75 569.2 277.69 577.98 268.92"/>
    </g>
    <g>
      <polygon class="cls-16" points="319.69 37.65 .03 357.31 0 357.31 0 147.3 109.65 37.65 319.69 37.65"/>
      <polygon class="cls-10" points="640.36 37.65 320.7 357.31 110.66 357.31 430.32 37.65 640.36 37.65"/>
      <polygon class="cls-16" points="750 147.3 750 357.31 749.98 357.31 590.65 197.99 695.67 92.97 750 147.3"/>
    </g>
    <g>
      <g>
        <polygon class="cls-12" points="138.96 208.65 128.43 207.58 128.79 204.46 139.32 205.53 138.96 208.65"/>
        <polygon class="cls-12" points="133.39 230.68 136.31 205.22 139.32 205.53 136.4 230.99 133.39 230.68"/>
      </g>
      <g>
        <polygon class="cls-12" points="242.28 219.14 231.74 218.07 232.1 214.95 242.63 216.02 242.28 219.14"/>
        <polygon class="cls-12" points="236.71 241.17 239.62 215.71 242.63 216.02 239.71 241.48 236.71 241.17"/>
      </g>
      <g>
        <polygon class="cls-12" points="156.51 210.43 145.98 209.36 146.34 206.24 156.87 207.31 156.51 210.43"/>
        <polygon class="cls-12" points="150.94 232.46 153.86 207.01 156.87 207.31 153.95 232.77 150.94 232.46"/>
      </g>
      <g>
        <polygon class="cls-12" points="174.07 212.21 163.54 211.14 163.89 208.02 174.42 209.09 174.07 212.21"/>
        <polygon class="cls-12" points="168.5 234.25 171.42 208.79 174.42 209.09 171.51 234.55 168.5 234.25"/>
      </g>
      <g>
        <polygon class="cls-12" points="121.41 206.86 103.1 205.01 103.46 201.89 121.76 203.75 121.41 206.86"/>
        <polygon class="cls-12" points="100.54 227.35 103.46 201.89 106.47 202.19 103.55 227.65 100.54 227.35"/>
        <polygon class="cls-12" points="115.84 228.9 118.75 203.44 121.76 203.75 118.84 229.2 115.84 228.9"/>
        <polygon class="cls-12" points="118.84 229.2 100.54 227.35 100.9 224.23 119.2 226.09 118.84 229.2"/>
      </g>
      <g>
        <polygon class="cls-12" points="199.39 214.78 181.09 212.92 181.45 209.81 199.75 211.66 199.39 214.78"/>
        <polygon class="cls-12" points="178.53 235.26 181.45 209.81 184.46 210.11 181.54 235.57 178.53 235.26"/>
        <polygon class="cls-12" points="193.82 236.82 196.74 211.36 199.75 211.66 196.83 237.12 193.82 236.82"/>
        <polygon class="cls-12" points="196.83 237.12 178.53 235.26 178.88 232.15 197.19 234 196.83 237.12"/>
      </g>
      <g>
        <polygon class="cls-12" points="224.72 217.35 206.42 215.49 206.77 212.38 225.08 214.24 224.72 217.35"/>
        <polygon class="cls-12" points="203.85 237.84 206.77 212.38 209.78 212.68 206.86 238.14 203.85 237.84"/>
        <polygon class="cls-12" points="219.15 239.39 222.07 213.93 225.08 214.24 222.16 239.69 219.15 239.39"/>
        <polygon class="cls-12" points="222.16 239.69 203.85 237.84 204.21 234.72 222.52 236.58 222.16 239.69"/>
      </g>
      <g>
        <polygon class="cls-12" points="267.6 221.71 249.3 219.85 249.65 216.73 267.96 218.59 267.6 221.71"/>
        <polygon class="cls-12" points="246.74 242.19 249.65 216.73 252.66 217.04 249.75 242.49 246.74 242.19"/>
        <polygon class="cls-12" points="262.03 243.74 264.95 218.28 267.96 218.59 265.04 244.05 262.03 243.74"/>
        <polygon class="cls-12" points="265.04 244.05 246.74 242.19 247.09 239.07 265.4 240.93 265.04 244.05"/>
      </g>
      <g>
        <polygon class="cls-12" points="285.16 223.49 274.62 222.42 274.98 219.3 285.51 220.37 285.16 223.49"/>
        <polygon class="cls-12" points="279.59 245.52 282.51 220.07 285.51 220.37 282.6 245.83 279.59 245.52"/>
      </g>
      <g>
        <polygon class="cls-12" points="171.36 248 160.83 246.94 161.18 243.82 171.72 244.89 171.36 248"/>
        <polygon class="cls-12" points="165.79 270.04 168.71 244.58 171.72 244.89 168.8 270.35 165.79 270.04"/>
      </g>
      <g>
        <polygon class="cls-12" points="110.92 241.87 100.39 240.8 100.75 237.68 111.28 238.75 110.92 241.87"/>
        <polygon class="cls-12" points="105.35 263.9 108.27 238.45 111.28 238.75 108.36 264.21 105.35 263.9"/>
      </g>
      <g>
        <polygon class="cls-12" points="128.48 243.65 117.95 242.58 118.3 239.46 128.84 240.53 128.48 243.65"/>
        <polygon class="cls-12" points="122.91 265.69 125.83 240.23 128.84 240.53 125.92 265.99 122.91 265.69"/>
      </g>
      <g>
        <polygon class="cls-12" points="153.81 246.22 135.5 244.36 135.86 241.25 154.16 243.1 153.81 246.22"/>
        <polygon class="cls-12" points="132.94 266.7 135.86 241.25 138.87 241.55 135.95 267.01 132.94 266.7"/>
        <polygon class="cls-12" points="148.23 268.26 151.15 242.8 154.16 243.1 151.24 268.56 148.23 268.26"/>
        <polygon class="cls-12" points="151.24 268.56 132.94 266.7 133.3 263.59 151.6 265.45 151.24 268.56"/>
      </g>
      <g>
        <polygon class="cls-12" points="239.57 254.93 221.26 253.07 221.62 249.95 239.92 251.81 239.57 254.93"/>
        <polygon class="cls-12" points="218.7 275.41 221.62 249.95 224.63 250.26 221.71 275.72 218.7 275.41"/>
        <polygon class="cls-12" points="234 276.96 236.92 251.51 239.92 251.81 237.01 277.27 234 276.96"/>
        <polygon class="cls-12" points="237.01 277.27 218.7 275.41 219.06 272.29 237.36 274.15 237.01 277.27"/>
      </g>
      <g>
        <polygon class="cls-12" points="196.69 250.58 178.38 248.72 178.74 245.6 197.04 247.46 196.69 250.58"/>
        <polygon class="cls-12" points="175.82 271.06 178.74 245.6 181.75 245.91 178.83 271.36 175.82 271.06"/>
        <polygon class="cls-12" points="191.12 272.61 194.03 247.15 197.04 247.46 194.12 272.92 191.12 272.61"/>
        <polygon class="cls-12" points="194.12 272.92 175.82 271.06 176.18 267.94 194.48 269.8 194.12 272.92"/>
      </g>
      <g>
        <polygon class="cls-12" points="214.24 252.36 203.71 251.29 204.07 248.17 214.6 249.24 214.24 252.36"/>
        <polygon class="cls-12" points="208.67 274.39 211.59 248.94 214.6 249.24 211.68 274.7 208.67 274.39"/>
      </g>
    </g>
    <g>
      <rect class="cls-9" x="634.24" y="261.38" width="25.48" height="25.48" transform="translate(29.89 -61.92) rotate(5.61)"/>
      <rect class="cls-13" x="639.65" y="256.94" width="25.48" height="25.48" transform="translate(29.48 -62.46) rotate(5.61)"/>
      <g>
        <rect class="cls-12" x="641.76" y="267.5" width="21.25" height="4.35" transform="translate(-22.94 475.27) rotate(-39.39)"/>
        <rect class="cls-12" x="650.21" y="259.05" width="4.35" height="21.25" transform="translate(-22.94 475.27) rotate(-39.39)"/>
      </g>
    </g>
    <g>
      <g>
        <path class="cls-13" d="M541.04,500h-241.6c7.03-38.16-.16-72.07-7.92-94.65-6.19-18-12.74-28.8-12.74-28.8-81.65,66.16-168.16,55.08-179.6-15.61-8.69-53.67,62.55-81.46,115.01-96.68,16.64-4.82,31.39-8.38,41.11-11.1,33.6-9.4,60.19-13.98,79.39-16.16,24.14-2.74,36.59-1.69,36.59-1.69,66.01,12.55,84.56,13.61,117.54,33.29,30.86,18.41,43.63,164.97,43.63,164.97,0,0,3.54,17.86,6.1,38.16h0c.63,4.99,1.2,10.11,1.65,15.15,.39,4.49,.69,8.92,.84,13.12Z"/>
        <path class="cls-18" d="M353.39,500h-16.09s2.74-58.08-10.7-84.98l-35.08-9.67c-6.19-18-12.74-28.8-12.74-28.8l-3.03-8.99,64.13,21.41s20.77,66.4,13.51,111.03Z"/>
        <g>
          <polygon class="cls-18" points="195.16 322.27 164.03 358.42 190.93 352.89 221.68 314.91 195.16 322.27"/>
          <polygon class="cls-18" points="235.82 311.77 202.8 350.67 229.7 345.14 260.45 307.16 235.82 311.77"/>
        </g>
        <path class="cls-7" d="M516.21,369.8c-2.11,.59-4.34,.91-6.64,.91-13.55,0-24.53-10.98-24.53-24.53,0-10.76,6.93-19.91,16.58-23.21"/>
        <path class="cls-9" d="M218.96,275.63l-4.77-11.37c16.64-4.82,31.39-8.38,41.11-11.1,33.6-9.4,60.19-13.98,79.39-16.16l2.61,13s-81.16,12.56-118.34,25.63Z"/>
        <path class="cls-12" d="M450.91,274.4s7.3-22.48,7.94-32.62c.63-10.14,.98-29.47-7.94-35.17-8.92-5.7-56.03-11.4-64.15-2.53-8.12,8.87-15.55,25.88-15.47,31.23,.09,6.27,63.21,47.97,79.63,39.1Z"/>
        <path class="cls-9" d="M394.07,204.54c-3.31,5.19,39.99,37.74,53.93,31.89,9.38-3.94,10.25-23.26,2.35-27.89-7.9-4.63-51.43-11.6-56.27-3.99Z"/>
        <path class="cls-12" d="M263.68,307.16s-5.12,45.39,15.1,69.38c0,0,36.84-10.35,44.87-18,6.73-6.41-12.57-68.77-20.66-66.42-10.39,3.02-27.15,10.01-39.31,15.04Z"/>
        <path class="cls-9" d="M301.72,295.28c-6,2.85,9.08,64.88,19.03,62.96,6.65-1.28-11.87-66.37-19.03-62.96Z"/>
        <path class="cls-6" d="M445.1,268.6s25.92,109.48,43.72,231.4"/>
        <path class="cls-6" d="M263.68,307.16s-29.68,3.28-62.09,13.24c-32.41,9.96-41.11,5.64-49.82,3.45s18.99-4.61,40.35-7.75"/>
        <path class="cls-3" d="M497.13,308.73s22.39,70.77,33.75,109.49"/>
        <polygon class="cls-1" points="446.73 275.63 445.62 291.81 456.34 288.38 446.73 275.63"/>
        <polygon class="cls-12" points="411.58 457.53 378.96 500 368.99 500 405.31 452.71 411.58 457.53"/>
        <path class="cls-12" d="M540.2,486.88l-22.54-29.35,6.28-4.82,14.61,19.02h0c.63,4.99,1.2,10.11,1.65,15.15Z"/>
      </g>
      <g>
        <path class="cls-9" d="M459.75,104.38s19.09,5.91,11.34,33.79c-1.23,4.44,5.91,16.54-3.31,23.96-9.22,7.41-74.1,27.69-78.54,1.66,0,0-7.52-14.9-1.05-29.17,2.49-5.51,16.03-5.8,16.03-5.8,0,0,4.43-7.6,11.31-7.57,9.52,.03,21.35,.35,26.7-1.64,5.35-1.99,7.32-7.9,7.32-7.9,0,0,6.69,3.98,6.16,7.9,0,0,5.67-5.09,4.04-15.22Z"/>
        <path class="cls-14" d="M401.05,185.4l-2.46,23.14s10.28,16.49,37.31,24.8c7.12,2.19,10.84,0,12.11-1.41,0,0-2.22-15.37-2.44-27.54l-44.51-19Z"/>
        <path class="cls-9" d="M448,231.93s-42.37-13.43-32.8-32.45l30.35,7.15,2.44,25.29Z"/>
        <g>
          <path class="cls-14" d="M458.98,151.96c3.75,10.91,4.86,41.79,.91,49.29-5.88,11.17-18.45,10.77-24.14,9.91-5.69-.86-19.79-7.7-25.2-12.35s-13.45-24.68-14.25-32.02c0,0,10.16,.06,12.38-3.14,2.22-3.2-4.72-6.1-4.76-11.71s49.43-16.33,55.06,.02Z"/>
          <path class="cls-14" d="M402.92,166.09s-6.15-6.94-12-2.46c-4.63,3.55-2.71,15.5,1.11,19.82,6.21,7.02,13.07,2.66,13.76-3.41,.41-3.63-2.88-13.95-2.88-13.95Z"/>
          <path class="cls-12" d="M454.93,205.62c4.05-8.37,3.37-37.31-.23-49.78-.99-3.42,3.09-6.98,4.27-3.89,4.14,10.77,4.86,41.79,.91,49.29-1.72,3.27-4.01,5.54-6.54,7.1,.56-.83,1.09-1.73,1.57-2.73Z"/>
        </g>
        <g>
          <path class="cls-12" d="M400.56,190.51h0c-7.34,.35-13.58-5.32-13.92-12.66l-.65-13.72c-.35-7.34,5.32-13.58,12.66-13.92h0c2.35-.11,4.35,1.7,4.46,4.06l1.51,31.79c.11,2.35-1.7,4.35-4.06,4.46Z"/>
          <path class="cls-8" d="M395.33,150.21h0c2.35-.11,4.35,1.7,4.46,4.06l1.51,31.79c.11,2.35-1.7,4.35-4.06,4.46h0"/>
        </g>
        <g>
          <rect class="cls-9" x="395.8" y="151.41" width="55.23" height="34.52" rx="10.33" ry="10.33" transform="translate(854.61 316.37) rotate(177.19)"/>
          <rect class="cls-12" x="409.89" y="150.72" width="55.23" height="34.52" rx="10.33" ry="10.33" transform="translate(882.72 314.3) rotate(177.19)"/>
          <rect class="cls-9" x="420.25" y="150.21" width="55.23" height="34.52" rx="10.33" ry="10.33" transform="translate(903.42 312.77) rotate(177.19)"/>
          <path class="cls-12" d="M461.44,184.08c5.7-.28,10.1-5.13,9.82-10.83l-.68-13.84c-.28-5.7-5.13-10.1-10.83-9.82l4.54-.22c5.7-.28,10.55,4.11,10.83,9.82l.68,13.84c.28,5.7-4.11,10.55-9.82,10.83l-4.54,.22Z"/>
          <path class="cls-8" d="M419.39,151.59s-4.55,5.55-3.77,16.93c.89,13,5.46,17.55,5.46,17.55"/>
          <path class="cls-9" d="M416.44,158.32l1.81,1.39s-1.03,9.58,.53,17.4l-1.21,2.13s-3.61-10.78-1.13-20.92Z"/>
          <rect class="cls-17" x="404.76" y="166.23" width="2.01" height="6.62" rx=".63" ry=".63" transform="translate(819.38 318.94) rotate(177.19)"/>
        </g>
        <path class="cls-12" d="M415.53,121.24s8.79-.56,11.83,2.53c3.04,3.1,6.47,20.85,6.44,27l20.11-.88s-1.12-22.22-6.05-27.62c-6.31-6.93-23.28-3.56-32.34-1.03Z"/>
        <g>
          <rect class="cls-13" x="450.3" y="179.75" width="1.43" height="1.43" transform="translate(-7.41 19.74) rotate(-2.49)"/>
          <rect class="cls-13" x="443.64" y="180.04" width="1.43" height="1.43" transform="translate(-7.43 19.45) rotate(-2.49)"/>
          <rect class="cls-13" x="456.69" y="173.15" width="1.43" height="1.43" transform="translate(-7.11 20.01) rotate(-2.49)"/>
          <rect class="cls-13" x="450.03" y="173.43" width="1.43" height="1.43" transform="translate(-7.14 19.76) rotate(-2.49)"/>
          <rect class="cls-13" x="443.37" y="173.72" width="1.43" height="1.43" transform="translate(-7.15 19.44) rotate(-2.49)"/>
          <rect class="cls-13" x="436.71" y="174.01" width="1.43" height="1.43" transform="translate(-7.17 19.15) rotate(-2.49)"/>
          <rect class="cls-13" x="463.08" y="166.54" width="1.43" height="1.43" transform="translate(-6.82 20.29) rotate(-2.49)"/>
          <rect class="cls-13" x="456.42" y="166.83" width="1.43" height="1.43" transform="translate(-6.85 20.03) rotate(-2.49)"/>
          <rect class="cls-13" x="449.75" y="167.12" width="1.43" height="1.43" transform="translate(-6.86 19.71) rotate(-2.49)"/>
          <rect class="cls-13" x="443.09" y="167.41" width="1.43" height="1.43" transform="translate(-6.88 19.42) rotate(-2.49)"/>
          <rect class="cls-13" x="436.43" y="167.7" width="1.43" height="1.43" transform="translate(-6.9 19.13) rotate(-2.49)"/>
          <rect class="cls-13" x="429.77" y="167.99" width="1.43" height="1.43" transform="translate(-6.92 18.84) rotate(-2.49)"/>
          <rect class="cls-13" x="456.14" y="160.51" width="1.43" height="1.43" transform="translate(-6.57 19.98) rotate(-2.49)"/>
          <rect class="cls-13" x="449.48" y="160.8" width="1.43" height="1.43" transform="translate(-6.6 19.72) rotate(-2.49)"/>
          <rect class="cls-13" x="442.82" y="161.09" width="1.43" height="1.43" transform="translate(-6.6 19.4) rotate(-2.49)"/>
          <rect class="cls-13" x="436.16" y="161.38" width="1.43" height="1.43" transform="translate(-6.62 19.11) rotate(-2.49)"/>
          <rect class="cls-13" x="449.21" y="154.49" width="1.43" height="1.43" transform="translate(-6.31 19.67) rotate(-2.49)"/>
          <rect class="cls-13" x="442.54" y="154.78" width="1.43" height="1.43" transform="translate(-6.34 19.41) rotate(-2.49)"/>
        </g>
      </g>
      <g>
        <path class="cls-14" d="M417.76,325.58c-2.43,3.77-18.99,1.53-22.7-.48-3.72-2.02-16.52,14.76-39.83,12.91,0,0-13.14,5.52-23.97,9.66-4.68,1.79-8.92,3.33-11.49,4.05-5.12,1.44-14.27-21.87-16.09-46.15l4.8-2.14,25.11-11.21s.58-8.89,8.22-16.96c4.31-4.56,9.46-22.94,14.17-25.77,4.7-2.83,2.24,20.01,2.24,20.01,0,0,15.08-27.85,19.86-27.28,4.66,.56-3.46,25.54-3.86,26.76,.69-1.29,14.26-26.78,23.16-26.2,5.96,.38-10.53,29.43-10.92,30.12,.58-.59,20.54-20.89,26.87-17.54,6.95,3.66-23.39,38.05-24.14,44.56-.74,6.52,8.79,13.22,15.73,13.9,6.93,.68,15.27,7.98,12.84,11.76Z"/>
        <path class="cls-11" d="M331.26,347.67c-4.68,1.79-8.92,3.33-11.49,4.05-5.12,1.44-14.27-21.87-16.09-46.15l4.8-2.14c3.55,7.76,14.07,30.36,22.78,44.24Z"/>
        <path class="cls-8" d="M354.89,269.85s25.33-5.78,37.09,7.54"/>
      </g>
    </g>
    <g>
      <g>
        <polyline class="cls-2" points="281.34 355.12 272.77 346.55 355.59 201.39 368.47 201.39"/>
        <polyline class="cls-2" points="468.66 355.12 477.23 346.55 394.41 201.39 381.53 201.39"/>
        <polyline class="cls-2" points="287.85 361.68 293.43 367.25 456.42 367.25 463.95 359.72"/>
        <polygon class="cls-17" points="302 295.32 321.33 261.43 331 261.43 311.66 295.32 302 295.32"/>
        <polygon class="cls-17" points="447.9 295.32 428.57 261.43 418.9 261.43 438.23 295.32 447.9 295.32"/>
        <polygon class="cls-17" points="361.21 367.25 366.85 361.62 409.3 361.62 403.72 367.19 361.21 367.25"/>
      </g>
      <polygon class="cls-6" points="375 271.23 418.3 271.23 396.65 308.73 375 346.23 353.35 308.73 331.7 271.23 375 271.23"/>
    </g>
    <g>
      <rect class="cls-13" x="653.08" y="231.3" width="6.67" height="6.67" transform="translate(26.27 -63.45) rotate(5.65)"/>
      <rect class="cls-13" x="667.12" y="232.69" width="6.67" height="6.67" transform="translate(26.48 -64.83) rotate(5.65)"/>
    </g>
    <g>
      <polygon class="cls-12" points="325.05 171.41 332.33 171.41 328.69 176.46 325.05 181.51 321.4 176.46 317.76 171.41 325.05 171.41"/>
      <polygon class="cls-17" points="325.05 186.66 332.33 186.66 328.69 191.71 325.05 196.76 321.4 191.71 317.76 186.66 325.05 186.66"/>
    </g>
    <g>
      <line class="cls-6" x1="101.34" y1="463" x2="315.89" y2="463"/>
      <polygon class="cls-12" points="106.87 474.33 90.13 474.33 101.47 451.66 118.21 451.66 106.87 474.33"/>
    </g>
    <g>
      <rect class="cls-6" x="79.14" y="220.68" width="591.72" height="188.46" transform="translate(33.1 -35.65) rotate(5.69)"/>
      <g>
        <g>
          <circle class="cls-4" cx="593.37" cy="242.06" r="24.44" transform="translate(-32.16 102.82) rotate(-9.64)"/>
          <line class="cls-5" x1="620.8" y1="215.21" x2="565.94" y2="268.92"/>
        </g>
        <g>
          <circle class="cls-4" cx="506.32" cy="233.38" r="24.44" transform="translate(-48.95 183.39) rotate(-19.6)"/>
          <line class="cls-5" x1="533.75" y1="206.52" x2="478.89" y2="260.24"/>
        </g>
      </g>
    </g>
    <g>
      <g>
        <polygon class="cls-17" points="647.23 385.97 626.17 385.97 674.27 342.9 695.33 342.9 647.23 385.97"/>
        <polygon class="cls-17" points="607.63 385.97 591.83 385.97 623.6 357.25 639.39 357.25 607.63 385.97"/>
      </g>
      <g>
        <polygon class="cls-12" points="27.1 285.4 51.91 260.59 65.68 260.59 40.96 285.31 27.1 285.4"/>
        <polygon class="cls-12" points="18.49 271.89 29.8 260.59 36.07 260.59 24.81 271.85 18.49 271.89"/>
      </g>
    </g>
    <g>
      <rect class="cls-12" x="38.72" y="32.59" width="7.36" height="7.36"/>
      <rect class="cls-12" x="50.06" y="21.25" width="7.36" height="7.36"/>
    </g>
    <g>
      <rect class="cls-17" x="83.86" y="347.68" width="23.94" height="6.3"/>
      <rect class="cls-17" x="83.86" y="362.87" width="11.97" height="6.3"/>
    </g>
  </g>
</svg>