<?xml version="1.0" encoding="UTF-8"?>
<svg id="Layer_2" data-name="Layer 2" xmlns="http://www.w3.org/2000/svg" viewBox="0 0 500 500">
  <defs>
    <style>
      .cls-1 {
        stroke-width: 6px;
      }

      .cls-1, .cls-2, .cls-3, .cls-4, .cls-5, .cls-6, .cls-7 {
        fill: none;
        stroke-miterlimit: 10;
      }

      .cls-1, .cls-3, .cls-6 {
        stroke: #c1ff44;
      }

      .cls-8 {
        fill: #00152c;
      }

      .cls-9 {
        fill: #ee17e4;
      }

      .cls-10 {
        fill: #ef656d;
      }

      .cls-11 {
        fill: #fff;
      }

      .cls-12 {
        fill: #fe2b99;
      }

      .cls-13 {
        fill: #ff9199;
      }

      .cls-14 {
        fill: #820bb7;
      }

      .cls-15 {
        fill: #750cff;
      }

      .cls-16 {
        fill: #c1ff44;
      }

      .cls-17 {
        fill: #115ae5;
      }

      .cls-18 {
        fill: #0a96ff;
      }

      .cls-2 {
        stroke: #1e2c2c;
      }

      .cls-4 {
        stroke: #ee17e4;
      }

      .cls-5, .cls-7 {
        stroke: #fff;
      }

      .cls-6, .cls-7 {
        stroke-width: .5px;
      }
    </style>
  </defs>
  <g id="BACKGROUND">
    <rect class="cls-14" width="500" height="500"/>
  </g>
  <g id="OBJECT">
    <g>
      <polygon class="cls-9" points="249.99 69.46 115.62 69.46 115.62 377.3 250.39 377.3 249.99 69.46"/>
      <g>
        <polygon class="cls-14" points="115.62 290.03 115.62 291.52 223.83 291.66 225.46 290.03 115.62 290.03"/>
        <polygon class="cls-14" points="115.62 291.52 115.62 286.81 137.03 286.81 132.42 291.42 115.62 291.52"/>
      </g>
      <g>
        <g>
          <rect class="cls-15" x="128.53" y="73.33" width="4.89" height="4.89" transform="translate(206.76 -55.2) rotate(90)"/>
          <rect class="cls-15" x="121" y="80.87" width="4.89" height="4.89" transform="translate(206.76 -40.13) rotate(90)"/>
        </g>
        <g>
          <rect class="cls-15" x="231.09" y="73.33" width="4.89" height="4.89" transform="translate(309.32 -157.76) rotate(90)"/>
          <rect class="cls-15" x="238.63" y="80.87" width="4.89" height="4.89" transform="translate(324.39 -157.76) rotate(90)"/>
        </g>
        <g>
          <rect class="cls-15" x="128.53" y="220.01" width="4.89" height="4.89" transform="translate(-91.47 353.44) rotate(-90)"/>
          <rect class="cls-15" x="121" y="212.47" width="4.89" height="4.89" transform="translate(-91.47 338.36) rotate(-90)"/>
        </g>
      </g>
    </g>
    <g>
      <polygon class="cls-15" points="42.16 204.79 42.16 223.44 145.3 326.58 145.1 358.57 42.16 255.63 19.65 233.11 19.65 182.3 42.16 182.3 145.1 182.3 122.61 204.79 42.16 204.79"/>
      <polygon class="cls-15" points="137.02 204.79 159.51 182.3 188.32 182.3 165.83 204.79 137.02 204.79"/>
    </g>
    <rect class="cls-5" x="85.64" y="244.87" width="150.43" height="170.96"/>
    <g>
      <polyline class="cls-5" points="38.03 103.55 94.07 103.55 117.62 127.11 236.07 127.11"/>
      <rect class="cls-11" x="30.46" y="100.44" width="12.79" height="6.22"/>
      <rect class="cls-11" x="19.65" y="100.44" width="3.28" height="6.22"/>
      <rect class="cls-11" x="52.89" y="100.44" width="8.6" height="6.22"/>
    </g>
    <g>
      <polygon class="cls-3" points="306.69 127.61 249.91 127.85 249.91 77.68 306.69 77.43 306.69 127.61"/>
      <polygon class="cls-3" points="363.46 127.37 306.69 127.61 306.69 77.43 363.46 77.19 363.46 127.37"/>
      <polygon class="cls-3" points="420.24 127.13 363.46 127.37 363.46 77.19 420.24 76.95 420.24 127.13"/>
      <polygon class="cls-3" points="477.01 126.88 420.24 127.13 420.24 76.95 477.01 76.71 477.01 126.88"/>
      <polygon class="cls-3" points="306.69 177.79 249.91 178.03 249.91 127.85 306.69 127.61 306.69 177.79"/>
      <polygon class="cls-3" points="363.46 177.55 306.69 177.79 306.69 127.61 363.46 127.37 363.46 177.55"/>
      <polygon class="cls-3" points="420.24 177.3 363.46 177.55 363.46 127.37 420.24 127.13 420.24 177.3"/>
      <polygon class="cls-3" points="477.01 177.06 420.24 177.3 420.24 127.13 477.01 126.88 477.01 177.06"/>
      <polygon class="cls-3" points="306.69 227.97 249.91 228.21 249.91 178.03 306.69 177.79 306.69 227.97"/>
      <polygon class="cls-3" points="363.46 227.72 306.69 227.97 306.69 177.79 363.46 177.55 363.46 227.72"/>
      <polygon class="cls-3" points="420.24 227.48 363.46 227.72 363.46 177.55 420.24 177.3 420.24 227.48"/>
      <polygon class="cls-3" points="477.01 227.24 420.24 227.48 420.24 177.3 477.01 177.06 477.01 227.24"/>
      <polygon class="cls-3" points="306.69 278.14 249.91 278.39 249.91 228.21 306.69 227.97 306.69 278.14"/>
      <polygon class="cls-3" points="363.46 277.9 306.69 278.14 306.69 227.97 363.46 227.72 363.46 277.9"/>
      <polygon class="cls-3" points="420.24 277.66 363.46 277.9 363.46 227.72 420.24 227.48 420.24 277.66"/>
      <polygon class="cls-3" points="477.01 277.42 420.24 277.66 420.24 227.48 477.01 227.24 477.01 277.42"/>
      <polygon class="cls-3" points="306.69 328.32 249.91 328.56 249.91 278.39 306.69 278.14 306.69 328.32"/>
      <polygon class="cls-3" points="363.46 328.08 306.69 328.32 306.69 278.14 363.46 277.9 363.46 328.08"/>
      <polygon class="cls-3" points="420.24 327.83 363.46 328.08 363.46 277.9 420.24 277.66 420.24 327.83"/>
      <polygon class="cls-3" points="477.01 327.59 420.24 327.83 420.24 277.66 477.01 277.42 477.01 327.59"/>
      <polygon class="cls-3" points="306.69 378.5 249.91 378.74 249.91 328.56 306.69 328.32 306.69 378.5"/>
      <polygon class="cls-3" points="363.46 378.25 306.69 378.5 306.69 328.32 363.46 328.08 363.46 378.25"/>
      <polygon class="cls-3" points="420.24 378.01 363.46 378.25 363.46 328.08 420.24 327.83 420.24 378.01"/>
      <polygon class="cls-3" points="477.01 377.77 420.24 378.01 420.24 327.83 477.01 327.59 477.01 377.77"/>
      <polygon class="cls-3" points="306.69 428.67 249.91 428.92 249.91 378.74 306.69 378.5 306.69 428.67"/>
      <polygon class="cls-3" points="363.46 428.43 306.69 428.67 306.69 378.5 363.46 378.25 363.46 428.43"/>
      <polygon class="cls-3" points="420.24 428.19 363.46 428.43 363.46 378.25 420.24 378.01 420.24 428.19"/>
      <polygon class="cls-3" points="477.01 427.95 420.24 428.19 420.24 378.01 477.01 377.77 477.01 427.95"/>
    </g>
    <rect class="cls-11" x="244.65" y="192.16" width="5.74" height="4.56"/>
    <g>
      <polygon class="cls-12" points="339.55 321.95 339.55 330.89 350.78 330.89 350.78 342.23 366.95 342.23 366.95 356.43 382.67 356.43 382.67 372.71 396.6 372.71 396.6 389.91 414.57 389.91 414.57 401.57 430.29 401.57 430.29 418.31 440.62 418.31 440.62 430.48 447.81 430.48 447.81 448.48 250.39 448.48 250.39 321.95 339.55 321.95"/>
      <polygon class="cls-11" points="327.72 308.22 327.72 316.37 335.84 316.37 335.84 335.13 322.76 335.13 322.76 347.81 313.02 347.81 313.02 369.62 298.82 369.62 298.82 388.38 284.68 388.38 284.68 400.05 269.4 400.05 269.4 410.19 262.03 410.19 262.03 418.31 250.38 418.31 250.38 308.22 327.72 308.22"/>
      <polygon class="cls-13" points="290.15 265.78 290.15 296.94 322.76 319.41 250.31 396 249.77 265.78 290.15 265.78"/>
      <polygon class="cls-10" points="290.15 265.78 290.15 296.94 276 296.94 276 292.53 270.29 292.53 270.29 265.91 290.15 265.78"/>
      <rect class="cls-13" x="306.51" y="178.38" width="21.21" height="40.72"/>
      <polygon class="cls-8" points="250.31 103.55 300.19 103.55 300.19 118.02 309.22 118.02 309.22 124.96 320.95 124.96 320.95 143.31 331.78 143.31 331.78 178.38 319.6 178.38 319.6 206.57 306.51 206.57 306.51 145.98 293.42 145.98 293.42 131.91 249.76 131.91 250.31 103.55"/>
      <polygon class="cls-13" points="249.76 131.91 293.42 131.91 293.42 145.98 306.51 145.98 306.51 247.8 290.15 265.78 249.77 265.78 249.76 131.91"/>
      <polygon class="cls-8" points="249.76 231.67 274.29 231.67 274.29 239.79 282.91 239.79 282.91 245.87 306.51 245.87 306.51 206.57 319.6 206.57 319.6 253.99 311.5 253.99 311.5 262.61 306.51 262.61 306.51 273.77 298.82 273.77 298.82 280 278.14 280 278.14 287.97 249.9 287.97 249.76 231.67"/>
      <polygon class="cls-13" points="249.79 243.84 263.83 243.84 263.83 249.93 274.29 249.93 274.29 265.78 249.77 265.78 249.79 243.84"/>
      <polygon class="cls-8" points="249.76 174.45 298.82 174.45 298.82 202.84 291.97 202.84 291.97 212.65 260.02 212.65 260.02 200.6 255.23 200.6 255.23 187.93 249.76 187.93 249.76 174.45"/>
      <g>
        <rect class="cls-11" x="278.14" y="197.69" width="4.78" height="4.78"/>
        <rect class="cls-11" x="284.84" y="190.98" width="4.78" height="4.78"/>
      </g>
      <g>
        <rect class="cls-16" x="327.72" y="422.81" width="6.09" height="25.67"/>
        <rect class="cls-16" x="344.27" y="406.26" width="6.09" height="27.01" transform="translate(767.08 72.45) rotate(90)"/>
        <rect class="cls-16" x="360.81" y="422.81" width="6.09" height="25.67"/>
      </g>
    </g>
    <g>
      <g>
        <path class="cls-18" d="M212.95,296.94s-27.48,10.04-32.42,13.08c-4.94,3.04-9,11.41-9,11.41,0,0-40.07,13.69-63.65,26.63-14.99,8.22-55.53,100.42-55.53,100.42H250.39v-151.54h-37.44Z"/>
        <path class="cls-17" d="M144.64,396c-.71-8.12-6.83-13.72-6.83-13.72-11.14,13.67-36.79,66.21-36.79,66.21h40.32c3.43-15.21,4.01-44.36,3.3-52.48Z"/>
        <path class="cls-2" d="M120.81,364.8s21.05,16.75,23.84,31.2c2.79,14.45-3.3,52.48-3.3,52.48"/>
      </g>
      <g>
        <path class="cls-13" d="M250.38,396c-16.48-24.35-58.48-77.11-58.48-77.11,0,0,13.81-9.48,19.08-16.44,5.25-6.96,2.61-44.9,2.61-44.9h36.17l.61,138.45Z"/>
        <path class="cls-8" d="M249.77,265.91c-7.48,32.21-38.79,36.54-38.79,36.54,5.25-6.96,2.61-44.9,2.61-44.9l36.17,8.36Z"/>
      </g>
      <g>
        <path class="cls-8" d="M250.38,103.55v96.86c-1.1,.54-1.73,.81-1.73,.81,0,0-46.04-23.56-62.42-31.92-14.71-7.52-32.44-12.17-32.83-34.33s13.42-28.67,29-28.67,18.31-22.15,36.54-20.84c18.23,1.29,30.83,19.21,30.83,19.21,0,0,.21-.42,.61-1.12Z"/>
        <g>
          <path class="cls-13" d="M249.76,131.91s-50.35-.97-59.36,11.65c-9.01,12.62-12.39,47.58-7.89,70.88,4.51,23.3,21.41,51.46,67.25,51.46V131.91Z"/>
          <path class="cls-11" d="M188.86,211.29c-5.08-24.73-1.27-61.83,8.88-75.23,.2-.26,.44-.51,.67-.75-3.6,1.48-6.44,3.3-8.01,5.55-9.01,12.9-12.39,48.63-7.89,72.45,4.51,23.82,21.41,52.6,67.25,52.6v-.92c-40.53-5.16-56.35-31.5-60.91-53.7Z"/>
        </g>
        <path class="cls-8" d="M236.07,128.31s-15.28-46.33-48.75-19.09c-20.19,16.44-25.44,48.49-42.68,52.55,0,0,26.13,35.05,54.48,12.67,27.67-21.85,11.51-42.7,11.51-42.7,0,0,7.54-17.16,25.43-3.44Z"/>
        <path class="cls-7" d="M217.89,119.68s-7.37-3.95-9.14,.34c-1.77,4.28-.13,7.88,1.63,11.88"/>
      </g>
      <g>
        <path class="cls-11" d="M249.76,150.53s-51.3,.65-64.91,4.53c-13.61,3.88-19.54,11.64-20.59,21.66-1.05,10.02-.35,41.06,10.12,47.85,10.47,6.79,41.18,7.11,75.37,7.11v-81.14Z"/>
        <path class="cls-8" d="M249.76,157.72s-46.75,.53-59.15,3.72c-12.4,3.19-17.81,9.58-18.76,17.82-.95,8.25-.32,33.78,9.22,39.37,9.54,5.59,37.53,5.85,68.69,5.85v-66.76Z"/>
        <path class="cls-6" d="M249.76,163.11s-42.98,.45-54.38,3.12-16.37,8.03-17.25,14.95c-.88,6.92-.29,28.33,8.48,33.01,8.77,4.68,34.5,4.91,63.15,4.91"/>
        <g>
          <rect class="cls-12" x="206.77" y="174.45" width="28.93" height="7.85"/>
          <rect class="cls-12" x="191.9" y="190.52" width="14.47" height="7.85"/>
          <rect class="cls-12" x="204.85" y="194.99" width="8.95" height="7.85"/>
        </g>
        <rect class="cls-11" x="224.65" y="192.16" width="15.59" height="4.56"/>
        <rect class="cls-16" x="229.34" y="206.57" width="15.94" height="6.09"/>
      </g>
    </g>
    <g>
      <polygon class="cls-9" points="389.81 213.59 407.82 195.58 407.82 257.44 389.81 257.44 389.81 213.59"/>
      <polygon class="cls-9" points="433.66 257.44 451.67 239.43 389.81 239.43 389.81 257.44 433.66 257.44"/>
      <rect class="cls-9" x="392.5" y="214.82" width="61.86" height="18.01" transform="translate(-34.25 364.97) rotate(-45)"/>
    </g>
    <g>
      <circle class="cls-5" cx="363.94" cy="126.41" r="18.9" transform="translate(-17.38 181.42) rotate(-27.36)"/>
      <line class="cls-4" x1="385.14" y1="105.65" x2="342.73" y2="147.18"/>
    </g>
    <g>
      <circle class="cls-5" cx="363.94" cy="177.56" r="18.9" transform="translate(155.03 524.45) rotate(-84.95)"/>
      <line class="cls-4" x1="385.14" y1="156.79" x2="342.73" y2="198.32"/>
    </g>
    <g>
      <polygon class="cls-9" points="19.65 19.32 68.68 19.32 68.68 29.7 30.02 69.46 19.65 69.46 19.65 19.32"/>
      <polygon class="cls-5" points="29.49 29.17 49.51 29.17 29.71 48.96 29.49 29.17"/>
    </g>
    <g>
      <rect class="cls-8" x="437.18" y="344.6" width="24.47" height="6.44"/>
      <rect class="cls-8" x="449.42" y="360.13" width="12.24" height="6.44"/>
    </g>
    <g>
      <polyline class="cls-5" points="190.6 321.95 200.86 321.95 240.24 426.95 229.98 426.95"/>
      <polyline class="cls-5" points="29.73 321.95 19.46 321.95 58.84 426.95 69.1 426.95"/>
      <ellipse class="cls-1" cx="165.89" cy="385.46" rx="22.25" ry="32.31" transform="translate(-236.67 266.95) rotate(-50.31)"/>
      <polyline class="cls-3" points="144.82 361.54 116.51 340.94 86.41 340.94"/>
      <polygon class="cls-16" points="66.61 344.41 91.81 344.41 89.21 337.47 64.01 337.47 66.61 344.41"/>
      <g>
        <polygon class="cls-12" points="84.66 391.98 109.44 391.98 106.99 385.46 82.22 385.46 84.66 391.98"/>
        <polygon class="cls-12" points="90.56 407.7 102.94 407.7 100.5 401.18 88.11 401.18 90.56 407.7"/>
      </g>
      <polygon class="cls-4" points="162.67 333.82 154.45 333.82 161.23 340.94 168.01 348.06 169.45 340.94 170.89 333.82 162.67 333.82"/>
      <g>
        <polygon class="cls-9" points="121.04 374.21 120.82 372.17 52.77 355.66 52.99 357.7 121.04 374.21"/>
        <polygon class="cls-9" points="59.7 374.16 58.39 372.12 114.12 355.71 115.42 357.75 59.7 374.16"/>
      </g>
    </g>
    <g>
      <polygon class="cls-8" points="74.2 265.57 74.2 229.6 133.48 229.6 133.48 250.88 118.79 265.57 74.2 265.57"/>
      <polygon class="cls-3" points="98.58 260.25 98.58 234.92 124.72 234.92 124.72 249.91 114.37 260.25 98.58 260.25"/>
      <rect class="cls-11" x="82.31" y="241.53" width="3.34" height="3.34"/>
      <rect class="cls-11" x="82.31" y="251.24" width="3.34" height="3.34"/>
    </g>
    <g>
      <rect class="cls-16" x="50.6" y="134.25" width="36.17" height="16.11"/>
      <rect class="cls-11" x="50.6" y="158.75" width="18.09" height="8.06"/>
      <rect class="cls-11" x="163.11" y="257.84" width="16.87" height="1.66"/>
      <rect class="cls-11" x="169.37" y="268.24" width="23.19" height="9.79"/>
    </g>
    <g>
      <polygon class="cls-11" points="379.66 305.35 371 305.35 375.51 296.69 384.17 296.69 379.66 305.35"/>
      <polygon class="cls-11" points="465.96 305.35 400.04 305.35 404.56 296.69 470.48 296.69 465.96 305.35"/>
      <line class="cls-5" x1="424.77" y1="301.02" x2="377.59" y2="301.02"/>
    </g>
    <g>
      <polygon class="cls-9" points="286.29 59.64 264.01 59.64 262.25 63 284.54 63 286.29 59.64"/>
      <polygon class="cls-9" points="299.9 59.64 294.43 59.64 292.67 63 298.14 63 299.9 59.64"/>
    </g>
    <g>
      <rect class="cls-16" x="430.58" y="156.16" width="25.64" height="8.29" transform="translate(886.8 320.6) rotate(180)"/>
      <line class="cls-3" x1="443.4" y1="160.3" x2="414.31" y2="160.3"/>
    </g>
    <g>
      <rect class="cls-16" x="430.58" y="138.8" width="25.64" height="8.29" transform="translate(886.8 285.89) rotate(180)"/>
      <line class="cls-3" x1="443.4" y1="142.94" x2="414.31" y2="142.94"/>
    </g>
    <g>
      <line class="cls-3" x1="249.76" y1="55.18" x2="249.76" y2="480.69"/>
      <rect class="cls-16" x="244.3" y="19.32" width="10.94" height="40.32"/>
    </g>
  </g>
</svg>